<svg width="160" height="42" viewBox="0 0 160 42" fill="none" xmlns="http://www.w3.org/2000/svg">
<path d="M25.992 26.16C25.064 26.16 24.2853 26.016 23.656 25.728C23.0267 25.44 22.5413 25.072 22.2 24.624C21.8693 24.1653 21.6933 23.6853 21.672 23.184C21.672 23.0987 21.704 23.024 21.768 22.96C21.8427 22.8853 21.928 22.848 22.024 22.848H22.84C22.968 22.848 23.064 22.88 23.128 22.944C23.192 23.008 23.2347 23.0827 23.256 23.168C23.32 23.424 23.4533 23.68 23.656 23.936C23.8587 24.1813 24.1467 24.3893 24.52 24.56C24.904 24.72 25.3947 24.8 25.992 24.8C26.9093 24.8 27.5813 24.64 28.008 24.32C28.4453 23.9893 28.664 23.552 28.664 23.008C28.664 22.6347 28.5467 22.336 28.312 22.112C28.088 21.8773 27.7413 21.6693 27.272 21.488C26.8027 21.3067 26.1947 21.1093 25.448 20.896C24.6693 20.672 24.024 20.4267 23.512 20.16C23 19.8933 22.616 19.5627 22.36 19.168C22.1147 18.7733 21.992 18.272 21.992 17.664C21.992 17.088 22.1467 16.576 22.456 16.128C22.7653 15.6693 23.2133 15.3067 23.8 15.04C24.3867 14.7733 25.0907 14.64 25.912 14.64C26.5733 14.64 27.1493 14.7307 27.64 14.912C28.1413 15.0827 28.5573 15.3173 28.888 15.616C29.2187 15.904 29.4693 16.2187 29.64 16.56C29.8107 16.8907 29.9013 17.216 29.912 17.536C29.912 17.6107 29.8853 17.6853 29.832 17.76C29.7787 17.824 29.6933 17.856 29.576 17.856H28.728C28.6533 17.856 28.5733 17.8347 28.488 17.792C28.4133 17.7493 28.3547 17.6693 28.312 17.552C28.248 17.1147 28.0027 16.7467 27.576 16.448C27.1493 16.1493 26.5947 16 25.912 16C25.2187 16 24.6533 16.1333 24.216 16.4C23.7893 16.6667 23.576 17.0827 23.576 17.648C23.576 18.0107 23.6773 18.3147 23.88 18.56C24.0827 18.7947 24.4027 19.0027 24.84 19.184C25.2773 19.3653 25.848 19.5573 26.552 19.76C27.4053 19.9947 28.104 20.2453 28.648 20.512C29.192 20.768 29.592 21.0933 29.848 21.488C30.1147 21.872 30.248 22.368 30.248 22.976C30.248 23.648 30.072 24.224 29.72 24.704C29.368 25.1733 28.872 25.536 28.232 25.792C27.6027 26.0373 26.856 26.16 25.992 26.16ZM32.7131 26C32.5958 26 32.5051 25.968 32.4411 25.904C32.3771 25.8293 32.3451 25.7387 32.3451 25.632V15.184C32.3451 15.0667 32.3771 14.976 32.4411 14.912C32.5051 14.8373 32.5958 14.8 32.7131 14.8H39.3211C39.4385 14.8 39.5291 14.8373 39.5931 14.912C39.6571 14.976 39.6891 15.0667 39.6891 15.184V15.792C39.6891 15.9093 39.6571 16 39.5931 16.064C39.5291 16.128 39.4385 16.16 39.3211 16.16H33.8811V19.664H38.9691C39.0865 19.664 39.1771 19.7013 39.2411 19.776C39.3051 19.84 39.3371 19.9307 39.3371 20.048V20.64C39.3371 20.7467 39.3051 20.8373 39.2411 20.912C39.1771 20.976 39.0865 21.008 38.9691 21.008H33.8811V24.64H39.4491C39.5665 24.64 39.6571 24.672 39.7211 24.736C39.7851 24.8 39.8171 24.8907 39.8171 25.008V25.632C39.8171 25.7387 39.7851 25.8293 39.7211 25.904C39.6571 25.968 39.5665 26 39.4491 26H32.7131ZM42.4163 26C42.2989 26 42.2083 25.968 42.1443 25.904C42.0803 25.8293 42.0483 25.7387 42.0483 25.632V15.184C42.0483 15.0667 42.0803 14.976 42.1443 14.912C42.2083 14.8373 42.2989 14.8 42.4163 14.8H43.1523C43.2803 14.8 43.3763 14.832 43.4403 14.896C43.5043 14.9493 43.5416 14.992 43.5523 15.024L48.8643 23.184V15.184C48.8643 15.0667 48.8963 14.976 48.9603 14.912C49.0243 14.8373 49.1149 14.8 49.2323 14.8H50.0003C50.1176 14.8 50.2083 14.8373 50.2723 14.912C50.3469 14.976 50.3843 15.0667 50.3843 15.184V25.616C50.3843 25.7227 50.3469 25.8133 50.2723 25.888C50.2083 25.9627 50.1229 26 50.0163 26H49.2483C49.1309 26 49.0403 25.968 48.9763 25.904C48.9229 25.84 48.8856 25.7973 48.8643 25.776L43.5683 17.696V25.632C43.5683 25.7387 43.5309 25.8293 43.4563 25.904C43.3923 25.968 43.3016 26 43.1843 26H42.4163ZM53.5413 26C53.4239 26 53.3333 25.968 53.2693 25.904C53.2053 25.8293 53.1733 25.7387 53.1733 25.632V15.184C53.1733 15.0667 53.2053 14.976 53.2693 14.912C53.3333 14.8373 53.4239 14.8 53.5413 14.8H57.1733C58.2719 14.8 59.1573 14.9653 59.8293 15.296C60.5013 15.6267 60.9919 16.1173 61.3013 16.768C61.6106 17.408 61.7706 18.1973 61.7812 19.136C61.7919 19.616 61.7973 20.0373 61.7973 20.4C61.7973 20.7627 61.7919 21.1787 61.7812 21.648C61.7599 22.6293 61.5946 23.4453 61.2853 24.096C60.9866 24.736 60.5066 25.216 59.8453 25.536C59.1946 25.8453 58.3306 26 57.2533 26H53.5413ZM54.7413 24.64H57.1733C57.9093 24.64 58.4959 24.5387 58.9333 24.336C59.3706 24.1333 59.6853 23.808 59.8773 23.36C60.0799 22.912 60.1866 22.32 60.1973 21.584C60.2186 21.264 60.2292 20.9867 60.2292 20.752C60.2292 20.5067 60.2292 20.2667 60.2292 20.032C60.2292 19.7867 60.2186 19.5093 60.1973 19.2C60.1759 18.1653 59.9306 17.4027 59.4613 16.912C58.9919 16.4107 58.2026 16.16 57.0933 16.16H54.7413V24.64ZM66.9525 26C66.8672 26 66.7925 25.968 66.7285 25.904C66.6645 25.84 66.6325 25.7653 66.6325 25.68C66.6325 25.6267 66.6378 25.568 66.6485 25.504L70.6165 15.152C70.6592 15.0453 70.7178 14.96 70.7925 14.896C70.8672 14.832 70.9792 14.8 71.1285 14.8H72.2165C72.3658 14.8 72.4778 14.832 72.5525 14.896C72.6272 14.96 72.6858 15.0453 72.7285 15.152L76.6805 25.504C76.7018 25.568 76.7125 25.6267 76.7125 25.68C76.7125 25.7653 76.6805 25.84 76.6165 25.904C76.5525 25.968 76.4778 26 76.3925 26H75.5765C75.4485 26 75.3525 25.968 75.2885 25.904C75.2352 25.84 75.1978 25.7813 75.1765 25.728L74.2965 23.456H69.0485L68.1685 25.728C68.1578 25.7813 68.1205 25.84 68.0565 25.904C67.9925 25.968 67.8965 26 67.7685 26H66.9525ZM69.5125 22.08H73.8325L71.6725 16.4L69.5125 22.08ZM78.7913 26C78.6739 26 78.5833 25.968 78.5193 25.904C78.4553 25.8293 78.4233 25.7387 78.4233 25.632V15.184C78.4233 15.0667 78.4553 14.976 78.5193 14.912C78.5833 14.8373 78.6739 14.8 78.7913 14.8H79.5273C79.6553 14.8 79.7513 14.832 79.8153 14.896C79.8793 14.9493 79.9166 14.992 79.9273 15.024L85.2393 23.184V15.184C85.2393 15.0667 85.2713 14.976 85.3353 14.912C85.3993 14.8373 85.4899 14.8 85.6073 14.8H86.3753C86.4926 14.8 86.5833 14.8373 86.6473 14.912C86.7219 14.976 86.7593 15.0667 86.7593 15.184V25.616C86.7593 25.7227 86.7219 25.8133 86.6473 25.888C86.5833 25.9627 86.4979 26 86.3913 26H85.6233C85.5059 26 85.4153 25.968 85.3513 25.904C85.2979 25.84 85.2606 25.7973 85.2393 25.776L79.9433 17.696V25.632C79.9433 25.7387 79.9059 25.8293 79.8313 25.904C79.7673 25.968 79.6766 26 79.5593 26H78.7913ZM93.8381 26C93.7208 26 93.6301 25.968 93.5661 25.904C93.5021 25.8293 93.4701 25.7387 93.4701 25.632V15.184C93.4701 15.0667 93.5021 14.976 93.5661 14.912C93.6301 14.8373 93.7208 14.8 93.8381 14.8H100.446C100.563 14.8 100.654 14.8373 100.718 14.912C100.782 14.976 100.814 15.0667 100.814 15.184V15.792C100.814 15.9093 100.782 16 100.718 16.064C100.654 16.128 100.563 16.16 100.446 16.16H95.0061V19.664H100.094C100.211 19.664 100.302 19.7013 100.366 19.776C100.43 19.84 100.462 19.9307 100.462 20.048V20.64C100.462 20.7467 100.43 20.8373 100.366 20.912C100.302 20.976 100.211 21.008 100.094 21.008H95.0061V24.64H100.574C100.691 24.64 100.782 24.672 100.846 24.736C100.91 24.8 100.942 24.8907 100.942 25.008V25.632C100.942 25.7387 100.91 25.8293 100.846 25.904C100.782 25.968 100.691 26 100.574 26H93.8381ZM103.541 26C103.435 26 103.344 25.968 103.269 25.904C103.205 25.8293 103.173 25.7387 103.173 25.632V15.184C103.173 15.0667 103.205 14.976 103.269 14.912C103.344 14.8373 103.435 14.8 103.541 14.8H104.341C104.469 14.8 104.565 14.832 104.629 14.896C104.693 14.96 104.736 15.0133 104.757 15.056L108.133 21.52L111.541 15.056C111.563 15.0133 111.6 14.96 111.653 14.896C111.717 14.832 111.813 14.8 111.941 14.8H112.725C112.843 14.8 112.933 14.8373 112.997 14.912C113.072 14.976 113.109 15.0667 113.109 15.184V25.632C113.109 25.7387 113.072 25.8293 112.997 25.904C112.933 25.968 112.843 26 112.725 26H111.941C111.835 26 111.744 25.968 111.669 25.904C111.605 25.8293 111.573 25.7387 111.573 25.632V17.76L108.901 22.976C108.859 23.0827 108.795 23.168 108.709 23.232C108.624 23.2853 108.517 23.312 108.389 23.312H107.893C107.755 23.312 107.648 23.2853 107.573 23.232C107.499 23.168 107.435 23.0827 107.381 22.976L104.693 17.76V25.632C104.693 25.7387 104.656 25.8293 104.581 25.904C104.517 25.968 104.432 26 104.325 26H103.541ZM115.124 26C115.039 26 114.964 25.968 114.9 25.904C114.836 25.84 114.804 25.7653 114.804 25.68C114.804 25.6267 114.81 25.568 114.82 25.504L118.788 15.152C118.831 15.0453 118.89 14.96 118.964 14.896C119.039 14.832 119.151 14.8 119.3 14.8H120.388C120.538 14.8 120.65 14.832 120.724 14.896C120.799 14.96 120.858 15.0453 120.9 15.152L124.852 25.504C124.874 25.568 124.884 25.6267 124.884 25.68C124.884 25.7653 124.852 25.84 124.788 25.904C124.724 25.968 124.65 26 124.564 26H123.748C123.62 26 123.524 25.968 123.46 25.904C123.407 25.84 123.37 25.7813 123.348 25.728L122.468 23.456H117.22L116.34 25.728C116.33 25.7813 116.292 25.84 116.228 25.904C116.164 25.968 116.068 26 115.94 26H115.124ZM117.684 22.08H122.004L119.844 16.4L117.684 22.08ZM126.963 26C126.846 26 126.755 25.968 126.691 25.904C126.627 25.8293 126.595 25.7387 126.595 25.632V15.168C126.595 15.0613 126.627 14.976 126.691 14.912C126.755 14.8373 126.846 14.8 126.963 14.8H127.811C127.928 14.8 128.019 14.8373 128.083 14.912C128.147 14.976 128.179 15.0613 128.179 15.168V25.632C128.179 25.7387 128.147 25.8293 128.083 25.904C128.019 25.968 127.928 26 127.811 26H126.963ZM131.338 26C131.221 26 131.13 25.968 131.066 25.904C131.002 25.8293 130.97 25.7387 130.97 25.632V15.168C130.97 15.0613 131.002 14.976 131.066 14.912C131.13 14.8373 131.221 14.8 131.338 14.8H132.186C132.293 14.8 132.378 14.8373 132.442 14.912C132.517 14.976 132.554 15.0613 132.554 15.168V24.608H137.866C137.983 24.608 138.074 24.6453 138.138 24.72C138.213 24.784 138.25 24.8747 138.25 24.992V25.632C138.25 25.7387 138.213 25.8293 138.138 25.904C138.074 25.968 137.983 26 137.866 26H131.338Z" fill="#03E8E8"/>
<rect x="0.5" y="0.5" width="159" height="41" rx="20.5" stroke="#03E8E8"/>
</svg>
