<svg width="408" height="94" viewBox="0 0 408 94" fill="none" xmlns="http://www.w3.org/2000/svg">
<path d="M27.8946 15.416C30.2626 16.152 32.1186 17.384 33.4626 19.112C34.8066 20.808 35.4786 22.792 35.4786 25.064C35.4786 28.072 34.3266 30.568 32.0226 32.552C29.7186 34.504 26.6786 35.48 22.9026 35.48C20.7906 35.512 18.7586 35.112 16.8066 34.28C16.7426 34.248 16.6626 34.216 16.5666 34.184C16.4066 34.12 16.2466 34.152 16.0866 34.28C15.9586 34.376 15.8946 34.616 15.8946 35H14.5026V30.104C15.9426 32.792 18.7426 34.136 22.9026 34.136C25.4306 34.136 27.3346 33.32 28.6146 31.688C29.9266 30.024 30.5826 27.816 30.5826 25.064C30.5826 22.44 29.9266 20.312 28.6146 18.68C27.3026 17.048 25.4626 16.184 23.0946 16.088C22.4866 16.088 22.1826 15.864 22.1826 15.416C22.1826 15.224 22.2466 15.064 22.3746 14.936C22.5346 14.776 22.7106 14.696 22.9026 14.696C25.0146 14.696 26.6626 14.152 27.8466 13.064C29.0626 11.976 29.6706 10.488 29.6706 8.6C29.6706 6.616 29.0946 5.064 27.9426 3.944C26.7906 2.824 25.0626 2.264 22.7586 2.264C19.8786 2.264 17.5906 3.144 15.8946 4.904V1.4H17.1906C17.1906 1.624 17.2386 1.768 17.3346 1.832C17.4306 1.896 17.5426 1.928 17.6706 1.928C19.3026 1.16 20.9986 0.807998 22.7586 0.871999C25.0306 0.871999 27.0306 1.224 28.7586 1.928C30.4866 2.6 31.7986 3.528 32.6946 4.712C33.6226 5.864 34.0866 7.16 34.0866 8.6C34.0866 10.136 33.5426 11.512 32.4546 12.728C31.3666 13.944 29.8466 14.84 27.8946 15.416ZM46.381 3.176C48.205 1.64 50.301 0.871999 52.669 0.871999C55.037 0.871999 57.133 1.64 58.957 3.176C60.781 4.68 62.173 6.744 63.133 9.368C64.093 11.96 64.573 14.904 64.573 18.2C64.573 21.464 64.093 24.408 63.133 27.032C62.173 29.656 60.781 31.736 58.957 33.272C57.133 34.776 55.037 35.528 52.669 35.528C50.301 35.528 48.205 34.776 46.381 33.272C44.557 31.736 43.165 29.656 42.205 27.032C41.245 24.408 40.765 21.464 40.765 18.2C40.765 14.904 41.245 11.96 42.205 9.368C43.165 6.744 44.557 4.68 46.381 3.176ZM49.693 32.888C50.589 33.72 51.581 34.136 52.669 34.136C53.757 34.136 54.749 33.72 55.645 32.888C56.541 32.056 57.277 30.92 57.853 29.48C58.429 28.008 58.877 26.312 59.197 24.392C59.517 22.472 59.677 20.408 59.677 18.2C59.677 15.224 59.405 12.552 58.861 10.184C58.317 7.784 57.501 5.864 56.413 4.424C55.357 2.984 54.109 2.264 52.669 2.264C51.229 2.264 49.965 2.984 48.877 4.424C47.789 5.864 46.973 7.784 46.429 10.184C45.917 12.552 45.661 15.224 45.661 18.2C45.661 20.408 45.821 22.472 46.141 24.392C46.461 26.312 46.909 28.008 47.485 29.48C48.061 30.92 48.797 32.056 49.693 32.888ZM86.3864 1.4H89.1704L75.2024 35H72.3704L86.3864 1.4ZM78.7064 3.08C79.6664 4.52 80.1464 6.36 80.1464 8.6C80.1464 10.808 79.6664 12.648 78.7064 14.12C77.7464 15.56 76.4664 16.28 74.8664 16.28C73.2664 16.28 71.9864 15.56 71.0264 14.12C70.0664 12.648 69.5864 10.808 69.5864 8.6C69.5864 6.36 70.0664 4.52 71.0264 3.08C71.9864 1.608 73.2664 0.871999 74.8664 0.871999C76.4664 0.871999 77.7464 1.608 78.7064 3.08ZM72.5624 3.512C72.0184 4.856 71.7464 6.552 71.7464 8.6C71.7464 10.616 72.0184 12.296 72.5624 13.64C73.1384 14.984 73.9064 15.656 74.8664 15.656C75.8264 15.656 76.5784 14.984 77.1224 13.64C77.6984 12.296 77.9864 10.616 77.9864 8.6C77.9864 6.552 77.6984 4.856 77.1224 3.512C76.5784 2.168 75.8264 1.496 74.8664 1.496C73.9064 1.496 73.1384 2.168 72.5624 3.512ZM82.8344 22.328C83.8264 20.856 85.1064 20.12 86.6744 20.12C88.2744 20.12 89.5544 20.856 90.5144 22.328C91.4744 23.768 91.9544 25.608 91.9544 27.848C91.9544 30.056 91.4744 31.896 90.5144 33.368C89.5544 34.808 88.2744 35.528 86.6744 35.528C85.1064 35.528 83.8264 34.808 82.8344 33.368C81.8744 31.896 81.3944 30.056 81.3944 27.848C81.3944 25.608 81.8744 23.768 82.8344 22.328ZM84.3704 32.888C84.9464 34.232 85.7144 34.904 86.6744 34.904C87.6344 34.904 88.3864 34.232 88.9304 32.888C89.5064 31.544 89.7944 29.864 89.7944 27.848C89.7944 25.8 89.5064 24.104 88.9304 22.76C88.3864 21.416 87.6344 20.744 86.6744 20.744C85.7144 20.744 84.9464 21.416 84.3704 22.76C83.8264 24.104 83.5544 25.8 83.5544 27.848C83.5544 29.864 83.8264 31.544 84.3704 32.888ZM114.008 7.544C114.008 8.536 114.328 9.496 114.968 10.424C115.608 11.352 116.44 12.216 117.464 13.016C118.52 13.784 119.672 14.568 120.92 15.368C122.168 16.168 123.416 17 124.664 17.864C125.944 18.696 127.096 19.576 128.12 20.504C129.176 21.432 130.024 22.504 130.664 23.72C131.304 24.904 131.624 26.152 131.624 27.464C131.624 29.16 131.064 30.632 129.944 31.88C128.856 33.128 127.48 34.056 125.816 34.664C124.152 35.24 122.36 35.528 120.44 35.528C118.04 35.528 115.88 34.984 113.96 33.896C113.096 33.352 112.664 33.72 112.664 35H111.272V26.6C111.72 28.584 112.776 30.344 114.44 31.88C116.104 33.384 118.104 34.136 120.44 34.136C122.168 34.136 123.784 33.624 125.288 32.6C126.792 31.576 127.544 30.216 127.544 28.52C127.544 27.624 127.288 26.76 126.776 25.928C126.296 25.096 125.64 24.344 124.808 23.672C123.976 23 123.032 22.312 121.976 21.608C120.92 20.872 119.832 20.184 118.712 19.544C117.624 18.904 116.552 18.184 115.496 17.384C114.44 16.552 113.496 15.736 112.664 14.936C111.864 14.104 111.208 13.144 110.696 12.056C110.184 10.936 109.928 9.784 109.928 8.6C109.928 6.872 110.456 5.416 111.512 4.232C112.6 3.016 113.896 2.152 115.4 1.64C116.904 1.128 118.52 0.871999 120.248 0.871999C120.696 0.871999 121.112 0.887999 121.496 0.919998C121.912 0.951998 122.28 0.999998 122.6 1.064C122.92 1.128 123.24 1.208 123.56 1.304C123.88 1.4 124.136 1.48 124.328 1.544C124.52 1.608 124.728 1.704 124.952 1.832C125.208 1.928 125.384 2.008 125.48 2.072C125.608 2.136 125.752 2.232 125.912 2.36C126.104 2.456 126.216 2.504 126.248 2.504C127.112 3.048 127.544 2.68 127.544 1.4H128.936V9.8C128.456 7.752 127.496 5.992 126.056 4.52C124.616 3.016 122.792 2.264 120.584 2.264C118.856 2.264 117.32 2.712 115.976 3.608C114.664 4.504 114.008 5.816 114.008 7.544ZM153.977 31.496C153.977 31.56 153.977 31.64 153.977 31.736C154.009 31.832 154.041 32.008 154.073 32.264C154.137 32.488 154.201 32.696 154.265 32.888C154.361 33.048 154.505 33.208 154.697 33.368C154.889 33.528 155.113 33.608 155.369 33.608V35H153.977C151.641 35 150.265 34.296 149.849 32.888C148.601 34.648 146.665 35.528 144.041 35.528C141.097 35.528 138.745 34.808 136.985 33.368C135.257 31.896 134.393 29.96 134.393 27.56C134.393 24.936 135.241 22.952 136.937 21.608C138.633 20.264 141.001 19.592 144.041 19.592C146.601 19.592 148.521 20.44 149.801 22.136V19.592C149.801 17.672 149.625 16.152 149.273 15.032C148.921 13.88 148.441 13.096 147.833 12.68C147.257 12.264 146.505 12.056 145.577 12.056C144.425 12.056 143.465 12.488 142.697 13.352C141.929 14.184 141.497 15.16 141.401 16.28C141.337 16.824 140.953 17.208 140.249 17.432C139.577 17.656 138.889 17.608 138.185 17.288C137.513 16.968 137.177 16.456 137.177 15.752C137.177 14.248 137.913 13.032 139.385 12.104C140.857 11.144 142.809 10.664 145.241 10.664C148.089 10.664 150.249 11.368 151.721 12.776C153.225 14.152 153.977 16.424 153.977 19.592V31.496ZM148.361 32.312C149.321 31.064 149.801 29.48 149.801 27.56C149.801 25.64 149.321 24.072 148.361 22.856C147.433 21.608 146.153 20.984 144.521 20.984C142.921 20.984 141.641 21.608 140.681 22.856C139.753 24.104 139.289 25.672 139.289 27.56C139.289 29.448 139.753 31.016 140.681 32.264C141.641 33.512 142.921 34.136 144.521 34.136C146.153 34.136 147.433 33.528 148.361 32.312ZM164.249 31.496C164.249 31.56 164.249 31.64 164.249 31.736C164.249 31.832 164.265 32.008 164.297 32.264C164.361 32.488 164.441 32.696 164.537 32.888C164.633 33.048 164.777 33.208 164.969 33.368C165.161 33.528 165.385 33.608 165.641 33.608V35H158.633V33.608C159.049 33.608 159.369 33.432 159.593 33.08C159.849 32.728 159.977 32.376 159.977 32.024L160.025 31.496V7.688C160.025 7.656 160.025 7.592 160.025 7.496C160.025 7.4 159.993 7.24 159.929 7.016C159.897 6.76 159.833 6.536 159.737 6.344C159.641 6.152 159.497 5.992 159.305 5.864C159.113 5.704 158.889 5.624 158.633 5.624V4.184L162.809 1.4H164.249V31.496ZM179.841 34.136C182.465 34.136 184.673 32.728 186.465 29.912L187.761 30.776C185.681 33.944 182.913 35.528 179.457 35.528C177.377 35.528 175.521 34.936 173.889 33.752C172.289 32.568 171.073 31.048 170.241 29.192C169.409 27.304 168.993 25.272 168.993 23.096C168.993 19.736 169.953 16.824 171.873 14.36C173.825 11.896 176.305 10.664 179.312 10.664C181.905 10.664 184.017 11.672 185.649 13.688C187.313 15.672 188.273 18.2 188.529 21.272C188.273 21.336 187.937 21.416 187.521 21.512C187.105 21.608 186.289 21.864 185.073 22.28C183.857 22.664 182.689 23.096 181.569 23.576C180.481 24.024 179.265 24.648 177.921 25.448C176.577 26.216 175.441 27.032 174.513 27.896C174.449 27.96 174.401 27.992 174.368 27.992C174.785 29.88 175.457 31.384 176.385 32.504C177.313 33.592 178.465 34.136 179.841 34.136ZM173.889 22.424C173.889 23.704 173.953 25 174.081 26.312C176.993 24.072 180.209 22.376 183.729 21.224C183.665 18.536 183.265 16.344 182.529 14.648C181.793 12.92 180.72 12.056 179.312 12.056C177.681 12.056 176.385 13.032 175.425 14.984C174.465 16.904 173.953 19.384 173.889 22.424ZM195.858 15.416C195.858 16.184 196.338 17 197.298 17.864C198.258 18.696 199.426 19.528 200.802 20.36C202.178 21.192 203.554 22.056 204.93 22.952C206.306 23.848 207.474 24.888 208.434 26.072C209.394 27.224 209.874 28.392 209.874 29.576C209.874 30.632 209.586 31.56 209.01 32.36C208.466 33.128 207.714 33.736 206.754 34.184C205.826 34.632 204.834 34.968 203.778 35.192C202.754 35.416 201.698 35.528 200.61 35.528C198.658 35.56 196.85 35.096 195.186 34.136C195.154 34.104 195.122 34.088 195.09 34.088C195.09 34.056 195.074 34.04 195.042 34.04C194.882 33.944 194.722 33.88 194.562 33.848C194.402 33.816 194.226 33.88 194.034 34.04C193.874 34.2 193.794 34.52 193.794 35H192.402V27.992C192.914 29.72 193.954 31.176 195.522 32.36C197.122 33.544 198.754 34.136 200.418 34.136C201.922 34.136 203.186 33.864 204.21 33.32C205.234 32.776 205.746 31.944 205.746 30.824C205.746 30.024 205.25 29.16 204.258 28.232C203.298 27.304 202.13 26.408 200.754 25.544C199.378 24.68 198.002 23.784 196.626 22.856C195.25 21.928 194.082 20.904 193.122 19.784C192.162 18.664 191.682 17.56 191.682 16.472C191.682 15.384 191.922 14.456 192.402 13.688C192.882 12.888 193.538 12.28 194.37 11.864C195.202 11.448 196.082 11.144 197.01 10.952C197.97 10.76 198.994 10.664 200.082 10.664C201.874 10.664 203.522 11.128 205.026 12.056L205.122 12.152C205.986 12.632 206.418 12.312 206.418 11.192H207.81V18.2C207.298 16.44 206.322 14.984 204.882 13.832C203.442 12.648 201.906 12.056 200.274 12.056C199.026 12.056 197.97 12.312 197.106 12.824C196.274 13.336 195.858 14.2 195.858 15.416ZM234.32 2.792C233.904 2.792 233.568 2.968 233.312 3.32C233.088 3.672 232.96 4.024 232.928 4.376V4.904V31.496C232.928 31.56 232.928 31.64 232.928 31.736C232.928 31.832 232.944 32.008 232.976 32.264C233.04 32.488 233.12 32.696 233.216 32.888C233.312 33.048 233.456 33.208 233.648 33.368C233.84 33.528 234.064 33.608 234.32 33.608V35H227.312V33.608C227.728 33.608 228.048 33.432 228.272 33.08C228.528 32.728 228.656 32.376 228.656 32.024L228.704 31.496V4.904C228.704 4.84 228.704 4.76 228.704 4.664C228.704 4.568 228.672 4.408 228.608 4.184C228.576 3.928 228.512 3.72 228.416 3.56C228.32 3.368 228.176 3.192 227.984 3.032C227.792 2.872 227.568 2.792 227.312 2.792V1.4H234.32V2.792ZM257.626 31.496C257.626 31.56 257.626 31.64 257.626 31.736C257.658 31.832 257.69 32.008 257.722 32.264C257.786 32.488 257.85 32.696 257.914 32.888C258.01 33.048 258.154 33.208 258.346 33.368C258.538 33.528 258.762 33.608 259.018 33.608V35H252.058V33.608C252.474 33.608 252.794 33.432 253.018 33.08C253.242 32.728 253.37 32.376 253.402 32.024L253.45 31.496V16.088C253.45 15.032 253.018 14.168 252.154 13.496C251.29 12.792 250.202 12.44 248.89 12.44C247.93 12.44 247.066 12.6 246.298 12.92C245.562 13.208 245.018 13.576 244.666 14.024C244.314 14.472 244.058 14.872 243.898 15.224C243.738 15.576 243.658 15.864 243.658 16.088V31.496C243.658 31.56 243.658 31.64 243.658 31.736C243.658 31.832 243.674 32.008 243.706 32.264C243.77 32.488 243.85 32.696 243.946 32.888C244.042 33.048 244.186 33.208 244.378 33.368C244.57 33.528 244.794 33.608 245.05 33.608V35H238.042V33.608C238.458 33.608 238.778 33.432 239.002 33.08C239.258 32.728 239.386 32.376 239.386 32.024L239.434 31.496V17.48C239.434 17.448 239.434 17.384 239.434 17.288C239.434 17.192 239.402 17.032 239.338 16.808C239.306 16.552 239.242 16.328 239.146 16.136C239.05 15.944 238.906 15.784 238.714 15.656C238.522 15.496 238.298 15.416 238.042 15.416V14.024L242.218 11.192H243.658V13.256C244.938 11.528 247.098 10.664 250.138 10.664C251.258 10.664 252.362 10.84 253.45 11.192C254.57 11.544 255.546 12.12 256.378 12.92C257.21 13.72 257.626 14.664 257.626 15.752V31.496ZM289.633 31.496C289.633 31.56 289.633 31.64 289.633 31.736C289.633 31.832 289.649 32.008 289.681 32.264C289.745 32.488 289.809 32.696 289.873 32.888C289.969 33.048 290.113 33.208 290.305 33.368C290.529 33.528 290.769 33.608 291.025 33.608V35H284.017V33.608C284.433 33.608 284.753 33.432 284.977 33.08C285.201 32.728 285.329 32.376 285.361 32.024L285.409 31.496V25.352C287.809 20.936 289.217 18.376 289.633 17.672V31.496ZM296.065 10.664C297.217 10.664 298.337 10.84 299.425 11.192C300.545 11.544 301.521 12.12 302.353 12.92C303.185 13.72 303.601 14.664 303.601 15.752C303.601 16.456 303.265 16.968 302.593 17.288C301.921 17.608 301.233 17.656 300.529 17.432C299.825 17.208 299.457 16.824 299.425 16.28C299.329 15.576 299.105 14.936 298.753 14.36C298.401 13.784 297.889 13.32 297.217 12.968C296.545 12.616 295.761 12.44 294.865 12.44C292.593 12.44 290.833 13.56 289.585 15.8C289.041 16.792 288.209 18.312 287.089 20.36C285.969 22.376 284.977 24.184 284.113 25.784C283.249 27.384 282.721 28.328 282.529 28.616C281.889 29.704 281.281 30.632 280.705 31.4C280.161 32.136 279.489 32.84 278.689 33.512C277.921 34.184 277.041 34.68 276.049 35C275.089 35.352 274.017 35.528 272.833 35.528C271.073 35.528 269.505 35.192 268.129 34.52C266.753 33.816 265.649 32.888 264.817 31.736C263.985 30.552 263.361 29.24 262.945 27.8C262.529 26.328 262.321 24.76 262.321 23.096C262.321 19.768 263.313 16.872 265.297 14.408C267.313 11.912 269.825 10.664 272.833 10.664C274.689 10.664 276.385 11.176 277.921 12.2C278.721 12.616 279.121 12.28 279.121 11.192H280.513V18.2C280.001 16.44 279.025 14.984 277.585 13.832C276.177 12.648 274.641 12.056 272.977 12.056C271.153 12.056 269.729 13.096 268.705 15.176C267.713 17.256 267.217 19.896 267.217 23.096C267.217 23.64 267.217 23.928 267.217 23.96C267.313 26.904 267.873 29.336 268.897 31.256C269.953 33.176 271.361 34.136 273.121 34.136C274.817 34.136 276.257 33.64 277.441 32.648C278.625 31.624 279.889 30.024 281.233 27.848C282.033 26.504 283.425 23.88 285.409 19.976V17.48C285.409 17.48 285.409 17.448 285.409 17.384C285.409 17.32 285.393 17.224 285.361 17.096C285.361 16.936 285.345 16.792 285.313 16.664C285.281 16.536 285.217 16.392 285.121 16.232C285.057 16.072 284.977 15.944 284.881 15.848C284.785 15.72 284.657 15.624 284.497 15.56C284.369 15.464 284.209 15.416 284.017 15.416V14.024L288.193 11.192H289.633V13.448C291.009 11.592 293.153 10.664 296.065 10.664ZM316.481 34.136C319.105 34.136 321.313 32.728 323.105 29.912L324.401 30.776C322.321 33.944 319.553 35.528 316.097 35.528C314.017 35.528 312.161 34.936 310.529 33.752C308.929 32.568 307.713 31.048 306.881 29.192C306.049 27.304 305.633 25.272 305.633 23.096C305.633 19.736 306.593 16.824 308.513 14.36C310.465 11.896 312.945 10.664 315.953 10.664C318.545 10.664 320.657 11.672 322.289 13.688C323.953 15.672 324.913 18.2 325.169 21.272C324.913 21.336 324.577 21.416 324.161 21.512C323.745 21.608 322.929 21.864 321.713 22.28C320.497 22.664 319.329 23.096 318.209 23.576C317.121 24.024 315.905 24.648 314.561 25.448C313.217 26.216 312.081 27.032 311.153 27.896C311.089 27.96 311.041 27.992 311.009 27.992C311.425 29.88 312.097 31.384 313.025 32.504C313.953 33.592 315.105 34.136 316.481 34.136ZM310.529 22.424C310.529 23.704 310.593 25 310.721 26.312C313.633 24.072 316.849 22.376 320.369 21.224C320.305 18.536 319.905 16.344 319.169 14.648C318.433 12.92 317.361 12.056 315.953 12.056C314.321 12.056 313.025 13.032 312.065 14.984C311.105 16.904 310.593 19.384 310.529 22.424ZM347.571 31.496C347.571 31.56 347.571 31.64 347.571 31.736C347.603 31.832 347.635 32.008 347.667 32.264C347.731 32.488 347.795 32.696 347.859 32.888C347.955 33.048 348.099 33.208 348.291 33.368C348.483 33.528 348.707 33.608 348.963 33.608V35H347.571C345.235 35 343.859 34.296 343.443 32.888C342.195 34.648 340.259 35.528 337.635 35.528C334.691 35.528 332.339 34.808 330.579 33.368C328.851 31.896 327.987 29.96 327.987 27.56C327.987 24.936 328.835 22.952 330.531 21.608C332.227 20.264 334.595 19.592 337.635 19.592C340.195 19.592 342.115 20.44 343.395 22.136V19.592C343.395 17.672 343.219 16.152 342.867 15.032C342.515 13.88 342.035 13.096 341.427 12.68C340.851 12.264 340.099 12.056 339.171 12.056C338.019 12.056 337.059 12.488 336.291 13.352C335.523 14.184 335.091 15.16 334.995 16.28C334.931 16.824 334.547 17.208 333.843 17.432C333.171 17.656 332.483 17.608 331.779 17.288C331.107 16.968 330.771 16.456 330.771 15.752C330.771 14.248 331.507 13.032 332.979 12.104C334.451 11.144 336.403 10.664 338.835 10.664C341.683 10.664 343.843 11.368 345.315 12.776C346.819 14.152 347.571 16.424 347.571 19.592V31.496ZM341.955 32.312C342.915 31.064 343.395 29.48 343.395 27.56C343.395 25.64 342.915 24.072 341.955 22.856C341.027 21.608 339.747 20.984 338.115 20.984C336.515 20.984 335.235 21.608 334.275 22.856C333.347 24.104 332.883 25.672 332.883 27.56C332.883 29.448 333.347 31.016 334.275 32.264C335.235 33.512 336.515 34.136 338.115 34.136C339.747 34.136 341.027 33.528 341.955 32.312ZM356.499 15.416C356.499 16.184 356.979 17 357.939 17.864C358.899 18.696 360.067 19.528 361.443 20.36C362.819 21.192 364.195 22.056 365.571 22.952C366.947 23.848 368.115 24.888 369.075 26.072C370.035 27.224 370.515 28.392 370.515 29.576C370.515 30.632 370.227 31.56 369.651 32.36C369.107 33.128 368.355 33.736 367.395 34.184C366.467 34.632 365.475 34.968 364.419 35.192C363.395 35.416 362.339 35.528 361.251 35.528C359.299 35.56 357.491 35.096 355.827 34.136C355.795 34.104 355.763 34.088 355.731 34.088C355.731 34.056 355.715 34.04 355.683 34.04C355.523 33.944 355.363 33.88 355.203 33.848C355.043 33.816 354.867 33.88 354.675 34.04C354.515 34.2 354.435 34.52 354.435 35H353.043V27.992C353.555 29.72 354.595 31.176 356.163 32.36C357.763 33.544 359.395 34.136 361.059 34.136C362.563 34.136 363.827 33.864 364.851 33.32C365.875 32.776 366.387 31.944 366.387 30.824C366.387 30.024 365.891 29.16 364.899 28.232C363.939 27.304 362.771 26.408 361.395 25.544C360.019 24.68 358.643 23.784 357.267 22.856C355.891 21.928 354.723 20.904 353.763 19.784C352.803 18.664 352.323 17.56 352.323 16.472C352.323 15.384 352.563 14.456 353.043 13.688C353.523 12.888 354.179 12.28 355.011 11.864C355.843 11.448 356.723 11.144 357.651 10.952C358.611 10.76 359.635 10.664 360.723 10.664C362.515 10.664 364.163 11.128 365.667 12.056L365.763 12.152C366.627 12.632 367.059 12.312 367.059 11.192H368.451V18.2C367.939 16.44 366.963 14.984 365.523 13.832C364.083 12.648 362.547 12.056 360.915 12.056C359.667 12.056 358.611 12.312 357.747 12.824C356.915 13.336 356.499 14.2 356.499 15.416ZM384.544 34.136C387.168 34.136 389.376 32.728 391.168 29.912L392.464 30.776C390.384 33.944 387.616 35.528 384.16 35.528C382.08 35.528 380.224 34.936 378.592 33.752C376.992 32.568 375.776 31.048 374.944 29.192C374.112 27.304 373.696 25.272 373.696 23.096C373.696 19.736 374.656 16.824 376.576 14.36C378.528 11.896 381.008 10.664 384.016 10.664C386.608 10.664 388.72 11.672 390.352 13.688C392.016 15.672 392.976 18.2 393.232 21.272C392.976 21.336 392.64 21.416 392.224 21.512C391.808 21.608 390.992 21.864 389.776 22.28C388.56 22.664 387.392 23.096 386.272 23.576C385.184 24.024 383.968 24.648 382.624 25.448C381.28 26.216 380.144 27.032 379.216 27.896C379.152 27.96 379.104 27.992 379.072 27.992C379.488 29.88 380.16 31.384 381.088 32.504C382.016 33.592 383.168 34.136 384.544 34.136ZM378.592 22.424C378.592 23.704 378.656 25 378.784 26.312C381.696 24.072 384.912 22.376 388.432 21.224C388.368 18.536 387.968 16.344 387.232 14.648C386.496 12.92 385.424 12.056 384.016 12.056C382.384 12.056 381.088 13.032 380.128 14.984C379.168 16.904 378.656 19.384 378.592 22.424ZM0.577375 59.4H20.1614V62.904H18.7694C18.7694 62.296 18.4974 61.816 17.9534 61.464C17.4414 61.112 16.9294 60.904 16.4174 60.84L15.6494 60.792H6.19338V75.48H12.8174C12.9134 75.48 13.0254 75.48 13.1534 75.48C13.3134 75.48 13.5694 75.448 13.9214 75.384C14.2734 75.288 14.5934 75.176 14.8814 75.048C15.1694 74.92 15.4254 74.712 15.6494 74.424C15.8734 74.136 15.9854 73.8 15.9854 73.416H17.3774V78.984H15.9854C15.9854 78.376 15.7134 77.896 15.1694 77.544C14.6574 77.192 14.1454 77 13.6334 76.968L12.8174 76.92H6.19338V91.608H15.6494C15.7134 91.608 15.8094 91.608 15.9374 91.608C16.0974 91.576 16.3534 91.528 16.7054 91.464C17.0894 91.4 17.4094 91.304 17.6654 91.176C17.9534 91.016 18.2094 90.792 18.4334 90.504C18.6574 90.216 18.7694 89.88 18.7694 89.496H20.1614V93H0.577375V91.608C0.993375 91.608 1.31338 91.432 1.53738 91.08C1.79338 90.728 1.92138 90.376 1.92138 90.024L1.96938 89.496V62.904C1.96938 62.84 1.96938 62.76 1.96938 62.664C1.96938 62.568 1.93738 62.408 1.87338 62.184C1.84138 61.928 1.77738 61.72 1.68138 61.56C1.58538 61.368 1.44138 61.192 1.24938 61.032C1.05738 60.872 0.833375 60.792 0.577375 60.792V59.4ZM38.4764 77.592H23.0684V74.808H38.4764V77.592ZM59.1989 87.912L60.4469 88.776C58.3669 91.944 55.6149 93.528 52.1909 93.528C49.1829 93.528 46.6709 92.296 44.6549 89.832C42.6709 87.336 41.6789 84.424 41.6789 81.096C41.6789 79.496 41.9349 77.944 42.4469 76.44C42.9909 74.936 43.7109 73.608 44.6069 72.456C45.5029 71.304 46.6069 70.392 47.9189 69.72C49.2629 69.016 50.6869 68.664 52.1909 68.664C54.0469 68.664 55.7429 69.176 57.2789 70.2C58.0789 70.616 58.4789 70.28 58.4789 69.192H59.8709V76.2C59.3589 74.44 58.3829 72.984 56.9429 71.832C55.5349 70.648 53.9989 70.056 52.3349 70.056C51.4069 70.056 50.5749 70.344 49.8389 70.92C49.1029 71.496 48.4949 72.296 48.0149 73.32C47.5349 74.312 47.1669 75.48 46.9109 76.824C46.6869 78.136 46.5749 79.56 46.5749 81.096C46.5749 84.392 47.0229 87.064 47.9189 89.112C48.8469 91.128 50.2709 92.136 52.1909 92.136C55.0389 92.136 57.3749 90.728 59.1989 87.912ZM74.0346 68.664C77.0426 68.664 79.5386 69.912 81.5226 72.408C83.5066 74.872 84.4986 77.768 84.4986 81.096C84.4986 84.424 83.5066 87.336 81.5226 89.832C79.5386 92.296 77.0426 93.528 74.0346 93.528C71.0266 93.528 68.5146 92.296 66.4986 89.832C64.5146 87.336 63.5226 84.424 63.5226 81.096C63.5226 77.768 64.5146 74.872 66.4986 72.408C68.5146 69.912 71.0266 68.664 74.0346 68.664ZM69.9066 89.016C70.9306 91.096 72.3066 92.136 74.0346 92.136C75.7626 92.136 77.1226 91.096 78.1146 89.016C79.1066 86.904 79.6026 84.264 79.6026 81.096C79.6026 77.928 79.1066 75.304 78.1146 73.224C77.1226 71.112 75.7626 70.056 74.0346 70.056C73.1706 70.056 72.3706 70.344 71.6346 70.92C70.9306 71.496 70.3386 72.296 69.8586 73.32C69.4106 74.312 69.0586 75.48 68.8026 76.824C68.5466 78.136 68.4186 79.56 68.4186 81.096C68.4186 84.264 68.9146 86.904 69.9066 89.016ZM121.548 89.496C121.548 89.56 121.548 89.64 121.548 89.736C121.548 89.832 121.564 90.008 121.596 90.264C121.66 90.488 121.74 90.696 121.836 90.888C121.932 91.048 122.076 91.208 122.268 91.368C122.46 91.528 122.684 91.608 122.94 91.608V93H115.932V91.608C116.348 91.608 116.668 91.432 116.892 91.08C117.148 90.728 117.292 90.376 117.324 90.024V89.496V74.088C117.324 73.032 116.892 72.168 116.028 71.496C115.196 70.792 114.124 70.44 112.812 70.44C111.82 70.44 110.956 70.6 110.22 70.92C109.484 71.208 108.94 71.576 108.588 72.024C108.236 72.472 107.964 72.872 107.772 73.224C107.612 73.576 107.532 73.864 107.532 74.088V89.496C107.532 90.904 107.996 91.608 108.924 91.608V93H101.964V91.608C102.38 91.608 102.7 91.432 102.924 91.08C103.148 90.728 103.276 90.376 103.308 90.024L103.356 89.496V74.088C103.356 73.032 102.924 72.168 102.06 71.496C101.196 70.792 100.108 70.44 98.7959 70.44C97.8359 70.44 96.9719 70.6 96.2039 70.92C95.4679 71.208 94.9239 71.576 94.5719 72.024C94.2199 72.472 93.9639 72.872 93.8039 73.224C93.6439 73.576 93.5639 73.864 93.5639 74.088V89.496C93.5639 89.56 93.5639 89.64 93.5639 89.736C93.5639 89.832 93.5799 90.008 93.6119 90.264C93.6759 90.488 93.7559 90.696 93.8519 90.888C93.9479 91.048 94.0919 91.208 94.2839 91.368C94.4759 91.528 94.6999 91.608 94.9559 91.608V93H87.9479V91.608C88.3639 91.608 88.6839 91.432 88.9079 91.08C89.1639 90.728 89.2919 90.376 89.2919 90.024L89.3399 89.496V75.48C89.3399 75.448 89.3399 75.384 89.3399 75.288C89.3399 75.192 89.3079 75.032 89.2439 74.808C89.2119 74.552 89.1479 74.328 89.0519 74.136C88.9559 73.944 88.8119 73.784 88.6199 73.656C88.4279 73.496 88.2039 73.416 87.9479 73.416V72.024L92.1719 69.192H93.5639V71.256C94.8439 69.528 97.0039 68.664 100.044 68.664C101.452 68.664 102.844 68.952 104.22 69.528C105.596 70.104 106.556 70.92 107.1 71.976C108.252 69.768 110.556 68.664 114.012 68.664C115.164 68.664 116.284 68.84 117.372 69.192C118.492 69.544 119.468 70.12 120.3 70.92C121.132 71.72 121.548 72.664 121.548 73.752V89.496ZM159.985 89.496C159.985 89.56 159.985 89.64 159.985 89.736C159.985 89.832 160.001 90.008 160.033 90.264C160.097 90.488 160.177 90.696 160.273 90.888C160.369 91.048 160.513 91.208 160.705 91.368C160.897 91.528 161.121 91.608 161.377 91.608V93H154.369V91.608C154.785 91.608 155.105 91.432 155.329 91.08C155.585 90.728 155.729 90.376 155.761 90.024V89.496V74.088C155.761 73.032 155.329 72.168 154.465 71.496C153.633 70.792 152.561 70.44 151.249 70.44C150.257 70.44 149.393 70.6 148.657 70.92C147.921 71.208 147.377 71.576 147.025 72.024C146.673 72.472 146.401 72.872 146.209 73.224C146.049 73.576 145.969 73.864 145.969 74.088V89.496C145.969 90.904 146.433 91.608 147.361 91.608V93H140.401V91.608C140.817 91.608 141.137 91.432 141.361 91.08C141.585 90.728 141.713 90.376 141.745 90.024L141.793 89.496V74.088C141.793 73.032 141.361 72.168 140.497 71.496C139.633 70.792 138.545 70.44 137.233 70.44C136.273 70.44 135.409 70.6 134.641 70.92C133.905 71.208 133.361 71.576 133.009 72.024C132.657 72.472 132.401 72.872 132.241 73.224C132.081 73.576 132.001 73.864 132.001 74.088V89.496C132.001 89.56 132.001 89.64 132.001 89.736C132.001 89.832 132.017 90.008 132.049 90.264C132.113 90.488 132.193 90.696 132.289 90.888C132.385 91.048 132.529 91.208 132.721 91.368C132.913 91.528 133.137 91.608 133.393 91.608V93H126.385V91.608C126.801 91.608 127.121 91.432 127.345 91.08C127.601 90.728 127.729 90.376 127.729 90.024L127.777 89.496V75.48C127.777 75.448 127.777 75.384 127.777 75.288C127.777 75.192 127.745 75.032 127.681 74.808C127.649 74.552 127.585 74.328 127.489 74.136C127.393 73.944 127.249 73.784 127.057 73.656C126.865 73.496 126.641 73.416 126.385 73.416V72.024L130.609 69.192H132.001V71.256C133.281 69.528 135.441 68.664 138.481 68.664C139.889 68.664 141.281 68.952 142.657 69.528C144.033 70.104 144.993 70.92 145.537 71.976C146.689 69.768 148.993 68.664 152.449 68.664C153.601 68.664 154.721 68.84 155.809 69.192C156.929 69.544 157.905 70.12 158.737 70.92C159.569 71.72 159.985 72.664 159.985 73.752V89.496ZM191.943 89.496C191.943 89.528 191.943 89.576 191.943 89.64C191.975 89.672 191.991 89.768 191.991 89.928C192.023 90.056 192.055 90.184 192.087 90.312C192.119 90.44 192.167 90.584 192.231 90.744C192.295 90.904 192.375 91.048 192.471 91.176C192.567 91.272 192.695 91.368 192.855 91.464C193.015 91.528 193.191 91.56 193.383 91.56V93H186.375V91.56C186.791 91.56 187.111 91.4 187.335 91.08C187.559 90.728 187.687 90.376 187.719 90.024L187.767 89.496V83.352C190.071 79.128 191.463 76.568 191.943 75.672V89.496ZM198.423 68.664C199.575 68.664 200.695 68.84 201.783 69.192C202.871 69.544 203.831 70.12 204.663 70.92C205.527 71.72 205.959 72.664 205.959 73.752C205.959 74.456 205.623 74.968 204.951 75.288C204.279 75.608 203.591 75.672 202.887 75.48C202.183 75.256 201.799 74.856 201.735 74.28C201.671 73.576 201.463 72.936 201.111 72.36C200.759 71.784 200.247 71.32 199.575 70.968C198.903 70.616 198.119 70.44 197.223 70.44C194.951 70.44 193.191 71.56 191.943 73.8C191.399 74.792 190.567 76.296 189.447 78.312C188.359 80.328 187.367 82.136 186.471 83.736C185.607 85.336 185.095 86.28 184.935 86.568C184.263 87.688 183.639 88.616 183.063 89.352C182.519 90.088 181.863 90.808 181.095 91.512C180.327 92.184 179.447 92.68 178.455 93C177.495 93.352 176.407 93.528 175.191 93.528C173.431 93.528 171.863 93.192 170.487 92.52C169.143 91.816 168.055 90.888 167.223 89.736C166.391 88.552 165.767 87.24 165.351 85.8C164.935 84.328 164.727 82.76 164.727 81.096C164.727 77.736 165.687 74.84 167.607 72.408C169.559 69.944 172.039 68.712 175.047 68.712C177.639 68.712 179.751 69.704 181.383 71.688C183.015 73.672 183.959 76.2 184.215 79.272C183.991 79.336 183.655 79.416 183.207 79.512C182.791 79.608 181.975 79.864 180.759 80.28C179.543 80.664 178.375 81.096 177.255 81.576C176.135 82.056 174.903 82.696 173.559 83.496C172.215 84.264 171.063 85.096 170.103 85.992C170.551 87.88 171.223 89.368 172.119 90.456C173.047 91.544 174.167 92.088 175.479 92.088C177.175 92.088 178.615 91.592 179.799 90.6C181.015 89.576 182.279 87.992 183.591 85.848C184.391 84.504 185.783 81.88 187.767 77.976V75.48C187.767 75.448 187.767 75.384 187.767 75.288C187.767 75.192 187.735 75.032 187.671 74.808C187.639 74.552 187.575 74.328 187.479 74.136C187.383 73.944 187.239 73.784 187.047 73.656C186.855 73.496 186.631 73.416 186.375 73.416V72.024L190.551 69.192H191.943V71.496C193.351 69.608 195.511 68.664 198.423 68.664ZM169.623 81.816C169.623 82.648 169.687 83.48 169.815 84.312C172.727 82.04 175.927 80.328 179.415 79.176C179.383 76.52 178.999 74.344 178.263 72.648C177.527 70.952 176.455 70.104 175.047 70.104C173.383 70.104 172.071 71.064 171.111 72.984C170.183 74.904 169.687 77.368 169.623 80.376V81.816ZM225.418 87.912L226.666 88.776C224.586 91.944 221.834 93.528 218.41 93.528C215.402 93.528 212.89 92.296 210.874 89.832C208.89 87.336 207.898 84.424 207.898 81.096C207.898 79.496 208.154 77.944 208.666 76.44C209.21 74.936 209.93 73.608 210.826 72.456C211.722 71.304 212.826 70.392 214.138 69.72C215.482 69.016 216.906 68.664 218.41 68.664C220.266 68.664 221.962 69.176 223.498 70.2C224.298 70.616 224.698 70.28 224.698 69.192H226.09V76.2C225.578 74.44 224.602 72.984 223.162 71.832C221.754 70.648 220.218 70.056 218.554 70.056C217.626 70.056 216.794 70.344 216.058 70.92C215.322 71.496 214.714 72.296 214.234 73.32C213.754 74.312 213.386 75.48 213.13 76.824C212.906 78.136 212.794 79.56 212.794 81.096C212.794 84.392 213.242 87.064 214.138 89.112C215.066 91.128 216.49 92.136 218.41 92.136C221.258 92.136 223.594 90.728 225.418 87.912ZM240.403 92.136C243.027 92.136 245.235 90.728 247.027 87.912L248.323 88.776C246.243 91.944 243.475 93.528 240.019 93.528C237.939 93.528 236.083 92.936 234.451 91.752C232.851 90.568 231.635 89.048 230.803 87.192C229.971 85.304 229.555 83.272 229.555 81.096C229.555 77.736 230.515 74.824 232.435 72.36C234.387 69.896 236.867 68.664 239.875 68.664C242.467 68.664 244.579 69.672 246.211 71.688C247.875 73.672 248.835 76.2 249.091 79.272C248.835 79.336 248.499 79.416 248.083 79.512C247.667 79.608 246.851 79.864 245.635 80.28C244.419 80.664 243.251 81.096 242.131 81.576C241.043 82.024 239.827 82.648 238.483 83.448C237.139 84.216 236.003 85.032 235.075 85.896C235.011 85.96 234.963 85.992 234.931 85.992C235.347 87.88 236.019 89.384 236.947 90.504C237.875 91.592 239.027 92.136 240.403 92.136ZM234.451 80.424C234.451 81.704 234.515 83 234.643 84.312C237.555 82.072 240.771 80.376 244.291 79.224C244.227 76.536 243.827 74.344 243.091 72.648C242.355 70.92 241.283 70.056 239.875 70.056C238.243 70.056 236.947 71.032 235.987 72.984C235.027 74.904 234.515 77.384 234.451 80.424ZM296.406 59.4H300.966V60.792C300.486 60.792 300.038 60.968 299.622 61.32C299.238 61.672 298.966 62.008 298.806 62.328C298.678 62.616 298.566 62.92 298.47 63.24L289.781 93H288.39L282.774 73.8L277.158 93H275.766L267.126 63.24C266.998 62.92 266.854 62.616 266.694 62.328C266.566 62.008 266.294 61.672 265.878 61.32C265.494 60.968 265.062 60.792 264.582 60.792V59.4H271.926V60.792C271.222 60.792 270.982 61.48 271.206 62.856L277.878 85.8L282.102 71.4L279.702 63.24C279.606 62.92 279.478 62.616 279.318 62.328C279.158 62.008 278.886 61.672 278.502 61.32C278.118 60.968 277.67 60.792 277.158 60.792V59.4H284.55V60.792C283.814 60.792 283.558 61.48 283.782 62.856L290.502 85.8L297.174 62.856C297.398 61.48 297.142 60.792 296.406 60.792V59.4ZM332.187 68.664C335.163 68.664 337.643 69.912 339.627 72.408C341.611 74.872 342.603 77.784 342.603 81.144C342.603 84.472 341.595 87.368 339.579 89.832C337.595 92.296 335.099 93.528 332.091 93.528C329.627 93.528 327.755 92.28 326.475 89.784V90.36C326.475 90.552 326.427 90.776 326.331 91.032C326.267 91.256 326.107 91.544 325.851 91.896C325.595 92.216 325.163 92.488 324.555 92.712C323.947 92.904 323.195 93 322.299 93H320.907V91.608C321.323 91.608 321.643 91.432 321.867 91.08C322.091 90.728 322.219 90.376 322.251 90.024L322.299 89.496V83.352C324.827 78.68 326.219 76.12 326.475 75.672V81.096C326.475 84.328 326.971 86.984 327.963 89.064C328.987 91.112 330.363 92.136 332.091 92.136C333.243 92.136 334.251 91.64 335.115 90.648C335.979 89.624 336.619 88.296 337.035 86.664C337.483 85 337.707 83.144 337.707 81.096C337.707 77.928 337.211 75.304 336.219 73.224C335.227 71.112 333.835 70.056 332.043 70.056C329.707 70.056 327.851 71.288 326.475 73.752C326.219 74.232 325.899 74.808 325.515 75.48C324.939 76.536 324.155 77.976 323.163 79.8C322.171 81.624 321.339 83.16 320.667 84.408C319.995 85.624 319.579 86.36 319.419 86.616C318.779 87.704 318.171 88.632 317.595 89.4C317.019 90.136 316.347 90.84 315.579 91.512C314.811 92.184 313.931 92.68 312.939 93C311.979 93.352 310.891 93.528 309.675 93.528C307.947 93.528 306.395 93.192 305.019 92.52C303.643 91.816 302.539 90.888 301.707 89.736C300.875 88.552 300.251 87.24 299.835 85.8C299.419 84.328 299.211 82.76 299.211 81.096C299.211 77.736 300.171 74.824 302.091 72.36C304.043 69.896 306.523 68.664 309.531 68.664C312.123 68.664 314.235 69.672 315.867 71.688C317.531 73.672 318.491 76.2 318.747 79.272C318.491 79.336 318.155 79.416 317.739 79.512C317.323 79.608 316.491 79.864 315.243 80.28C314.027 80.664 312.859 81.096 311.739 81.576C310.619 82.056 309.387 82.696 308.043 83.496C306.699 84.296 305.547 85.128 304.587 85.992C305.035 87.88 305.723 89.384 306.651 90.504C307.579 91.592 308.683 92.136 309.963 92.136C311.691 92.136 313.147 91.64 314.331 90.648C315.515 89.624 316.779 88.024 318.123 85.848C318.507 85.208 319.291 83.736 320.475 81.432C321.243 79.992 321.851 78.84 322.299 77.976V65.688C322.299 65.656 322.299 65.624 322.299 65.592C322.299 65.528 322.283 65.432 322.251 65.304C322.251 65.144 322.235 65 322.203 64.872C322.171 64.744 322.107 64.6 322.011 64.44C321.947 64.28 321.867 64.136 321.771 64.008C321.675 63.88 321.547 63.784 321.387 63.72C321.259 63.624 321.099 63.576 320.907 63.576V62.184L325.083 59.4H326.475V71.448C327.147 70.552 327.979 69.864 328.971 69.384C329.995 68.872 331.067 68.632 332.187 68.664ZM304.107 81.816C304.139 82.648 304.203 83.48 304.299 84.312C307.211 82.072 310.427 80.36 313.947 79.176C313.883 76.52 313.483 74.344 312.747 72.648C312.011 70.92 310.939 70.056 309.531 70.056C307.867 70.056 306.555 71.032 305.595 72.984C304.667 74.904 304.171 77.384 304.107 80.424V81.816ZM350.171 73.416C350.171 74.184 350.651 75 351.611 75.864C352.571 76.696 353.739 77.528 355.115 78.36C356.491 79.192 357.867 80.056 359.243 80.952C360.619 81.848 361.787 82.888 362.747 84.072C363.707 85.224 364.187 86.392 364.187 87.576C364.187 88.632 363.899 89.56 363.323 90.36C362.779 91.128 362.027 91.736 361.067 92.184C360.139 92.632 359.147 92.968 358.091 93.192C357.067 93.416 356.011 93.528 354.923 93.528C352.971 93.56 351.163 93.096 349.499 92.136C349.467 92.104 349.435 92.088 349.403 92.088C349.403 92.056 349.387 92.04 349.355 92.04C349.195 91.944 349.035 91.88 348.875 91.848C348.715 91.816 348.539 91.88 348.347 92.04C348.187 92.2 348.107 92.52 348.107 93H346.715V85.992C347.227 87.72 348.267 89.176 349.835 90.36C351.435 91.544 353.067 92.136 354.731 92.136C356.235 92.136 357.499 91.864 358.523 91.32C359.547 90.776 360.059 89.944 360.059 88.824C360.059 88.024 359.563 87.16 358.571 86.232C357.611 85.304 356.443 84.408 355.067 83.544C353.691 82.68 352.315 81.784 350.939 80.856C349.563 79.928 348.395 78.904 347.435 77.784C346.475 76.664 345.995 75.56 345.995 74.472C345.995 73.384 346.235 72.456 346.715 71.688C347.195 70.888 347.851 70.28 348.683 69.864C349.515 69.448 350.395 69.144 351.323 68.952C352.283 68.76 353.307 68.664 354.395 68.664C356.187 68.664 357.835 69.128 359.339 70.056L359.435 70.152C360.299 70.632 360.731 70.312 360.731 69.192H362.123V76.2C361.611 74.44 360.635 72.984 359.195 71.832C357.755 70.648 356.219 70.056 354.587 70.056C353.339 70.056 352.283 70.312 351.419 70.824C350.587 71.336 350.171 72.2 350.171 73.416ZM372.564 89.496C372.564 89.56 372.564 89.64 372.564 89.736C372.596 89.832 372.628 90.008 372.66 90.264C372.724 90.488 372.788 90.696 372.852 90.888C372.948 91.048 373.092 91.208 373.284 91.368C373.476 91.528 373.7 91.608 373.956 91.608V93H366.996V91.608C367.412 91.608 367.732 91.432 367.956 91.08C368.18 90.728 368.308 90.376 368.34 90.024L368.388 89.496V75.48C368.388 75.448 368.372 75.384 368.34 75.288C368.34 75.192 368.308 75.032 368.244 74.808C368.212 74.552 368.148 74.328 368.052 74.136C367.988 73.944 367.86 73.784 367.668 73.656C367.476 73.496 367.252 73.416 366.996 73.416V72.024L371.172 69.192H372.564V89.496ZM372.756 64.824C372.756 65.656 372.468 66.36 371.892 66.936C371.316 67.512 370.612 67.8 369.78 67.8C368.948 67.8 368.244 67.512 367.668 66.936C367.092 66.36 366.804 65.656 366.804 64.824C366.804 63.992 367.092 63.288 367.668 62.712C368.244 62.136 368.948 61.848 369.78 61.848C370.612 61.848 371.316 62.136 371.892 62.712C372.468 63.288 372.756 63.992 372.756 64.824ZM382.686 70.584V89.496C382.686 89.56 382.686 89.64 382.686 89.736C382.686 89.832 382.702 90.008 382.734 90.264C382.798 90.488 382.878 90.696 382.974 90.888C383.07 91.048 383.214 91.208 383.406 91.368C383.598 91.528 383.822 91.608 384.078 91.608V93H382.686C381.95 93 381.31 92.92 380.766 92.76C380.222 92.6 379.806 92.424 379.518 92.232C379.23 92.04 379.006 91.816 378.846 91.56C378.686 91.272 378.574 91.048 378.51 90.888C378.478 90.696 378.462 90.52 378.462 90.36V72.696C378.462 72.632 378.462 72.552 378.462 72.456C378.462 72.36 378.43 72.2 378.366 71.976C378.334 71.72 378.27 71.512 378.174 71.352C378.078 71.16 377.934 70.984 377.742 70.824C377.55 70.664 377.326 70.584 377.07 70.584V69.192L381.246 64.296H382.686V69.192H384.078V70.584H382.686ZM398.325 92.136C400.949 92.136 403.157 90.728 404.949 87.912L406.245 88.776C404.165 91.944 401.397 93.528 397.941 93.528C395.861 93.528 394.005 92.936 392.373 91.752C390.773 90.568 389.557 89.048 388.725 87.192C387.893 85.304 387.477 83.272 387.477 81.096C387.477 77.736 388.437 74.824 390.357 72.36C392.309 69.896 394.789 68.664 397.797 68.664C400.389 68.664 402.501 69.672 404.133 71.688C405.797 73.672 406.757 76.2 407.013 79.272C406.757 79.336 406.421 79.416 406.005 79.512C405.589 79.608 404.773 79.864 403.557 80.28C402.341 80.664 401.173 81.096 400.053 81.576C398.965 82.024 397.749 82.648 396.405 83.448C395.061 84.216 393.925 85.032 392.997 85.896C392.933 85.96 392.885 85.992 392.853 85.992C393.269 87.88 393.941 89.384 394.869 90.504C395.797 91.592 396.949 92.136 398.325 92.136ZM392.373 80.424C392.373 81.704 392.437 83 392.565 84.312C395.477 82.072 398.693 80.376 402.213 79.224C402.149 76.536 401.749 74.344 401.013 72.648C400.277 70.92 399.205 70.056 397.797 70.056C396.165 70.056 394.869 71.032 393.909 72.984C392.949 74.904 392.437 77.384 392.373 80.424Z" fill="#121212"/>
</svg>
