<svg width="259" height="51" viewBox="0 0 259 51" fill="none" xmlns="http://www.w3.org/2000/svg">
<path d="M29.6297 32.18C28.5857 32.18 27.7097 32.018 27.0017 31.694C26.2937 31.37 25.7477 30.956 25.3637 30.452C24.9917 29.936 24.7937 29.396 24.7697 28.832C24.7697 28.736 24.8057 28.652 24.8777 28.58C24.9617 28.496 25.0577 28.454 25.1657 28.454H26.0837C26.2277 28.454 26.3357 28.49 26.4077 28.562C26.4797 28.634 26.5277 28.718 26.5517 28.814C26.6237 29.102 26.7737 29.39 27.0017 29.678C27.2297 29.954 27.5537 30.188 27.9737 30.38C28.4057 30.56 28.9577 30.65 29.6297 30.65C30.6617 30.65 31.4177 30.47 31.8977 30.11C32.3897 29.738 32.6357 29.246 32.6357 28.634C32.6357 28.214 32.5037 27.878 32.2397 27.626C31.9877 27.362 31.5977 27.128 31.0697 26.924C30.5417 26.72 29.8577 26.498 29.0177 26.258C28.1417 26.006 27.4157 25.73 26.8397 25.43C26.2637 25.13 25.8317 24.758 25.5437 24.314C25.2677 23.87 25.1297 23.306 25.1297 22.622C25.1297 21.974 25.3037 21.398 25.6517 20.894C25.9997 20.378 26.5037 19.97 27.1637 19.67C27.8237 19.37 28.6157 19.22 29.5397 19.22C30.2837 19.22 30.9317 19.322 31.4837 19.526C32.0477 19.718 32.5157 19.982 32.8877 20.318C33.2597 20.642 33.5417 20.996 33.7337 21.38C33.9257 21.752 34.0277 22.118 34.0397 22.478C34.0397 22.562 34.0097 22.646 33.9497 22.73C33.8897 22.802 33.7937 22.838 33.6617 22.838H32.7077C32.6237 22.838 32.5337 22.814 32.4377 22.766C32.3537 22.718 32.2877 22.628 32.2397 22.496C32.1677 22.004 31.8917 21.59 31.4117 21.254C30.9317 20.918 30.3077 20.75 29.5397 20.75C28.7597 20.75 28.1237 20.9 27.6317 21.2C27.1517 21.5 26.9117 21.968 26.9117 22.604C26.9117 23.012 27.0257 23.354 27.2537 23.63C27.4817 23.894 27.8417 24.128 28.3337 24.332C28.8257 24.536 29.4677 24.752 30.2597 24.98C31.2197 25.244 32.0057 25.526 32.6177 25.826C33.2297 26.114 33.6797 26.48 33.9677 26.924C34.2677 27.356 34.4177 27.914 34.4177 28.598C34.4177 29.354 34.2197 30.002 33.8237 30.542C33.4277 31.07 32.8697 31.478 32.1497 31.766C31.4417 32.042 30.6017 32.18 29.6297 32.18ZM40.3229 32.18C39.4709 32.18 38.7329 32.018 38.1089 31.694C37.4969 31.358 37.0229 30.884 36.6869 30.272C36.3509 29.648 36.1709 28.904 36.1469 28.04C36.1349 27.86 36.1289 27.62 36.1289 27.32C36.1289 27.02 36.1349 26.78 36.1469 26.6C36.1709 25.736 36.3509 24.998 36.6869 24.386C37.0229 23.762 37.4969 23.288 38.1089 22.964C38.7329 22.628 39.4709 22.46 40.3229 22.46C41.0189 22.46 41.6129 22.556 42.1049 22.748C42.6089 22.94 43.0229 23.186 43.3469 23.486C43.6709 23.786 43.9109 24.11 44.0669 24.458C44.2349 24.806 44.3249 25.136 44.3369 25.448C44.3489 25.568 44.3129 25.664 44.2289 25.736C44.1449 25.808 44.0429 25.844 43.9229 25.844H43.0589C42.9389 25.844 42.8489 25.82 42.7889 25.772C42.7289 25.712 42.6689 25.616 42.6089 25.484C42.3929 24.896 42.0989 24.482 41.7269 24.242C41.3549 24.002 40.8929 23.882 40.3409 23.882C39.6209 23.882 39.0329 24.104 38.5769 24.548C38.1329 24.992 37.8929 25.706 37.8569 26.69C37.8449 27.122 37.8449 27.542 37.8569 27.95C37.8929 28.946 38.1329 29.666 38.5769 30.11C39.0329 30.542 39.6209 30.758 40.3409 30.758C40.8929 30.758 41.3549 30.638 41.7269 30.398C42.0989 30.158 42.3929 29.744 42.6089 29.156C42.6689 29.024 42.7289 28.928 42.7889 28.868C42.8489 28.808 42.9389 28.778 43.0589 28.778H43.9229C44.0429 28.778 44.1449 28.82 44.2289 28.904C44.3129 28.976 44.3489 29.072 44.3369 29.192C44.3249 29.444 44.2709 29.702 44.1749 29.966C44.0789 30.23 43.9229 30.5 43.7069 30.776C43.5029 31.04 43.2449 31.28 42.9329 31.496C42.6209 31.7 42.2489 31.868 41.8169 32C41.3849 32.12 40.8869 32.18 40.3229 32.18ZM46.9066 32C46.7866 32 46.6846 31.964 46.6006 31.892C46.5286 31.808 46.4926 31.706 46.4926 31.586V19.634C46.4926 19.514 46.5286 19.418 46.6006 19.346C46.6846 19.262 46.7866 19.22 46.9066 19.22H47.8066C47.9386 19.22 48.0406 19.262 48.1126 19.346C48.1846 19.418 48.2206 19.514 48.2206 19.634V23.828C48.5446 23.42 48.9406 23.09 49.4086 22.838C49.8766 22.586 50.4706 22.46 51.1906 22.46C51.9706 22.46 52.6306 22.634 53.1706 22.982C53.7226 23.318 54.1366 23.792 54.4126 24.404C54.7006 25.004 54.8446 25.706 54.8446 26.51V31.586C54.8446 31.706 54.8086 31.808 54.7366 31.892C54.6646 31.964 54.5626 32 54.4306 32H53.5306C53.4106 32 53.3086 31.964 53.2246 31.892C53.1526 31.808 53.1166 31.706 53.1166 31.586V26.6C53.1166 25.76 52.9126 25.106 52.5046 24.638C52.0966 24.158 51.4966 23.918 50.7046 23.918C49.9606 23.918 49.3606 24.158 48.9046 24.638C48.4486 25.106 48.2206 25.76 48.2206 26.6V31.586C48.2206 31.706 48.1846 31.808 48.1126 31.892C48.0406 31.964 47.9386 32 47.8066 32H46.9066ZM61.1873 32.18C59.9393 32.18 58.9493 31.802 58.2173 31.046C57.4853 30.278 57.0833 29.234 57.0113 27.914C56.9993 27.758 56.9933 27.56 56.9933 27.32C56.9933 27.068 56.9993 26.864 57.0113 26.708C57.0593 25.856 57.2573 25.112 57.6053 24.476C57.9533 23.828 58.4273 23.33 59.0273 22.982C59.6393 22.634 60.3533 22.46 61.1693 22.46C62.0813 22.46 62.8433 22.652 63.4553 23.036C64.0793 23.42 64.5533 23.966 64.8773 24.674C65.2013 25.382 65.3633 26.21 65.3633 27.158V27.464C65.3633 27.596 65.3213 27.698 65.2373 27.77C65.1653 27.842 65.0693 27.878 64.9493 27.878H58.7213C58.7213 27.89 58.7213 27.914 58.7213 27.95C58.7213 27.986 58.7213 28.016 58.7213 28.04C58.7453 28.532 58.8533 28.994 59.0453 29.426C59.2373 29.846 59.5133 30.188 59.8733 30.452C60.2453 30.716 60.6773 30.848 61.1693 30.848C61.6013 30.848 61.9613 30.782 62.2493 30.65C62.5373 30.518 62.7713 30.374 62.9513 30.218C63.1313 30.05 63.2513 29.918 63.3113 29.822C63.4193 29.678 63.5033 29.594 63.5633 29.57C63.6233 29.534 63.7193 29.516 63.8513 29.516H64.7333C64.8413 29.516 64.9313 29.552 65.0033 29.624C65.0873 29.684 65.1233 29.774 65.1113 29.894C65.0993 30.074 65.0033 30.296 64.8233 30.56C64.6433 30.812 64.3853 31.064 64.0493 31.316C63.7253 31.568 63.3173 31.778 62.8253 31.946C62.3453 32.102 61.7993 32.18 61.1873 32.18ZM58.7213 26.636H63.6533V26.582C63.6533 26.042 63.5513 25.562 63.3473 25.142C63.1553 24.722 62.8733 24.392 62.5013 24.152C62.1293 23.9 61.6853 23.774 61.1693 23.774C60.6533 23.774 60.2093 23.9 59.8373 24.152C59.4773 24.392 59.2013 24.722 59.0093 25.142C58.8173 25.562 58.7213 26.042 58.7213 26.582V26.636ZM70.9356 32.18C70.2756 32.18 69.7056 32.066 69.2256 31.838C68.7456 31.598 68.3496 31.28 68.0376 30.884C67.7376 30.476 67.5096 30.014 67.3536 29.498C67.2096 28.982 67.1256 28.436 67.1016 27.86C67.0896 27.668 67.0836 27.488 67.0836 27.32C67.0836 27.152 67.0896 26.972 67.1016 26.78C67.1256 26.216 67.2096 25.676 67.3536 25.16C67.5096 24.644 67.7376 24.182 68.0376 23.774C68.3496 23.366 68.7456 23.048 69.2256 22.82C69.7056 22.58 70.2756 22.46 70.9356 22.46C71.6436 22.46 72.2316 22.586 72.6996 22.838C73.1676 23.09 73.5516 23.402 73.8516 23.774V19.634C73.8516 19.514 73.8876 19.418 73.9596 19.346C74.0436 19.262 74.1456 19.22 74.2656 19.22H75.1296C75.2496 19.22 75.3456 19.262 75.4176 19.346C75.5016 19.418 75.5436 19.514 75.5436 19.634V31.586C75.5436 31.706 75.5016 31.808 75.4176 31.892C75.3456 31.964 75.2496 32 75.1296 32H74.3196C74.1876 32 74.0856 31.964 74.0136 31.892C73.9416 31.808 73.9056 31.706 73.9056 31.586V30.83C73.6056 31.214 73.2156 31.538 72.7356 31.802C72.2556 32.054 71.6556 32.18 70.9356 32.18ZM71.3136 30.722C71.9136 30.722 72.3936 30.584 72.7536 30.308C73.1136 30.032 73.3836 29.684 73.5636 29.264C73.7436 28.832 73.8396 28.394 73.8516 27.95C73.8636 27.758 73.8696 27.53 73.8696 27.266C73.8696 26.99 73.8636 26.756 73.8516 26.564C73.8396 26.144 73.7376 25.73 73.5456 25.322C73.3656 24.914 73.0896 24.578 72.7176 24.314C72.3576 24.05 71.8896 23.918 71.3136 23.918C70.7016 23.918 70.2156 24.056 69.8556 24.332C69.4956 24.596 69.2376 24.95 69.0816 25.394C68.9256 25.826 68.8356 26.294 68.8116 26.798C68.7996 27.146 68.7996 27.494 68.8116 27.842C68.8356 28.346 68.9256 28.82 69.0816 29.264C69.2376 29.696 69.4956 30.05 69.8556 30.326C70.2156 30.59 70.7016 30.722 71.3136 30.722ZM81.7127 32.18C80.9447 32.18 80.2907 32.012 79.7507 31.676C79.2227 31.328 78.8207 30.848 78.5447 30.236C78.2687 29.624 78.1307 28.922 78.1307 28.13V23.054C78.1307 22.934 78.1667 22.838 78.2387 22.766C78.3227 22.682 78.4247 22.64 78.5447 22.64H79.4447C79.5647 22.64 79.6607 22.682 79.7327 22.766C79.8167 22.838 79.8587 22.934 79.8587 23.054V28.04C79.8587 29.828 80.6387 30.722 82.1987 30.722C82.9427 30.722 83.5367 30.488 83.9807 30.02C84.4367 29.54 84.6647 28.88 84.6647 28.04V23.054C84.6647 22.934 84.7007 22.838 84.7727 22.766C84.8567 22.682 84.9587 22.64 85.0787 22.64H85.9787C86.0987 22.64 86.1947 22.682 86.2667 22.766C86.3387 22.838 86.3747 22.934 86.3747 23.054V31.586C86.3747 31.706 86.3387 31.808 86.2667 31.892C86.1947 31.964 86.0987 32 85.9787 32H85.1327C85.0127 32 84.9107 31.964 84.8267 31.892C84.7547 31.808 84.7187 31.706 84.7187 31.586V30.794C84.3947 31.214 83.9987 31.55 83.5307 31.802C83.0747 32.054 82.4687 32.18 81.7127 32.18ZM89.4808 32C89.3608 32 89.2588 31.964 89.1748 31.892C89.1028 31.808 89.0668 31.706 89.0668 31.586V19.634C89.0668 19.514 89.1028 19.418 89.1748 19.346C89.2588 19.262 89.3608 19.22 89.4808 19.22H90.3268C90.4588 19.22 90.5608 19.262 90.6328 19.346C90.7048 19.418 90.7408 19.514 90.7408 19.634V31.586C90.7408 31.706 90.7048 31.808 90.6328 31.892C90.5608 31.964 90.4588 32 90.3268 32H89.4808ZM97.1698 32.18C95.9218 32.18 94.9318 31.802 94.1998 31.046C93.4678 30.278 93.0658 29.234 92.9938 27.914C92.9818 27.758 92.9758 27.56 92.9758 27.32C92.9758 27.068 92.9818 26.864 92.9938 26.708C93.0418 25.856 93.2398 25.112 93.5878 24.476C93.9358 23.828 94.4098 23.33 95.0098 22.982C95.6218 22.634 96.3358 22.46 97.1518 22.46C98.0638 22.46 98.8258 22.652 99.4378 23.036C100.062 23.42 100.536 23.966 100.86 24.674C101.184 25.382 101.346 26.21 101.346 27.158V27.464C101.346 27.596 101.304 27.698 101.22 27.77C101.148 27.842 101.052 27.878 100.932 27.878H94.7038C94.7038 27.89 94.7038 27.914 94.7038 27.95C94.7038 27.986 94.7038 28.016 94.7038 28.04C94.7278 28.532 94.8358 28.994 95.0278 29.426C95.2198 29.846 95.4958 30.188 95.8558 30.452C96.2278 30.716 96.6598 30.848 97.1518 30.848C97.5838 30.848 97.9438 30.782 98.2318 30.65C98.5198 30.518 98.7538 30.374 98.9338 30.218C99.1138 30.05 99.2338 29.918 99.2938 29.822C99.4018 29.678 99.4858 29.594 99.5458 29.57C99.6058 29.534 99.7018 29.516 99.8338 29.516H100.716C100.824 29.516 100.914 29.552 100.986 29.624C101.07 29.684 101.106 29.774 101.094 29.894C101.082 30.074 100.986 30.296 100.806 30.56C100.626 30.812 100.368 31.064 100.032 31.316C99.7078 31.568 99.2998 31.778 98.8078 31.946C98.3278 32.102 97.7818 32.18 97.1698 32.18ZM94.7038 26.636H99.6358V26.582C99.6358 26.042 99.5338 25.562 99.3298 25.142C99.1378 24.722 98.8558 24.392 98.4838 24.152C98.1118 23.9 97.6678 23.774 97.1518 23.774C96.6358 23.774 96.1918 23.9 95.8198 24.152C95.4598 24.392 95.1838 24.722 94.9918 25.142C94.7998 25.562 94.7038 26.042 94.7038 26.582V26.636ZM111.942 32.18C111.186 32.18 110.526 32.09 109.962 31.91C109.398 31.718 108.924 31.466 108.54 31.154C108.156 30.842 107.862 30.5 107.658 30.128C107.466 29.744 107.364 29.36 107.352 28.976C107.352 28.868 107.388 28.784 107.46 28.724C107.532 28.652 107.622 28.616 107.73 28.616H108.612C108.72 28.616 108.816 28.646 108.9 28.706C108.996 28.754 109.068 28.856 109.116 29.012C109.236 29.444 109.44 29.78 109.728 30.02C110.028 30.26 110.37 30.428 110.754 30.524C111.15 30.608 111.546 30.65 111.942 30.65C112.77 30.65 113.442 30.452 113.958 30.056C114.474 29.66 114.732 29.078 114.732 28.31C114.732 27.53 114.498 26.972 114.03 26.636C113.562 26.3 112.914 26.132 112.086 26.132H110.376C110.256 26.132 110.154 26.096 110.07 26.024C109.998 25.952 109.962 25.85 109.962 25.718V25.232C109.962 25.124 109.98 25.034 110.016 24.962C110.064 24.878 110.112 24.806 110.16 24.746L113.652 20.93H108.342C108.222 20.93 108.12 20.894 108.036 20.822C107.964 20.75 107.928 20.648 107.928 20.516V19.832C107.928 19.7 107.964 19.598 108.036 19.526C108.12 19.442 108.222 19.4 108.342 19.4H115.524C115.656 19.4 115.758 19.442 115.83 19.526C115.914 19.598 115.956 19.7 115.956 19.832V20.48C115.956 20.564 115.932 20.642 115.884 20.714C115.848 20.774 115.806 20.834 115.758 20.894L112.284 24.764L112.572 24.782C113.364 24.806 114.054 24.95 114.642 25.214C115.242 25.478 115.704 25.874 116.028 26.402C116.364 26.918 116.532 27.572 116.532 28.364C116.532 29.168 116.334 29.852 115.938 30.416C115.542 30.98 114.996 31.418 114.3 31.73C113.616 32.03 112.83 32.18 111.942 32.18ZM123.095 32.18C122.267 32.18 121.565 32.054 120.989 31.802C120.425 31.538 119.963 31.178 119.603 30.722C119.243 30.266 118.979 29.744 118.811 29.156C118.655 28.568 118.565 27.944 118.541 27.284C118.529 26.96 118.517 26.618 118.505 26.258C118.505 25.898 118.505 25.532 118.505 25.16C118.517 24.788 118.529 24.434 118.541 24.098C118.553 23.438 118.643 22.814 118.811 22.226C118.991 21.638 119.261 21.122 119.621 20.678C119.981 20.222 120.443 19.868 121.007 19.616C121.583 19.352 122.279 19.22 123.095 19.22C123.923 19.22 124.619 19.352 125.183 19.616C125.759 19.868 126.227 20.222 126.587 20.678C126.947 21.122 127.211 21.638 127.379 22.226C127.559 22.814 127.655 23.438 127.667 24.098C127.679 24.434 127.685 24.788 127.685 25.16C127.697 25.532 127.697 25.898 127.685 26.258C127.685 26.618 127.679 26.96 127.667 27.284C127.655 27.944 127.559 28.568 127.379 29.156C127.211 29.744 126.947 30.266 126.587 30.722C126.239 31.178 125.777 31.538 125.201 31.802C124.637 32.054 123.935 32.18 123.095 32.18ZM123.095 30.632C124.031 30.632 124.721 30.326 125.165 29.714C125.621 29.102 125.855 28.262 125.867 27.194C125.891 26.846 125.903 26.51 125.903 26.186C125.903 25.85 125.903 25.52 125.903 25.196C125.903 24.86 125.891 24.53 125.867 24.206C125.855 23.162 125.621 22.328 125.165 21.704C124.721 21.068 124.031 20.75 123.095 20.75C122.171 20.75 121.481 21.068 121.025 21.704C120.581 22.328 120.347 23.162 120.323 24.206C120.323 24.53 120.317 24.86 120.305 25.196C120.305 25.52 120.305 25.85 120.305 26.186C120.317 26.51 120.323 26.846 120.323 27.194C120.347 28.262 120.587 29.102 121.043 29.714C121.499 30.326 122.183 30.632 123.095 30.632ZM135.207 32C135.087 32 134.985 31.964 134.901 31.892C134.829 31.808 134.793 31.706 134.793 31.586V19.832C134.793 19.7 134.829 19.598 134.901 19.526C134.985 19.442 135.087 19.4 135.207 19.4H136.107C136.251 19.4 136.359 19.436 136.431 19.508C136.503 19.58 136.551 19.64 136.575 19.688L140.373 26.96L144.207 19.688C144.231 19.64 144.273 19.58 144.333 19.508C144.405 19.436 144.513 19.4 144.657 19.4H145.539C145.671 19.4 145.773 19.442 145.845 19.526C145.929 19.598 145.971 19.7 145.971 19.832V31.586C145.971 31.706 145.929 31.808 145.845 31.892C145.773 31.964 145.671 32 145.539 32H144.657C144.537 32 144.435 31.964 144.351 31.892C144.279 31.808 144.243 31.706 144.243 31.586V22.73L141.237 28.598C141.189 28.718 141.117 28.814 141.021 28.886C140.925 28.946 140.805 28.976 140.661 28.976H140.103C139.947 28.976 139.827 28.946 139.743 28.886C139.659 28.814 139.587 28.718 139.527 28.598L136.503 22.73V31.586C136.503 31.706 136.461 31.808 136.377 31.892C136.305 31.964 136.209 32 136.089 32H135.207ZM149.264 32C149.144 32 149.042 31.964 148.958 31.892C148.886 31.808 148.85 31.706 148.85 31.586V23.054C148.85 22.934 148.886 22.838 148.958 22.766C149.042 22.682 149.144 22.64 149.264 22.64H150.128C150.248 22.64 150.344 22.682 150.416 22.766C150.5 22.838 150.542 22.934 150.542 23.054V31.586C150.542 31.706 150.5 31.808 150.416 31.892C150.344 31.964 150.248 32 150.128 32H149.264ZM149.12 20.894C149 20.894 148.898 20.858 148.814 20.786C148.742 20.702 148.706 20.6 148.706 20.48V19.508C148.706 19.388 148.742 19.286 148.814 19.202C148.898 19.118 149 19.076 149.12 19.076H150.254C150.374 19.076 150.476 19.118 150.56 19.202C150.644 19.286 150.686 19.388 150.686 19.508V20.48C150.686 20.6 150.644 20.702 150.56 20.786C150.476 20.858 150.374 20.894 150.254 20.894H149.12ZM153.623 32C153.503 32 153.401 31.964 153.317 31.892C153.245 31.808 153.209 31.706 153.209 31.586V23.054C153.209 22.934 153.245 22.838 153.317 22.766C153.401 22.682 153.503 22.64 153.623 22.64H154.469C154.589 22.64 154.685 22.682 154.757 22.766C154.841 22.838 154.883 22.934 154.883 23.054V23.846C155.195 23.438 155.585 23.108 156.053 22.856C156.533 22.592 157.145 22.46 157.889 22.46C158.669 22.46 159.329 22.634 159.869 22.982C160.421 23.318 160.835 23.792 161.111 24.404C161.399 25.004 161.543 25.706 161.543 26.51V31.586C161.543 31.706 161.501 31.808 161.417 31.892C161.345 31.964 161.249 32 161.129 32H160.229C160.109 32 160.007 31.964 159.923 31.892C159.851 31.808 159.815 31.706 159.815 31.586V26.6C159.815 25.76 159.611 25.106 159.203 24.638C158.795 24.158 158.195 23.918 157.403 23.918C156.659 23.918 156.059 24.158 155.603 24.638C155.159 25.106 154.937 25.76 154.937 26.6V31.586C154.937 31.706 154.895 31.808 154.811 31.892C154.739 31.964 154.643 32 154.523 32H153.623ZM167.617 32.18C166.849 32.18 166.195 32.012 165.655 31.676C165.127 31.328 164.725 30.848 164.449 30.236C164.173 29.624 164.035 28.922 164.035 28.13V23.054C164.035 22.934 164.071 22.838 164.143 22.766C164.227 22.682 164.329 22.64 164.449 22.64H165.349C165.469 22.64 165.565 22.682 165.637 22.766C165.721 22.838 165.763 22.934 165.763 23.054V28.04C165.763 29.828 166.543 30.722 168.103 30.722C168.847 30.722 169.441 30.488 169.885 30.02C170.341 29.54 170.569 28.88 170.569 28.04V23.054C170.569 22.934 170.605 22.838 170.677 22.766C170.761 22.682 170.863 22.64 170.983 22.64H171.883C172.003 22.64 172.099 22.682 172.171 22.766C172.243 22.838 172.279 22.934 172.279 23.054V31.586C172.279 31.706 172.243 31.808 172.171 31.892C172.099 31.964 172.003 32 171.883 32H171.037C170.917 32 170.815 31.964 170.731 31.892C170.659 31.808 170.623 31.706 170.623 31.586V30.794C170.299 31.214 169.903 31.55 169.435 31.802C168.979 32.054 168.373 32.18 167.617 32.18ZM178.607 32C177.935 32 177.389 31.874 176.969 31.622C176.549 31.358 176.243 30.992 176.051 30.524C175.859 30.044 175.763 29.48 175.763 28.832V24.08H174.359C174.239 24.08 174.137 24.044 174.053 23.972C173.981 23.888 173.945 23.786 173.945 23.666V23.054C173.945 22.934 173.981 22.838 174.053 22.766C174.137 22.682 174.239 22.64 174.359 22.64H175.763V19.634C175.763 19.514 175.799 19.418 175.871 19.346C175.955 19.262 176.057 19.22 176.177 19.22H177.023C177.143 19.22 177.239 19.262 177.311 19.346C177.395 19.418 177.437 19.514 177.437 19.634V22.64H179.669C179.801 22.64 179.903 22.682 179.975 22.766C180.047 22.838 180.083 22.934 180.083 23.054V23.666C180.083 23.786 180.047 23.888 179.975 23.972C179.903 24.044 179.801 24.08 179.669 24.08H177.437V28.706C177.437 29.27 177.533 29.714 177.725 30.038C177.917 30.362 178.259 30.524 178.751 30.524H179.849C179.969 30.524 180.065 30.566 180.137 30.65C180.221 30.722 180.263 30.818 180.263 30.938V31.586C180.263 31.706 180.221 31.808 180.137 31.892C180.065 31.964 179.969 32 179.849 32H178.607ZM185.728 32.18C184.48 32.18 183.49 31.802 182.758 31.046C182.026 30.278 181.624 29.234 181.552 27.914C181.54 27.758 181.534 27.56 181.534 27.32C181.534 27.068 181.54 26.864 181.552 26.708C181.6 25.856 181.798 25.112 182.146 24.476C182.494 23.828 182.968 23.33 183.568 22.982C184.18 22.634 184.894 22.46 185.71 22.46C186.622 22.46 187.384 22.652 187.996 23.036C188.62 23.42 189.094 23.966 189.418 24.674C189.742 25.382 189.904 26.21 189.904 27.158V27.464C189.904 27.596 189.862 27.698 189.778 27.77C189.706 27.842 189.61 27.878 189.49 27.878H183.262C183.262 27.89 183.262 27.914 183.262 27.95C183.262 27.986 183.262 28.016 183.262 28.04C183.286 28.532 183.394 28.994 183.586 29.426C183.778 29.846 184.054 30.188 184.414 30.452C184.786 30.716 185.218 30.848 185.71 30.848C186.142 30.848 186.502 30.782 186.79 30.65C187.078 30.518 187.312 30.374 187.492 30.218C187.672 30.05 187.792 29.918 187.852 29.822C187.96 29.678 188.044 29.594 188.104 29.57C188.164 29.534 188.26 29.516 188.392 29.516H189.274C189.382 29.516 189.472 29.552 189.544 29.624C189.628 29.684 189.664 29.774 189.652 29.894C189.64 30.074 189.544 30.296 189.364 30.56C189.184 30.812 188.926 31.064 188.59 31.316C188.266 31.568 187.858 31.778 187.366 31.946C186.886 32.102 186.34 32.18 185.728 32.18ZM183.262 26.636H188.194V26.582C188.194 26.042 188.092 25.562 187.888 25.142C187.696 24.722 187.414 24.392 187.042 24.152C186.67 23.9 186.226 23.774 185.71 23.774C185.194 23.774 184.75 23.9 184.378 24.152C184.018 24.392 183.742 24.722 183.55 25.142C183.358 25.562 183.262 26.042 183.262 26.582V26.636ZM195.297 32.18C194.625 32.18 194.049 32.096 193.569 31.928C193.089 31.76 192.699 31.556 192.399 31.316C192.099 31.076 191.871 30.836 191.715 30.596C191.571 30.356 191.493 30.164 191.481 30.02C191.469 29.888 191.511 29.786 191.607 29.714C191.703 29.642 191.799 29.606 191.895 29.606H192.705C192.765 29.606 192.813 29.618 192.849 29.642C192.897 29.654 192.957 29.702 193.029 29.786C193.185 29.954 193.359 30.122 193.551 30.29C193.743 30.458 193.977 30.596 194.253 30.704C194.541 30.812 194.895 30.866 195.315 30.866C195.927 30.866 196.431 30.752 196.827 30.524C197.223 30.284 197.421 29.936 197.421 29.48C197.421 29.18 197.337 28.94 197.169 28.76C197.013 28.58 196.725 28.418 196.305 28.274C195.897 28.13 195.333 27.98 194.613 27.824C193.893 27.656 193.323 27.452 192.903 27.212C192.483 26.96 192.183 26.666 192.003 26.33C191.823 25.982 191.733 25.592 191.733 25.16C191.733 24.716 191.865 24.29 192.129 23.882C192.393 23.462 192.777 23.12 193.281 22.856C193.797 22.592 194.439 22.46 195.207 22.46C195.831 22.46 196.365 22.538 196.809 22.694C197.253 22.85 197.619 23.048 197.907 23.288C198.195 23.516 198.411 23.744 198.555 23.972C198.699 24.2 198.777 24.392 198.789 24.548C198.801 24.668 198.765 24.77 198.681 24.854C198.597 24.926 198.501 24.962 198.393 24.962H197.637C197.553 24.962 197.481 24.944 197.421 24.908C197.373 24.872 197.325 24.83 197.277 24.782C197.157 24.626 197.013 24.47 196.845 24.314C196.689 24.158 196.479 24.032 196.215 23.936C195.963 23.828 195.627 23.774 195.207 23.774C194.607 23.774 194.157 23.9 193.857 24.152C193.557 24.404 193.407 24.722 193.407 25.106C193.407 25.334 193.473 25.538 193.605 25.718C193.737 25.898 193.989 26.06 194.361 26.204C194.733 26.348 195.285 26.504 196.017 26.672C196.809 26.828 197.433 27.038 197.889 27.302C198.345 27.566 198.669 27.872 198.861 28.22C199.053 28.568 199.149 28.97 199.149 29.426C199.149 29.93 199.005 30.392 198.717 30.812C198.429 31.232 197.997 31.568 197.421 31.82C196.845 32.06 196.137 32.18 195.297 32.18ZM210.415 32.18C209.311 32.18 208.393 31.976 207.661 31.568C206.941 31.16 206.395 30.59 206.023 29.858C205.651 29.126 205.447 28.274 205.411 27.302C205.399 26.81 205.393 26.282 205.393 25.718C205.393 25.154 205.399 24.614 205.411 24.098C205.447 23.126 205.651 22.274 206.023 21.542C206.395 20.81 206.941 20.24 207.661 19.832C208.393 19.424 209.311 19.22 210.415 19.22C211.243 19.22 211.969 19.334 212.593 19.562C213.217 19.79 213.733 20.096 214.141 20.48C214.561 20.864 214.879 21.296 215.095 21.776C215.311 22.244 215.431 22.73 215.455 23.234C215.467 23.342 215.431 23.432 215.347 23.504C215.275 23.576 215.185 23.612 215.077 23.612H214.087C213.979 23.612 213.883 23.582 213.799 23.522C213.727 23.462 213.673 23.354 213.637 23.198C213.433 22.262 213.049 21.62 212.485 21.272C211.933 20.924 211.243 20.75 210.415 20.75C209.443 20.75 208.675 21.026 208.111 21.578C207.547 22.118 207.247 22.988 207.211 24.188C207.175 25.172 207.175 26.18 207.211 27.212C207.247 28.412 207.547 29.288 208.111 29.84C208.675 30.38 209.443 30.65 210.415 30.65C211.243 30.65 211.933 30.476 212.485 30.128C213.049 29.78 213.433 29.138 213.637 28.202C213.673 28.046 213.727 27.938 213.799 27.878C213.883 27.818 213.979 27.788 214.087 27.788H215.077C215.185 27.788 215.275 27.824 215.347 27.896C215.431 27.956 215.467 28.04 215.455 28.148C215.431 28.652 215.311 29.144 215.095 29.624C214.879 30.104 214.561 30.536 214.141 30.92C213.733 31.304 213.217 31.61 212.593 31.838C211.969 32.066 211.243 32.18 210.415 32.18ZM220.243 32.18C219.643 32.18 219.097 32.06 218.605 31.82C218.113 31.58 217.717 31.256 217.417 30.848C217.117 30.44 216.967 29.978 216.967 29.462C216.967 28.634 217.303 27.974 217.975 27.482C218.647 26.99 219.523 26.666 220.603 26.51L223.285 26.132V25.61C223.285 25.034 223.117 24.584 222.781 24.26C222.457 23.936 221.923 23.774 221.179 23.774C220.651 23.774 220.219 23.882 219.883 24.098C219.547 24.314 219.313 24.59 219.181 24.926C219.109 25.106 218.983 25.196 218.803 25.196H217.993C217.861 25.196 217.759 25.16 217.687 25.088C217.627 25.004 217.597 24.908 217.597 24.8C217.597 24.62 217.663 24.398 217.795 24.134C217.939 23.87 218.155 23.612 218.443 23.36C218.731 23.108 219.097 22.898 219.541 22.73C219.997 22.55 220.549 22.46 221.197 22.46C221.917 22.46 222.523 22.556 223.015 22.748C223.507 22.928 223.891 23.174 224.167 23.486C224.455 23.798 224.659 24.152 224.779 24.548C224.911 24.944 224.977 25.346 224.977 25.754V31.586C224.977 31.706 224.935 31.808 224.851 31.892C224.779 31.964 224.683 32 224.563 32H223.735C223.603 32 223.501 31.964 223.429 31.892C223.357 31.808 223.321 31.706 223.321 31.586V30.812C223.165 31.028 222.955 31.244 222.691 31.46C222.427 31.664 222.097 31.838 221.701 31.982C221.305 32.114 220.819 32.18 220.243 32.18ZM220.621 30.83C221.113 30.83 221.563 30.728 221.971 30.524C222.379 30.308 222.697 29.978 222.925 29.534C223.165 29.09 223.285 28.532 223.285 27.86V27.356L221.197 27.662C220.345 27.782 219.703 27.986 219.271 28.274C218.839 28.55 218.623 28.904 218.623 29.336C218.623 29.672 218.719 29.954 218.911 30.182C219.115 30.398 219.367 30.56 219.667 30.668C219.979 30.776 220.297 30.83 220.621 30.83ZM227.996 32C227.876 32 227.774 31.964 227.69 31.892C227.618 31.808 227.582 31.706 227.582 31.586V19.634C227.582 19.514 227.618 19.418 227.69 19.346C227.774 19.262 227.876 19.22 227.996 19.22H228.842C228.974 19.22 229.076 19.262 229.148 19.346C229.22 19.418 229.256 19.514 229.256 19.634V31.586C229.256 31.706 229.22 31.808 229.148 31.892C229.076 31.964 228.974 32 228.842 32H227.996ZM232.373 32C232.253 32 232.151 31.964 232.067 31.892C231.995 31.808 231.959 31.706 231.959 31.586V19.634C231.959 19.514 231.995 19.418 232.067 19.346C232.151 19.262 232.253 19.22 232.373 19.22H233.219C233.351 19.22 233.453 19.262 233.525 19.346C233.597 19.418 233.633 19.514 233.633 19.634V31.586C233.633 31.706 233.597 31.808 233.525 31.892C233.453 31.964 233.351 32 233.219 32H232.373Z" fill="white"/>
<rect x="0.5" y="0.5" width="258" height="50" rx="23.5" stroke="white"/>
</svg>
