<svg width="20" height="11" viewBox="0 0 20 11" fill="none" xmlns="http://www.w3.org/2000/svg">
<path d="M9.99998 10.9584C9.77776 10.9584 9.5622 10.9167 9.35331 10.8334C9.14442 10.75 8.97109 10.6389 8.83331 10.5L1.16665 2.83335C0.86109 2.5278 0.708313 2.13891 0.708313 1.66669C0.708313 1.19446 0.86109 0.805575 1.16665 0.50002C1.4722 0.194464 1.86109 0.041687 2.33331 0.041687C2.80553 0.041687 3.19442 0.194464 3.49998 0.50002L9.99998 7.00002L16.5 0.50002C16.8055 0.194464 17.1944 0.041687 17.6666 0.041687C18.1389 0.041687 18.5278 0.194464 18.8333 0.50002C19.1389 0.805575 19.2916 1.19446 19.2916 1.66669C19.2916 2.13891 19.1389 2.5278 18.8333 2.83335L11.1666 10.5C11 10.6667 10.8194 10.785 10.625 10.855C10.4305 10.925 10.2222 10.9595 9.99998 10.9584Z" fill="#03E8E8"/>
</svg>
