<svg width="20" height="11" viewBox="0 0 20 11" fill="none" xmlns="http://www.w3.org/2000/svg">
<path d="M10 0.0416451C10.2222 0.0416451 10.4378 0.083313 10.6467 0.166647C10.8556 0.24998 11.0289 0.361091 11.1667 0.49998L18.8334 8.16665C19.1389 8.4722 19.2917 8.86109 19.2917 9.33331C19.2917 9.80554 19.1389 10.1944 18.8334 10.5C18.5278 10.8055 18.1389 10.9583 17.6667 10.9583C17.1945 10.9583 16.8056 10.8055 16.5 10.5L10 3.99998L3.50002 10.5C3.19447 10.8055 2.80558 10.9583 2.33335 10.9583C1.86113 10.9583 1.47224 10.8055 1.16669 10.5C0.861134 10.1944 0.708353 9.80554 0.708353 9.33331C0.708353 8.86109 0.861134 8.4722 1.16669 8.16665L8.83335 0.49998C9.00002 0.333313 9.18058 0.214979 9.37502 0.144979C9.56947 0.0749788 9.7778 0.040534 10 0.0416451Z" fill="#BAFEFE"/>
</svg>
