<svg width="33" height="32" viewBox="0 0 33 32" fill="none" xmlns="http://www.w3.org/2000/svg">
<path d="M27.0303 8.46688H20.2703V10.3469H27.0569L27.0303 8.46688ZM25.6036 21.4002C25.0908 21.74 24.4852 21.9124 23.8703 21.8935C23.4632 21.936 23.0518 21.8939 22.6618 21.77C22.2718 21.6462 21.9115 21.4431 21.6036 21.1735C21.0343 20.528 20.7379 19.6867 20.7769 18.8269H29.6036C29.6672 17.9316 29.5907 17.0319 29.3769 16.1602C29.1701 15.3309 28.8082 14.5482 28.3103 13.8535C27.8091 13.1797 27.1618 12.6281 26.4169 12.2402C25.5882 11.8316 24.6741 11.6259 23.7503 11.6402C22.8813 11.6338 22.02 11.8016 21.2169 12.1335C20.4816 12.4435 19.8153 12.8968 19.2569 13.4669C18.7001 14.0484 18.2689 14.7382 17.9903 15.4935C17.6912 16.3089 17.5421 17.1717 17.5503 18.0402C17.5365 18.921 17.681 19.7971 17.9769 20.6269C18.2282 21.3783 18.6272 22.0718 19.1503 22.6669C19.6915 23.2511 20.3566 23.7067 21.0969 24.0002C21.9224 24.3147 22.8004 24.4686 23.6836 24.4535C24.9228 24.4922 26.1463 24.1678 27.2036 23.5202C28.2715 22.7614 29.0403 21.6529 29.3769 20.3869H26.4303C26.2725 20.8057 25.9822 21.1616 25.6036 21.4002ZM21.0303 15.9069C21.134 15.5745 21.3063 15.2675 21.5359 15.0057C21.7656 14.7439 22.0475 14.5331 22.3636 14.3869C22.7822 14.1985 23.238 14.1073 23.6969 14.1202C24.0284 14.0919 24.3621 14.1356 24.6751 14.2484C24.9881 14.3612 25.273 14.5403 25.5103 14.7735C25.9633 15.3281 26.254 15.9973 26.3503 16.7069H20.8169C20.8385 16.4359 20.8876 16.1679 20.9636 15.9069H21.0303ZM13.9769 15.2669C14.6555 14.9843 15.2452 14.5236 15.6836 13.9335C16.0866 13.3069 16.2867 12.5713 16.2569 11.8269C16.2831 11.148 16.1507 10.4724 15.8703 9.85355C15.6347 9.31743 15.2565 8.85625 14.7769 8.52021C14.2685 8.17084 13.6911 7.93443 13.0836 7.82688C12.3647 7.6761 11.6314 7.60456 10.8969 7.61355H2.93692V24.3869H11.0703C11.8125 24.3874 12.5518 24.2933 13.2703 24.1069C13.9512 23.9307 14.5964 23.6375 15.1769 23.2402C15.7392 22.8505 16.1971 22.3285 16.5103 21.7202C16.8568 21.0399 17.0265 20.2833 17.0036 19.5202C17.0288 18.5745 16.7636 17.6438 16.2436 16.8535C15.6844 16.0588 14.8549 15.4948 13.9103 15.2669H13.9769ZM6.63025 10.4802H10.0836C10.4008 10.4798 10.7176 10.5066 11.0303 10.5602C11.3182 10.6029 11.5947 10.7026 11.8436 10.8535C12.0841 10.9896 12.2789 11.1937 12.4036 11.4402C12.558 11.7358 12.6316 12.067 12.6169 12.4002C12.6418 12.6872 12.5979 12.976 12.4889 13.2426C12.3799 13.5093 12.209 13.7461 11.9903 13.9335C11.5131 14.2616 10.9421 14.4254 10.3636 14.4002H6.63025V10.4802ZM13.0836 20.4002C12.9466 20.672 12.7394 20.9021 12.4836 21.0669C12.2173 21.2325 11.9239 21.3498 11.6169 21.4135C11.2757 21.4899 10.9266 21.5257 10.5769 21.5202H6.57692V16.9202H10.5769C11.2633 16.8902 11.9412 17.0818 12.5103 17.4669C12.7673 17.6976 12.9665 17.9856 13.0916 18.3076C13.2167 18.6295 13.2642 18.9765 13.2303 19.3202C13.2663 19.6867 13.2161 20.0566 13.0836 20.4002Z" fill="#BAFEFE"/>
</svg>
