<svg width="601" height="459" viewBox="0 0 601 459" fill="none" xmlns="http://www.w3.org/2000/svg">
<rect x="0.5" width="600" height="459" rx="8" fill="#018383"/>
<path d="M103.709 152.2H110.717V153.592C110.301 153.592 109.965 153.768 109.709 154.12C109.485 154.472 109.357 154.824 109.325 155.176V155.704V164.776C106.413 167.944 103.133 169.528 99.4848 169.528C96.9888 169.528 94.7808 168.776 92.8608 167.272C90.9408 165.736 89.4688 163.656 88.4448 161.032C87.4208 158.408 86.9088 155.464 86.9088 152.2C86.9088 148.936 87.4208 145.992 88.4448 143.368C89.4688 140.744 90.9408 138.68 92.8608 137.176C94.7808 135.64 96.9888 134.872 99.4848 134.872C101.437 134.84 103.245 135.336 104.909 136.36C105.005 136.424 105.085 136.472 105.149 136.504C106.045 137.016 106.493 136.648 106.493 135.4H107.885V143.8C107.437 141.752 106.461 139.992 104.957 138.52C103.485 137.016 101.677 136.264 99.5328 136.264C97.8368 136.264 96.3968 137 95.2128 138.472C94.0288 139.912 93.1648 141.816 92.6208 144.184C92.0768 146.52 91.8048 149.192 91.8048 152.2C91.8048 155.208 92.0928 157.896 92.6688 160.264C93.2448 162.6 94.1408 164.504 95.3568 165.976C96.6048 167.416 98.1088 168.136 99.8688 168.136C101.789 168.104 103.533 167.544 105.101 166.456V155.704C105.101 155.672 105.101 155.64 105.101 155.608C105.101 155.544 105.085 155.448 105.053 155.32C105.053 155.16 105.037 155.016 105.005 154.888C104.973 154.76 104.925 154.616 104.861 154.456C104.797 154.264 104.717 154.12 104.621 154.024C104.525 153.896 104.397 153.8 104.237 153.736C104.077 153.64 103.901 153.592 103.709 153.592V152.2ZM124.324 144.664C127.332 144.664 129.828 145.912 131.812 148.408C133.796 150.872 134.788 153.768 134.788 157.096C134.788 160.424 133.796 163.336 131.812 165.832C129.828 168.296 127.332 169.528 124.324 169.528C121.316 169.528 118.804 168.296 116.788 165.832C114.804 163.336 113.812 160.424 113.812 157.096C113.812 153.768 114.804 150.872 116.788 148.408C118.804 145.912 121.316 144.664 124.324 144.664ZM120.196 165.016C121.22 167.096 122.596 168.136 124.324 168.136C126.052 168.136 127.412 167.096 128.404 165.016C129.396 162.904 129.892 160.264 129.892 157.096C129.892 153.928 129.396 151.304 128.404 149.224C127.412 147.112 126.052 146.056 124.324 146.056C123.46 146.056 122.66 146.344 121.924 146.92C121.22 147.496 120.628 148.296 120.148 149.32C119.7 150.312 119.348 151.48 119.092 152.824C118.836 154.136 118.708 155.56 118.708 157.096C118.708 160.264 119.204 162.904 120.196 165.016ZM143.709 146.584V165.496C143.709 165.56 143.709 165.64 143.709 165.736C143.709 165.832 143.725 166.008 143.757 166.264C143.821 166.488 143.901 166.696 143.997 166.888C144.093 167.048 144.237 167.208 144.429 167.368C144.621 167.528 144.845 167.608 145.101 167.608V169H143.709C142.973 169 142.333 168.92 141.789 168.76C141.245 168.6 140.829 168.424 140.541 168.232C140.253 168.04 140.029 167.816 139.869 167.56C139.709 167.272 139.597 167.048 139.533 166.888C139.501 166.696 139.485 166.52 139.485 166.36V148.696C139.485 148.632 139.485 148.552 139.485 148.456C139.485 148.36 139.453 148.2 139.389 147.976C139.357 147.72 139.293 147.512 139.197 147.352C139.101 147.16 138.957 146.984 138.765 146.824C138.573 146.664 138.349 146.584 138.093 146.584V145.192L142.269 140.296H143.709V145.192H145.101V146.584H143.709ZM181.813 165.496C181.813 165.56 181.813 165.64 181.813 165.736C181.845 165.832 181.877 166.008 181.909 166.264C181.973 166.488 182.037 166.696 182.101 166.888C182.197 167.048 182.341 167.208 182.533 167.368C182.725 167.528 182.949 167.608 183.205 167.608V169H181.813C179.477 169 178.101 168.296 177.685 166.888C176.437 168.648 174.501 169.528 171.877 169.528C168.933 169.528 166.581 168.808 164.821 167.368C163.093 165.896 162.229 163.96 162.229 161.56C162.229 158.936 163.077 156.952 164.773 155.608C166.469 154.264 168.837 153.592 171.877 153.592C174.437 153.592 176.357 154.44 177.637 156.136V153.592C177.637 151.672 177.461 150.152 177.109 149.032C176.757 147.88 176.277 147.096 175.669 146.68C175.093 146.264 174.341 146.056 173.413 146.056C172.261 146.056 171.301 146.488 170.533 147.352C169.765 148.184 169.333 149.16 169.237 150.28C169.173 150.824 168.789 151.208 168.085 151.432C167.413 151.656 166.725 151.608 166.021 151.288C165.349 150.968 165.013 150.456 165.013 149.752C165.013 148.248 165.749 147.032 167.221 146.104C168.693 145.144 170.645 144.664 173.077 144.664C175.925 144.664 178.085 145.368 179.557 146.776C181.061 148.152 181.813 150.424 181.813 153.592V165.496ZM176.197 166.312C177.157 165.064 177.637 163.48 177.637 161.56C177.637 159.64 177.157 158.072 176.197 156.856C175.269 155.608 173.989 154.984 172.357 154.984C170.757 154.984 169.477 155.608 168.517 156.856C167.589 158.104 167.125 159.672 167.125 161.56C167.125 163.448 167.589 165.016 168.517 166.264C169.477 167.512 170.757 168.136 172.357 168.136C173.989 168.136 175.269 167.528 176.197 166.312ZM211.622 144.664C214.662 144.664 217.174 145.912 219.158 148.408C221.142 150.872 222.134 153.784 222.134 157.144C222.134 160.472 221.142 163.368 219.158 165.832C217.174 168.296 214.662 169.528 211.622 169.528C209.19 169.528 207.334 168.28 206.054 165.784V175.288C206.054 175.32 206.054 175.352 206.054 175.384C206.054 175.448 206.054 175.544 206.054 175.672C206.086 175.832 206.118 175.976 206.15 176.104C206.182 176.264 206.23 176.424 206.294 176.584C206.358 176.744 206.438 176.872 206.534 176.968C206.63 177.096 206.758 177.192 206.918 177.256C207.078 177.352 207.254 177.4 207.446 177.4V178.792H200.438V177.4C200.854 177.4 201.174 177.224 201.398 176.872C201.654 176.52 201.782 176.168 201.782 175.816L201.83 175.288V151.48C201.83 151.448 201.83 151.384 201.83 151.288C201.83 151.192 201.798 151.032 201.734 150.808C201.702 150.552 201.638 150.328 201.542 150.136C201.446 149.944 201.302 149.784 201.11 149.656C200.918 149.496 200.694 149.416 200.438 149.416V148.024L204.614 145.192H206.054V148.408C207.334 145.912 209.19 144.664 211.622 144.664ZM211.622 168.136C213.35 168.136 214.71 167.096 215.702 165.016C216.726 162.904 217.238 160.264 217.238 157.096C217.238 153.928 216.726 151.304 215.702 149.224C214.71 147.112 213.35 146.056 211.622 146.056C209.894 146.056 208.534 147.096 207.542 149.176C206.55 151.224 206.054 153.864 206.054 157.096C206.054 160.328 206.55 162.984 207.542 165.064C208.534 167.112 209.894 168.136 211.622 168.136ZM237.708 144.664C238.828 144.664 239.932 144.84 241.02 145.192C242.14 145.544 243.116 146.12 243.948 146.92C244.78 147.72 245.196 148.664 245.196 149.752C245.196 150.456 244.86 150.968 244.188 151.288C243.516 151.576 242.828 151.624 242.124 151.432C241.452 151.208 241.084 150.824 241.02 150.28C240.892 149.16 240.428 148.248 239.628 147.544C238.86 146.808 237.804 146.44 236.46 146.44C235.5 146.44 234.636 146.6 233.868 146.92C233.132 147.208 232.588 147.576 232.236 148.024C231.884 148.472 231.628 148.872 231.468 149.224C231.308 149.576 231.228 149.864 231.228 150.088V165.496C231.228 165.56 231.228 165.64 231.228 165.736C231.228 165.832 231.244 166.008 231.276 166.264C231.34 166.488 231.42 166.696 231.516 166.888C231.612 167.048 231.756 167.208 231.948 167.368C232.14 167.528 232.364 167.608 232.62 167.608V169H225.612V167.608C226.028 167.608 226.348 167.432 226.572 167.08C226.828 166.728 226.956 166.376 226.956 166.024L227.004 165.496V151.48C227.004 151.448 227.004 151.384 227.004 151.288C227.004 151.192 226.972 151.032 226.908 150.808C226.876 150.552 226.812 150.328 226.716 150.136C226.62 149.944 226.476 149.784 226.284 149.656C226.092 149.496 225.868 149.416 225.612 149.416V148.024L229.788 145.192H231.228V147.256C232.508 145.528 234.668 144.664 237.708 144.664ZM257.683 144.664C260.691 144.664 263.187 145.912 265.171 148.408C267.155 150.872 268.147 153.768 268.147 157.096C268.147 160.424 267.155 163.336 265.171 165.832C263.187 168.296 260.691 169.528 257.683 169.528C254.675 169.528 252.163 168.296 250.147 165.832C248.163 163.336 247.171 160.424 247.171 157.096C247.171 153.768 248.163 150.872 250.147 148.408C252.163 145.912 254.675 144.664 257.683 144.664ZM253.555 165.016C254.579 167.096 255.955 168.136 257.683 168.136C259.411 168.136 260.771 167.096 261.763 165.016C262.755 162.904 263.251 160.264 263.251 157.096C263.251 153.928 262.755 151.304 261.763 149.224C260.771 147.112 259.411 146.056 257.683 146.056C256.819 146.056 256.019 146.344 255.283 146.92C254.579 147.496 253.987 148.296 253.507 149.32C253.059 150.312 252.707 151.48 252.451 152.824C252.195 154.136 252.067 155.56 252.067 157.096C252.067 160.264 252.563 162.904 253.555 165.016ZM271.032 148.024L275.256 145.192H276.648V170.728C276.648 172.04 276.552 173.144 276.36 174.04C276.2 174.936 275.896 175.752 275.448 176.488C275 177.256 274.328 177.832 273.432 178.216C272.568 178.6 271.48 178.792 270.168 178.792C268.376 178.76 266.76 178.216 265.32 177.16C264.456 176.648 264.024 177.016 264.024 178.264H262.632V169.864C263.336 171.976 264.312 173.752 265.56 175.192C266.776 176.664 268.184 177.4 269.784 177.4C270.104 177.4 270.392 177.352 270.648 177.256C270.936 177.16 271.16 177 271.32 176.776C271.512 176.552 271.672 176.328 271.8 176.104C271.928 175.912 272.024 175.624 272.088 175.24C272.184 174.856 272.248 174.52 272.28 174.232C272.344 173.976 272.376 173.592 272.376 173.08C272.408 172.6 272.424 172.216 272.424 171.928C272.424 171.672 272.424 171.272 272.424 170.728V151.48C272.424 151.448 272.424 151.384 272.424 151.288C272.424 151.192 272.392 151.032 272.328 150.808C272.296 150.552 272.232 150.328 272.136 150.136C272.04 149.944 271.896 149.784 271.704 149.656C271.512 149.496 271.288 149.416 271.032 149.416V148.024ZM276.36 142.408C275.944 143.08 275.336 143.512 274.536 143.704C273.736 143.896 272.984 143.784 272.28 143.368C271.576 142.92 271.128 142.296 270.936 141.496C270.744 140.696 270.856 139.96 271.272 139.288C271.72 138.584 272.344 138.136 273.144 137.944C273.56 137.816 273.96 137.8 274.344 137.896C274.728 137.96 275.08 138.088 275.4 138.28C275.72 138.472 275.992 138.728 276.216 139.048C276.472 139.368 276.648 139.736 276.744 140.152C276.936 140.952 276.808 141.704 276.36 142.408ZM291.864 168.136C294.488 168.136 296.696 166.728 298.488 163.912L299.784 164.776C297.704 167.944 294.936 169.528 291.48 169.528C289.4 169.528 287.544 168.936 285.912 167.752C284.312 166.568 283.096 165.048 282.264 163.192C281.432 161.304 281.016 159.272 281.016 157.096C281.016 153.736 281.976 150.824 283.896 148.36C285.848 145.896 288.328 144.664 291.336 144.664C293.928 144.664 296.04 145.672 297.672 147.688C299.336 149.672 300.296 152.2 300.552 155.272C300.296 155.336 299.96 155.416 299.544 155.512C299.128 155.608 298.312 155.864 297.096 156.28C295.88 156.664 294.712 157.096 293.592 157.576C292.504 158.024 291.288 158.648 289.944 159.448C288.6 160.216 287.464 161.032 286.536 161.896C286.472 161.96 286.424 161.992 286.392 161.992C286.808 163.88 287.48 165.384 288.408 166.504C289.336 167.592 290.488 168.136 291.864 168.136ZM285.912 156.424C285.912 157.704 285.976 159 286.104 160.312C289.016 158.072 292.232 156.376 295.752 155.224C295.688 152.536 295.288 150.344 294.552 148.648C293.816 146.92 292.744 146.056 291.336 146.056C289.704 146.056 288.408 147.032 287.448 148.984C286.488 150.904 285.976 153.384 285.912 156.424ZM330.874 145.192H332.266V146.584H330.874V146.776H330.922V149.752L330.874 149.8C330.33 150.792 329.498 152.312 328.378 154.36C327.258 156.376 326.266 158.184 325.402 159.784C324.538 161.384 324.01 162.328 323.818 162.616C323.178 163.704 322.57 164.632 321.994 165.4C321.45 166.136 320.778 166.84 319.978 167.512C319.21 168.184 318.33 168.68 317.338 169C316.378 169.352 315.306 169.528 314.122 169.528C312.362 169.528 310.794 169.192 309.418 168.52C308.042 167.816 306.938 166.888 306.106 165.736C305.274 164.552 304.65 163.24 304.234 161.8C303.818 160.328 303.61 158.76 303.61 157.096C303.61 153.768 304.602 150.872 306.586 148.408C308.602 145.912 311.114 144.664 314.122 144.664C315.978 144.664 317.674 145.176 319.21 146.2C320.01 146.616 320.41 146.28 320.41 145.192H321.802V152.2C321.45 151.048 320.89 150.008 320.122 149.08C319.386 148.152 318.49 147.432 317.434 146.92C316.41 146.376 315.354 146.104 314.266 146.104C312.442 146.104 311.018 147.144 309.994 149.224C309.002 151.272 308.506 153.896 308.506 157.096C308.506 157.64 308.506 157.928 308.506 157.96C308.602 160.936 309.162 163.384 310.186 165.304C311.242 167.192 312.65 168.136 314.41 168.136C316.106 168.136 317.546 167.64 318.73 166.648C319.914 165.624 321.178 164.024 322.522 161.848C323.322 160.536 324.714 157.928 326.698 154.024V148.696C326.698 148.664 326.698 148.632 326.698 148.6C326.698 148.536 326.682 148.44 326.65 148.312C326.65 148.152 326.634 148.008 326.602 147.88C326.57 147.752 326.506 147.608 326.41 147.448C326.346 147.288 326.266 147.144 326.17 147.016C326.074 146.888 325.946 146.792 325.786 146.728C325.658 146.632 325.498 146.584 325.306 146.584V145.192L329.482 140.296H330.874V145.192ZM330.874 165.496C330.874 165.56 330.874 165.64 330.874 165.736C330.906 165.832 330.938 166.008 330.97 166.264C331.034 166.488 331.098 166.696 331.162 166.888C331.258 167.048 331.402 167.208 331.594 167.368C331.786 167.528 332.01 167.608 332.266 167.608V169H330.874C330.17 169 329.53 168.92 328.954 168.76C328.41 168.6 327.994 168.424 327.706 168.232C327.45 168.04 327.226 167.816 327.034 167.56C326.874 167.272 326.778 167.048 326.746 166.888C326.714 166.696 326.698 166.52 326.698 166.36V159.352C327.018 158.744 327.674 157.544 328.666 155.752C329.658 153.96 330.394 152.6 330.874 151.672V165.496ZM359.912 134.872C361.544 134.872 362.968 135.096 364.184 135.544C365.4 135.96 366.328 136.552 366.968 137.32C367.64 138.088 367.976 138.968 367.976 139.96C367.976 140.664 367.64 141.176 366.968 141.496C366.296 141.784 365.608 141.832 364.904 141.64C364.2 141.416 363.832 141.032 363.8 140.488C363.672 139.368 363.224 138.392 362.456 137.56C361.688 136.696 360.728 136.264 359.576 136.264C358.648 136.264 357.88 136.472 357.272 136.888C356.696 137.304 356.232 138.088 355.88 139.24C355.56 140.36 355.4 141.88 355.4 143.8V145.192H358.184V146.584H355.4V165.496C355.4 165.56 355.4 165.64 355.4 165.736C355.4 165.832 355.416 166.008 355.448 166.264C355.512 166.488 355.592 166.696 355.688 166.888C355.784 167.048 355.928 167.208 356.12 167.368C356.312 167.528 356.536 167.608 356.792 167.608V169H349.784V167.608C350.2 167.608 350.52 167.432 350.744 167.08C351 166.728 351.128 166.376 351.128 166.024L351.176 165.496V146.584H349.784V145.192H351.176V143.8C351.176 142.168 351.368 140.776 351.752 139.624C352.168 138.44 352.76 137.512 353.528 136.84C354.296 136.168 355.208 135.672 356.264 135.352C357.32 135.032 358.536 134.872 359.912 134.872ZM369.855 144.664C372.863 144.664 375.359 145.912 377.343 148.408C379.327 150.872 380.319 153.768 380.319 157.096C380.319 160.424 379.327 163.336 377.343 165.832C375.359 168.296 372.863 169.528 369.855 169.528C366.847 169.528 364.335 168.296 362.319 165.832C360.335 163.336 359.343 160.424 359.343 157.096C359.343 153.768 360.335 150.872 362.319 148.408C364.335 145.912 366.847 144.664 369.855 144.664ZM365.727 165.016C366.751 167.096 368.127 168.136 369.855 168.136C371.583 168.136 372.943 167.096 373.935 165.016C374.927 162.904 375.423 160.264 375.423 157.096C375.423 153.928 374.927 151.304 373.935 149.224C372.943 147.112 371.583 146.056 369.855 146.056C368.991 146.056 368.191 146.344 367.455 146.92C366.751 147.496 366.159 148.296 365.679 149.32C365.231 150.312 364.879 151.48 364.623 152.824C364.367 154.136 364.239 155.56 364.239 157.096C364.239 160.264 364.735 162.904 365.727 165.016ZM395.864 144.664C396.984 144.664 398.088 144.84 399.176 145.192C400.296 145.544 401.272 146.12 402.104 146.92C402.936 147.72 403.352 148.664 403.352 149.752C403.352 150.456 403.016 150.968 402.344 151.288C401.672 151.576 400.984 151.624 400.28 151.432C399.608 151.208 399.24 150.824 399.176 150.28C399.048 149.16 398.584 148.248 397.784 147.544C397.016 146.808 395.96 146.44 394.616 146.44C393.656 146.44 392.792 146.6 392.024 146.92C391.288 147.208 390.744 147.576 390.392 148.024C390.04 148.472 389.784 148.872 389.624 149.224C389.464 149.576 389.384 149.864 389.384 150.088V165.496C389.384 165.56 389.384 165.64 389.384 165.736C389.384 165.832 389.4 166.008 389.432 166.264C389.496 166.488 389.576 166.696 389.672 166.888C389.768 167.048 389.912 167.208 390.104 167.368C390.296 167.528 390.52 167.608 390.776 167.608V169H383.768V167.608C384.184 167.608 384.504 167.432 384.728 167.08C384.984 166.728 385.112 166.376 385.112 166.024L385.16 165.496V151.48C385.16 151.448 385.16 151.384 385.16 151.288C385.16 151.192 385.128 151.032 385.064 150.808C385.032 150.552 384.968 150.328 384.872 150.136C384.776 149.944 384.632 149.784 384.44 149.656C384.248 149.496 384.024 149.416 383.768 149.416V148.024L387.944 145.192H389.384V147.256C390.664 145.528 392.824 144.664 395.864 144.664ZM453.462 165.496C453.462 165.56 453.462 165.64 453.462 165.736C453.462 165.832 453.478 166.008 453.51 166.264C453.574 166.488 453.654 166.696 453.75 166.888C453.846 167.048 453.99 167.208 454.182 167.368C454.374 167.528 454.598 167.608 454.854 167.608V169H447.846V167.608C448.262 167.608 448.582 167.432 448.806 167.08C449.062 166.728 449.206 166.376 449.238 166.024V165.496V150.088C449.238 149.032 448.806 148.168 447.942 147.496C447.11 146.792 446.038 146.44 444.726 146.44C443.734 146.44 442.87 146.6 442.134 146.92C441.398 147.208 440.854 147.576 440.502 148.024C440.15 148.472 439.878 148.872 439.686 149.224C439.526 149.576 439.446 149.864 439.446 150.088V165.496C439.446 166.904 439.91 167.608 440.838 167.608V169H433.878V167.608C434.294 167.608 434.614 167.432 434.838 167.08C435.062 166.728 435.19 166.376 435.222 166.024L435.27 165.496V150.088C435.27 149.032 434.838 148.168 433.974 147.496C433.11 146.792 432.022 146.44 430.71 146.44C429.75 146.44 428.886 146.6 428.118 146.92C427.382 147.208 426.838 147.576 426.486 148.024C426.134 148.472 425.878 148.872 425.718 149.224C425.558 149.576 425.478 149.864 425.478 150.088V165.496C425.478 165.56 425.478 165.64 425.478 165.736C425.478 165.832 425.494 166.008 425.526 166.264C425.59 166.488 425.67 166.696 425.766 166.888C425.862 167.048 426.006 167.208 426.198 167.368C426.39 167.528 426.614 167.608 426.87 167.608V169H419.862V167.608C420.278 167.608 420.598 167.432 420.822 167.08C421.078 166.728 421.206 166.376 421.206 166.024L421.254 165.496V151.48C421.254 151.448 421.254 151.384 421.254 151.288C421.254 151.192 421.222 151.032 421.158 150.808C421.126 150.552 421.062 150.328 420.966 150.136C420.87 149.944 420.726 149.784 420.534 149.656C420.342 149.496 420.118 149.416 419.862 149.416V148.024L424.086 145.192H425.478V147.256C426.758 145.528 428.918 144.664 431.958 144.664C433.366 144.664 434.758 144.952 436.134 145.528C437.51 146.104 438.47 146.92 439.014 147.976C440.166 145.768 442.47 144.664 445.926 144.664C447.078 144.664 448.198 144.84 449.286 145.192C450.406 145.544 451.382 146.12 452.214 146.92C453.046 147.72 453.462 148.664 453.462 149.752V165.496ZM469.051 168.136C471.675 168.136 473.883 166.728 475.675 163.912L476.971 164.776C474.891 167.944 472.123 169.528 468.667 169.528C466.587 169.528 464.731 168.936 463.099 167.752C461.499 166.568 460.283 165.048 459.451 163.192C458.619 161.304 458.203 159.272 458.203 157.096C458.203 153.736 459.163 150.824 461.083 148.36C463.035 145.896 465.515 144.664 468.523 144.664C471.115 144.664 473.227 145.672 474.859 147.688C476.523 149.672 477.483 152.2 477.739 155.272C477.483 155.336 477.147 155.416 476.731 155.512C476.315 155.608 475.499 155.864 474.283 156.28C473.067 156.664 471.899 157.096 470.779 157.576C469.691 158.024 468.475 158.648 467.131 159.448C465.787 160.216 464.651 161.032 463.723 161.896C463.659 161.96 463.611 161.992 463.579 161.992C463.995 163.88 464.667 165.384 465.595 166.504C466.523 167.592 467.675 168.136 469.051 168.136ZM463.099 156.424C463.099 157.704 463.163 159 463.291 160.312C466.203 158.072 469.419 156.376 472.939 155.224C472.875 152.536 472.475 150.344 471.739 148.648C471.003 146.92 469.931 146.056 468.523 146.056C466.891 146.056 465.595 147.032 464.635 148.984C463.675 150.904 463.163 153.384 463.099 156.424ZM503.406 134.872C506.766 134.872 509.294 135.64 510.99 137.176C512.718 138.712 513.582 140.856 513.582 143.608C513.582 144.856 513.374 146.04 512.958 147.16C512.542 148.28 511.998 149.272 511.326 150.136C510.686 151 509.966 151.832 509.166 152.632C508.366 153.432 507.566 154.2 506.766 154.936C505.998 155.672 505.278 156.408 504.606 157.144C503.966 157.848 503.438 158.616 503.022 159.448C502.606 160.28 502.398 161.128 502.398 161.992H501.006C501.006 160.488 501.278 159.096 501.822 157.816C502.366 156.504 503.022 155.352 503.79 154.36C504.59 153.368 505.374 152.376 506.142 151.384C506.942 150.36 507.614 149.144 508.158 147.736C508.734 146.328 509.022 144.776 509.022 143.08C509.022 142.408 508.942 141.736 508.782 141.064C508.622 140.36 508.35 139.624 507.966 138.856C507.614 138.088 507.038 137.464 506.238 136.984C505.47 136.504 504.526 136.264 503.406 136.264C501.358 136.264 499.598 137.016 498.126 138.52C496.654 140.024 495.71 141.784 495.294 143.8V135.4H496.782C496.782 135.912 496.846 136.28 496.974 136.504C497.102 136.696 497.23 136.776 497.358 136.744C497.518 136.712 497.694 136.632 497.886 136.504C497.95 136.472 498.014 136.424 498.078 136.36C499.71 135.336 501.486 134.84 503.406 134.872ZM504.654 166.024C504.654 166.856 504.366 167.56 503.79 168.136C503.214 168.712 502.51 169 501.678 169C500.878 169 500.174 168.712 499.566 168.136C498.99 167.56 498.702 166.856 498.702 166.024C498.702 165.192 498.99 164.488 499.566 163.912C500.174 163.336 500.878 163.048 501.678 163.048C502.51 163.048 503.214 163.336 503.79 163.912C504.366 164.488 504.654 165.192 504.654 166.024ZM191.388 237.688H192.78V241H171.804V239.608C172.22 239.608 172.54 239.432 172.764 239.08C173.02 238.728 173.148 238.376 173.148 238.024L173.196 237.496V210.904C173.196 210.84 173.196 210.76 173.196 210.664C173.196 210.568 173.164 210.408 173.1 210.184C173.068 209.928 173.004 209.72 172.908 209.56C172.812 209.368 172.668 209.192 172.476 209.032C172.284 208.872 172.06 208.792 171.804 208.792V207.4H178.812V208.792C178.556 208.792 178.332 208.872 178.14 209.032C177.948 209.16 177.804 209.336 177.708 209.56C177.612 209.752 177.532 209.96 177.468 210.184C177.436 210.376 177.42 210.536 177.42 210.664V210.904V239.608H188.604C188.668 239.608 188.764 239.608 188.892 239.608C189.02 239.576 189.244 239.528 189.564 239.464C189.884 239.4 190.172 239.304 190.428 239.176C190.684 239.048 190.908 238.856 191.1 238.6C191.292 238.344 191.388 238.04 191.388 237.688ZM221.655 217.192H223.095V218.584H221.655V221.752V221.8C221.399 222.28 221.079 222.84 220.695 223.48C220.119 224.536 219.335 225.976 218.343 227.8C217.351 229.624 216.519 231.16 215.847 232.408C215.175 233.624 214.759 234.36 214.599 234.616C213.959 235.704 213.351 236.632 212.775 237.4C212.199 238.136 211.527 238.84 210.759 239.512C209.991 240.184 209.111 240.68 208.119 241C207.159 241.352 206.071 241.528 204.855 241.528C203.127 241.528 201.575 241.192 200.199 240.52C198.823 239.816 197.719 238.888 196.887 237.736C196.055 236.552 195.431 235.24 195.015 233.8C194.599 232.328 194.391 230.76 194.391 229.096C194.391 225.736 195.351 222.824 197.271 220.36C199.223 217.896 201.703 216.664 204.711 216.664C206.439 216.664 207.975 217.144 209.319 218.104C210.695 219.064 211.767 220.344 212.535 221.944C213.303 223.512 213.767 225.288 213.927 227.272C213.831 227.272 213.719 227.304 213.591 227.368C213.463 227.4 213.175 227.48 212.727 227.608C212.279 227.704 211.831 227.832 211.383 227.992C210.935 228.12 210.375 228.296 209.703 228.52C209.031 228.744 208.375 228.984 207.735 229.24C207.127 229.496 206.455 229.8 205.719 230.152C204.983 230.504 204.279 230.872 203.607 231.256C202.935 231.608 202.263 232.024 201.591 232.504C200.919 232.984 200.311 233.48 199.767 233.992C200.215 235.88 200.903 237.384 201.831 238.504C202.759 239.592 203.863 240.136 205.143 240.136C206.871 240.136 208.327 239.64 209.511 238.648C210.695 237.624 211.959 236.024 213.303 233.848C214.103 232.504 215.495 229.88 217.479 225.976V220.696C217.479 220.664 217.479 220.632 217.479 220.6C217.479 220.536 217.463 220.44 217.431 220.312C217.431 220.152 217.415 220.008 217.383 219.88C217.351 219.752 217.287 219.608 217.191 219.448C217.127 219.288 217.047 219.144 216.951 219.016C216.855 218.888 216.727 218.792 216.567 218.728C216.439 218.632 216.279 218.584 216.087 218.584V217.192L220.263 212.296H221.655V217.192ZM199.287 229.816C199.319 230.648 199.383 231.48 199.479 232.312C202.391 230.072 205.607 228.36 209.127 227.176C209.063 224.52 208.663 222.344 207.927 220.648C207.191 218.92 206.119 218.056 204.711 218.056C203.079 218.056 201.783 219.032 200.823 220.984C199.863 222.904 199.351 225.384 199.287 228.424V229.816ZM221.655 237.496C221.655 237.56 221.655 237.64 221.655 237.736C221.687 237.832 221.719 238.008 221.751 238.264C221.815 238.488 221.879 238.696 221.943 238.888C222.039 239.048 222.183 239.208 222.375 239.368C222.567 239.528 222.791 239.608 223.047 239.608V241H221.655C220.759 241 220.007 240.904 219.399 240.712C218.791 240.488 218.359 240.216 218.103 239.896C217.847 239.544 217.671 239.256 217.575 239.032C217.511 238.776 217.479 238.552 217.479 238.36V231.352C217.831 230.712 218.487 229.496 219.447 227.704C220.439 225.912 221.175 224.568 221.655 223.672V237.496ZM228.875 207.4C229.707 207.4 230.411 207.736 230.987 208.408C231.563 209.048 231.851 209.88 231.851 210.904C231.851 211.736 231.723 212.504 231.467 213.208C231.243 213.912 230.955 214.488 230.603 214.936C230.251 215.352 229.867 215.72 229.451 216.04C229.035 216.328 228.651 216.536 228.299 216.664C227.979 216.792 227.707 216.856 227.483 216.856C228.923 215.384 228.923 214.104 227.483 213.016C226.427 212.28 225.899 211.4 225.899 210.376C225.899 209.544 226.187 208.84 226.763 208.264C227.339 207.688 228.043 207.4 228.875 207.4ZM239.866 221.416C239.866 222.184 240.346 223 241.306 223.864C242.266 224.696 243.434 225.528 244.81 226.36C246.186 227.192 247.562 228.056 248.938 228.952C250.314 229.848 251.482 230.888 252.442 232.072C253.402 233.224 253.882 234.392 253.882 235.576C253.882 236.632 253.594 237.56 253.018 238.36C252.474 239.128 251.722 239.736 250.762 240.184C249.834 240.632 248.842 240.968 247.786 241.192C246.762 241.416 245.706 241.528 244.618 241.528C242.666 241.56 240.858 241.096 239.194 240.136C239.162 240.104 239.13 240.088 239.098 240.088C239.098 240.056 239.082 240.04 239.05 240.04C238.89 239.944 238.73 239.88 238.57 239.848C238.41 239.816 238.234 239.88 238.042 240.04C237.882 240.2 237.802 240.52 237.802 241H236.41V233.992C236.922 235.72 237.962 237.176 239.53 238.36C241.13 239.544 242.762 240.136 244.426 240.136C245.93 240.136 247.194 239.864 248.218 239.32C249.242 238.776 249.754 237.944 249.754 236.824C249.754 236.024 249.258 235.16 248.266 234.232C247.306 233.304 246.138 232.408 244.762 231.544C243.386 230.68 242.01 229.784 240.634 228.856C239.258 227.928 238.09 226.904 237.13 225.784C236.17 224.664 235.69 223.56 235.69 222.472C235.69 221.384 235.93 220.456 236.41 219.688C236.89 218.888 237.546 218.28 238.378 217.864C239.21 217.448 240.09 217.144 241.018 216.952C241.978 216.76 243.002 216.664 244.09 216.664C245.882 216.664 247.53 217.128 249.034 218.056L249.13 218.152C249.994 218.632 250.426 218.312 250.426 217.192H251.818V224.2C251.306 222.44 250.33 220.984 248.89 219.832C247.45 218.648 245.914 218.056 244.282 218.056C243.034 218.056 241.978 218.312 241.114 218.824C240.282 219.336 239.866 220.2 239.866 221.416ZM292.008 235.144L293.256 236.008C292.072 237.832 290.744 239.208 289.272 240.136C287.8 241.064 285.944 241.528 283.704 241.528C281.208 241.528 279 240.776 277.08 239.272C275.16 237.736 273.688 235.656 272.664 233.032C271.64 230.408 271.128 227.464 271.128 224.2C271.128 220.936 271.64 217.992 272.664 215.368C273.688 212.744 275.16 210.68 277.08 209.176C279 207.64 281.208 206.872 283.704 206.872C285.656 206.84 287.464 207.336 289.128 208.36C289.224 208.424 289.304 208.472 289.368 208.504C290.264 209.016 290.712 208.648 290.712 207.4H292.104V215.8C291.656 213.752 290.68 211.992 289.176 210.52C287.704 209.016 285.896 208.264 283.752 208.264C282.056 208.264 280.616 209 279.432 210.472C278.248 211.912 277.384 213.816 276.84 216.184C276.296 218.52 276.024 221.192 276.024 224.2C276.024 227.176 276.312 229.848 276.888 232.216C277.496 234.584 278.392 236.504 279.576 237.976C280.792 239.416 282.216 240.136 283.848 240.136C287.304 240.136 290.024 238.472 292.008 235.144ZM305.871 216.664C308.879 216.664 311.375 217.912 313.359 220.408C315.343 222.872 316.335 225.768 316.335 229.096C316.335 232.424 315.343 235.336 313.359 237.832C311.375 240.296 308.879 241.528 305.871 241.528C302.863 241.528 300.351 240.296 298.335 237.832C296.351 235.336 295.359 232.424 295.359 229.096C295.359 225.768 296.351 222.872 298.335 220.408C300.351 217.912 302.863 216.664 305.871 216.664ZM301.743 237.016C302.767 239.096 304.143 240.136 305.871 240.136C307.599 240.136 308.959 239.096 309.951 237.016C310.943 234.904 311.439 232.264 311.439 229.096C311.439 225.928 310.943 223.304 309.951 221.224C308.959 219.112 307.599 218.056 305.871 218.056C305.007 218.056 304.207 218.344 303.471 218.92C302.767 219.496 302.175 220.296 301.695 221.32C301.247 222.312 300.895 223.48 300.639 224.824C300.383 226.136 300.255 227.56 300.255 229.096C300.255 232.264 300.751 234.904 301.743 237.016ZM339.368 237.496C339.368 237.56 339.368 237.64 339.368 237.736C339.4 237.832 339.432 238.008 339.464 238.264C339.528 238.488 339.592 238.696 339.656 238.888C339.752 239.048 339.896 239.208 340.088 239.368C340.28 239.528 340.504 239.608 340.76 239.608V241H333.8V239.608C334.216 239.608 334.536 239.432 334.76 239.08C334.984 238.728 335.112 238.376 335.144 238.024L335.192 237.496V222.088C335.192 221.032 334.76 220.168 333.896 219.496C333.032 218.792 331.944 218.44 330.632 218.44C329.672 218.44 328.808 218.6 328.04 218.92C327.304 219.208 326.76 219.576 326.408 220.024C326.056 220.472 325.8 220.872 325.64 221.224C325.48 221.576 325.4 221.864 325.4 222.088V237.496C325.4 237.56 325.4 237.64 325.4 237.736C325.4 237.832 325.416 238.008 325.448 238.264C325.512 238.488 325.592 238.696 325.688 238.888C325.784 239.048 325.928 239.208 326.12 239.368C326.312 239.528 326.536 239.608 326.792 239.608V241H319.784V239.608C320.2 239.608 320.52 239.432 320.744 239.08C321 238.728 321.128 238.376 321.128 238.024L321.176 237.496V223.48C321.176 223.448 321.176 223.384 321.176 223.288C321.176 223.192 321.144 223.032 321.08 222.808C321.048 222.552 320.984 222.328 320.888 222.136C320.792 221.944 320.648 221.784 320.456 221.656C320.264 221.496 320.04 221.416 319.784 221.416V220.024L323.96 217.192H325.4V219.256C326.68 217.528 328.84 216.664 331.88 216.664C333 216.664 334.104 216.84 335.192 217.192C336.312 217.544 337.288 218.12 338.12 218.92C338.952 219.72 339.368 220.664 339.368 221.752V237.496ZM363.743 237.496C363.743 237.56 363.743 237.64 363.743 237.736C363.775 237.832 363.807 238.008 363.839 238.264C363.903 238.488 363.967 238.696 364.031 238.888C364.127 239.048 364.271 239.208 364.463 239.368C364.655 239.528 364.879 239.608 365.135 239.608V241H358.175V239.608C358.591 239.608 358.911 239.432 359.135 239.08C359.359 238.728 359.487 238.376 359.519 238.024L359.567 237.496V222.088C359.567 221.032 359.135 220.168 358.271 219.496C357.407 218.792 356.319 218.44 355.007 218.44C354.047 218.44 353.183 218.6 352.415 218.92C351.679 219.208 351.135 219.576 350.783 220.024C350.431 220.472 350.175 220.872 350.015 221.224C349.855 221.576 349.775 221.864 349.775 222.088V237.496C349.775 237.56 349.775 237.64 349.775 237.736C349.775 237.832 349.791 238.008 349.823 238.264C349.887 238.488 349.967 238.696 350.063 238.888C350.159 239.048 350.303 239.208 350.495 239.368C350.687 239.528 350.911 239.608 351.167 239.608V241H344.159V239.608C344.575 239.608 344.895 239.432 345.119 239.08C345.375 238.728 345.503 238.376 345.503 238.024L345.551 237.496V223.48C345.551 223.448 345.551 223.384 345.551 223.288C345.551 223.192 345.519 223.032 345.455 222.808C345.423 222.552 345.359 222.328 345.263 222.136C345.167 221.944 345.023 221.784 344.831 221.656C344.639 221.496 344.415 221.416 344.159 221.416V220.024L348.335 217.192H349.775V219.256C351.055 217.528 353.215 216.664 356.255 216.664C357.375 216.664 358.479 216.84 359.567 217.192C360.687 217.544 361.663 218.12 362.495 218.92C363.327 219.72 363.743 220.664 363.743 221.752V237.496ZM379.286 240.136C381.91 240.136 384.118 238.728 385.91 235.912L387.206 236.776C385.126 239.944 382.358 241.528 378.902 241.528C376.822 241.528 374.966 240.936 373.334 239.752C371.734 238.568 370.518 237.048 369.686 235.192C368.854 233.304 368.438 231.272 368.438 229.096C368.438 225.736 369.398 222.824 371.318 220.36C373.27 217.896 375.75 216.664 378.758 216.664C381.35 216.664 383.462 217.672 385.094 219.688C386.758 221.672 387.718 224.2 387.974 227.272C387.718 227.336 387.382 227.416 386.966 227.512C386.55 227.608 385.734 227.864 384.518 228.28C383.302 228.664 382.134 229.096 381.014 229.576C379.926 230.024 378.71 230.648 377.366 231.448C376.022 232.216 374.886 233.032 373.958 233.896C373.894 233.96 373.846 233.992 373.814 233.992C374.23 235.88 374.902 237.384 375.83 238.504C376.758 239.592 377.91 240.136 379.286 240.136ZM373.334 228.424C373.334 229.704 373.398 231 373.526 232.312C376.438 230.072 379.654 228.376 383.174 227.224C383.11 224.536 382.71 222.344 381.974 220.648C381.238 218.92 380.166 218.056 378.758 218.056C377.126 218.056 375.83 219.032 374.87 220.984C373.91 222.904 373.398 225.384 373.334 228.424ZM418.296 217.192H419.688V218.584H418.296V218.776H418.344V221.752L418.296 221.8C417.752 222.792 416.92 224.312 415.8 226.36C414.68 228.376 413.688 230.184 412.824 231.784C411.96 233.384 411.432 234.328 411.24 234.616C410.6 235.704 409.992 236.632 409.416 237.4C408.872 238.136 408.2 238.84 407.4 239.512C406.632 240.184 405.752 240.68 404.76 241C403.8 241.352 402.728 241.528 401.544 241.528C399.784 241.528 398.216 241.192 396.84 240.52C395.464 239.816 394.36 238.888 393.528 237.736C392.696 236.552 392.072 235.24 391.656 233.8C391.24 232.328 391.032 230.76 391.032 229.096C391.032 225.768 392.024 222.872 394.008 220.408C396.024 217.912 398.536 216.664 401.544 216.664C403.4 216.664 405.096 217.176 406.632 218.2C407.432 218.616 407.832 218.28 407.832 217.192H409.224V224.2C408.872 223.048 408.312 222.008 407.544 221.08C406.808 220.152 405.912 219.432 404.856 218.92C403.832 218.376 402.776 218.104 401.688 218.104C399.864 218.104 398.44 219.144 397.416 221.224C396.424 223.272 395.928 225.896 395.928 229.096C395.928 229.64 395.928 229.928 395.928 229.96C396.024 232.936 396.584 235.384 397.608 237.304C398.664 239.192 400.072 240.136 401.832 240.136C403.528 240.136 404.968 239.64 406.152 238.648C407.336 237.624 408.6 236.024 409.944 233.848C410.744 232.536 412.136 229.928 414.12 226.024V220.696C414.12 220.664 414.12 220.632 414.12 220.6C414.12 220.536 414.104 220.44 414.072 220.312C414.072 220.152 414.056 220.008 414.024 219.88C413.992 219.752 413.928 219.608 413.832 219.448C413.768 219.288 413.688 219.144 413.592 219.016C413.496 218.888 413.368 218.792 413.208 218.728C413.08 218.632 412.92 218.584 412.728 218.584V217.192L416.904 212.296H418.296V217.192ZM418.296 237.496C418.296 237.56 418.296 237.64 418.296 237.736C418.328 237.832 418.36 238.008 418.392 238.264C418.456 238.488 418.52 238.696 418.584 238.888C418.68 239.048 418.824 239.208 419.016 239.368C419.208 239.528 419.432 239.608 419.688 239.608V241H418.296C417.592 241 416.952 240.92 416.376 240.76C415.832 240.6 415.416 240.424 415.128 240.232C414.872 240.04 414.648 239.816 414.456 239.56C414.296 239.272 414.2 239.048 414.168 238.888C414.136 238.696 414.12 238.52 414.12 238.36V231.352C414.44 230.744 415.096 229.544 416.088 227.752C417.08 225.96 417.816 224.6 418.296 223.672V237.496ZM429.285 238.024C429.285 238.856 428.997 239.56 428.421 240.136C427.845 240.712 427.141 241 426.309 241C425.477 241 424.773 240.712 424.197 240.136C423.621 239.56 423.333 238.856 423.333 238.024C423.333 237.192 423.621 236.488 424.197 235.912C424.773 235.336 425.477 235.048 426.309 235.048C427.141 235.048 427.845 235.336 428.421 235.912C428.997 236.488 429.285 237.192 429.285 238.024Z" fill="white"/>
<path d="M200.542 320.18C199.498 320.18 198.622 320.024 197.914 319.712C197.206 319.388 196.66 318.974 196.276 318.47C195.904 317.954 195.706 317.408 195.682 316.832C195.682 316.736 195.718 316.652 195.79 316.58C195.874 316.496 195.97 316.454 196.078 316.454H196.996C197.14 316.454 197.248 316.49 197.32 316.562C197.392 316.634 197.44 316.718 197.464 316.814C197.524 317.102 197.668 317.39 197.896 317.678C198.136 317.954 198.466 318.188 198.886 318.38C199.318 318.56 199.87 318.65 200.542 318.65C201.574 318.65 202.33 318.47 202.81 318.11C203.302 317.738 203.548 317.246 203.548 316.634C203.548 316.214 203.416 315.878 203.152 315.626C202.9 315.362 202.51 315.128 201.982 314.924C201.454 314.72 200.77 314.498 199.93 314.258C199.054 314.006 198.328 313.73 197.752 313.43C197.176 313.13 196.744 312.758 196.456 312.314C196.18 311.87 196.042 311.306 196.042 310.622C196.042 309.974 196.216 309.398 196.564 308.894C196.912 308.378 197.41 307.97 198.058 307.67C198.718 307.37 199.516 307.22 200.452 307.22C201.196 307.22 201.844 307.322 202.396 307.526C202.96 307.718 203.428 307.982 203.8 308.318C204.172 308.642 204.454 308.996 204.646 309.38C204.838 309.752 204.94 310.118 204.952 310.478C204.952 310.562 204.922 310.646 204.862 310.73C204.802 310.802 204.706 310.838 204.574 310.838H203.62C203.536 310.838 203.446 310.814 203.35 310.766C203.266 310.718 203.2 310.628 203.152 310.496C203.08 310.004 202.804 309.59 202.324 309.254C201.844 308.918 201.22 308.75 200.452 308.75C199.672 308.75 199.036 308.9 198.544 309.2C198.064 309.5 197.824 309.968 197.824 310.604C197.824 311.012 197.938 311.354 198.166 311.63C198.394 311.894 198.754 312.128 199.246 312.332C199.738 312.536 200.38 312.752 201.172 312.98C202.132 313.244 202.918 313.526 203.53 313.826C204.142 314.114 204.592 314.48 204.88 314.924C205.18 315.356 205.33 315.914 205.33 316.598C205.33 317.354 205.132 318.002 204.736 318.542C204.34 319.07 203.782 319.478 203.062 319.766C202.354 320.042 201.514 320.18 200.542 320.18ZM211.235 320.18C210.383 320.18 209.645 320.018 209.021 319.694C208.409 319.358 207.935 318.884 207.599 318.272C207.263 317.648 207.083 316.904 207.059 316.04C207.047 315.86 207.041 315.62 207.041 315.32C207.041 315.02 207.047 314.78 207.059 314.6C207.083 313.736 207.263 312.998 207.599 312.386C207.935 311.762 208.409 311.288 209.021 310.964C209.645 310.628 210.383 310.46 211.235 310.46C211.931 310.46 212.525 310.556 213.017 310.748C213.521 310.94 213.935 311.186 214.259 311.486C214.583 311.786 214.823 312.11 214.979 312.458C215.147 312.806 215.237 313.136 215.249 313.448C215.261 313.568 215.225 313.664 215.141 313.736C215.057 313.808 214.955 313.844 214.835 313.844H213.971C213.851 313.844 213.761 313.82 213.701 313.772C213.641 313.712 213.581 313.616 213.521 313.484C213.305 312.896 213.011 312.482 212.639 312.242C212.267 312.002 211.805 311.882 211.253 311.882C210.533 311.882 209.945 312.104 209.489 312.548C209.045 312.992 208.805 313.706 208.769 314.69C208.757 315.122 208.757 315.542 208.769 315.95C208.805 316.946 209.045 317.666 209.489 318.11C209.945 318.542 210.533 318.758 211.253 318.758C211.805 318.758 212.267 318.638 212.639 318.398C213.011 318.158 213.305 317.744 213.521 317.156C213.581 317.024 213.641 316.934 213.701 316.886C213.761 316.826 213.851 316.796 213.971 316.796H214.835C214.955 316.796 215.057 316.832 215.141 316.904C215.225 316.976 215.261 317.072 215.249 317.192C215.237 317.444 215.183 317.702 215.087 317.966C214.991 318.23 214.835 318.5 214.619 318.776C214.415 319.04 214.157 319.28 213.845 319.496C213.533 319.7 213.155 319.868 212.711 320C212.279 320.12 211.787 320.18 211.235 320.18ZM217.819 320C217.699 320 217.597 319.964 217.513 319.892C217.441 319.808 217.405 319.706 217.405 319.586V307.634C217.405 307.514 217.441 307.418 217.513 307.346C217.597 307.262 217.699 307.22 217.819 307.22H218.719C218.851 307.22 218.953 307.262 219.025 307.346C219.097 307.418 219.133 307.514 219.133 307.634V311.828C219.457 311.42 219.853 311.09 220.321 310.838C220.789 310.586 221.383 310.46 222.103 310.46C222.883 310.46 223.543 310.634 224.083 310.982C224.635 311.318 225.049 311.792 225.325 312.404C225.613 313.004 225.757 313.706 225.757 314.51V319.586C225.757 319.706 225.721 319.808 225.649 319.892C225.577 319.964 225.475 320 225.343 320H224.443C224.323 320 224.221 319.964 224.137 319.892C224.065 319.808 224.029 319.706 224.029 319.586V314.6C224.029 313.76 223.825 313.106 223.417 312.638C223.009 312.158 222.409 311.918 221.617 311.918C220.873 311.918 220.273 312.158 219.817 312.638C219.361 313.106 219.133 313.76 219.133 314.6V319.586C219.133 319.706 219.097 319.808 219.025 319.892C218.953 319.964 218.851 320 218.719 320H217.819ZM232.081 320.18C230.845 320.18 229.861 319.802 229.129 319.046C228.397 318.278 227.995 317.234 227.923 315.914C227.911 315.758 227.905 315.56 227.905 315.32C227.905 315.068 227.911 314.864 227.923 314.708C227.971 313.856 228.169 313.112 228.517 312.476C228.865 311.828 229.339 311.33 229.939 310.982C230.551 310.634 231.265 310.46 232.081 310.46C232.993 310.46 233.755 310.652 234.367 311.036C234.991 311.42 235.465 311.966 235.789 312.674C236.113 313.382 236.275 314.21 236.275 315.158V315.464C236.275 315.596 236.233 315.698 236.149 315.77C236.077 315.842 235.981 315.878 235.861 315.878H229.633C229.633 315.89 229.633 315.914 229.633 315.95C229.633 315.986 229.633 316.016 229.633 316.04C229.657 316.532 229.765 316.994 229.957 317.426C230.149 317.846 230.425 318.188 230.785 318.452C231.145 318.716 231.577 318.848 232.081 318.848C232.513 318.848 232.873 318.782 233.161 318.65C233.449 318.518 233.683 318.374 233.863 318.218C234.043 318.05 234.163 317.924 234.223 317.84C234.331 317.684 234.415 317.594 234.475 317.57C234.535 317.534 234.631 317.516 234.763 317.516H235.627C235.747 317.516 235.843 317.552 235.915 317.624C235.999 317.684 236.035 317.774 236.023 317.894C236.011 318.074 235.915 318.296 235.735 318.56C235.555 318.812 235.297 319.064 234.961 319.316C234.625 319.568 234.217 319.778 233.737 319.946C233.257 320.102 232.705 320.18 232.081 320.18ZM229.633 314.636H234.565V314.582C234.565 314.042 234.463 313.562 234.259 313.142C234.067 312.722 233.785 312.392 233.413 312.152C233.041 311.9 232.597 311.774 232.081 311.774C231.565 311.774 231.121 311.9 230.749 312.152C230.389 312.392 230.113 312.722 229.921 313.142C229.729 313.562 229.633 314.042 229.633 314.582V314.636ZM241.848 320.18C241.188 320.18 240.618 320.066 240.138 319.838C239.658 319.598 239.262 319.28 238.95 318.884C238.65 318.476 238.422 318.014 238.266 317.498C238.122 316.982 238.038 316.436 238.014 315.86C238.002 315.668 237.996 315.488 237.996 315.32C237.996 315.152 238.002 314.972 238.014 314.78C238.038 314.216 238.122 313.676 238.266 313.16C238.422 312.644 238.65 312.182 238.95 311.774C239.262 311.366 239.658 311.048 240.138 310.82C240.618 310.58 241.188 310.46 241.848 310.46C242.556 310.46 243.144 310.586 243.612 310.838C244.08 311.09 244.464 311.402 244.764 311.774V307.634C244.764 307.514 244.8 307.418 244.872 307.346C244.956 307.262 245.058 307.22 245.178 307.22H246.042C246.162 307.22 246.258 307.262 246.33 307.346C246.414 307.418 246.456 307.514 246.456 307.634V319.586C246.456 319.706 246.414 319.808 246.33 319.892C246.258 319.964 246.162 320 246.042 320H245.232C245.1 320 244.998 319.964 244.926 319.892C244.854 319.808 244.818 319.706 244.818 319.586V318.83C244.518 319.214 244.128 319.538 243.648 319.802C243.168 320.054 242.568 320.18 241.848 320.18ZM242.226 318.722C242.826 318.722 243.306 318.584 243.666 318.308C244.026 318.032 244.296 317.684 244.476 317.264C244.656 316.832 244.752 316.394 244.764 315.95C244.776 315.758 244.782 315.53 244.782 315.266C244.782 314.99 244.776 314.756 244.764 314.564C244.752 314.144 244.65 313.73 244.458 313.322C244.278 312.914 244.002 312.578 243.63 312.314C243.27 312.05 242.802 311.918 242.226 311.918C241.614 311.918 241.128 312.056 240.768 312.332C240.408 312.596 240.15 312.95 239.994 313.394C239.838 313.826 239.748 314.294 239.724 314.798C239.712 315.146 239.712 315.494 239.724 315.842C239.748 316.346 239.838 316.82 239.994 317.264C240.15 317.696 240.408 318.05 240.768 318.326C241.128 318.59 241.614 318.722 242.226 318.722ZM252.625 320.18C251.857 320.18 251.203 320.012 250.663 319.676C250.135 319.328 249.733 318.848 249.457 318.236C249.181 317.624 249.043 316.922 249.043 316.13V311.054C249.043 310.934 249.079 310.838 249.151 310.766C249.235 310.682 249.337 310.64 249.457 310.64H250.357C250.477 310.64 250.573 310.682 250.645 310.766C250.729 310.838 250.771 310.934 250.771 311.054V316.04C250.771 317.828 251.551 318.722 253.111 318.722C253.855 318.722 254.449 318.488 254.893 318.02C255.349 317.54 255.577 316.88 255.577 316.04V311.054C255.577 310.934 255.613 310.838 255.685 310.766C255.769 310.682 255.871 310.64 255.991 310.64H256.873C257.005 310.64 257.107 310.682 257.179 310.766C257.251 310.838 257.287 310.934 257.287 311.054V319.586C257.287 319.706 257.251 319.808 257.179 319.892C257.107 319.964 257.005 320 256.873 320H256.045C255.925 320 255.823 319.964 255.739 319.892C255.667 319.808 255.631 319.706 255.631 319.586V318.794C255.307 319.214 254.911 319.55 254.443 319.802C253.987 320.054 253.381 320.18 252.625 320.18ZM260.393 320C260.273 320 260.171 319.964 260.087 319.892C260.015 319.808 259.979 319.706 259.979 319.586V307.634C259.979 307.514 260.015 307.418 260.087 307.346C260.171 307.262 260.273 307.22 260.393 307.22H261.239C261.371 307.22 261.473 307.262 261.545 307.346C261.617 307.418 261.653 307.514 261.653 307.634V319.586C261.653 319.706 261.617 319.808 261.545 319.892C261.473 319.964 261.371 320 261.239 320H260.393ZM268.064 320.18C266.828 320.18 265.844 319.802 265.112 319.046C264.38 318.278 263.978 317.234 263.906 315.914C263.894 315.758 263.888 315.56 263.888 315.32C263.888 315.068 263.894 314.864 263.906 314.708C263.954 313.856 264.152 313.112 264.5 312.476C264.848 311.828 265.322 311.33 265.922 310.982C266.534 310.634 267.248 310.46 268.064 310.46C268.976 310.46 269.738 310.652 270.35 311.036C270.974 311.42 271.448 311.966 271.772 312.674C272.096 313.382 272.258 314.21 272.258 315.158V315.464C272.258 315.596 272.216 315.698 272.132 315.77C272.06 315.842 271.964 315.878 271.844 315.878H265.616C265.616 315.89 265.616 315.914 265.616 315.95C265.616 315.986 265.616 316.016 265.616 316.04C265.64 316.532 265.748 316.994 265.94 317.426C266.132 317.846 266.408 318.188 266.768 318.452C267.128 318.716 267.56 318.848 268.064 318.848C268.496 318.848 268.856 318.782 269.144 318.65C269.432 318.518 269.666 318.374 269.846 318.218C270.026 318.05 270.146 317.924 270.206 317.84C270.314 317.684 270.398 317.594 270.458 317.57C270.518 317.534 270.614 317.516 270.746 317.516H271.61C271.73 317.516 271.826 317.552 271.898 317.624C271.982 317.684 272.018 317.774 272.006 317.894C271.994 318.074 271.898 318.296 271.718 318.56C271.538 318.812 271.28 319.064 270.944 319.316C270.608 319.568 270.2 319.778 269.72 319.946C269.24 320.102 268.688 320.18 268.064 320.18ZM265.616 314.636H270.548V314.582C270.548 314.042 270.446 313.562 270.242 313.142C270.05 312.722 269.768 312.392 269.396 312.152C269.024 311.9 268.58 311.774 268.064 311.774C267.548 311.774 267.104 311.9 266.732 312.152C266.372 312.392 266.096 312.722 265.904 313.142C265.712 313.562 265.616 314.042 265.616 314.582V314.636ZM282.854 320.18C282.098 320.18 281.438 320.09 280.874 319.91C280.31 319.718 279.836 319.466 279.452 319.154C279.068 318.842 278.774 318.5 278.57 318.128C278.378 317.756 278.276 317.372 278.264 316.976C278.264 316.868 278.3 316.784 278.372 316.724C278.444 316.664 278.534 316.634 278.642 316.634H279.524C279.632 316.634 279.728 316.658 279.812 316.706C279.896 316.754 279.968 316.856 280.028 317.012C280.148 317.444 280.352 317.78 280.64 318.02C280.94 318.26 281.282 318.428 281.666 318.524C282.062 318.608 282.458 318.65 282.854 318.65C283.682 318.65 284.354 318.452 284.87 318.056C285.386 317.66 285.644 317.078 285.644 316.31C285.644 315.53 285.41 314.972 284.942 314.636C284.474 314.3 283.826 314.132 282.998 314.132H281.288C281.168 314.132 281.066 314.096 280.982 314.024C280.91 313.952 280.874 313.85 280.874 313.718V313.232C280.874 313.124 280.892 313.034 280.928 312.962C280.976 312.878 281.024 312.806 281.072 312.746L284.564 308.93H279.254C279.134 308.93 279.032 308.894 278.948 308.822C278.876 308.75 278.84 308.648 278.84 308.516V307.832C278.84 307.7 278.876 307.598 278.948 307.526C279.032 307.442 279.134 307.4 279.254 307.4H286.436C286.568 307.4 286.67 307.442 286.742 307.526C286.826 307.598 286.868 307.7 286.868 307.832V308.48C286.868 308.564 286.844 308.642 286.796 308.714C286.76 308.774 286.718 308.834 286.67 308.894L283.196 312.764L283.484 312.782C284.276 312.806 284.966 312.95 285.554 313.214C286.154 313.478 286.616 313.874 286.94 314.402C287.276 314.918 287.444 315.572 287.444 316.364C287.444 317.168 287.246 317.858 286.85 318.434C286.454 318.998 285.908 319.43 285.212 319.73C284.516 320.03 283.73 320.18 282.854 320.18ZM294.007 320.18C293.179 320.18 292.477 320.054 291.901 319.802C291.337 319.538 290.875 319.178 290.515 318.722C290.155 318.266 289.891 317.744 289.723 317.156C289.567 316.568 289.477 315.944 289.453 315.284C289.441 314.96 289.429 314.618 289.417 314.258C289.417 313.898 289.417 313.538 289.417 313.178C289.429 312.806 289.441 312.452 289.453 312.116C289.465 311.456 289.555 310.832 289.723 310.244C289.903 309.644 290.167 309.122 290.515 308.678C290.875 308.222 291.343 307.868 291.919 307.616C292.495 307.352 293.191 307.22 294.007 307.22C294.835 307.22 295.531 307.352 296.095 307.616C296.671 307.868 297.139 308.222 297.499 308.678C297.859 309.122 298.123 309.644 298.291 310.244C298.471 310.832 298.567 311.456 298.579 312.116C298.591 312.452 298.597 312.806 298.597 313.178C298.609 313.538 298.609 313.898 298.597 314.258C298.597 314.618 298.591 314.96 298.579 315.284C298.567 315.944 298.471 316.568 298.291 317.156C298.123 317.744 297.859 318.266 297.499 318.722C297.151 319.178 296.689 319.538 296.113 319.802C295.549 320.054 294.847 320.18 294.007 320.18ZM294.007 318.65C294.943 318.65 295.633 318.344 296.077 317.732C296.533 317.108 296.767 316.262 296.779 315.194C296.803 314.846 296.815 314.51 296.815 314.186C296.815 313.85 296.815 313.52 296.815 313.196C296.815 312.86 296.803 312.53 296.779 312.206C296.767 311.162 296.533 310.328 296.077 309.704C295.633 309.068 294.943 308.75 294.007 308.75C293.083 308.75 292.393 309.068 291.937 309.704C291.493 310.328 291.259 311.162 291.235 312.206C291.235 312.53 291.229 312.86 291.217 313.196C291.217 313.52 291.217 313.85 291.217 314.186C291.229 314.51 291.235 314.846 291.235 315.194C291.259 316.262 291.499 317.108 291.955 317.732C292.411 318.344 293.095 318.65 294.007 318.65ZM306.119 320C305.999 320 305.897 319.964 305.813 319.892C305.741 319.808 305.705 319.706 305.705 319.586V307.832C305.705 307.7 305.741 307.598 305.813 307.526C305.897 307.442 305.999 307.4 306.119 307.4H307.019C307.163 307.4 307.271 307.436 307.343 307.508C307.415 307.58 307.457 307.64 307.469 307.688L311.285 314.96L315.119 307.688C315.143 307.64 315.185 307.58 315.245 307.508C315.317 307.436 315.425 307.4 315.569 307.4H316.451C316.583 307.4 316.685 307.442 316.757 307.526C316.841 307.598 316.883 307.7 316.883 307.832V319.586C316.883 319.706 316.841 319.808 316.757 319.892C316.685 319.964 316.583 320 316.451 320H315.569C315.449 320 315.347 319.964 315.263 319.892C315.191 319.808 315.155 319.706 315.155 319.586V310.73L312.149 316.598C312.101 316.718 312.029 316.814 311.933 316.886C311.837 316.946 311.717 316.976 311.573 316.976H311.015C310.859 316.976 310.733 316.946 310.637 316.886C310.553 316.814 310.481 316.718 310.421 316.598L307.415 310.73V319.586C307.415 319.706 307.373 319.808 307.289 319.892C307.217 319.964 307.121 320 307.001 320H306.119ZM320.176 320C320.056 320 319.954 319.964 319.87 319.892C319.798 319.808 319.762 319.706 319.762 319.586V311.054C319.762 310.934 319.798 310.838 319.87 310.766C319.954 310.682 320.056 310.64 320.176 310.64H321.04C321.16 310.64 321.256 310.682 321.328 310.766C321.4 310.838 321.436 310.934 321.436 311.054V319.586C321.436 319.706 321.4 319.808 321.328 319.892C321.256 319.964 321.16 320 321.04 320H320.176ZM320.032 308.894C319.912 308.894 319.81 308.858 319.726 308.786C319.654 308.702 319.618 308.6 319.618 308.48V307.508C319.618 307.388 319.654 307.292 319.726 307.22C319.81 307.136 319.912 307.094 320.032 307.094H321.166C321.286 307.094 321.382 307.136 321.454 307.22C321.538 307.292 321.58 307.388 321.58 307.508V308.48C321.58 308.6 321.538 308.702 321.454 308.786C321.382 308.858 321.286 308.894 321.166 308.894H320.032ZM324.711 320C324.591 320 324.489 319.964 324.405 319.892C324.333 319.808 324.297 319.706 324.297 319.586V311.054C324.297 310.934 324.333 310.838 324.405 310.766C324.489 310.682 324.591 310.64 324.711 310.64H325.557C325.677 310.64 325.773 310.682 325.845 310.766C325.929 310.838 325.971 310.934 325.971 311.054V311.846C326.283 311.438 326.673 311.108 327.141 310.856C327.621 310.592 328.233 310.46 328.977 310.46C329.757 310.46 330.417 310.634 330.957 310.982C331.509 311.318 331.923 311.792 332.199 312.404C332.475 313.004 332.613 313.706 332.613 314.51V319.586C332.613 319.706 332.577 319.808 332.505 319.892C332.433 319.964 332.337 320 332.217 320H331.317C331.197 320 331.095 319.964 331.011 319.892C330.939 319.808 330.903 319.706 330.903 319.586V314.6C330.903 313.76 330.699 313.106 330.291 312.638C329.883 312.158 329.283 311.918 328.491 311.918C327.747 311.918 327.147 312.158 326.691 312.638C326.247 313.106 326.025 313.76 326.025 314.6V319.586C326.025 319.706 325.983 319.808 325.899 319.892C325.827 319.964 325.731 320 325.611 320H324.711ZM338.705 320.18C337.937 320.18 337.283 320.012 336.743 319.676C336.215 319.328 335.813 318.848 335.537 318.236C335.261 317.624 335.123 316.922 335.123 316.13V311.054C335.123 310.934 335.159 310.838 335.231 310.766C335.315 310.682 335.417 310.64 335.537 310.64H336.437C336.557 310.64 336.653 310.682 336.725 310.766C336.809 310.838 336.851 310.934 336.851 311.054V316.04C336.851 317.828 337.631 318.722 339.191 318.722C339.935 318.722 340.529 318.488 340.973 318.02C341.429 317.54 341.657 316.88 341.657 316.04V311.054C341.657 310.934 341.693 310.838 341.765 310.766C341.849 310.682 341.951 310.64 342.071 310.64H342.953C343.085 310.64 343.187 310.682 343.259 310.766C343.331 310.838 343.367 310.934 343.367 311.054V319.586C343.367 319.706 343.331 319.808 343.259 319.892C343.187 319.964 343.085 320 342.953 320H342.125C342.005 320 341.903 319.964 341.819 319.892C341.747 319.808 341.711 319.706 341.711 319.586V318.794C341.387 319.214 340.991 319.55 340.523 319.802C340.067 320.054 339.461 320.18 338.705 320.18ZM349.695 320C349.023 320 348.477 319.874 348.057 319.622C347.637 319.358 347.331 318.992 347.139 318.524C346.947 318.044 346.851 317.48 346.851 316.832V312.08H345.447C345.327 312.08 345.225 312.044 345.141 311.972C345.069 311.888 345.033 311.786 345.033 311.666V311.054C345.033 310.934 345.069 310.838 345.141 310.766C345.225 310.682 345.327 310.64 345.447 310.64H346.851V307.634C346.851 307.514 346.887 307.418 346.959 307.346C347.043 307.262 347.145 307.22 347.265 307.22H348.111C348.231 307.22 348.327 307.262 348.399 307.346C348.483 307.418 348.525 307.514 348.525 307.634V310.64H350.757C350.877 310.64 350.973 310.682 351.045 310.766C351.129 310.838 351.171 310.934 351.171 311.054V311.666C351.171 311.786 351.129 311.888 351.045 311.972C350.973 312.044 350.877 312.08 350.757 312.08H348.525V316.706C348.525 317.27 348.621 317.714 348.813 318.038C349.005 318.362 349.347 318.524 349.839 318.524H350.937C351.057 318.524 351.153 318.566 351.225 318.65C351.309 318.722 351.351 318.818 351.351 318.938V319.586C351.351 319.706 351.309 319.808 351.225 319.892C351.153 319.964 351.057 320 350.937 320H349.695ZM356.798 320.18C355.562 320.18 354.578 319.802 353.846 319.046C353.114 318.278 352.712 317.234 352.64 315.914C352.628 315.758 352.622 315.56 352.622 315.32C352.622 315.068 352.628 314.864 352.64 314.708C352.688 313.856 352.886 313.112 353.234 312.476C353.582 311.828 354.056 311.33 354.656 310.982C355.268 310.634 355.982 310.46 356.798 310.46C357.71 310.46 358.472 310.652 359.084 311.036C359.708 311.42 360.182 311.966 360.506 312.674C360.83 313.382 360.992 314.21 360.992 315.158V315.464C360.992 315.596 360.95 315.698 360.866 315.77C360.794 315.842 360.698 315.878 360.578 315.878H354.35C354.35 315.89 354.35 315.914 354.35 315.95C354.35 315.986 354.35 316.016 354.35 316.04C354.374 316.532 354.482 316.994 354.674 317.426C354.866 317.846 355.142 318.188 355.502 318.452C355.862 318.716 356.294 318.848 356.798 318.848C357.23 318.848 357.59 318.782 357.878 318.65C358.166 318.518 358.4 318.374 358.58 318.218C358.76 318.05 358.88 317.924 358.94 317.84C359.048 317.684 359.132 317.594 359.192 317.57C359.252 317.534 359.348 317.516 359.48 317.516H360.344C360.464 317.516 360.56 317.552 360.632 317.624C360.716 317.684 360.752 317.774 360.74 317.894C360.728 318.074 360.632 318.296 360.452 318.56C360.272 318.812 360.014 319.064 359.678 319.316C359.342 319.568 358.934 319.778 358.454 319.946C357.974 320.102 357.422 320.18 356.798 320.18ZM354.35 314.636H359.282V314.582C359.282 314.042 359.18 313.562 358.976 313.142C358.784 312.722 358.502 312.392 358.13 312.152C357.758 311.9 357.314 311.774 356.798 311.774C356.282 311.774 355.838 311.9 355.466 312.152C355.106 312.392 354.83 312.722 354.638 313.142C354.446 313.562 354.35 314.042 354.35 314.582V314.636ZM366.385 320.18C365.713 320.18 365.137 320.096 364.657 319.928C364.177 319.76 363.787 319.556 363.487 319.316C363.187 319.076 362.959 318.836 362.803 318.596C362.659 318.356 362.581 318.164 362.569 318.02C362.557 317.888 362.599 317.786 362.695 317.714C362.791 317.642 362.887 317.606 362.983 317.606H363.775C363.847 317.606 363.901 317.618 363.937 317.642C363.985 317.654 364.045 317.702 364.117 317.786C364.273 317.954 364.447 318.122 364.639 318.29C364.831 318.458 365.065 318.596 365.341 318.704C365.629 318.812 365.983 318.866 366.403 318.866C367.015 318.866 367.519 318.752 367.915 318.524C368.311 318.284 368.509 317.936 368.509 317.48C368.509 317.18 368.425 316.94 368.257 316.76C368.101 316.58 367.813 316.418 367.393 316.274C366.985 316.13 366.421 315.98 365.701 315.824C364.981 315.656 364.411 315.452 363.991 315.212C363.571 314.96 363.271 314.666 363.091 314.33C362.911 313.982 362.821 313.592 362.821 313.16C362.821 312.716 362.953 312.29 363.217 311.882C363.481 311.462 363.865 311.12 364.369 310.856C364.885 310.592 365.527 310.46 366.295 310.46C366.919 310.46 367.453 310.538 367.897 310.694C368.341 310.85 368.707 311.048 368.995 311.288C369.283 311.516 369.499 311.744 369.643 311.972C369.787 312.2 369.865 312.392 369.877 312.548C369.889 312.668 369.853 312.77 369.769 312.854C369.685 312.926 369.589 312.962 369.481 312.962H368.725C368.641 312.962 368.569 312.944 368.509 312.908C368.461 312.872 368.413 312.83 368.365 312.782C368.245 312.626 368.101 312.47 367.933 312.314C367.777 312.158 367.567 312.032 367.303 311.936C367.051 311.828 366.715 311.774 366.295 311.774C365.695 311.774 365.245 311.9 364.945 312.152C364.645 312.404 364.495 312.722 364.495 313.106C364.495 313.334 364.561 313.538 364.693 313.718C364.825 313.898 365.077 314.06 365.449 314.204C365.821 314.348 366.373 314.504 367.104 314.672C367.897 314.828 368.521 315.038 368.977 315.302C369.433 315.566 369.757 315.872 369.949 316.22C370.141 316.568 370.237 316.97 370.237 317.426C370.237 317.93 370.087 318.392 369.787 318.812C369.499 319.232 369.067 319.568 368.491 319.82C367.927 320.06 367.225 320.18 366.385 320.18ZM381.502 320.18C380.398 320.18 379.48 319.976 378.748 319.568C378.028 319.16 377.482 318.59 377.11 317.858C376.738 317.126 376.534 316.274 376.498 315.302C376.486 314.81 376.48 314.282 376.48 313.718C376.48 313.154 376.486 312.614 376.498 312.098C376.534 311.126 376.738 310.274 377.11 309.542C377.482 308.81 378.028 308.24 378.748 307.832C379.48 307.424 380.398 307.22 381.502 307.22C382.33 307.22 383.056 307.334 383.68 307.562C384.304 307.79 384.82 308.096 385.228 308.48C385.648 308.864 385.966 309.296 386.182 309.776C386.398 310.244 386.518 310.73 386.542 311.234C386.554 311.342 386.518 311.432 386.434 311.504C386.362 311.576 386.272 311.612 386.164 311.612H385.174C385.066 311.612 384.97 311.582 384.886 311.522C384.814 311.462 384.76 311.354 384.724 311.198C384.52 310.262 384.136 309.62 383.572 309.272C383.02 308.924 382.324 308.75 381.484 308.75C380.524 308.75 379.762 309.026 379.198 309.578C378.634 310.118 378.328 310.988 378.28 312.188C378.244 313.172 378.244 314.18 378.28 315.212C378.328 316.412 378.634 317.288 379.198 317.84C379.762 318.38 380.524 318.65 381.484 318.65C382.324 318.65 383.02 318.476 383.572 318.128C384.136 317.78 384.52 317.138 384.724 316.202C384.76 316.046 384.814 315.938 384.886 315.878C384.97 315.818 385.066 315.788 385.174 315.788H386.164C386.272 315.788 386.362 315.824 386.434 315.896C386.518 315.968 386.554 316.058 386.542 316.166C386.518 316.67 386.398 317.162 386.182 317.642C385.966 318.11 385.648 318.536 385.228 318.92C384.82 319.304 384.304 319.61 383.68 319.838C383.056 320.066 382.33 320.18 381.502 320.18ZM391.331 320.18C390.731 320.18 390.185 320.06 389.693 319.82C389.201 319.58 388.805 319.256 388.505 318.848C388.205 318.44 388.055 317.978 388.055 317.462C388.055 316.634 388.391 315.974 389.063 315.482C389.735 314.99 390.611 314.666 391.691 314.51L394.373 314.132V313.61C394.373 313.034 394.205 312.584 393.869 312.26C393.545 311.936 393.011 311.774 392.267 311.774C391.727 311.774 391.289 311.882 390.953 312.098C390.629 312.314 390.401 312.59 390.269 312.926C390.197 313.106 390.071 313.196 389.891 313.196H389.081C388.949 313.196 388.847 313.16 388.775 313.088C388.715 313.004 388.685 312.908 388.685 312.8C388.685 312.62 388.751 312.398 388.883 312.134C389.027 311.87 389.243 311.612 389.531 311.36C389.819 311.108 390.185 310.898 390.629 310.73C391.085 310.55 391.637 310.46 392.285 310.46C393.005 310.46 393.611 310.556 394.103 310.748C394.595 310.928 394.979 311.174 395.255 311.486C395.543 311.798 395.747 312.152 395.867 312.548C395.999 312.944 396.065 313.346 396.065 313.754V319.586C396.065 319.706 396.023 319.808 395.939 319.892C395.867 319.964 395.771 320 395.651 320H394.823C394.691 320 394.589 319.964 394.517 319.892C394.445 319.808 394.409 319.706 394.409 319.586V318.812C394.253 319.028 394.043 319.244 393.779 319.46C393.515 319.664 393.185 319.838 392.789 319.982C392.393 320.114 391.907 320.18 391.331 320.18ZM391.709 318.83C392.201 318.83 392.651 318.728 393.059 318.524C393.467 318.308 393.785 317.978 394.013 317.534C394.253 317.09 394.373 316.532 394.373 315.86V315.356L392.285 315.662C391.433 315.782 390.791 315.986 390.359 316.274C389.927 316.55 389.711 316.904 389.711 317.336C389.711 317.672 389.807 317.954 389.999 318.182C390.203 318.398 390.455 318.56 390.755 318.668C391.067 318.776 391.385 318.83 391.709 318.83ZM399.084 320C398.964 320 398.862 319.964 398.778 319.892C398.706 319.808 398.67 319.706 398.67 319.586V307.634C398.67 307.514 398.706 307.418 398.778 307.346C398.862 307.262 398.964 307.22 399.084 307.22H399.93C400.062 307.22 400.164 307.262 400.236 307.346C400.308 307.418 400.344 307.514 400.344 307.634V319.586C400.344 319.706 400.308 319.808 400.236 319.892C400.164 319.964 400.062 320 399.93 320H399.084ZM403.461 320C403.341 320 403.239 319.964 403.155 319.892C403.083 319.808 403.047 319.706 403.047 319.586V307.634C403.047 307.514 403.083 307.418 403.155 307.346C403.239 307.262 403.341 307.22 403.461 307.22H404.307C404.439 307.22 404.541 307.262 404.613 307.346C404.685 307.418 404.721 307.514 404.721 307.634V319.586C404.721 319.706 404.685 319.808 404.613 319.892C404.541 319.964 404.439 320 404.307 320H403.461Z" fill="#018383"/>
<rect x="171" y="288.5" width="259" height="50" rx="23.5" stroke="#018383"/>
</svg>
