<svg width="31" height="32" viewBox="0 0 31 32" fill="none" xmlns="http://www.w3.org/2000/svg">
<path d="M28.6667 16C28.6689 17.7562 28.3231 19.4955 27.6493 21.1172C26.9754 22.739 25.9868 24.2112 24.7407 25.4487C23.5047 26.6825 22.0377 27.6606 20.4236 28.3271C18.8094 28.9937 17.0797 29.3356 15.3333 29.3333C7.96935 29.3333 2.00001 23.364 2.00001 16C1.99535 12.5812 3.30859 9.29211 5.66668 6.81667C6.91091 5.50373 8.40996 4.4585 10.0721 3.74492C11.7342 3.03135 13.5245 2.66445 15.3333 2.66667C17.0797 2.66441 18.8094 3.00632 20.4236 3.67288C22.0377 4.33943 23.5047 5.31755 24.7407 6.55133M28.6667 16C28.6689 14.2438 28.3231 12.5045 27.6493 10.8828C26.9754 9.26098 25.9868 7.78882 24.7407 6.55133M28.6667 16C26.7213 16 21.3547 15.2667 16.5513 17.3753C11.3333 19.6667 7.55535 23.2207 5.90868 25.4313M28.6667 16C28.6667 17.6413 28.37 19.214 27.8267 20.6667M24.7407 6.55133C23.5666 5.38149 22.1851 4.44036 20.6667 3.776M10.3333 3.636C12.42 5.562 16.9733 10.4653 18.6667 15.3333C20.36 20.2013 20.9867 26.1867 21.3733 27.89M2.10268 14.3333C4.62135 14.4853 11.2887 14.622 15.5553 12.8C19.822 10.978 23.4933 7.62667 24.7527 6.56333M3.00001 21.0753C4.17489 23.9193 6.29382 26.2715 9.00001 27.736" stroke="#BFBFBF" stroke-width="4" stroke-linecap="round" stroke-linejoin="round"/>
</svg>
