<svg width="31" height="32" viewBox="0 0 31 32" fill="none" xmlns="http://www.w3.org/2000/svg">
<path d="M28.9369 15.9998C28.9392 17.7561 28.5934 19.4953 27.9195 21.1171C27.2457 22.7389 26.2571 24.211 25.0109 25.4485C23.775 26.6823 22.308 27.6604 20.6938 28.327C19.0797 28.9935 17.35 29.3354 15.6036 29.3332C8.23961 29.3332 2.27028 23.3638 2.27028 15.9998C2.26561 12.581 3.57886 9.29195 5.93694 6.81652C7.18117 5.50358 8.68022 4.45834 10.3424 3.74477C12.0045 3.0312 13.7948 2.66429 15.6036 2.66652C17.35 2.66425 19.0797 3.00617 20.6938 3.67272C22.308 4.33928 23.775 5.3174 25.0109 6.55118M28.9369 15.9998C28.9392 14.2436 28.5934 12.5044 27.9195 10.8826C27.2457 9.26083 26.2571 7.78867 25.0109 6.55118M28.9369 15.9998C26.9916 15.9998 21.6249 15.2665 16.8216 17.3752C11.6036 19.6665 7.82561 23.2205 6.17894 25.4312M28.9369 15.9998C28.9369 17.6412 28.6403 19.2138 28.0969 20.6665M25.0109 6.55118C23.8369 5.38134 22.4554 4.44021 20.9369 3.77585M10.6036 3.63585C12.6903 5.56185 17.2436 10.4652 18.9369 15.3332C20.6303 20.2012 21.2569 26.1865 21.6436 27.8898M2.37294 14.3332C4.89161 14.4852 11.5589 14.6218 15.8256 12.7998C20.0923 10.9778 23.7636 7.62652 25.0229 6.56318M3.27028 21.0752C4.44515 23.9191 6.56408 26.2714 9.27028 27.7358" stroke="#BAFEFE" stroke-width="4" stroke-linecap="round" stroke-linejoin="round"/>
</svg>
