<svg width="508" height="44" viewBox="0 0 508 44" fill="none" xmlns="http://www.w3.org/2000/svg">
<path d="M-0.000749946 0.399998H19.5833V3.904H18.1913C18.1913 3.296 17.9193 2.816 17.3753 2.464C16.8633 2.112 16.3513 1.904 15.8393 1.84L15.0713 1.792H5.61525V16.48H12.2393C12.4953 16.48 12.7833 16.464 13.1033 16.432C13.4553 16.4 13.9193 16.208 14.4953 15.856C15.1033 15.504 15.4073 15.024 15.4073 14.416H16.7993V19.984H15.4073C15.4073 19.376 15.1353 18.896 14.5913 18.544C14.0793 18.192 13.5673 18 13.0553 17.968L12.2393 17.92H5.61525V30.496C5.61525 30.56 5.61525 30.64 5.61525 30.736C5.61525 30.832 5.63125 31.008 5.66325 31.264C5.72725 31.488 5.80725 31.696 5.90325 31.888C5.99925 32.048 6.14325 32.208 6.33525 32.368C6.52725 32.528 6.75125 32.608 7.00725 32.608V34H-0.000749946V32.608C0.25525 32.608 0.47925 32.544 0.67125 32.416C0.86325 32.256 1.00725 32.08 1.10325 31.888C1.19925 31.664 1.26325 31.456 1.29525 31.264C1.35925 31.04 1.39125 30.864 1.39125 30.736V30.496V3.904C1.39125 3.84 1.39125 3.76 1.39125 3.664C1.39125 3.568 1.35925 3.408 1.29525 3.184C1.26325 2.928 1.19925 2.72 1.10325 2.56C1.00725 2.368 0.86325 2.192 0.67125 2.032C0.47925 1.872 0.25525 1.792 -0.000749946 1.792V0.399998ZM27.6889 30.496C27.6889 30.56 27.6889 30.64 27.6889 30.736C27.7209 30.832 27.7529 31.008 27.7849 31.264C27.8489 31.488 27.9129 31.696 27.9769 31.888C28.0729 32.048 28.2169 32.208 28.4089 32.368C28.6009 32.528 28.8249 32.608 29.0809 32.608V34H22.1209V32.608C22.5369 32.608 22.8569 32.432 23.0809 32.08C23.3049 31.728 23.4329 31.376 23.4649 31.024L23.5129 30.496V16.48C23.5129 16.448 23.4969 16.384 23.4649 16.288C23.4649 16.192 23.4329 16.032 23.3689 15.808C23.3369 15.552 23.2729 15.328 23.1769 15.136C23.1129 14.944 22.9849 14.784 22.7929 14.656C22.6009 14.496 22.3769 14.416 22.1209 14.416V13.024L26.2969 10.192H27.6889V30.496ZM27.8809 5.824C27.8809 6.656 27.5929 7.36 27.0169 7.936C26.4409 8.512 25.7369 8.8 24.9049 8.8C24.0729 8.8 23.3689 8.512 22.7929 7.936C22.2169 7.36 21.9289 6.656 21.9289 5.824C21.9289 4.992 22.2169 4.288 22.7929 3.712C23.3689 3.136 24.0729 2.848 24.9049 2.848C25.7369 2.848 26.4409 3.136 27.0169 3.712C27.5929 4.288 27.8809 4.992 27.8809 5.824ZM52.1569 30.496C52.1569 30.56 52.1569 30.64 52.1569 30.736C52.1889 30.832 52.2209 31.008 52.2529 31.264C52.3169 31.488 52.3809 31.696 52.4449 31.888C52.5409 32.048 52.6849 32.208 52.8769 32.368C53.0689 32.528 53.2929 32.608 53.5489 32.608V34H46.5889V32.608C47.0049 32.608 47.3249 32.432 47.5489 32.08C47.7729 31.728 47.9009 31.376 47.9329 31.024L47.9809 30.496V15.088C47.9809 14.032 47.5489 13.168 46.6849 12.496C45.8209 11.792 44.7329 11.44 43.4209 11.44C42.4609 11.44 41.5969 11.6 40.8289 11.92C40.0929 12.208 39.5489 12.576 39.1969 13.024C38.8449 13.472 38.5889 13.872 38.4289 14.224C38.2689 14.576 38.1889 14.864 38.1889 15.088V30.496C38.1889 30.56 38.1889 30.64 38.1889 30.736C38.1889 30.832 38.2049 31.008 38.2369 31.264C38.3009 31.488 38.3809 31.696 38.4769 31.888C38.5729 32.048 38.7169 32.208 38.9089 32.368C39.1009 32.528 39.3249 32.608 39.5809 32.608V34H32.5729V32.608C32.9889 32.608 33.3089 32.432 33.5329 32.08C33.7889 31.728 33.9169 31.376 33.9169 31.024L33.9649 30.496V16.48C33.9649 16.448 33.9649 16.384 33.9649 16.288C33.9649 16.192 33.9329 16.032 33.8689 15.808C33.8369 15.552 33.7729 15.328 33.6769 15.136C33.5809 14.944 33.4369 14.784 33.2449 14.656C33.0529 14.496 32.8289 14.416 32.5729 14.416V13.024L36.7489 10.192H38.1889V12.256C39.4689 10.528 41.6289 9.664 44.6689 9.664C45.7889 9.664 46.8929 9.84 47.9809 10.192C49.1009 10.544 50.0769 11.12 50.9089 11.92C51.7409 12.72 52.1569 13.664 52.1569 14.752V30.496ZM62.1386 11.584V30.496C62.1386 30.56 62.1386 30.64 62.1386 30.736C62.1386 30.832 62.1546 31.008 62.1866 31.264C62.2506 31.488 62.3306 31.696 62.4266 31.888C62.5226 32.048 62.6666 32.208 62.8586 32.368C63.0506 32.528 63.2746 32.608 63.5306 32.608V34H62.1386C61.4026 34 60.7626 33.92 60.2186 33.76C59.6746 33.6 59.2586 33.424 58.9706 33.232C58.6826 33.04 58.4586 32.816 58.2986 32.56C58.1386 32.272 58.0266 32.048 57.9626 31.888C57.9306 31.696 57.9146 31.52 57.9146 31.36V13.696C57.9146 13.632 57.9146 13.552 57.9146 13.456C57.9146 13.36 57.8826 13.2 57.8186 12.976C57.7866 12.72 57.7226 12.512 57.6266 12.352C57.5306 12.16 57.3866 11.984 57.1946 11.824C57.0026 11.664 56.7786 11.584 56.5226 11.584V10.192L60.6986 5.296H62.1386V10.192H63.5306V11.584H62.1386ZM77.778 33.136C80.402 33.136 82.61 31.728 84.402 28.912L85.698 29.776C83.618 32.944 80.85 34.528 77.394 34.528C75.314 34.528 73.458 33.936 71.826 32.752C70.226 31.568 69.01 30.048 68.178 28.192C67.346 26.304 66.93 24.272 66.93 22.096C66.93 18.736 67.89 15.824 69.81 13.36C71.762 10.896 74.242 9.664 77.25 9.664C79.842 9.664 81.954 10.672 83.586 12.688C85.25 14.672 86.21 17.2 86.466 20.272C86.21 20.336 85.874 20.416 85.458 20.512C85.042 20.608 84.226 20.864 83.01 21.28C81.794 21.664 80.626 22.096 79.506 22.576C78.418 23.024 77.202 23.648 75.858 24.448C74.514 25.216 73.378 26.032 72.45 26.896C72.386 26.96 72.338 26.992 72.306 26.992C72.722 28.88 73.394 30.384 74.322 31.504C75.25 32.592 76.402 33.136 77.778 33.136ZM71.826 21.424C71.826 22.704 71.89 24 72.018 25.312C74.93 23.072 78.146 21.376 81.666 20.224C81.602 17.536 81.202 15.344 80.466 13.648C79.73 11.92 78.658 11.056 77.25 11.056C75.618 11.056 74.322 12.032 73.362 13.984C72.402 15.904 71.89 18.384 71.826 21.424ZM116.836 30.496C116.836 30.56 116.836 30.64 116.836 30.736C116.836 30.832 116.852 31.008 116.884 31.264C116.948 31.488 117.028 31.696 117.124 31.888C117.22 32.048 117.364 32.208 117.556 32.368C117.748 32.528 117.972 32.608 118.228 32.608V34H111.22V32.608C111.636 32.608 111.956 32.432 112.18 32.08C112.404 31.728 112.532 31.376 112.564 31.024L112.612 30.496V24.352C115.012 19.936 116.42 17.376 116.836 16.672V30.496ZM130.804 30.496C130.804 30.56 130.804 30.64 130.804 30.736C130.836 30.832 130.868 31.008 130.9 31.264C130.964 31.488 131.028 31.696 131.092 31.888C131.188 32.048 131.332 32.208 131.524 32.368C131.716 32.528 131.956 32.608 132.244 32.608V34H125.236V32.608C125.652 32.608 125.972 32.432 126.196 32.08C126.42 31.728 126.548 31.376 126.58 31.024L126.628 30.496V15.28C126.5 14.16 126.036 13.248 125.236 12.544C124.468 11.808 123.412 11.44 122.068 11.44C119.796 11.44 118.052 12.544 116.836 14.752L116.788 14.8C116.34 15.6 115.716 16.72 114.916 18.16C114.148 19.6 113.412 20.944 112.708 22.192C112.036 23.408 111.412 24.56 110.836 25.648C110.26 26.704 109.892 27.36 109.732 27.616C109.092 28.704 108.484 29.632 107.908 30.4C107.364 31.136 106.692 31.84 105.892 32.512C105.124 33.184 104.244 33.68 103.252 34C102.292 34.352 101.22 34.528 100.036 34.528C98.2758 34.528 96.7078 34.192 95.3318 33.52C93.9558 32.816 92.8518 31.888 92.0198 30.736C91.1878 29.552 90.5638 28.24 90.1478 26.8C89.7318 25.328 89.5238 23.76 89.5238 22.096C89.5238 18.768 90.5158 15.872 92.4998 13.408C94.5158 10.912 97.0278 9.664 100.036 9.664C101.892 9.664 103.588 10.176 105.124 11.2C105.924 11.616 106.324 11.28 106.324 10.192H107.716V17.2C107.204 15.44 106.228 13.984 104.788 12.832C103.38 11.648 101.844 11.056 100.18 11.056C98.3558 11.056 96.9318 12.096 95.9078 14.176C94.9158 16.256 94.4198 18.896 94.4198 22.096C94.4198 22.64 94.4198 22.928 94.4198 22.96C94.5158 25.904 95.0758 28.336 96.0998 30.256C97.1558 32.176 98.5638 33.136 100.324 33.136C101.476 33.136 102.532 32.88 103.492 32.368C104.484 31.824 105.332 31.136 106.036 30.304C106.74 29.44 107.54 28.288 108.436 26.848C109.236 25.504 110.628 22.88 112.612 18.976V6.688C112.612 6.624 112.612 6.56 112.612 6.496C112.612 6.4 112.58 6.24 112.516 6.016C112.484 5.76 112.42 5.536 112.324 5.344C112.228 5.152 112.084 4.992 111.892 4.864C111.7 4.704 111.476 4.624 111.22 4.624V3.184L115.396 0.399998H116.836V12.448C118.212 10.592 120.356 9.664 123.268 9.664C124.42 9.664 125.54 9.84 126.628 10.192C127.748 10.544 128.724 11.12 129.556 11.92C130.388 12.72 130.804 13.664 130.804 14.752V30.496ZM179.188 1.792C178.932 1.792 178.708 1.872 178.516 2.032C178.324 2.16 178.18 2.336 178.084 2.56C178.02 2.752 177.956 2.96 177.892 3.184C177.86 3.376 177.828 3.536 177.796 3.664V3.904V30.496C177.796 30.56 177.796 30.64 177.796 30.736C177.828 30.832 177.86 31.008 177.892 31.264C177.956 31.488 178.02 31.696 178.084 31.888C178.18 32.048 178.324 32.208 178.516 32.368C178.708 32.528 178.932 32.608 179.188 32.608V34H172.228V32.608C172.644 32.608 172.964 32.432 173.188 32.08C173.412 31.728 173.54 31.376 173.572 31.024L173.62 30.496V4.624L163.828 34H162.388L152.596 7.888V30.496C152.596 30.56 152.596 30.64 152.596 30.736C152.628 30.832 152.66 31.008 152.692 31.264C152.756 31.488 152.82 31.696 152.884 31.888C152.98 32.048 153.124 32.208 153.316 32.368C153.508 32.528 153.732 32.608 153.988 32.608V34H149.812V32.608C150.228 32.608 150.548 32.432 150.772 32.08C151.028 31.728 151.156 31.376 151.156 31.024L151.204 30.496V3.904C151.204 3.84 151.204 3.76 151.204 3.664C151.204 3.568 151.172 3.408 151.108 3.184C151.076 2.928 151.012 2.72 150.916 2.56C150.82 2.368 150.676 2.192 150.484 2.032C150.292 1.872 150.068 1.792 149.812 1.792V0.399998H153.988L164.404 28.048L173.62 0.399998H179.188V1.792ZM193.363 9.664C196.371 9.664 198.867 10.912 200.851 13.408C202.835 15.872 203.827 18.768 203.827 22.096C203.827 25.424 202.835 28.336 200.851 30.832C198.867 33.296 196.371 34.528 193.363 34.528C190.355 34.528 187.843 33.296 185.827 30.832C183.843 28.336 182.851 25.424 182.851 22.096C182.851 18.768 183.843 15.872 185.827 13.408C187.843 10.912 190.355 9.664 193.363 9.664ZM189.235 30.016C190.259 32.096 191.635 33.136 193.363 33.136C195.091 33.136 196.451 32.096 197.443 30.016C198.435 27.904 198.931 25.264 198.931 22.096C198.931 18.928 198.435 16.304 197.443 14.224C196.451 12.112 195.091 11.056 193.363 11.056C192.499 11.056 191.699 11.344 190.963 11.92C190.259 12.496 189.667 13.296 189.187 14.32C188.739 15.312 188.387 16.48 188.131 17.824C187.875 19.136 187.747 20.56 187.747 22.096C187.747 25.264 188.243 27.904 189.235 30.016ZM218.364 9.664C221.404 9.664 223.916 10.912 225.9 13.408C227.884 15.872 228.876 18.784 228.876 22.144C228.876 25.472 227.884 28.368 225.9 30.832C223.916 33.296 221.404 34.528 218.364 34.528C215.932 34.528 214.076 33.28 212.796 30.784V31.36C212.796 31.584 212.748 31.808 212.652 32.032C212.556 32.256 212.38 32.544 212.124 32.896C211.9 33.216 211.468 33.488 210.828 33.712C210.22 33.904 209.468 34 208.572 34H207.18V32.608C207.596 32.608 207.916 32.432 208.14 32.08C208.396 31.728 208.524 31.376 208.524 31.024L208.572 30.496V6.688C208.572 6.656 208.572 6.592 208.572 6.496C208.572 6.4 208.54 6.24 208.476 6.016C208.444 5.76 208.38 5.536 208.284 5.344C208.188 5.152 208.044 4.992 207.852 4.864C207.66 4.704 207.436 4.624 207.18 4.624V3.184L211.356 0.399998H212.796V13.408C214.076 10.912 215.932 9.664 218.364 9.664ZM218.364 33.136C220.092 33.136 221.452 32.096 222.444 30.016C223.468 27.904 223.98 25.264 223.98 22.096C223.98 18.928 223.468 16.304 222.444 14.224C221.452 12.112 220.092 11.056 218.364 11.056C216.636 11.056 215.276 12.096 214.284 14.176C213.292 16.224 212.796 18.864 212.796 22.096C212.796 25.328 213.292 27.984 214.284 30.064C215.276 32.112 216.636 33.136 218.364 33.136ZM237.736 30.496C237.736 30.56 237.736 30.64 237.736 30.736C237.768 30.832 237.8 31.008 237.832 31.264C237.896 31.488 237.96 31.696 238.024 31.888C238.12 32.048 238.264 32.208 238.456 32.368C238.648 32.528 238.872 32.608 239.128 32.608V34H232.168V32.608C232.584 32.608 232.904 32.432 233.128 32.08C233.352 31.728 233.48 31.376 233.512 31.024L233.56 30.496V16.48C233.56 16.448 233.544 16.384 233.512 16.288C233.512 16.192 233.48 16.032 233.416 15.808C233.384 15.552 233.32 15.328 233.224 15.136C233.16 14.944 233.032 14.784 232.84 14.656C232.648 14.496 232.424 14.416 232.168 14.416V13.024L236.344 10.192H237.736V30.496ZM237.928 5.824C237.928 6.656 237.64 7.36 237.064 7.936C236.488 8.512 235.784 8.8 234.952 8.8C234.12 8.8 233.416 8.512 232.84 7.936C232.264 7.36 231.976 6.656 231.976 5.824C231.976 4.992 232.264 4.288 232.84 3.712C233.416 3.136 234.12 2.848 234.952 2.848C235.784 2.848 236.488 3.136 237.064 3.712C237.64 4.288 237.928 4.992 237.928 5.824ZM248.14 30.496C248.14 30.56 248.14 30.64 248.14 30.736C248.14 30.832 248.156 31.008 248.188 31.264C248.252 31.488 248.332 31.696 248.428 31.888C248.524 32.048 248.668 32.208 248.86 32.368C249.052 32.528 249.276 32.608 249.532 32.608V34H242.524V32.608C242.94 32.608 243.26 32.432 243.484 32.08C243.74 31.728 243.868 31.376 243.868 31.024L243.916 30.496V6.688C243.916 6.656 243.916 6.592 243.916 6.496C243.916 6.4 243.884 6.24 243.82 6.016C243.788 5.76 243.724 5.536 243.628 5.344C243.532 5.152 243.388 4.992 243.196 4.864C243.004 4.704 242.78 4.624 242.524 4.624V3.184L246.7 0.399998H248.14V30.496ZM263.731 33.136C266.355 33.136 268.563 31.728 270.355 28.912L271.651 29.776C269.571 32.944 266.803 34.528 263.347 34.528C261.267 34.528 259.411 33.936 257.779 32.752C256.179 31.568 254.963 30.048 254.131 28.192C253.299 26.304 252.883 24.272 252.883 22.096C252.883 18.736 253.843 15.824 255.763 13.36C257.715 10.896 260.195 9.664 263.203 9.664C265.795 9.664 267.907 10.672 269.539 12.688C271.203 14.672 272.163 17.2 272.419 20.272C272.163 20.336 271.827 20.416 271.411 20.512C270.995 20.608 270.179 20.864 268.963 21.28C267.747 21.664 266.579 22.096 265.459 22.576C264.371 23.024 263.155 23.648 261.811 24.448C260.467 25.216 259.331 26.032 258.403 26.896C258.339 26.96 258.291 26.992 258.259 26.992C258.675 28.88 259.347 30.384 260.275 31.504C261.203 32.592 262.355 33.136 263.731 33.136ZM257.779 21.424C257.779 22.704 257.843 24 257.971 25.312C260.883 23.072 264.099 21.376 267.619 20.224C267.555 17.536 267.155 15.344 266.419 13.648C265.683 11.92 264.611 11.056 263.203 11.056C261.571 11.056 260.275 12.032 259.315 13.984C258.355 15.904 257.843 18.384 257.779 21.424ZM311.814 30.304C311.846 30.368 311.878 30.464 311.91 30.592C311.974 30.688 312.07 30.864 312.198 31.12C312.358 31.376 312.534 31.616 312.726 31.84C312.918 32.032 313.158 32.208 313.446 32.368C313.766 32.528 314.102 32.608 314.454 32.608V34H307.11V32.608C307.942 32.608 308.134 31.872 307.686 30.4L304.662 21.424H294.87L291.894 30.304C291.862 30.368 291.83 30.464 291.798 30.592C291.798 30.688 291.782 30.864 291.75 31.12C291.75 31.376 291.75 31.616 291.75 31.84C291.782 32.032 291.846 32.208 291.942 32.368C292.07 32.528 292.23 32.608 292.422 32.608V34H287.862V32.608C288.406 32.608 288.902 32.416 289.35 32.032C289.798 31.648 290.102 31.264 290.262 30.88L290.502 30.304L300.438 0.399998H301.878L311.814 30.304ZM295.35 19.984H304.182L299.766 6.688L295.35 19.984ZM327.442 9.664C330.482 9.664 332.994 10.912 334.978 13.408C336.962 15.872 337.954 18.784 337.954 22.144C337.954 25.472 336.962 28.368 334.978 30.832C332.994 33.296 330.482 34.528 327.442 34.528C325.01 34.528 323.154 33.28 321.874 30.784V40.288C321.874 40.32 321.874 40.352 321.874 40.384C321.874 40.448 321.874 40.544 321.874 40.672C321.906 40.832 321.938 40.976 321.97 41.104C322.002 41.264 322.05 41.424 322.114 41.584C322.178 41.744 322.258 41.872 322.354 41.968C322.45 42.096 322.578 42.192 322.738 42.256C322.898 42.352 323.074 42.4 323.266 42.4V43.792H316.258V42.4C316.674 42.4 316.994 42.224 317.218 41.872C317.474 41.52 317.602 41.168 317.602 40.816L317.65 40.288V16.48C317.65 16.448 317.65 16.384 317.65 16.288C317.65 16.192 317.618 16.032 317.554 15.808C317.522 15.552 317.458 15.328 317.362 15.136C317.266 14.944 317.122 14.784 316.93 14.656C316.738 14.496 316.514 14.416 316.258 14.416V13.024L320.434 10.192H321.874V13.408C323.154 10.912 325.01 9.664 327.442 9.664ZM327.442 33.136C329.17 33.136 330.53 32.096 331.522 30.016C332.546 27.904 333.058 25.264 333.058 22.096C333.058 18.928 332.546 16.304 331.522 14.224C330.53 12.112 329.17 11.056 327.442 11.056C325.714 11.056 324.354 12.096 323.362 14.176C322.37 16.224 321.874 18.864 321.874 22.096C321.874 25.328 322.37 27.984 323.362 30.064C324.354 32.112 325.714 33.136 327.442 33.136ZM352.52 9.664C355.56 9.664 358.072 10.912 360.056 13.408C362.04 15.872 363.032 18.784 363.032 22.144C363.032 25.472 362.04 28.368 360.056 30.832C358.072 33.296 355.56 34.528 352.52 34.528C350.088 34.528 348.232 33.28 346.952 30.784V40.288C346.952 40.32 346.952 40.352 346.952 40.384C346.952 40.448 346.952 40.544 346.952 40.672C346.984 40.832 347.016 40.976 347.048 41.104C347.08 41.264 347.128 41.424 347.192 41.584C347.256 41.744 347.336 41.872 347.432 41.968C347.528 42.096 347.656 42.192 347.816 42.256C347.976 42.352 348.152 42.4 348.344 42.4V43.792H341.336V42.4C341.752 42.4 342.072 42.224 342.296 41.872C342.552 41.52 342.68 41.168 342.68 40.816L342.728 40.288V16.48C342.728 16.448 342.728 16.384 342.728 16.288C342.728 16.192 342.696 16.032 342.632 15.808C342.6 15.552 342.536 15.328 342.44 15.136C342.344 14.944 342.2 14.784 342.008 14.656C341.816 14.496 341.592 14.416 341.336 14.416V13.024L345.512 10.192H346.952V13.408C348.232 10.912 350.088 9.664 352.52 9.664ZM352.52 33.136C354.248 33.136 355.608 32.096 356.6 30.016C357.624 27.904 358.136 25.264 358.136 22.096C358.136 18.928 357.624 16.304 356.6 14.224C355.608 12.112 354.248 11.056 352.52 11.056C350.792 11.056 349.432 12.096 348.44 14.176C347.448 16.224 346.952 18.864 346.952 22.096C346.952 25.328 347.448 27.984 348.44 30.064C349.432 32.112 350.792 33.136 352.52 33.136ZM391.903 0.399998C395.679 0.399998 398.719 1.984 401.023 5.152C403.327 8.32 404.479 12.336 404.479 17.2C404.479 22.064 403.327 26.08 401.023 29.248C398.719 32.416 395.679 34 391.903 34H380.671V32.608C381.087 32.608 381.407 32.432 381.631 32.08C381.887 31.728 382.015 31.376 382.015 31.024L382.063 30.496V3.904C382.063 3.84 382.063 3.76 382.063 3.664C382.063 3.568 382.031 3.408 381.967 3.184C381.935 2.928 381.871 2.72 381.775 2.56C381.679 2.368 381.535 2.192 381.343 2.032C381.151 1.872 380.927 1.792 380.671 1.792V0.399998H391.903ZM391.903 32.608C393.471 32.608 394.847 31.92 396.031 30.544C397.215 29.136 398.095 27.28 398.671 24.976C399.279 22.672 399.583 20.08 399.583 17.2C399.583 14.32 399.279 11.728 398.671 9.424C398.095 7.12 397.215 5.28 396.031 3.904C394.847 2.496 393.471 1.792 391.903 1.792H386.287V32.608H391.903ZM418.794 33.136C421.418 33.136 423.626 31.728 425.418 28.912L426.714 29.776C424.634 32.944 421.866 34.528 418.41 34.528C416.33 34.528 414.474 33.936 412.842 32.752C411.242 31.568 410.026 30.048 409.194 28.192C408.362 26.304 407.946 24.272 407.946 22.096C407.946 18.736 408.906 15.824 410.826 13.36C412.778 10.896 415.258 9.664 418.266 9.664C420.858 9.664 422.97 10.672 424.602 12.688C426.266 14.672 427.226 17.2 427.482 20.272C427.226 20.336 426.89 20.416 426.474 20.512C426.058 20.608 425.242 20.864 424.026 21.28C422.81 21.664 421.642 22.096 420.522 22.576C419.434 23.024 418.218 23.648 416.874 24.448C415.53 25.216 414.394 26.032 413.466 26.896C413.402 26.96 413.354 26.992 413.322 26.992C413.738 28.88 414.41 30.384 415.338 31.504C416.266 32.592 417.418 33.136 418.794 33.136ZM412.842 21.424C412.842 22.704 412.906 24 413.034 25.312C415.946 23.072 419.162 21.376 422.682 20.224C422.618 17.536 422.218 15.344 421.482 13.648C420.746 11.92 419.674 11.056 418.266 11.056C416.634 11.056 415.338 12.032 414.378 13.984C413.418 15.904 412.906 18.384 412.842 21.424ZM434.811 14.416C434.811 15.184 435.291 16 436.251 16.864C437.211 17.696 438.379 18.528 439.755 19.36C441.131 20.192 442.507 21.056 443.883 21.952C445.259 22.848 446.427 23.888 447.387 25.072C448.347 26.224 448.827 27.392 448.827 28.576C448.827 29.632 448.539 30.56 447.963 31.36C447.419 32.128 446.667 32.736 445.707 33.184C444.779 33.632 443.787 33.968 442.731 34.192C441.707 34.416 440.651 34.528 439.563 34.528C437.611 34.56 435.803 34.096 434.139 33.136C434.107 33.104 434.075 33.088 434.043 33.088C434.043 33.056 434.027 33.04 433.995 33.04C433.835 32.944 433.675 32.88 433.515 32.848C433.355 32.816 433.179 32.88 432.987 33.04C432.827 33.2 432.747 33.52 432.747 34H431.355V26.992C431.867 28.72 432.907 30.176 434.475 31.36C436.075 32.544 437.707 33.136 439.371 33.136C440.875 33.136 442.139 32.864 443.163 32.32C444.187 31.776 444.699 30.944 444.699 29.824C444.699 29.024 444.203 28.16 443.211 27.232C442.251 26.304 441.083 25.408 439.707 24.544C438.331 23.68 436.955 22.784 435.579 21.856C434.203 20.928 433.035 19.904 432.075 18.784C431.115 17.664 430.635 16.56 430.635 15.472C430.635 14.384 430.875 13.456 431.355 12.688C431.835 11.888 432.491 11.28 433.323 10.864C434.155 10.448 435.035 10.144 435.963 9.952C436.923 9.76 437.947 9.664 439.035 9.664C440.827 9.664 442.475 10.128 443.979 11.056L444.075 11.152C444.939 11.632 445.371 11.312 445.371 10.192H446.763V17.2C446.251 15.44 445.275 13.984 443.835 12.832C442.395 11.648 440.859 11.056 439.227 11.056C437.979 11.056 436.923 11.312 436.059 11.824C435.227 12.336 434.811 13.2 434.811 14.416ZM457.205 30.496C457.205 30.56 457.205 30.64 457.205 30.736C457.237 30.832 457.269 31.008 457.301 31.264C457.365 31.488 457.429 31.696 457.493 31.888C457.589 32.048 457.733 32.208 457.925 32.368C458.117 32.528 458.341 32.608 458.597 32.608V34H451.637V32.608C452.053 32.608 452.373 32.432 452.597 32.08C452.821 31.728 452.949 31.376 452.98 31.024L453.029 30.496V16.48C453.029 16.448 453.013 16.384 452.98 16.288C452.98 16.192 452.949 16.032 452.885 15.808C452.853 15.552 452.789 15.328 452.693 15.136C452.629 14.944 452.501 14.784 452.309 14.656C452.117 14.496 451.893 14.416 451.637 14.416V13.024L455.812 10.192H457.205V30.496ZM457.397 5.824C457.397 6.656 457.109 7.36 456.533 7.936C455.957 8.512 455.253 8.8 454.421 8.8C453.589 8.8 452.885 8.512 452.309 7.936C451.733 7.36 451.445 6.656 451.445 5.824C451.445 4.992 451.733 4.288 452.309 3.712C452.885 3.136 453.589 2.848 454.421 2.848C455.253 2.848 455.957 3.136 456.533 3.712C457.109 4.288 457.397 4.992 457.397 5.824ZM481.001 13.024C480.937 12.32 480.665 11.712 480.185 11.2C479.737 10.688 479.177 10.464 478.505 10.528C477.961 10.528 477.481 10.688 477.065 11.008C478.505 11.936 479.641 13.2 480.473 14.8C481.305 16.4 481.721 18.112 481.721 19.936C481.721 22.656 480.825 25.04 479.033 27.088C477.241 29.136 475.001 30.16 472.312 30.16C470.297 30.16 468.489 29.552 466.889 28.336C466.537 28.56 466.217 28.848 465.929 29.2C465.641 29.552 465.449 29.936 465.353 30.352C465.289 30.768 465.369 31.152 465.593 31.504C465.817 31.856 466.361 32.16 467.225 32.416C468.089 32.672 469.257 32.8 470.729 32.8C475.081 32.8 478.169 33.152 479.993 33.856C481.849 34.56 482.777 35.952 482.777 38.032C482.777 39.664 481.945 41.024 480.281 42.112C478.649 43.232 476.217 43.792 472.984 43.792C469.561 43.792 467.113 43.376 465.641 42.544C464.009 41.584 463.193 40.32 463.193 38.752C463.193 38.016 463.529 37.488 464.201 37.168C464.873 36.88 465.561 36.832 466.265 37.024C466.969 37.248 467.353 37.648 467.417 38.224C467.513 39.28 467.897 40.208 468.569 41.008C469.465 42.064 470.937 42.592 472.984 42.592C475.449 42.592 477.353 42.24 478.697 41.536C480.041 40.864 480.713 40.048 480.713 39.088C480.713 38.736 480.601 38.432 480.377 38.176C480.153 37.952 479.785 37.76 479.273 37.6C478.761 37.44 478.281 37.312 477.833 37.216C477.385 37.152 476.697 37.104 475.769 37.072C474.873 37.04 474.137 37.008 473.561 36.976C473.017 36.976 472.185 36.976 471.065 36.976C467.641 36.976 465.241 36.576 463.865 35.776C462.489 35.008 461.801 33.84 461.801 32.272C461.801 31.312 462.201 30.4 463.001 29.536C463.833 28.64 464.793 27.936 465.881 27.424C463.865 25.344 462.857 22.848 462.857 19.936C462.857 18.144 463.241 16.48 464.009 14.944C464.809 13.376 465.945 12.112 467.417 11.152C468.889 10.16 470.521 9.664 472.312 9.664C473.689 9.664 475.001 9.968 476.249 10.576C477.049 9.968 477.945 9.664 478.937 9.664C479.897 9.664 480.713 9.808 481.385 10.096C482.089 10.352 482.617 10.704 482.969 11.152C483.321 11.6 483.497 12.112 483.497 12.688C483.497 13.104 483.289 13.408 482.873 13.6C482.489 13.792 482.089 13.824 481.673 13.696C481.257 13.568 481.033 13.344 481.001 13.024ZM468.953 26.272C469.785 27.936 470.889 28.768 472.265 28.768C473.673 28.768 474.777 27.936 475.577 26.272C476.409 24.576 476.825 22.464 476.825 19.936C476.825 17.408 476.409 15.312 475.577 13.648C474.777 11.952 473.673 11.104 472.265 11.104C470.889 11.104 469.785 11.952 468.953 13.648C468.153 15.312 467.753 17.408 467.753 19.936C467.753 22.464 468.153 24.576 468.953 26.272ZM505.954 30.496C505.954 30.56 505.954 30.64 505.954 30.736C505.986 30.832 506.018 31.008 506.05 31.264C506.114 31.488 506.178 31.696 506.242 31.888C506.338 32.048 506.482 32.208 506.674 32.368C506.866 32.528 507.09 32.608 507.346 32.608V34H500.386V32.608C500.802 32.608 501.122 32.432 501.346 32.08C501.57 31.728 501.698 31.376 501.73 31.024L501.778 30.496V15.088C501.778 14.032 501.346 13.168 500.482 12.496C499.618 11.792 498.53 11.44 497.218 11.44C496.258 11.44 495.394 11.6 494.626 11.92C493.89 12.208 493.346 12.576 492.994 13.024C492.642 13.472 492.386 13.872 492.226 14.224C492.066 14.576 491.986 14.864 491.986 15.088V30.496C491.986 30.56 491.986 30.64 491.986 30.736C491.986 30.832 492.002 31.008 492.034 31.264C492.098 31.488 492.178 31.696 492.274 31.888C492.37 32.048 492.514 32.208 492.706 32.368C492.898 32.528 493.122 32.608 493.378 32.608V34H486.37V32.608C486.786 32.608 487.106 32.432 487.33 32.08C487.586 31.728 487.714 31.376 487.714 31.024L487.762 30.496V16.48C487.762 16.448 487.762 16.384 487.762 16.288C487.762 16.192 487.73 16.032 487.666 15.808C487.634 15.552 487.57 15.328 487.474 15.136C487.378 14.944 487.234 14.784 487.042 14.656C486.85 14.496 486.626 14.416 486.37 14.416V13.024L490.546 10.192H491.986V12.256C493.266 10.528 495.426 9.664 498.466 9.664C499.586 9.664 500.69 9.84 501.778 10.192C502.898 10.544 503.874 11.12 504.706 11.92C505.538 12.72 505.954 13.664 505.954 14.752V30.496Z" fill="#121212"/>
</svg>
