<svg width="470" height="102" viewBox="0 0 470 102" fill="none" xmlns="http://www.w3.org/2000/svg">
<path d="M16.8743 0.399998H36.4583V3.904H35.0663C35.0663 3.296 34.7943 2.816 34.2503 2.464C33.7383 2.112 33.2263 1.904 32.7143 1.84L31.9463 1.792H22.4903V16.48H29.1143C29.3703 16.48 29.6583 16.464 29.9783 16.432C30.3303 16.4 30.7943 16.208 31.3703 15.856C31.9783 15.504 32.2823 15.024 32.2823 14.416H33.6743V19.984H32.2823C32.2823 19.376 32.0103 18.896 31.4663 18.544C30.9543 18.192 30.4423 18 29.9303 17.968L29.1143 17.92H22.4903V30.496C22.4903 30.56 22.4903 30.64 22.4903 30.736C22.4903 30.832 22.5063 31.008 22.5383 31.264C22.6023 31.488 22.6823 31.696 22.7783 31.888C22.8743 32.048 23.0183 32.208 23.2103 32.368C23.4023 32.528 23.6263 32.608 23.8823 32.608V34H16.8743V32.608C17.1303 32.608 17.3543 32.544 17.5463 32.416C17.7383 32.256 17.8823 32.08 17.9783 31.888C18.0743 31.664 18.1383 31.456 18.1703 31.264C18.2343 31.04 18.2663 30.864 18.2663 30.736V30.496V3.904C18.2663 3.84 18.2663 3.76 18.2663 3.664C18.2663 3.568 18.2343 3.408 18.1703 3.184C18.1383 2.928 18.0743 2.72 17.9783 2.56C17.8823 2.368 17.7383 2.192 17.5463 2.032C17.3543 1.872 17.1303 1.792 16.8743 1.792V0.399998ZM44.5639 30.496C44.5639 30.56 44.5639 30.64 44.5639 30.736C44.5959 30.832 44.6279 31.008 44.6599 31.264C44.7239 31.488 44.7879 31.696 44.8519 31.888C44.9479 32.048 45.0919 32.208 45.2839 32.368C45.4759 32.528 45.6999 32.608 45.9559 32.608V34H38.9959V32.608C39.4119 32.608 39.7319 32.432 39.9559 32.08C40.1799 31.728 40.3079 31.376 40.3399 31.024L40.3879 30.496V16.48C40.3879 16.448 40.3719 16.384 40.3399 16.288C40.3399 16.192 40.3079 16.032 40.2439 15.808C40.2119 15.552 40.1479 15.328 40.0519 15.136C39.9879 14.944 39.8599 14.784 39.6679 14.656C39.4759 14.496 39.2519 14.416 38.9959 14.416V13.024L43.1719 10.192H44.5639V30.496ZM44.7559 5.824C44.7559 6.656 44.4679 7.36 43.8919 7.936C43.3159 8.512 42.6119 8.8 41.7799 8.8C40.9479 8.8 40.2439 8.512 39.6679 7.936C39.0919 7.36 38.8039 6.656 38.8039 5.824C38.8039 4.992 39.0919 4.288 39.6679 3.712C40.2439 3.136 40.9479 2.848 41.7799 2.848C42.6119 2.848 43.3159 3.136 43.8919 3.712C44.4679 4.288 44.7559 4.992 44.7559 5.824ZM69.0319 30.496C69.0319 30.56 69.0319 30.64 69.0319 30.736C69.0639 30.832 69.0959 31.008 69.1279 31.264C69.1919 31.488 69.2559 31.696 69.3199 31.888C69.4159 32.048 69.5599 32.208 69.7519 32.368C69.9439 32.528 70.1679 32.608 70.4239 32.608V34H63.4639V32.608C63.8799 32.608 64.1999 32.432 64.4239 32.08C64.6479 31.728 64.7759 31.376 64.8079 31.024L64.8559 30.496V15.088C64.8559 14.032 64.4239 13.168 63.5599 12.496C62.6959 11.792 61.6079 11.44 60.2959 11.44C59.3359 11.44 58.4719 11.6 57.7039 11.92C56.9679 12.208 56.4239 12.576 56.0719 13.024C55.7199 13.472 55.4639 13.872 55.3039 14.224C55.1439 14.576 55.0639 14.864 55.0639 15.088V30.496C55.0639 30.56 55.0639 30.64 55.0639 30.736C55.0639 30.832 55.0799 31.008 55.1119 31.264C55.1759 31.488 55.2559 31.696 55.3519 31.888C55.4479 32.048 55.5919 32.208 55.7839 32.368C55.9759 32.528 56.1999 32.608 56.4559 32.608V34H49.4479V32.608C49.8639 32.608 50.1839 32.432 50.4079 32.08C50.6639 31.728 50.7919 31.376 50.7919 31.024L50.8399 30.496V16.48C50.8399 16.448 50.8399 16.384 50.8399 16.288C50.8399 16.192 50.8079 16.032 50.7439 15.808C50.7119 15.552 50.6479 15.328 50.5519 15.136C50.4559 14.944 50.3119 14.784 50.1199 14.656C49.9279 14.496 49.7039 14.416 49.4479 14.416V13.024L53.6239 10.192H55.0639V12.256C56.3439 10.528 58.5039 9.664 61.5439 9.664C62.6639 9.664 63.7679 9.84 64.8559 10.192C65.9759 10.544 66.9519 11.12 67.7839 11.92C68.6159 12.72 69.0319 13.664 69.0319 14.752V30.496ZM79.0136 11.584V30.496C79.0136 30.56 79.0136 30.64 79.0136 30.736C79.0136 30.832 79.0296 31.008 79.0616 31.264C79.1256 31.488 79.2056 31.696 79.3016 31.888C79.3976 32.048 79.5416 32.208 79.7336 32.368C79.9256 32.528 80.1496 32.608 80.4056 32.608V34H79.0136C78.2776 34 77.6376 33.92 77.0936 33.76C76.5496 33.6 76.1336 33.424 75.8456 33.232C75.5576 33.04 75.3336 32.816 75.1736 32.56C75.0136 32.272 74.9016 32.048 74.8376 31.888C74.8056 31.696 74.7896 31.52 74.7896 31.36V13.696C74.7896 13.632 74.7896 13.552 74.7896 13.456C74.7896 13.36 74.7576 13.2 74.6936 12.976C74.6616 12.72 74.5976 12.512 74.5016 12.352C74.4056 12.16 74.2616 11.984 74.0696 11.824C73.8776 11.664 73.6536 11.584 73.3976 11.584V10.192L77.5736 5.296H79.0136V10.192H80.4056V11.584H79.0136ZM94.653 33.136C97.277 33.136 99.485 31.728 101.277 28.912L102.573 29.776C100.493 32.944 97.725 34.528 94.269 34.528C92.189 34.528 90.333 33.936 88.701 32.752C87.101 31.568 85.885 30.048 85.053 28.192C84.221 26.304 83.805 24.272 83.805 22.096C83.805 18.736 84.765 15.824 86.685 13.36C88.637 10.896 91.117 9.664 94.125 9.664C96.717 9.664 98.829 10.672 100.461 12.688C102.125 14.672 103.085 17.2 103.341 20.272C103.085 20.336 102.749 20.416 102.333 20.512C101.917 20.608 101.101 20.864 99.885 21.28C98.669 21.664 97.501 22.096 96.381 22.576C95.293 23.024 94.077 23.648 92.733 24.448C91.389 25.216 90.253 26.032 89.325 26.896C89.261 26.96 89.213 26.992 89.181 26.992C89.597 28.88 90.269 30.384 91.197 31.504C92.125 32.592 93.277 33.136 94.653 33.136ZM88.701 21.424C88.701 22.704 88.765 24 88.893 25.312C91.805 23.072 95.021 21.376 98.541 20.224C98.477 17.536 98.077 15.344 97.341 13.648C96.605 11.92 95.533 11.056 94.125 11.056C92.493 11.056 91.197 12.032 90.237 13.984C89.277 15.904 88.765 18.384 88.701 21.424ZM133.711 30.496C133.711 30.56 133.711 30.64 133.711 30.736C133.711 30.832 133.727 31.008 133.759 31.264C133.823 31.488 133.903 31.696 133.999 31.888C134.095 32.048 134.239 32.208 134.431 32.368C134.623 32.528 134.847 32.608 135.103 32.608V34H128.095V32.608C128.511 32.608 128.831 32.432 129.055 32.08C129.279 31.728 129.407 31.376 129.439 31.024L129.487 30.496V24.352C131.887 19.936 133.295 17.376 133.711 16.672V30.496ZM147.679 30.496C147.679 30.56 147.679 30.64 147.679 30.736C147.711 30.832 147.743 31.008 147.775 31.264C147.839 31.488 147.903 31.696 147.967 31.888C148.063 32.048 148.207 32.208 148.399 32.368C148.591 32.528 148.831 32.608 149.119 32.608V34H142.111V32.608C142.527 32.608 142.847 32.432 143.071 32.08C143.295 31.728 143.423 31.376 143.455 31.024L143.503 30.496V15.28C143.375 14.16 142.911 13.248 142.111 12.544C141.343 11.808 140.287 11.44 138.943 11.44C136.671 11.44 134.927 12.544 133.711 14.752L133.663 14.8C133.215 15.6 132.591 16.72 131.791 18.16C131.023 19.6 130.287 20.944 129.583 22.192C128.911 23.408 128.287 24.56 127.711 25.648C127.135 26.704 126.767 27.36 126.607 27.616C125.967 28.704 125.359 29.632 124.783 30.4C124.239 31.136 123.567 31.84 122.767 32.512C121.999 33.184 121.119 33.68 120.127 34C119.167 34.352 118.095 34.528 116.911 34.528C115.151 34.528 113.583 34.192 112.207 33.52C110.831 32.816 109.727 31.888 108.895 30.736C108.063 29.552 107.439 28.24 107.023 26.8C106.607 25.328 106.399 23.76 106.399 22.096C106.399 18.768 107.391 15.872 109.375 13.408C111.391 10.912 113.903 9.664 116.911 9.664C118.767 9.664 120.463 10.176 121.999 11.2C122.799 11.616 123.199 11.28 123.199 10.192H124.591V17.2C124.079 15.44 123.103 13.984 121.663 12.832C120.255 11.648 118.719 11.056 117.055 11.056C115.231 11.056 113.807 12.096 112.783 14.176C111.791 16.256 111.295 18.896 111.295 22.096C111.295 22.64 111.295 22.928 111.295 22.96C111.391 25.904 111.951 28.336 112.975 30.256C114.031 32.176 115.439 33.136 117.199 33.136C118.351 33.136 119.407 32.88 120.367 32.368C121.359 31.824 122.207 31.136 122.911 30.304C123.615 29.44 124.415 28.288 125.311 26.848C126.111 25.504 127.503 22.88 129.487 18.976V6.688C129.487 6.624 129.487 6.56 129.487 6.496C129.487 6.4 129.455 6.24 129.391 6.016C129.359 5.76 129.295 5.536 129.199 5.344C129.103 5.152 128.959 4.992 128.767 4.864C128.575 4.704 128.351 4.624 128.095 4.624V3.184L132.271 0.399998H133.711V12.448C135.087 10.592 137.231 9.664 140.143 9.664C141.295 9.664 142.415 9.84 143.503 10.192C144.623 10.544 145.599 11.12 146.431 11.92C147.263 12.72 147.679 13.664 147.679 14.752V30.496ZM177.199 0.399998C180.975 0.399998 184.015 1.328 186.319 3.184C188.623 5.04 189.775 7.392 189.775 10.24C189.775 13.056 188.623 15.392 186.319 17.248C184.015 19.072 180.975 19.984 177.199 19.984H172.303V30.496C172.303 30.56 172.303 30.64 172.303 30.736C172.303 30.832 172.319 31.008 172.351 31.264C172.415 31.488 172.495 31.696 172.591 31.888C172.687 32.048 172.831 32.208 173.023 32.368C173.215 32.528 173.439 32.608 173.695 32.608V34H166.687V32.608C167.103 32.608 167.423 32.432 167.647 32.08C167.903 31.728 168.031 31.376 168.031 31.024L168.079 30.496V3.904C168.079 3.84 168.079 3.76 168.079 3.664C168.079 3.568 168.047 3.408 167.983 3.184C167.951 2.928 167.887 2.72 167.791 2.56C167.695 2.368 167.551 2.192 167.359 2.032C167.167 1.872 166.943 1.792 166.687 1.792V0.399998H177.199ZM177.199 18.592C179.599 18.592 181.471 17.824 182.815 16.288C184.191 14.752 184.879 12.72 184.879 10.192C184.879 8.944 184.703 7.808 184.351 6.784C184.031 5.76 183.535 4.88 182.863 4.144C182.223 3.408 181.423 2.832 180.463 2.416C179.503 2 178.415 1.792 177.199 1.792H172.303V18.592H177.199ZM204.606 9.664C205.726 9.664 206.83 9.84 207.918 10.192C209.038 10.544 210.014 11.12 210.846 11.92C211.678 12.72 212.094 13.664 212.094 14.752C212.094 15.456 211.758 15.968 211.086 16.288C210.414 16.576 209.726 16.624 209.022 16.432C208.35 16.208 207.982 15.824 207.918 15.28C207.79 14.16 207.326 13.248 206.526 12.544C205.758 11.808 204.702 11.44 203.358 11.44C202.398 11.44 201.534 11.6 200.766 11.92C200.03 12.208 199.486 12.576 199.134 13.024C198.782 13.472 198.526 13.872 198.366 14.224C198.206 14.576 198.126 14.864 198.126 15.088V30.496C198.126 30.56 198.126 30.64 198.126 30.736C198.126 30.832 198.142 31.008 198.174 31.264C198.238 31.488 198.318 31.696 198.414 31.888C198.51 32.048 198.654 32.208 198.846 32.368C199.038 32.528 199.262 32.608 199.518 32.608V34H192.51V32.608C192.926 32.608 193.246 32.432 193.47 32.08C193.726 31.728 193.854 31.376 193.854 31.024L193.902 30.496V16.48C193.902 16.448 193.902 16.384 193.902 16.288C193.902 16.192 193.87 16.032 193.806 15.808C193.774 15.552 193.71 15.328 193.614 15.136C193.518 14.944 193.374 14.784 193.182 14.656C192.99 14.496 192.766 14.416 192.51 14.416V13.024L196.686 10.192H198.126V12.256C199.406 10.528 201.566 9.664 204.606 9.664ZM224.582 9.664C227.59 9.664 230.086 10.912 232.07 13.408C234.054 15.872 235.046 18.768 235.046 22.096C235.046 25.424 234.054 28.336 232.07 30.832C230.086 33.296 227.59 34.528 224.582 34.528C221.574 34.528 219.062 33.296 217.046 30.832C215.062 28.336 214.07 25.424 214.07 22.096C214.07 18.768 215.062 15.872 217.046 13.408C219.062 10.912 221.574 9.664 224.582 9.664ZM220.454 30.016C221.478 32.096 222.854 33.136 224.582 33.136C226.31 33.136 227.67 32.096 228.662 30.016C229.654 27.904 230.15 25.264 230.15 22.096C230.15 18.928 229.654 16.304 228.662 14.224C227.67 12.112 226.31 11.056 224.582 11.056C223.718 11.056 222.918 11.344 222.182 11.92C221.478 12.496 220.886 13.296 220.406 14.32C219.958 15.312 219.606 16.48 219.35 17.824C219.094 19.136 218.966 20.56 218.966 22.096C218.966 25.264 219.462 27.904 220.454 30.016ZM258.655 30.496C258.655 30.528 258.655 30.576 258.655 30.64C258.655 30.672 258.655 30.768 258.655 30.928C258.687 31.056 258.719 31.2 258.751 31.36C258.783 31.488 258.831 31.632 258.895 31.792C258.991 31.952 259.071 32.096 259.135 32.224C259.231 32.32 259.359 32.416 259.519 32.512C259.679 32.576 259.855 32.608 260.047 32.608V34H258.655C257.919 34 257.279 33.92 256.735 33.76C256.191 33.6 255.775 33.424 255.487 33.232C255.231 33.04 255.007 32.816 254.815 32.56C254.655 32.272 254.543 32.048 254.479 31.888C254.447 31.696 254.431 31.52 254.431 31.36V30.784C253.151 33.28 251.295 34.528 248.863 34.528C245.823 34.528 243.311 33.296 241.327 30.832C239.343 28.368 238.351 25.472 238.351 22.144C238.351 18.784 239.343 15.872 241.327 13.408C243.311 10.912 245.823 9.664 248.863 9.664C251.295 9.664 253.151 10.912 254.431 13.408V6.688C254.431 6.656 254.431 6.624 254.431 6.592C254.431 6.528 254.415 6.432 254.383 6.304C254.383 6.144 254.367 6 254.335 5.872C254.303 5.744 254.255 5.6 254.191 5.44C254.127 5.28 254.047 5.152 253.951 5.056C253.855 4.928 253.727 4.832 253.567 4.768C253.407 4.672 253.231 4.624 253.039 4.624V3.184L257.263 0.399998H258.655V30.496ZM248.863 33.136C250.591 33.136 251.951 32.112 252.943 30.064C253.935 27.984 254.431 25.328 254.431 22.096C254.431 18.864 253.935 16.224 252.943 14.176C251.951 12.096 250.591 11.056 248.863 11.056C247.135 11.056 245.759 12.112 244.735 14.224C243.743 16.304 243.247 18.928 243.247 22.096C243.247 25.264 243.743 27.904 244.735 30.016C245.759 32.096 247.135 33.136 248.863 33.136ZM283.013 30.496C283.013 30.56 283.013 30.64 283.013 30.736C283.045 30.832 283.077 31.008 283.109 31.264C283.173 31.488 283.237 31.696 283.301 31.888C283.397 32.048 283.541 32.208 283.733 32.368C283.925 32.528 284.165 32.608 284.453 32.608V34H283.013C280.645 34 279.269 33.28 278.885 31.84C277.605 33.632 275.429 34.528 272.357 34.528C271.237 34.528 270.117 34.352 268.997 34C267.877 33.68 266.901 33.12 266.069 32.32C265.237 31.488 264.821 30.528 264.821 29.44V16.48C264.821 16.448 264.821 16.384 264.821 16.288C264.821 16.192 264.789 16.032 264.725 15.808C264.693 15.552 264.629 15.328 264.533 15.136C264.437 14.944 264.293 14.784 264.101 14.656C263.909 14.496 263.685 14.416 263.429 14.416V13.024L267.605 10.192H269.045V29.104C269.045 29.808 269.237 30.448 269.621 31.024C270.005 31.568 270.549 32 271.253 32.32C271.957 32.608 272.725 32.752 273.557 32.752C274.549 32.752 275.413 32.608 276.149 32.32C276.885 32 277.429 31.632 277.781 31.216C278.133 30.768 278.389 30.368 278.549 30.016C278.741 29.632 278.837 29.328 278.837 29.104V16.48C278.837 16.48 278.837 16.448 278.837 16.384C278.837 16.32 278.821 16.224 278.789 16.096C278.789 15.936 278.773 15.792 278.741 15.664C278.709 15.536 278.645 15.392 278.549 15.232C278.485 15.072 278.405 14.944 278.309 14.848C278.213 14.72 278.085 14.624 277.925 14.56C277.797 14.464 277.637 14.416 277.445 14.416V13.024L281.621 10.192H283.013V30.496ZM315.069 10.192H316.461V11.584H315.069V11.776H315.117V14.752L315.069 14.8C314.525 15.792 313.693 17.312 312.573 19.36C311.453 21.376 310.461 23.184 309.597 24.784C308.733 26.384 308.205 27.328 308.013 27.616C307.373 28.704 306.765 29.632 306.189 30.4C305.645 31.136 304.973 31.84 304.173 32.512C303.405 33.184 302.525 33.68 301.533 34C300.573 34.352 299.501 34.528 298.317 34.528C296.557 34.528 294.989 34.192 293.613 33.52C292.237 32.816 291.133 31.888 290.301 30.736C289.469 29.552 288.845 28.24 288.429 26.8C288.013 25.328 287.805 23.76 287.805 22.096C287.805 18.768 288.797 15.872 290.781 13.408C292.797 10.912 295.309 9.664 298.317 9.664C300.173 9.664 301.869 10.176 303.405 11.2C304.205 11.616 304.605 11.28 304.605 10.192H305.997V17.2C305.645 16.048 305.085 15.008 304.317 14.08C303.581 13.152 302.685 12.432 301.629 11.92C300.605 11.376 299.549 11.104 298.461 11.104C296.637 11.104 295.213 12.144 294.189 14.224C293.197 16.272 292.701 18.896 292.701 22.096C292.701 22.64 292.701 22.928 292.701 22.96C292.797 25.936 293.357 28.384 294.381 30.304C295.437 32.192 296.845 33.136 298.605 33.136C300.301 33.136 301.741 32.64 302.925 31.648C304.109 30.624 305.373 29.024 306.717 26.848C307.517 25.536 308.909 22.928 310.893 19.024V13.696C310.893 13.664 310.893 13.632 310.893 13.6C310.893 13.536 310.877 13.44 310.845 13.312C310.845 13.152 310.829 13.008 310.797 12.88C310.765 12.752 310.701 12.608 310.605 12.448C310.541 12.288 310.461 12.144 310.365 12.016C310.269 11.888 310.141 11.792 309.981 11.728C309.853 11.632 309.693 11.584 309.501 11.584V10.192L313.677 5.296H315.069V10.192ZM315.069 30.496C315.069 30.56 315.069 30.64 315.069 30.736C315.101 30.832 315.133 31.008 315.165 31.264C315.229 31.488 315.293 31.696 315.357 31.888C315.453 32.048 315.597 32.208 315.789 32.368C315.981 32.528 316.205 32.608 316.461 32.608V34H315.069C314.365 34 313.725 33.92 313.149 33.76C312.605 33.6 312.189 33.424 311.901 33.232C311.645 33.04 311.421 32.816 311.229 32.56C311.069 32.272 310.973 32.048 310.941 31.888C310.909 31.696 310.893 31.52 310.893 31.36V24.352C311.213 23.744 311.869 22.544 312.861 20.752C313.853 18.96 314.589 17.6 315.069 16.672V30.496ZM356.251 30.304C356.283 30.368 356.315 30.464 356.347 30.592C356.411 30.688 356.507 30.864 356.635 31.12C356.795 31.376 356.971 31.616 357.163 31.84C357.355 32.032 357.595 32.208 357.883 32.368C358.203 32.528 358.539 32.608 358.891 32.608V34H351.547V32.608C352.379 32.608 352.571 31.872 352.123 30.4L349.099 21.424H339.307L336.331 30.304C336.299 30.368 336.267 30.464 336.235 30.592C336.235 30.688 336.219 30.864 336.187 31.12C336.187 31.376 336.187 31.616 336.187 31.84C336.219 32.032 336.283 32.208 336.379 32.368C336.507 32.528 336.667 32.608 336.859 32.608V34H332.299V32.608C332.843 32.608 333.339 32.416 333.787 32.032C334.235 31.648 334.539 31.264 334.699 30.88L334.939 30.304L344.875 0.399998H346.315L356.251 30.304ZM339.787 19.984H348.619L344.203 6.688L339.787 19.984ZM379.639 30.496C379.639 30.528 379.639 30.576 379.639 30.64C379.639 30.672 379.639 30.768 379.639 30.928C379.671 31.056 379.703 31.2 379.735 31.36C379.767 31.488 379.815 31.632 379.879 31.792C379.975 31.952 380.055 32.096 380.119 32.224C380.215 32.32 380.343 32.416 380.503 32.512C380.663 32.576 380.839 32.608 381.031 32.608V34H379.639C378.903 34 378.263 33.92 377.719 33.76C377.175 33.6 376.759 33.424 376.471 33.232C376.215 33.04 375.991 32.816 375.799 32.56C375.639 32.272 375.527 32.048 375.463 31.888C375.431 31.696 375.415 31.52 375.415 31.36V30.784C374.135 33.28 372.279 34.528 369.847 34.528C366.807 34.528 364.295 33.296 362.311 30.832C360.327 28.368 359.335 25.472 359.335 22.144C359.335 18.784 360.327 15.872 362.311 13.408C364.295 10.912 366.807 9.664 369.847 9.664C372.279 9.664 374.135 10.912 375.415 13.408V6.688C375.415 6.656 375.415 6.624 375.415 6.592C375.415 6.528 375.399 6.432 375.367 6.304C375.367 6.144 375.351 6 375.319 5.872C375.287 5.744 375.239 5.6 375.175 5.44C375.111 5.28 375.031 5.152 374.935 5.056C374.839 4.928 374.711 4.832 374.551 4.768C374.391 4.672 374.215 4.624 374.023 4.624V3.184L378.247 0.399998H379.639V30.496ZM369.847 33.136C371.575 33.136 372.935 32.112 373.927 30.064C374.919 27.984 375.415 25.328 375.415 22.096C375.415 18.864 374.919 16.224 373.927 14.176C372.935 12.096 371.575 11.056 369.847 11.056C368.119 11.056 366.743 12.112 365.719 14.224C364.727 16.304 364.231 18.928 364.231 22.096C364.231 25.264 364.727 27.904 365.719 30.016C366.743 32.096 368.119 33.136 369.847 33.136ZM418.157 30.496C418.157 30.56 418.157 30.64 418.157 30.736C418.157 30.832 418.173 31.008 418.205 31.264C418.269 31.488 418.349 31.696 418.445 31.888C418.541 32.048 418.685 32.208 418.877 32.368C419.069 32.528 419.293 32.608 419.549 32.608V34H412.541V32.608C412.957 32.608 413.277 32.432 413.501 32.08C413.757 31.728 413.901 31.376 413.933 31.024V30.496V15.088C413.933 14.032 413.501 13.168 412.637 12.496C411.805 11.792 410.733 11.44 409.421 11.44C408.429 11.44 407.565 11.6 406.829 11.92C406.093 12.208 405.549 12.576 405.197 13.024C404.845 13.472 404.573 13.872 404.381 14.224C404.221 14.576 404.141 14.864 404.141 15.088V30.496C404.141 31.904 404.605 32.608 405.533 32.608V34H398.573V32.608C398.989 32.608 399.309 32.432 399.533 32.08C399.757 31.728 399.885 31.376 399.917 31.024L399.965 30.496V15.088C399.965 14.032 399.533 13.168 398.669 12.496C397.805 11.792 396.717 11.44 395.405 11.44C394.445 11.44 393.581 11.6 392.813 11.92C392.077 12.208 391.533 12.576 391.181 13.024C390.829 13.472 390.573 13.872 390.413 14.224C390.253 14.576 390.173 14.864 390.173 15.088V30.496C390.173 30.56 390.173 30.64 390.173 30.736C390.173 30.832 390.189 31.008 390.221 31.264C390.285 31.488 390.365 31.696 390.461 31.888C390.557 32.048 390.701 32.208 390.893 32.368C391.085 32.528 391.309 32.608 391.565 32.608V34H384.557V32.608C384.973 32.608 385.293 32.432 385.517 32.08C385.773 31.728 385.901 31.376 385.901 31.024L385.949 30.496V16.48C385.949 16.448 385.949 16.384 385.949 16.288C385.949 16.192 385.917 16.032 385.853 15.808C385.821 15.552 385.757 15.328 385.661 15.136C385.565 14.944 385.421 14.784 385.229 14.656C385.037 14.496 384.813 14.416 384.557 14.416V13.024L388.781 10.192H390.173V12.256C391.453 10.528 393.613 9.664 396.653 9.664C398.061 9.664 399.453 9.952 400.829 10.528C402.205 11.104 403.165 11.92 403.709 12.976C404.861 10.768 407.165 9.664 410.621 9.664C411.773 9.664 412.893 9.84 413.981 10.192C415.101 10.544 416.077 11.12 416.909 11.92C417.741 12.72 418.157 13.664 418.157 14.752V30.496ZM428.611 30.496C428.611 30.56 428.611 30.64 428.611 30.736C428.643 30.832 428.675 31.008 428.707 31.264C428.771 31.488 428.835 31.696 428.899 31.888C428.995 32.048 429.139 32.208 429.331 32.368C429.523 32.528 429.747 32.608 430.003 32.608V34H423.043V32.608C423.459 32.608 423.779 32.432 424.003 32.08C424.227 31.728 424.355 31.376 424.387 31.024L424.435 30.496V16.48C424.435 16.448 424.419 16.384 424.387 16.288C424.387 16.192 424.355 16.032 424.291 15.808C424.259 15.552 424.195 15.328 424.099 15.136C424.035 14.944 423.907 14.784 423.715 14.656C423.523 14.496 423.299 14.416 423.043 14.416V13.024L427.219 10.192H428.611V30.496ZM428.803 5.824C428.803 6.656 428.515 7.36 427.939 7.936C427.363 8.512 426.659 8.8 425.827 8.8C424.995 8.8 424.291 8.512 423.715 7.936C423.139 7.36 422.851 6.656 422.851 5.824C422.851 4.992 423.139 4.288 423.715 3.712C424.291 3.136 424.995 2.848 425.827 2.848C426.659 2.848 427.363 3.136 427.939 3.712C428.515 4.288 428.803 4.992 428.803 5.824ZM453.079 30.496C453.079 30.56 453.079 30.64 453.079 30.736C453.111 30.832 453.143 31.008 453.175 31.264C453.239 31.488 453.303 31.696 453.367 31.888C453.463 32.048 453.607 32.208 453.799 32.368C453.991 32.528 454.215 32.608 454.471 32.608V34H447.511V32.608C447.927 32.608 448.247 32.432 448.471 32.08C448.695 31.728 448.823 31.376 448.855 31.024L448.903 30.496V15.088C448.903 14.032 448.471 13.168 447.607 12.496C446.743 11.792 445.655 11.44 444.343 11.44C443.383 11.44 442.519 11.6 441.751 11.92C441.015 12.208 440.471 12.576 440.119 13.024C439.767 13.472 439.511 13.872 439.351 14.224C439.191 14.576 439.111 14.864 439.111 15.088V30.496C439.111 30.56 439.111 30.64 439.111 30.736C439.111 30.832 439.127 31.008 439.159 31.264C439.223 31.488 439.303 31.696 439.399 31.888C439.495 32.048 439.639 32.208 439.831 32.368C440.023 32.528 440.247 32.608 440.503 32.608V34H433.495V32.608C433.911 32.608 434.231 32.432 434.455 32.08C434.711 31.728 434.839 31.376 434.839 31.024L434.887 30.496V16.48C434.887 16.448 434.887 16.384 434.887 16.288C434.887 16.192 434.855 16.032 434.791 15.808C434.759 15.552 434.695 15.328 434.599 15.136C434.503 14.944 434.359 14.784 434.167 14.656C433.975 14.496 433.751 14.416 433.495 14.416V13.024L437.671 10.192H439.111V12.256C440.391 10.528 442.551 9.664 445.591 9.664C446.711 9.664 447.815 9.84 448.903 10.192C450.023 10.544 450.999 11.12 451.831 11.92C452.663 12.72 453.079 13.664 453.079 14.752V30.496ZM11.7703 58.4C15.5463 58.4 18.5863 59.984 20.8903 63.152C23.1943 66.32 24.3463 70.336 24.3463 75.2C24.3463 80.064 23.1943 84.08 20.8903 87.248C18.5863 90.416 15.5463 92 11.7703 92H0.538313V90.608C0.954313 90.608 1.27431 90.432 1.49831 90.08C1.75431 89.728 1.88231 89.376 1.88231 89.024L1.93031 88.496V61.904C1.93031 61.84 1.93031 61.76 1.93031 61.664C1.93031 61.568 1.89831 61.408 1.83431 61.184C1.80231 60.928 1.73831 60.72 1.64231 60.56C1.54631 60.368 1.40231 60.192 1.21031 60.032C1.01831 59.872 0.794313 59.792 0.538313 59.792V58.4H11.7703ZM11.7703 90.608C13.3383 90.608 14.7143 89.92 15.8983 88.544C17.0823 87.136 17.9623 85.28 18.5383 82.976C19.1463 80.672 19.4503 78.08 19.4503 75.2C19.4503 72.32 19.1463 69.728 18.5383 67.424C17.9623 65.12 17.0823 63.28 15.8983 61.904C14.7143 60.496 13.3383 59.792 11.7703 59.792H6.15431V90.608H11.7703ZM47.1568 88.496C47.1568 88.56 47.1568 88.64 47.1568 88.736C47.1888 88.832 47.2208 89.008 47.2528 89.264C47.3168 89.488 47.3808 89.696 47.4448 89.888C47.5408 90.048 47.6848 90.208 47.8768 90.368C48.0688 90.528 48.2928 90.608 48.5488 90.608V92H47.1568C44.8208 92 43.4448 91.296 43.0288 89.888C41.7808 91.648 39.8448 92.528 37.2208 92.528C34.2768 92.528 31.9248 91.808 30.1648 90.368C28.4368 88.896 27.5728 86.96 27.5728 84.56C27.5728 81.936 28.4208 79.952 30.1168 78.608C31.8128 77.264 34.1808 76.592 37.2208 76.592C39.7808 76.592 41.7008 77.44 42.9808 79.136V76.592C42.9808 74.672 42.8048 73.152 42.4528 72.032C42.1008 70.88 41.6208 70.096 41.0128 69.68C40.4368 69.264 39.6848 69.056 38.7568 69.056C37.6048 69.056 36.6448 69.488 35.8768 70.352C35.1088 71.184 34.6768 72.16 34.5808 73.28C34.5168 73.824 34.1328 74.208 33.4288 74.432C32.7568 74.656 32.0688 74.608 31.3648 74.288C30.6928 73.968 30.3568 73.456 30.3568 72.752C30.3568 71.248 31.0928 70.032 32.5648 69.104C34.0368 68.144 35.9888 67.664 38.4208 67.664C41.2688 67.664 43.4288 68.368 44.9008 69.776C46.4048 71.152 47.1568 73.424 47.1568 76.592V88.496ZM41.5408 89.312C42.5008 88.064 42.9808 86.48 42.9808 84.56C42.9808 82.64 42.5008 81.072 41.5408 79.856C40.6128 78.608 39.3328 77.984 37.7008 77.984C36.1008 77.984 34.8208 78.608 33.8608 79.856C32.9328 81.104 32.4688 82.672 32.4688 84.56C32.4688 86.448 32.9328 88.016 33.8608 89.264C34.8208 90.512 36.1008 91.136 37.7008 91.136C39.3328 91.136 40.6128 90.528 41.5408 89.312ZM56.0848 72.416C56.0848 73.184 56.5648 74 57.5248 74.864C58.4848 75.696 59.6528 76.528 61.0288 77.36C62.4048 78.192 63.7808 79.056 65.1568 79.952C66.5328 80.848 67.7008 81.888 68.6608 83.072C69.6208 84.224 70.1008 85.392 70.1008 86.576C70.1008 87.632 69.8128 88.56 69.2368 89.36C68.6928 90.128 67.9408 90.736 66.9808 91.184C66.0528 91.632 65.0608 91.968 64.0048 92.192C62.9808 92.416 61.9248 92.528 60.8368 92.528C58.8848 92.56 57.0768 92.096 55.4128 91.136C55.3808 91.104 55.3488 91.088 55.3168 91.088C55.3168 91.056 55.3008 91.04 55.2688 91.04C55.1088 90.944 54.9488 90.88 54.7888 90.848C54.6288 90.816 54.4528 90.88 54.2608 91.04C54.1008 91.2 54.0208 91.52 54.0208 92H52.6288V84.992C53.1408 86.72 54.1808 88.176 55.7488 89.36C57.3488 90.544 58.9808 91.136 60.6448 91.136C62.1488 91.136 63.4128 90.864 64.4368 90.32C65.4608 89.776 65.9728 88.944 65.9728 87.824C65.9728 87.024 65.4768 86.16 64.4848 85.232C63.5248 84.304 62.3568 83.408 60.9808 82.544C59.6048 81.68 58.2288 80.784 56.8528 79.856C55.4768 78.928 54.3088 77.904 53.3488 76.784C52.3888 75.664 51.9088 74.56 51.9088 73.472C51.9088 72.384 52.1488 71.456 52.6288 70.688C53.1088 69.888 53.7648 69.28 54.5968 68.864C55.4288 68.448 56.3088 68.144 57.2368 67.952C58.1968 67.76 59.2208 67.664 60.3088 67.664C62.1008 67.664 63.7488 68.128 65.2528 69.056L65.3488 69.152C66.2128 69.632 66.6448 69.312 66.6448 68.192H68.0368V75.2C67.5248 73.44 66.5488 71.984 65.1088 70.832C63.6688 69.648 62.1328 69.056 60.5008 69.056C59.2528 69.056 58.1968 69.312 57.3328 69.824C56.5008 70.336 56.0848 71.2 56.0848 72.416ZM92.8656 88.496C92.8656 88.56 92.8656 88.64 92.8656 88.736C92.8976 88.832 92.9296 89.008 92.9616 89.264C93.0256 89.488 93.0896 89.696 93.1536 89.888C93.2496 90.048 93.3936 90.208 93.5856 90.368C93.7776 90.528 94.0016 90.608 94.2576 90.608V92H87.2976V90.608C87.5536 90.608 87.7776 90.544 87.9696 90.416C88.1616 90.256 88.2896 90.08 88.3536 89.888C88.4496 89.664 88.5136 89.456 88.5456 89.264C88.6096 89.04 88.6576 88.864 88.6896 88.736V88.496V73.088C88.6896 72.032 88.2576 71.168 87.3936 70.496C86.5296 69.792 85.4416 69.44 84.1296 69.44C83.1696 69.44 82.3056 69.6 81.5376 69.92C80.8016 70.208 80.2576 70.576 79.9056 71.024C79.5536 71.472 79.2976 71.872 79.1376 72.224C78.9776 72.576 78.8976 72.864 78.8976 73.088V88.496C78.8976 88.56 78.8976 88.64 78.8976 88.736C78.8976 88.832 78.9136 89.008 78.9456 89.264C79.0096 89.488 79.0896 89.696 79.1856 89.888C79.2816 90.048 79.4256 90.208 79.6176 90.368C79.8096 90.528 80.0336 90.608 80.2896 90.608V92H73.2816V90.608C73.6976 90.608 74.0176 90.432 74.2416 90.08C74.4976 89.728 74.6256 89.376 74.6256 89.024L74.6736 88.496V64.688C74.6736 64.656 74.6736 64.592 74.6736 64.496C74.6736 64.4 74.6416 64.24 74.5776 64.016C74.5456 63.76 74.4816 63.536 74.3856 63.344C74.2896 63.152 74.1456 62.992 73.9536 62.864C73.7616 62.704 73.5376 62.624 73.2816 62.624V61.184L77.4576 58.4H78.8976V70.256C80.1776 68.528 82.3376 67.664 85.3776 67.664C86.1776 67.664 87.0096 67.776 87.8736 68C88.7376 68.192 89.5376 68.496 90.2736 68.912C91.0416 69.296 91.6656 69.824 92.1456 70.496C92.6256 71.168 92.8656 71.92 92.8656 72.752V88.496ZM108.794 67.664C111.834 67.664 114.346 68.912 116.33 71.408C118.314 73.872 119.306 76.784 119.306 80.144C119.306 83.472 118.314 86.368 116.33 88.832C114.346 91.296 111.834 92.528 108.794 92.528C106.362 92.528 104.506 91.28 103.226 88.784V89.36C103.226 89.584 103.178 89.808 103.082 90.032C102.986 90.256 102.81 90.544 102.554 90.896C102.33 91.216 101.898 91.488 101.258 91.712C100.65 91.904 99.8977 92 99.0017 92H97.6097V90.608C98.0257 90.608 98.3457 90.432 98.5697 90.08C98.8257 89.728 98.9537 89.376 98.9537 89.024L99.0017 88.496V64.688C99.0017 64.656 99.0017 64.592 99.0017 64.496C99.0017 64.4 98.9697 64.24 98.9057 64.016C98.8737 63.76 98.8097 63.536 98.7137 63.344C98.6177 63.152 98.4737 62.992 98.2817 62.864C98.0897 62.704 97.8657 62.624 97.6097 62.624V61.184L101.786 58.4H103.226V71.408C104.506 68.912 106.362 67.664 108.794 67.664ZM108.794 91.136C110.522 91.136 111.882 90.096 112.874 88.016C113.898 85.904 114.41 83.264 114.41 80.096C114.41 76.928 113.898 74.304 112.874 72.224C111.882 70.112 110.522 69.056 108.794 69.056C107.066 69.056 105.706 70.096 104.714 72.176C103.722 74.224 103.226 76.864 103.226 80.096C103.226 83.328 103.722 85.984 104.714 88.064C105.706 90.112 107.066 91.136 108.794 91.136ZM133.152 67.664C136.16 67.664 138.656 68.912 140.64 71.408C142.624 73.872 143.616 76.768 143.616 80.096C143.616 83.424 142.624 86.336 140.64 88.832C138.656 91.296 136.16 92.528 133.152 92.528C130.144 92.528 127.632 91.296 125.616 88.832C123.632 86.336 122.64 83.424 122.64 80.096C122.64 76.768 123.632 73.872 125.616 71.408C127.632 68.912 130.144 67.664 133.152 67.664ZM129.024 88.016C130.048 90.096 131.424 91.136 133.152 91.136C134.88 91.136 136.24 90.096 137.232 88.016C138.224 85.904 138.72 83.264 138.72 80.096C138.72 76.928 138.224 74.304 137.232 72.224C136.24 70.112 134.88 69.056 133.152 69.056C132.288 69.056 131.488 69.344 130.752 69.92C130.048 70.496 129.456 71.296 128.976 72.32C128.528 73.312 128.176 74.48 127.92 75.824C127.664 77.136 127.536 78.56 127.536 80.096C127.536 83.264 128.032 85.904 129.024 88.016ZM166.313 88.496C166.313 88.56 166.313 88.64 166.313 88.736C166.345 88.832 166.377 89.008 166.409 89.264C166.473 89.488 166.537 89.696 166.601 89.888C166.697 90.048 166.841 90.208 167.033 90.368C167.225 90.528 167.449 90.608 167.705 90.608V92H166.313C163.977 92 162.601 91.296 162.185 89.888C160.937 91.648 159.001 92.528 156.377 92.528C153.433 92.528 151.081 91.808 149.321 90.368C147.593 88.896 146.729 86.96 146.729 84.56C146.729 81.936 147.577 79.952 149.273 78.608C150.969 77.264 153.337 76.592 156.377 76.592C158.937 76.592 160.857 77.44 162.137 79.136V76.592C162.137 74.672 161.961 73.152 161.609 72.032C161.257 70.88 160.777 70.096 160.169 69.68C159.593 69.264 158.841 69.056 157.913 69.056C156.761 69.056 155.801 69.488 155.033 70.352C154.265 71.184 153.833 72.16 153.737 73.28C153.673 73.824 153.289 74.208 152.585 74.432C151.913 74.656 151.225 74.608 150.521 74.288C149.849 73.968 149.513 73.456 149.513 72.752C149.513 71.248 150.249 70.032 151.721 69.104C153.193 68.144 155.145 67.664 157.577 67.664C160.425 67.664 162.585 68.368 164.057 69.776C165.561 71.152 166.313 73.424 166.313 76.592V88.496ZM160.697 89.312C161.657 88.064 162.137 86.48 162.137 84.56C162.137 82.64 161.657 81.072 160.697 79.856C159.769 78.608 158.489 77.984 156.857 77.984C155.257 77.984 153.977 78.608 153.017 79.856C152.089 81.104 151.625 82.672 151.625 84.56C151.625 86.448 152.089 88.016 153.017 89.264C153.977 90.512 155.257 91.136 156.857 91.136C158.489 91.136 159.769 90.528 160.697 89.312ZM183.161 67.664C184.281 67.664 185.385 67.84 186.473 68.192C187.593 68.544 188.569 69.12 189.401 69.92C190.233 70.72 190.649 71.664 190.649 72.752C190.649 73.456 190.313 73.968 189.641 74.288C188.969 74.576 188.281 74.624 187.577 74.432C186.905 74.208 186.537 73.824 186.473 73.28C186.345 72.16 185.881 71.248 185.081 70.544C184.313 69.808 183.257 69.44 181.913 69.44C180.953 69.44 180.089 69.6 179.321 69.92C178.585 70.208 178.041 70.576 177.689 71.024C177.337 71.472 177.081 71.872 176.921 72.224C176.761 72.576 176.681 72.864 176.681 73.088V88.496C176.681 88.56 176.681 88.64 176.681 88.736C176.681 88.832 176.697 89.008 176.729 89.264C176.793 89.488 176.873 89.696 176.969 89.888C177.065 90.048 177.209 90.208 177.401 90.368C177.593 90.528 177.817 90.608 178.073 90.608V92H171.065V90.608C171.481 90.608 171.801 90.432 172.025 90.08C172.281 89.728 172.409 89.376 172.409 89.024L172.457 88.496V74.48C172.457 74.448 172.457 74.384 172.457 74.288C172.457 74.192 172.425 74.032 172.361 73.808C172.329 73.552 172.265 73.328 172.169 73.136C172.073 72.944 171.929 72.784 171.737 72.656C171.545 72.496 171.321 72.416 171.065 72.416V71.024L175.241 68.192H176.681V70.256C177.961 68.528 180.121 67.664 183.161 67.664ZM212.928 88.496C212.928 88.528 212.928 88.576 212.928 88.64C212.928 88.672 212.928 88.768 212.928 88.928C212.96 89.056 212.992 89.2 213.024 89.36C213.056 89.488 213.104 89.632 213.168 89.792C213.264 89.952 213.344 90.096 213.408 90.224C213.504 90.32 213.632 90.416 213.792 90.512C213.952 90.576 214.128 90.608 214.32 90.608V92H212.928C212.192 92 211.552 91.92 211.008 91.76C210.464 91.6 210.048 91.424 209.76 91.232C209.504 91.04 209.28 90.816 209.088 90.56C208.928 90.272 208.816 90.048 208.752 89.888C208.72 89.696 208.704 89.52 208.704 89.36V88.784C207.424 91.28 205.568 92.528 203.136 92.528C200.096 92.528 197.584 91.296 195.6 88.832C193.616 86.368 192.624 83.472 192.624 80.144C192.624 76.784 193.616 73.872 195.6 71.408C197.584 68.912 200.096 67.664 203.136 67.664C205.568 67.664 207.424 68.912 208.704 71.408V64.688C208.704 64.656 208.704 64.624 208.704 64.592C208.704 64.528 208.688 64.432 208.656 64.304C208.656 64.144 208.64 64 208.608 63.872C208.576 63.744 208.528 63.6 208.464 63.44C208.4 63.28 208.32 63.152 208.224 63.056C208.128 62.928 208 62.832 207.84 62.768C207.68 62.672 207.504 62.624 207.312 62.624V61.184L211.536 58.4H212.928V88.496ZM203.136 91.136C204.864 91.136 206.224 90.112 207.216 88.064C208.208 85.984 208.704 83.328 208.704 80.096C208.704 76.864 208.208 74.224 207.216 72.176C206.224 70.096 204.864 69.056 203.136 69.056C201.408 69.056 200.032 70.112 199.008 72.224C198.016 74.304 197.52 76.928 197.52 80.096C197.52 83.264 198.016 85.904 199.008 88.016C200.032 90.096 201.408 91.136 203.136 91.136ZM242.423 91.088C242.615 91.12 242.775 91.216 242.903 91.376C243.031 91.536 243.079 91.712 243.047 91.904C243.015 92.096 242.919 92.256 242.759 92.384C242.599 92.512 242.407 92.56 242.183 92.528C239.303 92.176 236.999 90.384 235.271 87.152C233.543 83.92 232.679 79.936 232.679 75.2C232.679 70.464 233.543 66.496 235.271 63.296C236.999 60.064 239.303 58.256 242.183 57.872C242.407 57.84 242.599 57.888 242.759 58.016C242.919 58.144 243.015 58.304 243.047 58.496C243.079 58.72 243.031 58.912 242.903 59.072C242.775 59.232 242.615 59.312 242.423 59.312C240.727 59.792 239.399 61.504 238.439 64.448C237.479 67.36 236.999 70.944 236.999 75.2C236.999 77.28 237.111 79.232 237.335 81.056C237.591 82.848 237.943 84.448 238.391 85.856C238.839 87.264 239.399 88.432 240.071 89.36C240.775 90.256 241.559 90.832 242.423 91.088ZM267.742 86.144L268.99 87.008C267.806 88.832 266.478 90.208 265.006 91.136C263.534 92.064 261.678 92.528 259.438 92.528C256.942 92.528 254.734 91.776 252.814 90.272C250.894 88.736 249.422 86.656 248.398 84.032C247.374 81.408 246.862 78.464 246.862 75.2C246.862 71.936 247.374 68.992 248.398 66.368C249.422 63.744 250.894 61.68 252.814 60.176C254.734 58.64 256.942 57.872 259.438 57.872C261.39 57.84 263.198 58.336 264.862 59.36C264.958 59.424 265.038 59.472 265.102 59.504C265.998 60.016 266.446 59.648 266.446 58.4H267.838V66.8C267.39 64.752 266.414 62.992 264.91 61.52C263.438 60.016 261.63 59.264 259.486 59.264C257.79 59.264 256.35 60 255.166 61.472C253.982 62.912 253.118 64.816 252.574 67.184C252.03 69.52 251.758 72.192 251.758 75.2C251.758 78.176 252.046 80.848 252.622 83.216C253.23 85.584 254.126 87.504 255.31 88.976C256.526 90.416 257.95 91.136 259.582 91.136C263.038 91.136 265.758 89.472 267.742 86.144ZM291.047 88.496C291.047 88.56 291.047 88.64 291.047 88.736C291.079 88.832 291.111 89.008 291.143 89.264C291.207 89.488 291.271 89.696 291.335 89.888C291.431 90.048 291.575 90.208 291.767 90.368C291.959 90.528 292.183 90.608 292.439 90.608V92H291.047C288.711 92 287.335 91.296 286.919 89.888C285.671 91.648 283.735 92.528 281.111 92.528C278.167 92.528 275.815 91.808 274.055 90.368C272.327 88.896 271.463 86.96 271.463 84.56C271.463 81.936 272.311 79.952 274.007 78.608C275.703 77.264 278.071 76.592 281.111 76.592C283.671 76.592 285.591 77.44 286.871 79.136V76.592C286.871 74.672 286.695 73.152 286.343 72.032C285.991 70.88 285.511 70.096 284.903 69.68C284.327 69.264 283.575 69.056 282.647 69.056C281.495 69.056 280.535 69.488 279.767 70.352C278.999 71.184 278.567 72.16 278.471 73.28C278.407 73.824 278.023 74.208 277.319 74.432C276.647 74.656 275.959 74.608 275.255 74.288C274.583 73.968 274.247 73.456 274.247 72.752C274.247 71.248 274.983 70.032 276.455 69.104C277.927 68.144 279.879 67.664 282.311 67.664C285.159 67.664 287.319 68.368 288.791 69.776C290.295 71.152 291.047 73.424 291.047 76.592V88.496ZM285.431 89.312C286.391 88.064 286.871 86.48 286.871 84.56C286.871 82.64 286.391 81.072 285.431 79.856C284.503 78.608 283.223 77.984 281.591 77.984C279.991 77.984 278.711 78.608 277.751 79.856C276.823 81.104 276.359 82.672 276.359 84.56C276.359 86.448 276.823 88.016 277.751 89.264C278.711 90.512 279.991 91.136 281.591 91.136C283.223 91.136 284.503 90.528 285.431 89.312ZM299.975 72.416C299.975 73.184 300.455 74 301.415 74.864C302.375 75.696 303.543 76.528 304.919 77.36C306.295 78.192 307.671 79.056 309.047 79.952C310.423 80.848 311.591 81.888 312.551 83.072C313.511 84.224 313.991 85.392 313.991 86.576C313.991 87.632 313.703 88.56 313.127 89.36C312.583 90.128 311.831 90.736 310.871 91.184C309.943 91.632 308.951 91.968 307.895 92.192C306.871 92.416 305.815 92.528 304.727 92.528C302.775 92.56 300.967 92.096 299.303 91.136C299.271 91.104 299.239 91.088 299.207 91.088C299.207 91.056 299.191 91.04 299.159 91.04C298.999 90.944 298.839 90.88 298.679 90.848C298.519 90.816 298.343 90.88 298.151 91.04C297.991 91.2 297.911 91.52 297.911 92H296.519V84.992C297.031 86.72 298.071 88.176 299.639 89.36C301.239 90.544 302.871 91.136 304.535 91.136C306.039 91.136 307.303 90.864 308.327 90.32C309.351 89.776 309.863 88.944 309.863 87.824C309.863 87.024 309.367 86.16 308.375 85.232C307.415 84.304 306.247 83.408 304.871 82.544C303.495 81.68 302.119 80.784 300.743 79.856C299.367 78.928 298.199 77.904 297.239 76.784C296.279 75.664 295.799 74.56 295.799 73.472C295.799 72.384 296.039 71.456 296.519 70.688C296.999 69.888 297.655 69.28 298.487 68.864C299.319 68.448 300.199 68.144 301.127 67.952C302.087 67.76 303.111 67.664 304.199 67.664C305.991 67.664 307.639 68.128 309.143 69.056L309.239 69.152C310.103 69.632 310.535 69.312 310.535 68.192H311.927V75.2C311.415 73.44 310.439 71.984 308.999 70.832C307.559 69.648 306.023 69.056 304.391 69.056C303.143 69.056 302.087 69.312 301.223 69.824C300.391 70.336 299.975 71.2 299.975 72.416ZM328.02 91.136C330.644 91.136 332.852 89.728 334.644 86.912L335.94 87.776C333.86 90.944 331.092 92.528 327.636 92.528C325.556 92.528 323.7 91.936 322.068 90.752C320.468 89.568 319.252 88.048 318.42 86.192C317.588 84.304 317.172 82.272 317.172 80.096C317.172 76.736 318.132 73.824 320.052 71.36C322.004 68.896 324.484 67.664 327.492 67.664C330.084 67.664 332.196 68.672 333.828 70.688C335.492 72.672 336.452 75.2 336.708 78.272C336.452 78.336 336.116 78.416 335.7 78.512C335.284 78.608 334.468 78.864 333.252 79.28C332.036 79.664 330.868 80.096 329.748 80.576C328.66 81.024 327.444 81.648 326.1 82.448C324.756 83.216 323.62 84.032 322.692 84.896C322.628 84.96 322.58 84.992 322.548 84.992C322.964 86.88 323.636 88.384 324.564 89.504C325.492 90.592 326.644 91.136 328.02 91.136ZM322.068 79.424C322.068 80.704 322.132 82 322.26 83.312C325.172 81.072 328.388 79.376 331.908 78.224C331.844 75.536 331.444 73.344 330.708 71.648C329.972 69.92 328.9 69.056 327.492 69.056C325.86 69.056 324.564 70.032 323.604 71.984C322.644 73.904 322.132 76.384 322.068 79.424ZM357.719 64.544C357.719 65.536 358.039 66.496 358.679 67.424C359.319 68.352 360.151 69.216 361.175 70.016C362.231 70.784 363.383 71.568 364.631 72.368C365.879 73.168 367.127 74 368.375 74.864C369.655 75.696 370.807 76.576 371.831 77.504C372.887 78.432 373.735 79.504 374.375 80.72C375.015 81.904 375.335 83.152 375.335 84.464C375.335 86.16 374.775 87.632 373.655 88.88C372.567 90.128 371.191 91.056 369.527 91.664C367.863 92.24 366.071 92.528 364.151 92.528C361.751 92.528 359.591 91.984 357.671 90.896C356.807 90.352 356.375 90.72 356.375 92H354.983V83.6C355.431 85.584 356.487 87.344 358.151 88.88C359.815 90.384 361.815 91.136 364.151 91.136C365.879 91.136 367.495 90.624 368.999 89.6C370.503 88.576 371.255 87.216 371.255 85.52C371.255 84.624 370.999 83.76 370.487 82.928C370.007 82.096 369.351 81.344 368.519 80.672C367.687 80 366.743 79.312 365.687 78.608C364.631 77.872 363.543 77.184 362.423 76.544C361.335 75.904 360.263 75.184 359.207 74.384C358.151 73.552 357.207 72.736 356.375 71.936C355.575 71.104 354.919 70.144 354.407 69.056C353.895 67.936 353.639 66.784 353.639 65.6C353.639 63.872 354.167 62.416 355.223 61.232C356.311 60.016 357.607 59.152 359.111 58.64C360.615 58.128 362.231 57.872 363.959 57.872C364.407 57.872 364.823 57.888 365.207 57.92C365.623 57.952 365.991 58 366.311 58.064C366.631 58.128 366.951 58.208 367.271 58.304C367.591 58.4 367.847 58.48 368.039 58.544C368.231 58.608 368.439 58.704 368.663 58.832C368.919 58.928 369.095 59.008 369.191 59.072C369.319 59.136 369.463 59.232 369.623 59.36C369.815 59.456 369.927 59.504 369.959 59.504C370.823 60.048 371.255 59.68 371.255 58.4H372.647V66.8C372.167 64.752 371.207 62.992 369.767 61.52C368.327 60.016 366.503 59.264 364.295 59.264C362.567 59.264 361.031 59.712 359.687 60.608C358.375 61.504 357.719 62.816 357.719 64.544ZM383.912 69.584V88.496C383.912 88.56 383.912 88.64 383.912 88.736C383.912 88.832 383.928 89.008 383.96 89.264C384.024 89.488 384.104 89.696 384.2 89.888C384.296 90.048 384.44 90.208 384.632 90.368C384.824 90.528 385.048 90.608 385.304 90.608V92H383.912C383.176 92 382.536 91.92 381.992 91.76C381.448 91.6 381.032 91.424 380.744 91.232C380.456 91.04 380.232 90.816 380.072 90.56C379.912 90.272 379.8 90.048 379.736 89.888C379.704 89.696 379.688 89.52 379.688 89.36V71.696C379.688 71.632 379.688 71.552 379.688 71.456C379.688 71.36 379.656 71.2 379.592 70.976C379.56 70.72 379.496 70.512 379.4 70.352C379.304 70.16 379.16 69.984 378.968 69.824C378.776 69.664 378.552 69.584 378.296 69.584V68.192L382.472 63.296H383.912V68.192H385.304V69.584H383.912ZM408.239 88.496C408.239 88.56 408.239 88.64 408.239 88.736C408.271 88.832 408.303 89.008 408.335 89.264C408.399 89.488 408.463 89.696 408.527 89.888C408.623 90.048 408.767 90.208 408.959 90.368C409.151 90.528 409.391 90.608 409.679 90.608V92H408.239C405.871 92 404.495 91.28 404.111 89.84C402.831 91.632 400.655 92.528 397.583 92.528C396.463 92.528 395.343 92.352 394.223 92C393.103 91.68 392.127 91.12 391.295 90.32C390.463 89.488 390.047 88.528 390.047 87.44V74.48C390.047 74.448 390.047 74.384 390.047 74.288C390.047 74.192 390.015 74.032 389.951 73.808C389.919 73.552 389.855 73.328 389.759 73.136C389.663 72.944 389.519 72.784 389.327 72.656C389.135 72.496 388.911 72.416 388.655 72.416V71.024L392.831 68.192H394.271V87.104C394.271 87.808 394.463 88.448 394.847 89.024C395.231 89.568 395.775 90 396.479 90.32C397.183 90.608 397.951 90.752 398.783 90.752C399.775 90.752 400.639 90.608 401.375 90.32C402.111 90 402.655 89.632 403.007 89.216C403.359 88.768 403.615 88.368 403.775 88.016C403.967 87.632 404.063 87.328 404.063 87.104V74.48C404.063 74.48 404.063 74.448 404.063 74.384C404.063 74.32 404.047 74.224 404.015 74.096C404.015 73.936 403.999 73.792 403.967 73.664C403.935 73.536 403.871 73.392 403.775 73.232C403.711 73.072 403.631 72.944 403.535 72.848C403.439 72.72 403.311 72.624 403.151 72.56C403.023 72.464 402.863 72.416 402.671 72.416V71.024L406.847 68.192H408.239V88.496ZM433.288 88.496C433.288 88.528 433.288 88.576 433.288 88.64C433.288 88.672 433.288 88.768 433.288 88.928C433.32 89.056 433.352 89.2 433.384 89.36C433.416 89.488 433.464 89.632 433.528 89.792C433.624 89.952 433.704 90.096 433.768 90.224C433.864 90.32 433.992 90.416 434.152 90.512C434.312 90.576 434.488 90.608 434.68 90.608V92H433.288C432.552 92 431.912 91.92 431.368 91.76C430.824 91.6 430.408 91.424 430.12 91.232C429.864 91.04 429.64 90.816 429.448 90.56C429.288 90.272 429.176 90.048 429.112 89.888C429.08 89.696 429.064 89.52 429.064 89.36V88.784C427.784 91.28 425.928 92.528 423.496 92.528C420.456 92.528 417.944 91.296 415.96 88.832C413.976 86.368 412.984 83.472 412.984 80.144C412.984 76.784 413.976 73.872 415.96 71.408C417.944 68.912 420.456 67.664 423.496 67.664C425.928 67.664 427.784 68.912 429.064 71.408V64.688C429.064 64.656 429.064 64.624 429.064 64.592C429.064 64.528 429.048 64.432 429.016 64.304C429.016 64.144 429 64 428.968 63.872C428.936 63.744 428.888 63.6 428.824 63.44C428.76 63.28 428.68 63.152 428.584 63.056C428.488 62.928 428.36 62.832 428.2 62.768C428.04 62.672 427.864 62.624 427.672 62.624V61.184L431.896 58.4H433.288V88.496ZM423.496 91.136C425.224 91.136 426.584 90.112 427.576 88.064C428.568 85.984 429.064 83.328 429.064 80.096C429.064 76.864 428.568 74.224 427.576 72.176C426.584 70.096 425.224 69.056 423.496 69.056C421.768 69.056 420.392 70.112 419.368 72.224C418.376 74.304 417.88 76.928 417.88 80.096C417.88 83.264 418.376 85.904 419.368 88.016C420.392 90.096 421.768 91.136 423.496 91.136ZM457.742 68.336H459.182V69.728C458.638 69.728 458.158 69.92 457.742 70.304C457.326 70.656 457.038 71.024 456.878 71.408L456.686 71.984L450.782 92.096C450.398 93.248 450.062 94.208 449.774 94.976C449.486 95.744 449.102 96.608 448.622 97.568C448.174 98.528 447.726 99.296 447.278 99.872C446.83 100.448 446.302 100.928 445.694 101.312C445.086 101.696 444.446 101.888 443.774 101.888C443.582 101.888 443.39 101.872 443.198 101.84C443.038 101.84 442.862 101.808 442.67 101.744C442.51 101.68 442.382 101.632 442.286 101.6C442.19 101.568 442.046 101.488 441.854 101.36C441.694 101.232 441.582 101.152 441.518 101.12C441.486 101.088 441.358 100.976 441.134 100.784C440.91 100.624 440.798 100.528 440.798 100.496C439.966 99.824 439.55 100.128 439.55 101.408H438.158V93.008C438.606 94.768 439.438 96.48 440.654 98.144C441.87 99.84 442.91 100.688 443.774 100.688C444.19 100.688 444.59 100.576 444.974 100.352C445.358 100.16 445.726 99.824 446.078 99.344C446.43 98.896 446.734 98.464 446.99 98.048C447.246 97.632 447.518 97.056 447.806 96.32C448.094 95.584 448.318 94.992 448.478 94.544C448.638 94.128 448.862 93.536 449.15 92.768C449.182 92.672 449.198 92.592 449.198 92.528C449.23 92.464 449.262 92.384 449.294 92.288C449.326 92.224 449.342 92.16 449.342 92.096L439.79 71.792C438.99 70.416 437.982 69.728 436.766 69.728V68.336H444.11V69.728C443.918 69.728 443.79 69.808 443.726 69.968C443.662 70.128 443.646 70.336 443.678 70.592C443.71 70.848 443.758 71.104 443.822 71.36C443.918 71.584 443.998 71.776 444.062 71.936L444.206 72.176L450.974 86.624L455.246 72.176C455.246 72.144 455.246 72.096 455.246 72.032C455.278 71.968 455.31 71.856 455.342 71.696C455.374 71.504 455.39 71.344 455.39 71.216C455.422 71.056 455.422 70.88 455.39 70.688C455.39 70.496 455.358 70.336 455.294 70.208C455.262 70.08 455.182 69.968 455.054 69.872C454.958 69.776 454.814 69.728 454.622 69.728V68.336H457.742ZM460.215 57.872C463.095 58.256 465.399 60.064 467.127 63.296C468.855 66.496 469.719 70.464 469.719 75.2C469.719 78.304 469.335 81.12 468.567 83.648C467.799 86.176 466.695 88.224 465.255 89.792C463.815 91.36 462.135 92.272 460.215 92.528C459.991 92.56 459.799 92.512 459.639 92.384C459.479 92.256 459.383 92.096 459.351 91.904C459.319 91.712 459.367 91.536 459.495 91.376C459.623 91.216 459.783 91.12 459.975 91.088C461.671 90.608 462.999 88.912 463.959 86C464.919 83.056 465.399 79.456 465.399 75.2C465.399 70.944 464.919 67.36 463.959 64.448C462.999 61.504 461.671 59.792 459.975 59.312C459.783 59.312 459.623 59.232 459.495 59.072C459.367 58.912 459.319 58.72 459.351 58.496C459.383 58.304 459.479 58.144 459.639 58.016C459.799 57.888 459.991 57.84 460.215 57.872Z" fill="#121212"/>
</svg>
