<svg width="118" height="43" viewBox="0 0 118 43" fill="none" xmlns="http://www.w3.org/2000/svg">
<path d="M9.98 28C9.848 28 9.746 27.964 9.674 27.892C9.602 27.808 9.566 27.706 9.566 27.586V15.832C9.566 15.7 9.602 15.598 9.674 15.526C9.746 15.442 9.848 15.4 9.98 15.4H17.324C17.456 15.4 17.558 15.442 17.63 15.526C17.702 15.598 17.738 15.7 17.738 15.832V16.552C17.738 16.684 17.702 16.786 17.63 16.858C17.558 16.93 17.456 16.966 17.324 16.966H11.312V21.16H16.964C17.096 21.16 17.198 21.202 17.27 21.286C17.342 21.358 17.378 21.46 17.378 21.592V22.312C17.378 22.432 17.342 22.534 17.27 22.618C17.198 22.69 17.096 22.726 16.964 22.726H11.312V27.586C11.312 27.706 11.27 27.808 11.186 27.892C11.114 27.964 11.012 28 10.88 28H9.98ZM20.4917 28C20.3597 28 20.2577 27.964 20.1857 27.892C20.1137 27.808 20.0777 27.706 20.0777 27.586V15.832C20.0777 15.7 20.1137 15.598 20.1857 15.526C20.2577 15.442 20.3597 15.4 20.4917 15.4H24.8837C26.2397 15.4 27.3137 15.718 28.1057 16.354C28.8977 16.99 29.2937 17.932 29.2937 19.18C29.2937 20.104 29.0597 20.86 28.5917 21.448C28.1357 22.024 27.5117 22.426 26.7197 22.654L29.4917 27.442C29.5277 27.514 29.5457 27.58 29.5457 27.64C29.5457 27.736 29.5037 27.82 29.4197 27.892C29.3477 27.964 29.2637 28 29.1677 28H28.3037C28.0997 28 27.9497 27.946 27.8537 27.838C27.7577 27.73 27.6737 27.622 27.6017 27.514L24.9917 22.942H21.8417V27.586C21.8417 27.706 21.7997 27.808 21.7157 27.892C21.6437 27.964 21.5417 28 21.4097 28H20.4917ZM21.8417 21.412H24.8117C25.7117 21.412 26.3837 21.226 26.8277 20.854C27.2717 20.47 27.4937 19.906 27.4937 19.162C27.4937 18.43 27.2717 17.872 26.8277 17.488C26.3957 17.104 25.7237 16.912 24.8117 16.912H21.8417V21.412ZM32.2866 28C32.1546 28 32.0526 27.964 31.9806 27.892C31.9086 27.808 31.8726 27.706 31.8726 27.586V15.832C31.8726 15.7 31.9086 15.598 31.9806 15.526C32.0526 15.442 32.1546 15.4 32.2866 15.4H39.7206C39.8526 15.4 39.9546 15.442 40.0266 15.526C40.0986 15.598 40.1346 15.7 40.1346 15.832V16.516C40.1346 16.648 40.0986 16.75 40.0266 16.822C39.9546 16.894 39.8526 16.93 39.7206 16.93H33.6006V20.872H39.3246C39.4566 20.872 39.5586 20.914 39.6306 20.998C39.7026 21.07 39.7386 21.172 39.7386 21.304V21.97C39.7386 22.09 39.7026 22.192 39.6306 22.276C39.5586 22.348 39.4566 22.384 39.3246 22.384H33.6006V26.47H39.8646C39.9966 26.47 40.0986 26.506 40.1706 26.578C40.2426 26.65 40.2786 26.752 40.2786 26.884V27.586C40.2786 27.706 40.2426 27.808 40.1706 27.892C40.0986 27.964 39.9966 28 39.8646 28H32.2866ZM43.2027 28C43.0707 28 42.9687 27.964 42.8967 27.892C42.8247 27.808 42.7887 27.706 42.7887 27.586V15.832C42.7887 15.7 42.8247 15.598 42.8967 15.526C42.9687 15.442 43.0707 15.4 43.2027 15.4H50.6367C50.7687 15.4 50.8707 15.442 50.9427 15.526C51.0147 15.598 51.0507 15.7 51.0507 15.832V16.516C51.0507 16.648 51.0147 16.75 50.9427 16.822C50.8707 16.894 50.7687 16.93 50.6367 16.93H44.5167V20.872H50.2407C50.3727 20.872 50.4747 20.914 50.5467 20.998C50.6187 21.07 50.6547 21.172 50.6547 21.304V21.97C50.6547 22.09 50.6187 22.192 50.5467 22.276C50.4747 22.348 50.3727 22.384 50.2407 22.384H44.5167V26.47H50.7807C50.9127 26.47 51.0147 26.506 51.0867 26.578C51.1587 26.65 51.1947 26.752 51.1947 26.884V27.586C51.1947 27.706 51.1587 27.808 51.0867 27.892C51.0147 27.964 50.9127 28 50.7807 28H43.2027ZM54.1187 28C53.9867 28 53.8847 27.964 53.8127 27.892C53.7407 27.808 53.7047 27.706 53.7047 27.586V15.814C53.7047 15.694 53.7407 15.598 53.8127 15.526C53.8847 15.442 53.9867 15.4 54.1187 15.4H55.0727C55.1927 15.4 55.2887 15.442 55.3607 15.526C55.4327 15.598 55.4687 15.694 55.4687 15.814V26.434H61.4627C61.5947 26.434 61.6967 26.476 61.7687 26.56C61.8407 26.632 61.8767 26.734 61.8767 26.866V27.586C61.8767 27.706 61.8407 27.808 61.7687 27.892C61.6967 27.964 61.5947 28 61.4627 28H54.1187ZM63.0013 28C62.9053 28 62.8213 27.964 62.7493 27.892C62.6773 27.82 62.6413 27.736 62.6413 27.64C62.6413 27.58 62.6473 27.514 62.6593 27.442L67.1233 15.796C67.1713 15.676 67.2373 15.58 67.3213 15.508C67.4053 15.436 67.5313 15.4 67.6993 15.4H68.9233C69.0793 15.4 69.1993 15.436 69.2833 15.508C69.3793 15.58 69.4513 15.676 69.4993 15.796L73.9453 27.442C73.9693 27.514 73.9813 27.58 73.9813 27.64C73.9813 27.736 73.9453 27.82 73.8733 27.892C73.8013 27.964 73.7173 28 73.6213 28H72.7033C72.5593 28 72.4513 27.964 72.3793 27.892C72.3193 27.82 72.2773 27.754 72.2533 27.694L71.2633 25.138H65.3593L64.3693 27.694C64.3573 27.754 64.3153 27.82 64.2433 27.892C64.1713 27.964 64.0633 28 63.9193 28H63.0013ZM65.8813 23.59H70.7413L68.3113 17.2L65.8813 23.59ZM76.3198 28C76.1878 28 76.0858 27.964 76.0138 27.892C75.9418 27.808 75.9058 27.706 75.9058 27.586V15.832C75.9058 15.7 75.9418 15.598 76.0138 15.526C76.0858 15.442 76.1878 15.4 76.3198 15.4H77.1478C77.2918 15.4 77.3998 15.436 77.4718 15.508C77.5438 15.568 77.5858 15.616 77.5978 15.652L83.5738 24.832V15.832C83.5738 15.7 83.6098 15.598 83.6818 15.526C83.7538 15.442 83.8558 15.4 83.9878 15.4H84.8518C84.9838 15.4 85.0858 15.442 85.1578 15.526C85.2418 15.598 85.2838 15.7 85.2838 15.832V27.568C85.2838 27.688 85.2418 27.79 85.1578 27.874C85.0858 27.958 84.9898 28 84.8698 28H84.0058C83.8738 28 83.7718 27.964 83.6998 27.892C83.6398 27.82 83.5978 27.772 83.5738 27.748L77.6158 18.658V27.586C77.6158 27.706 77.5738 27.808 77.4898 27.892C77.4178 27.964 77.3158 28 77.1838 28H76.3198ZM92.9399 28.18C91.8359 28.18 90.9179 27.976 90.1859 27.568C89.4659 27.16 88.9199 26.59 88.5479 25.858C88.1759 25.126 87.9719 24.274 87.9359 23.302C87.9239 22.81 87.9179 22.282 87.9179 21.718C87.9179 21.154 87.9239 20.614 87.9359 20.098C87.9719 19.126 88.1759 18.274 88.5479 17.542C88.9199 16.81 89.4659 16.24 90.1859 15.832C90.9179 15.424 91.8359 15.22 92.9399 15.22C93.7679 15.22 94.4939 15.334 95.1179 15.562C95.7419 15.79 96.2579 16.096 96.6659 16.48C97.0859 16.864 97.4039 17.296 97.6199 17.776C97.8359 18.244 97.9559 18.73 97.9799 19.234C97.9919 19.342 97.9559 19.432 97.8719 19.504C97.7999 19.576 97.7099 19.612 97.6019 19.612H96.6119C96.5039 19.612 96.4079 19.582 96.3239 19.522C96.2519 19.462 96.1979 19.354 96.1619 19.198C95.9579 18.262 95.5739 17.62 95.0099 17.272C94.4579 16.924 93.7619 16.75 92.9219 16.75C91.9619 16.75 91.1999 17.026 90.6359 17.578C90.0719 18.118 89.7659 18.988 89.7179 20.188C89.6819 21.172 89.6819 22.18 89.7179 23.212C89.7659 24.412 90.0719 25.288 90.6359 25.84C91.1999 26.38 91.9619 26.65 92.9219 26.65C93.7619 26.65 94.4579 26.476 95.0099 26.128C95.5739 25.78 95.9579 25.138 96.1619 24.202C96.1979 24.046 96.2519 23.938 96.3239 23.878C96.4079 23.818 96.5039 23.788 96.6119 23.788H97.6019C97.7099 23.788 97.7999 23.824 97.8719 23.896C97.9559 23.968 97.9919 24.058 97.9799 24.166C97.9559 24.67 97.8359 25.162 97.6199 25.642C97.4039 26.11 97.0859 26.536 96.6659 26.92C96.2579 27.304 95.7419 27.61 95.1179 27.838C94.4939 28.066 93.7679 28.18 92.9399 28.18ZM100.806 28C100.674 28 100.572 27.964 100.5 27.892C100.428 27.808 100.392 27.706 100.392 27.586V15.832C100.392 15.7 100.428 15.598 100.5 15.526C100.572 15.442 100.674 15.4 100.806 15.4H108.24C108.372 15.4 108.474 15.442 108.546 15.526C108.618 15.598 108.654 15.7 108.654 15.832V16.516C108.654 16.648 108.618 16.75 108.546 16.822C108.474 16.894 108.372 16.93 108.24 16.93H102.12V20.872H107.844C107.976 20.872 108.078 20.914 108.15 20.998C108.222 21.07 108.258 21.172 108.258 21.304V21.97C108.258 22.09 108.222 22.192 108.15 22.276C108.078 22.348 107.976 22.384 107.844 22.384H102.12V26.47H108.384C108.516 26.47 108.618 26.506 108.69 26.578C108.762 26.65 108.798 26.752 108.798 26.884V27.586C108.798 27.706 108.762 27.808 108.69 27.892C108.618 27.964 108.516 28 108.384 28H100.806Z" fill="#BAFEFE"/>
<rect x="0.5" y="0.5" width="117" height="42" rx="7.5" stroke="#BFBFBF" stroke-dasharray="4 4"/>
</svg>
