<svg width="428" height="108" viewBox="0 0 428 108" fill="none" xmlns="http://www.w3.org/2000/svg">
<path d="M17.7088 18.2H24.7168V19.592C24.3008 19.592 23.9648 19.768 23.7088 20.12C23.4848 20.472 23.3568 20.824 23.3248 21.176V21.704V30.776C20.4128 33.944 17.1328 35.528 13.4848 35.528C10.9888 35.528 8.78081 34.776 6.86081 33.272C4.94081 31.736 3.46881 29.656 2.44481 27.032C1.42081 24.408 0.908813 21.464 0.908813 18.2C0.908813 14.936 1.42081 11.992 2.44481 9.368C3.46881 6.744 4.94081 4.68 6.86081 3.176C8.78081 1.64 10.9888 0.871999 13.4848 0.871999C15.4368 0.839999 17.2448 1.336 18.9088 2.36C19.0048 2.424 19.0848 2.472 19.1488 2.504C20.0448 3.016 20.4928 2.648 20.4928 1.4H21.8848V9.8C21.4368 7.752 20.4608 5.992 18.9568 4.52C17.4848 3.016 15.6768 2.264 13.5328 2.264C11.8368 2.264 10.3968 3 9.21281 4.472C8.02881 5.912 7.16481 7.816 6.62081 10.184C6.07681 12.52 5.80481 15.192 5.80481 18.2C5.80481 21.208 6.09281 23.896 6.66881 26.264C7.24481 28.6 8.14081 30.504 9.35681 31.976C10.6048 33.416 12.1088 34.136 13.8688 34.136C15.7888 34.104 17.5328 33.544 19.1008 32.456V21.704C19.1008 21.672 19.1008 21.64 19.1008 21.608C19.1008 21.544 19.0848 21.448 19.0528 21.32C19.0528 21.16 19.0368 21.016 19.0048 20.888C18.9728 20.76 18.9248 20.616 18.8608 20.456C18.7968 20.264 18.7168 20.12 18.6208 20.024C18.5248 19.896 18.3968 19.8 18.2368 19.736C18.0768 19.64 17.9008 19.592 17.7088 19.592V18.2ZM38.3237 10.664C41.3317 10.664 43.8277 11.912 45.8117 14.408C47.7957 16.872 48.7877 19.768 48.7877 23.096C48.7877 26.424 47.7957 29.336 45.8117 31.832C43.8277 34.296 41.3317 35.528 38.3237 35.528C35.3157 35.528 32.8037 34.296 30.7877 31.832C28.8037 29.336 27.8117 26.424 27.8117 23.096C27.8117 19.768 28.8037 16.872 30.7877 14.408C32.8037 11.912 35.3157 10.664 38.3237 10.664ZM34.1957 31.016C35.2197 33.096 36.5957 34.136 38.3237 34.136C40.0517 34.136 41.4117 33.096 42.4037 31.016C43.3957 28.904 43.8917 26.264 43.8917 23.096C43.8917 19.928 43.3957 17.304 42.4037 15.224C41.4117 13.112 40.0517 12.056 38.3237 12.056C37.4597 12.056 36.6597 12.344 35.9237 12.92C35.2197 13.496 34.6277 14.296 34.1477 15.32C33.6997 16.312 33.3477 17.48 33.0917 18.824C32.8357 20.136 32.7077 21.56 32.7077 23.096C32.7077 26.264 33.2037 28.904 34.1957 31.016ZM57.7089 12.584V31.496C57.7089 31.56 57.7089 31.64 57.7089 31.736C57.7089 31.832 57.7249 32.008 57.7569 32.264C57.8209 32.488 57.9009 32.696 57.9969 32.888C58.0929 33.048 58.2369 33.208 58.4289 33.368C58.6209 33.528 58.8449 33.608 59.1009 33.608V35H57.7089C56.9729 35 56.3329 34.92 55.7889 34.76C55.2449 34.6 54.8289 34.424 54.5409 34.232C54.2529 34.04 54.0289 33.816 53.8689 33.56C53.7089 33.272 53.5969 33.048 53.5329 32.888C53.5009 32.696 53.4849 32.52 53.4849 32.36V14.696C53.4849 14.632 53.4849 14.552 53.4849 14.456C53.4849 14.36 53.4529 14.2 53.3889 13.976C53.3569 13.72 53.2929 13.512 53.1969 13.352C53.1009 13.16 52.9569 12.984 52.7649 12.824C52.5729 12.664 52.3489 12.584 52.0929 12.584V11.192L56.2689 6.296H57.7089V11.192H59.1009V12.584H57.7089ZM95.8131 31.496C95.8131 31.56 95.8131 31.64 95.8131 31.736C95.8451 31.832 95.8771 32.008 95.9091 32.264C95.9731 32.488 96.0371 32.696 96.1011 32.888C96.1971 33.048 96.3411 33.208 96.5331 33.368C96.7251 33.528 96.9491 33.608 97.2051 33.608V35H95.8131C93.4771 35 92.1011 34.296 91.6851 32.888C90.4371 34.648 88.5011 35.528 85.8771 35.528C82.9331 35.528 80.5811 34.808 78.8211 33.368C77.0931 31.896 76.2291 29.96 76.2291 27.56C76.2291 24.936 77.0771 22.952 78.7731 21.608C80.4691 20.264 82.8371 19.592 85.8771 19.592C88.4371 19.592 90.3571 20.44 91.6371 22.136V19.592C91.6371 17.672 91.4611 16.152 91.1091 15.032C90.7571 13.88 90.2771 13.096 89.6691 12.68C89.0931 12.264 88.3411 12.056 87.4131 12.056C86.2611 12.056 85.3011 12.488 84.5331 13.352C83.7651 14.184 83.3331 15.16 83.2371 16.28C83.1731 16.824 82.7891 17.208 82.0851 17.432C81.4131 17.656 80.7251 17.608 80.0211 17.288C79.3491 16.968 79.0131 16.456 79.0131 15.752C79.0131 14.248 79.7491 13.032 81.2211 12.104C82.6931 11.144 84.6451 10.664 87.0771 10.664C89.9251 10.664 92.0851 11.368 93.5571 12.776C95.0611 14.152 95.8131 16.424 95.8131 19.592V31.496ZM90.1971 32.312C91.1571 31.064 91.6371 29.48 91.6371 27.56C91.6371 25.64 91.1571 24.072 90.1971 22.856C89.2691 21.608 87.9891 20.984 86.3571 20.984C84.7571 20.984 83.4771 21.608 82.5171 22.856C81.5891 24.104 81.1251 25.672 81.1251 27.56C81.1251 29.448 81.5891 31.016 82.5171 32.264C83.4771 33.512 84.7571 34.136 86.3571 34.136C87.9891 34.136 89.2691 33.528 90.1971 32.312ZM125.622 10.664C128.662 10.664 131.174 11.912 133.158 14.408C135.142 16.872 136.134 19.784 136.134 23.144C136.134 26.472 135.142 29.368 133.158 31.832C131.174 34.296 128.662 35.528 125.622 35.528C123.19 35.528 121.334 34.28 120.054 31.784V41.288C120.054 41.32 120.054 41.352 120.054 41.384C120.054 41.448 120.054 41.544 120.054 41.672C120.086 41.832 120.118 41.976 120.15 42.104C120.182 42.264 120.23 42.424 120.294 42.584C120.358 42.744 120.438 42.872 120.534 42.968C120.63 43.096 120.758 43.192 120.918 43.256C121.078 43.352 121.254 43.4 121.446 43.4V44.792H114.438V43.4C114.854 43.4 115.174 43.224 115.398 42.872C115.654 42.52 115.782 42.168 115.782 41.816L115.83 41.288V17.48C115.83 17.448 115.83 17.384 115.83 17.288C115.83 17.192 115.798 17.032 115.734 16.808C115.702 16.552 115.638 16.328 115.542 16.136C115.446 15.944 115.302 15.784 115.11 15.656C114.918 15.496 114.694 15.416 114.438 15.416V14.024L118.614 11.192H120.054V14.408C121.334 11.912 123.19 10.664 125.622 10.664ZM125.622 34.136C127.35 34.136 128.71 33.096 129.702 31.016C130.726 28.904 131.238 26.264 131.238 23.096C131.238 19.928 130.726 17.304 129.702 15.224C128.71 13.112 127.35 12.056 125.622 12.056C123.894 12.056 122.534 13.096 121.542 15.176C120.55 17.224 120.054 19.864 120.054 23.096C120.054 26.328 120.55 28.984 121.542 31.064C122.534 33.112 123.894 34.136 125.622 34.136ZM151.708 10.664C152.828 10.664 153.932 10.84 155.02 11.192C156.14 11.544 157.116 12.12 157.948 12.92C158.78 13.72 159.196 14.664 159.196 15.752C159.196 16.456 158.86 16.968 158.188 17.288C157.516 17.576 156.828 17.624 156.124 17.432C155.452 17.208 155.084 16.824 155.02 16.28C154.892 15.16 154.428 14.248 153.628 13.544C152.86 12.808 151.804 12.44 150.46 12.44C149.5 12.44 148.636 12.6 147.868 12.92C147.132 13.208 146.588 13.576 146.236 14.024C145.884 14.472 145.628 14.872 145.468 15.224C145.308 15.576 145.228 15.864 145.228 16.088V31.496C145.228 31.56 145.228 31.64 145.228 31.736C145.228 31.832 145.244 32.008 145.276 32.264C145.34 32.488 145.42 32.696 145.516 32.888C145.612 33.048 145.756 33.208 145.948 33.368C146.14 33.528 146.364 33.608 146.62 33.608V35H139.612V33.608C140.028 33.608 140.348 33.432 140.572 33.08C140.828 32.728 140.956 32.376 140.956 32.024L141.004 31.496V17.48C141.004 17.448 141.004 17.384 141.004 17.288C141.004 17.192 140.972 17.032 140.908 16.808C140.876 16.552 140.812 16.328 140.716 16.136C140.62 15.944 140.476 15.784 140.284 15.656C140.092 15.496 139.868 15.416 139.612 15.416V14.024L143.788 11.192H145.228V13.256C146.508 11.528 148.668 10.664 151.708 10.664ZM171.683 10.664C174.691 10.664 177.187 11.912 179.171 14.408C181.155 16.872 182.147 19.768 182.147 23.096C182.147 26.424 181.155 29.336 179.171 31.832C177.187 34.296 174.691 35.528 171.683 35.528C168.675 35.528 166.163 34.296 164.147 31.832C162.163 29.336 161.171 26.424 161.171 23.096C161.171 19.768 162.163 16.872 164.147 14.408C166.163 11.912 168.675 10.664 171.683 10.664ZM167.555 31.016C168.579 33.096 169.955 34.136 171.683 34.136C173.411 34.136 174.771 33.096 175.763 31.016C176.755 28.904 177.251 26.264 177.251 23.096C177.251 19.928 176.755 17.304 175.763 15.224C174.771 13.112 173.411 12.056 171.683 12.056C170.819 12.056 170.019 12.344 169.283 12.92C168.579 13.496 167.987 14.296 167.507 15.32C167.059 16.312 166.707 17.48 166.451 18.824C166.195 20.136 166.067 21.56 166.067 23.096C166.067 26.264 166.563 28.904 167.555 31.016ZM185.032 14.024L189.256 11.192H190.648V36.728C190.648 38.04 190.552 39.144 190.36 40.04C190.2 40.936 189.896 41.752 189.448 42.488C189 43.256 188.328 43.832 187.432 44.216C186.568 44.6 185.48 44.792 184.168 44.792C182.376 44.76 180.76 44.216 179.32 43.16C178.456 42.648 178.024 43.016 178.024 44.264H176.632V35.864C177.336 37.976 178.312 39.752 179.56 41.192C180.776 42.664 182.184 43.4 183.784 43.4C184.104 43.4 184.392 43.352 184.648 43.256C184.936 43.16 185.16 43 185.32 42.776C185.512 42.552 185.672 42.328 185.8 42.104C185.928 41.912 186.024 41.624 186.088 41.24C186.184 40.856 186.248 40.52 186.28 40.232C186.344 39.976 186.376 39.592 186.376 39.08C186.408 38.6 186.424 38.216 186.424 37.928C186.424 37.672 186.424 37.272 186.424 36.728V17.48C186.424 17.448 186.424 17.384 186.424 17.288C186.424 17.192 186.392 17.032 186.328 16.808C186.296 16.552 186.232 16.328 186.136 16.136C186.04 15.944 185.896 15.784 185.704 15.656C185.512 15.496 185.288 15.416 185.032 15.416V14.024ZM190.36 8.408C189.944 9.08 189.336 9.512 188.536 9.704C187.736 9.896 186.984 9.784 186.28 9.368C185.576 8.92 185.128 8.296 184.936 7.496C184.744 6.696 184.856 5.96 185.272 5.288C185.72 4.584 186.344 4.136 187.144 3.944C187.56 3.816 187.96 3.8 188.344 3.896C188.728 3.96 189.08 4.088 189.4 4.28C189.72 4.472 189.992 4.728 190.216 5.048C190.472 5.368 190.648 5.736 190.744 6.152C190.936 6.952 190.808 7.704 190.36 8.408ZM205.864 34.136C208.488 34.136 210.696 32.728 212.488 29.912L213.784 30.776C211.704 33.944 208.936 35.528 205.48 35.528C203.4 35.528 201.544 34.936 199.912 33.752C198.312 32.568 197.096 31.048 196.264 29.192C195.432 27.304 195.016 25.272 195.016 23.096C195.016 19.736 195.976 16.824 197.896 14.36C199.848 11.896 202.328 10.664 205.336 10.664C207.928 10.664 210.04 11.672 211.672 13.688C213.336 15.672 214.296 18.2 214.552 21.272C214.296 21.336 213.96 21.416 213.544 21.512C213.128 21.608 212.312 21.864 211.096 22.28C209.88 22.664 208.712 23.096 207.592 23.576C206.504 24.024 205.288 24.648 203.944 25.448C202.6 26.216 201.464 27.032 200.536 27.896C200.472 27.96 200.424 27.992 200.392 27.992C200.808 29.88 201.48 31.384 202.408 32.504C203.336 33.592 204.488 34.136 205.864 34.136ZM199.912 22.424C199.912 23.704 199.976 25 200.104 26.312C203.016 24.072 206.232 22.376 209.752 21.224C209.688 18.536 209.288 16.344 208.552 14.648C207.816 12.92 206.744 12.056 205.336 12.056C203.704 12.056 202.408 13.032 201.448 14.984C200.488 16.904 199.976 19.384 199.912 22.424ZM244.874 11.192H246.266V12.584H244.874V12.776H244.922V15.752L244.874 15.8C244.33 16.792 243.498 18.312 242.378 20.36C241.258 22.376 240.266 24.184 239.402 25.784C238.538 27.384 238.01 28.328 237.818 28.616C237.178 29.704 236.57 30.632 235.994 31.4C235.45 32.136 234.778 32.84 233.978 33.512C233.21 34.184 232.33 34.68 231.338 35C230.378 35.352 229.306 35.528 228.122 35.528C226.362 35.528 224.794 35.192 223.418 34.52C222.042 33.816 220.938 32.888 220.106 31.736C219.274 30.552 218.65 29.24 218.234 27.8C217.818 26.328 217.61 24.76 217.61 23.096C217.61 19.768 218.602 16.872 220.586 14.408C222.602 11.912 225.114 10.664 228.122 10.664C229.978 10.664 231.674 11.176 233.21 12.2C234.01 12.616 234.41 12.28 234.41 11.192H235.802V18.2C235.45 17.048 234.89 16.008 234.122 15.08C233.386 14.152 232.49 13.432 231.434 12.92C230.41 12.376 229.354 12.104 228.266 12.104C226.442 12.104 225.018 13.144 223.994 15.224C223.002 17.272 222.506 19.896 222.506 23.096C222.506 23.64 222.506 23.928 222.506 23.96C222.602 26.936 223.162 29.384 224.186 31.304C225.242 33.192 226.65 34.136 228.41 34.136C230.106 34.136 231.546 33.64 232.73 32.648C233.914 31.624 235.178 30.024 236.522 27.848C237.322 26.536 238.714 23.928 240.698 20.024V14.696C240.698 14.664 240.698 14.632 240.698 14.6C240.698 14.536 240.682 14.44 240.65 14.312C240.65 14.152 240.634 14.008 240.602 13.88C240.57 13.752 240.506 13.608 240.41 13.448C240.346 13.288 240.266 13.144 240.17 13.016C240.074 12.888 239.946 12.792 239.786 12.728C239.658 12.632 239.498 12.584 239.306 12.584V11.192L243.482 6.296H244.874V11.192ZM244.874 31.496C244.874 31.56 244.874 31.64 244.874 31.736C244.906 31.832 244.938 32.008 244.97 32.264C245.034 32.488 245.098 32.696 245.162 32.888C245.258 33.048 245.402 33.208 245.594 33.368C245.786 33.528 246.01 33.608 246.266 33.608V35H244.874C244.17 35 243.53 34.92 242.954 34.76C242.41 34.6 241.994 34.424 241.706 34.232C241.45 34.04 241.226 33.816 241.034 33.56C240.874 33.272 240.778 33.048 240.746 32.888C240.714 32.696 240.698 32.52 240.698 32.36V25.352C241.018 24.744 241.674 23.544 242.666 21.752C243.658 19.96 244.394 18.6 244.874 17.672V31.496ZM273.912 0.871999C275.544 0.871999 276.968 1.096 278.184 1.544C279.4 1.96 280.328 2.552 280.968 3.32C281.64 4.088 281.976 4.968 281.976 5.96C281.976 6.664 281.64 7.176 280.968 7.496C280.296 7.784 279.608 7.832 278.904 7.64C278.2 7.416 277.832 7.032 277.8 6.488C277.672 5.368 277.224 4.392 276.456 3.56C275.688 2.696 274.728 2.264 273.576 2.264C272.648 2.264 271.88 2.472 271.272 2.888C270.696 3.304 270.232 4.088 269.88 5.24C269.56 6.36 269.4 7.88 269.4 9.8V11.192H272.184V12.584H269.4V31.496C269.4 31.56 269.4 31.64 269.4 31.736C269.4 31.832 269.416 32.008 269.448 32.264C269.512 32.488 269.592 32.696 269.688 32.888C269.784 33.048 269.928 33.208 270.12 33.368C270.312 33.528 270.536 33.608 270.792 33.608V35H263.784V33.608C264.2 33.608 264.52 33.432 264.744 33.08C265 32.728 265.128 32.376 265.128 32.024L265.176 31.496V12.584H263.784V11.192H265.176V9.8C265.176 8.168 265.368 6.776 265.752 5.624C266.168 4.44 266.76 3.512 267.528 2.84C268.296 2.168 269.208 1.672 270.264 1.352C271.32 1.032 272.536 0.871999 273.912 0.871999ZM283.855 10.664C286.863 10.664 289.359 11.912 291.343 14.408C293.327 16.872 294.319 19.768 294.319 23.096C294.319 26.424 293.327 29.336 291.343 31.832C289.359 34.296 286.863 35.528 283.855 35.528C280.847 35.528 278.335 34.296 276.319 31.832C274.335 29.336 273.343 26.424 273.343 23.096C273.343 19.768 274.335 16.872 276.319 14.408C278.335 11.912 280.847 10.664 283.855 10.664ZM279.727 31.016C280.751 33.096 282.127 34.136 283.855 34.136C285.583 34.136 286.943 33.096 287.935 31.016C288.927 28.904 289.423 26.264 289.423 23.096C289.423 19.928 288.927 17.304 287.935 15.224C286.943 13.112 285.583 12.056 283.855 12.056C282.991 12.056 282.191 12.344 281.455 12.92C280.751 13.496 280.159 14.296 279.679 15.32C279.231 16.312 278.879 17.48 278.623 18.824C278.367 20.136 278.239 21.56 278.239 23.096C278.239 26.264 278.735 28.904 279.727 31.016ZM309.864 10.664C310.984 10.664 312.088 10.84 313.176 11.192C314.296 11.544 315.272 12.12 316.104 12.92C316.936 13.72 317.352 14.664 317.352 15.752C317.352 16.456 317.016 16.968 316.344 17.288C315.672 17.576 314.984 17.624 314.28 17.432C313.608 17.208 313.24 16.824 313.176 16.28C313.048 15.16 312.584 14.248 311.784 13.544C311.016 12.808 309.96 12.44 308.616 12.44C307.656 12.44 306.792 12.6 306.024 12.92C305.288 13.208 304.744 13.576 304.392 14.024C304.04 14.472 303.784 14.872 303.624 15.224C303.464 15.576 303.384 15.864 303.384 16.088V31.496C303.384 31.56 303.384 31.64 303.384 31.736C303.384 31.832 303.4 32.008 303.432 32.264C303.496 32.488 303.576 32.696 303.672 32.888C303.768 33.048 303.912 33.208 304.104 33.368C304.296 33.528 304.52 33.608 304.776 33.608V35H297.768V33.608C298.184 33.608 298.504 33.432 298.728 33.08C298.984 32.728 299.112 32.376 299.112 32.024L299.16 31.496V17.48C299.16 17.448 299.16 17.384 299.16 17.288C299.16 17.192 299.128 17.032 299.064 16.808C299.032 16.552 298.968 16.328 298.872 16.136C298.776 15.944 298.632 15.784 298.44 15.656C298.248 15.496 298.024 15.416 297.768 15.416V14.024L301.944 11.192H303.384V13.256C304.664 11.528 306.824 10.664 309.864 10.664ZM367.462 31.496C367.462 31.56 367.462 31.64 367.462 31.736C367.462 31.832 367.478 32.008 367.51 32.264C367.574 32.488 367.654 32.696 367.75 32.888C367.846 33.048 367.99 33.208 368.182 33.368C368.374 33.528 368.598 33.608 368.854 33.608V35H361.846V33.608C362.262 33.608 362.582 33.432 362.806 33.08C363.062 32.728 363.206 32.376 363.238 32.024V31.496V16.088C363.238 15.032 362.806 14.168 361.942 13.496C361.11 12.792 360.038 12.44 358.726 12.44C357.734 12.44 356.87 12.6 356.134 12.92C355.398 13.208 354.854 13.576 354.502 14.024C354.15 14.472 353.878 14.872 353.686 15.224C353.526 15.576 353.446 15.864 353.446 16.088V31.496C353.446 32.904 353.91 33.608 354.838 33.608V35H347.878V33.608C348.294 33.608 348.614 33.432 348.838 33.08C349.062 32.728 349.19 32.376 349.222 32.024L349.27 31.496V16.088C349.27 15.032 348.838 14.168 347.974 13.496C347.11 12.792 346.022 12.44 344.71 12.44C343.75 12.44 342.886 12.6 342.118 12.92C341.382 13.208 340.838 13.576 340.486 14.024C340.134 14.472 339.878 14.872 339.718 15.224C339.558 15.576 339.478 15.864 339.478 16.088V31.496C339.478 31.56 339.478 31.64 339.478 31.736C339.478 31.832 339.494 32.008 339.526 32.264C339.59 32.488 339.67 32.696 339.766 32.888C339.862 33.048 340.006 33.208 340.198 33.368C340.39 33.528 340.614 33.608 340.87 33.608V35H333.862V33.608C334.278 33.608 334.598 33.432 334.822 33.08C335.078 32.728 335.206 32.376 335.206 32.024L335.254 31.496V17.48C335.254 17.448 335.254 17.384 335.254 17.288C335.254 17.192 335.222 17.032 335.158 16.808C335.126 16.552 335.062 16.328 334.966 16.136C334.87 15.944 334.726 15.784 334.534 15.656C334.342 15.496 334.118 15.416 333.862 15.416V14.024L338.086 11.192H339.478V13.256C340.758 11.528 342.918 10.664 345.958 10.664C347.366 10.664 348.758 10.952 350.134 11.528C351.51 12.104 352.47 12.92 353.014 13.976C354.166 11.768 356.47 10.664 359.926 10.664C361.078 10.664 362.198 10.84 363.286 11.192C364.406 11.544 365.382 12.12 366.214 12.92C367.046 13.72 367.462 14.664 367.462 15.752V31.496ZM383.051 34.136C385.675 34.136 387.883 32.728 389.675 29.912L390.971 30.776C388.891 33.944 386.123 35.528 382.667 35.528C380.587 35.528 378.731 34.936 377.099 33.752C375.499 32.568 374.283 31.048 373.451 29.192C372.619 27.304 372.203 25.272 372.203 23.096C372.203 19.736 373.163 16.824 375.083 14.36C377.035 11.896 379.515 10.664 382.523 10.664C385.115 10.664 387.227 11.672 388.859 13.688C390.523 15.672 391.483 18.2 391.739 21.272C391.483 21.336 391.147 21.416 390.731 21.512C390.315 21.608 389.499 21.864 388.283 22.28C387.067 22.664 385.899 23.096 384.779 23.576C383.691 24.024 382.475 24.648 381.131 25.448C379.787 26.216 378.651 27.032 377.723 27.896C377.659 27.96 377.611 27.992 377.579 27.992C377.995 29.88 378.667 31.384 379.595 32.504C380.523 33.592 381.675 34.136 383.051 34.136ZM377.099 22.424C377.099 23.704 377.163 25 377.291 26.312C380.203 24.072 383.419 22.376 386.939 21.224C386.875 18.536 386.475 16.344 385.739 14.648C385.003 12.92 383.931 12.056 382.523 12.056C380.891 12.056 379.595 13.032 378.635 14.984C377.675 16.904 377.163 19.384 377.099 22.424ZM417.406 0.871999C420.766 0.871999 423.294 1.64 424.99 3.176C426.718 4.712 427.582 6.856 427.582 9.608C427.582 10.856 427.374 12.04 426.958 13.16C426.542 14.28 425.998 15.272 425.326 16.136C424.686 17 423.966 17.832 423.166 18.632C422.366 19.432 421.566 20.2 420.766 20.936C419.998 21.672 419.278 22.408 418.606 23.144C417.966 23.848 417.438 24.616 417.022 25.448C416.606 26.28 416.398 27.128 416.398 27.992H415.006C415.006 26.488 415.278 25.096 415.822 23.816C416.366 22.504 417.022 21.352 417.79 20.36C418.59 19.368 419.374 18.376 420.142 17.384C420.942 16.36 421.614 15.144 422.158 13.736C422.734 12.328 423.022 10.776 423.022 9.08C423.022 8.408 422.942 7.736 422.782 7.064C422.622 6.36 422.35 5.624 421.966 4.856C421.614 4.088 421.038 3.464 420.238 2.984C419.47 2.504 418.526 2.264 417.406 2.264C415.358 2.264 413.598 3.016 412.126 4.52C410.654 6.024 409.71 7.784 409.294 9.8V1.4H410.782C410.782 1.912 410.846 2.28 410.974 2.504C411.102 2.696 411.23 2.776 411.358 2.744C411.518 2.712 411.694 2.632 411.886 2.504C411.95 2.472 412.014 2.424 412.078 2.36C413.71 1.336 415.486 0.839999 417.406 0.871999ZM418.654 32.024C418.654 32.856 418.366 33.56 417.79 34.136C417.214 34.712 416.51 35 415.678 35C414.878 35 414.174 34.712 413.566 34.136C412.99 33.56 412.702 32.856 412.702 32.024C412.702 31.192 412.99 30.488 413.566 29.912C414.174 29.336 414.878 29.048 415.678 29.048C416.51 29.048 417.214 29.336 417.79 29.912C418.366 30.488 418.654 31.192 418.654 32.024ZM105.388 103.688H106.78V107H85.8039V105.608C86.2199 105.608 86.5399 105.432 86.7639 105.08C87.0199 104.728 87.1479 104.376 87.1479 104.024L87.1959 103.496V76.904C87.1959 76.84 87.1959 76.76 87.1959 76.664C87.1959 76.568 87.1639 76.408 87.0999 76.184C87.0679 75.928 87.0039 75.72 86.9079 75.56C86.8119 75.368 86.6679 75.192 86.4759 75.032C86.2839 74.872 86.0599 74.792 85.8039 74.792V73.4H92.8119V74.792C92.5559 74.792 92.3319 74.872 92.1399 75.032C91.9479 75.16 91.8039 75.336 91.7079 75.56C91.6119 75.752 91.5319 75.96 91.4679 76.184C91.4359 76.376 91.4199 76.536 91.4199 76.664V76.904V105.608H102.604C102.668 105.608 102.764 105.608 102.892 105.608C103.02 105.576 103.244 105.528 103.564 105.464C103.884 105.4 104.172 105.304 104.428 105.176C104.684 105.048 104.908 104.856 105.1 104.6C105.292 104.344 105.388 104.04 105.388 103.688ZM135.655 83.192H137.095V84.584H135.655V87.752V87.8C135.399 88.28 135.079 88.84 134.695 89.48C134.119 90.536 133.335 91.976 132.343 93.8C131.351 95.624 130.519 97.16 129.847 98.408C129.175 99.624 128.759 100.36 128.599 100.616C127.959 101.704 127.351 102.632 126.775 103.4C126.199 104.136 125.527 104.84 124.759 105.512C123.991 106.184 123.111 106.68 122.119 107C121.159 107.352 120.071 107.528 118.855 107.528C117.127 107.528 115.575 107.192 114.199 106.52C112.823 105.816 111.719 104.888 110.887 103.736C110.055 102.552 109.431 101.24 109.015 99.8C108.599 98.328 108.391 96.76 108.391 95.096C108.391 91.736 109.351 88.824 111.271 86.36C113.223 83.896 115.703 82.664 118.711 82.664C120.439 82.664 121.975 83.144 123.319 84.104C124.695 85.064 125.767 86.344 126.535 87.944C127.303 89.512 127.767 91.288 127.927 93.272C127.831 93.272 127.719 93.304 127.591 93.368C127.463 93.4 127.175 93.48 126.727 93.608C126.279 93.704 125.831 93.832 125.383 93.992C124.935 94.12 124.375 94.296 123.703 94.52C123.031 94.744 122.375 94.984 121.735 95.24C121.127 95.496 120.455 95.8 119.719 96.152C118.983 96.504 118.279 96.872 117.607 97.256C116.935 97.608 116.263 98.024 115.591 98.504C114.919 98.984 114.311 99.48 113.767 99.992C114.215 101.88 114.903 103.384 115.831 104.504C116.759 105.592 117.863 106.136 119.143 106.136C120.871 106.136 122.327 105.64 123.511 104.648C124.695 103.624 125.959 102.024 127.303 99.848C128.103 98.504 129.495 95.88 131.479 91.976V86.696C131.479 86.664 131.479 86.632 131.479 86.6C131.479 86.536 131.463 86.44 131.431 86.312C131.431 86.152 131.415 86.008 131.383 85.88C131.351 85.752 131.287 85.608 131.191 85.448C131.127 85.288 131.047 85.144 130.951 85.016C130.855 84.888 130.727 84.792 130.567 84.728C130.439 84.632 130.279 84.584 130.087 84.584V83.192L134.263 78.296H135.655V83.192ZM113.287 95.816C113.319 96.648 113.383 97.48 113.479 98.312C116.391 96.072 119.607 94.36 123.127 93.176C123.063 90.52 122.663 88.344 121.927 86.648C121.191 84.92 120.119 84.056 118.711 84.056C117.079 84.056 115.783 85.032 114.823 86.984C113.863 88.904 113.351 91.384 113.287 94.424V95.816ZM135.655 103.496C135.655 103.56 135.655 103.64 135.655 103.736C135.687 103.832 135.719 104.008 135.751 104.264C135.815 104.488 135.879 104.696 135.943 104.888C136.039 105.048 136.183 105.208 136.375 105.368C136.567 105.528 136.791 105.608 137.047 105.608V107H135.655C134.759 107 134.007 106.904 133.399 106.712C132.791 106.488 132.359 106.216 132.103 105.896C131.847 105.544 131.671 105.256 131.575 105.032C131.511 104.776 131.479 104.552 131.479 104.36V97.352C131.831 96.712 132.487 95.496 133.447 93.704C134.439 91.912 135.175 90.568 135.655 89.672V103.496ZM142.875 73.4C143.707 73.4 144.411 73.736 144.987 74.408C145.563 75.048 145.851 75.88 145.851 76.904C145.851 77.736 145.723 78.504 145.467 79.208C145.243 79.912 144.955 80.488 144.603 80.936C144.251 81.352 143.867 81.72 143.451 82.04C143.035 82.328 142.651 82.536 142.299 82.664C141.979 82.792 141.707 82.856 141.483 82.856C142.923 81.384 142.923 80.104 141.483 79.016C140.427 78.28 139.899 77.4 139.899 76.376C139.899 75.544 140.187 74.84 140.763 74.264C141.339 73.688 142.043 73.4 142.875 73.4ZM153.866 87.416C153.866 88.184 154.346 89 155.306 89.864C156.266 90.696 157.434 91.528 158.81 92.36C160.186 93.192 161.562 94.056 162.938 94.952C164.314 95.848 165.482 96.888 166.442 98.072C167.402 99.224 167.882 100.392 167.882 101.576C167.882 102.632 167.594 103.56 167.018 104.36C166.474 105.128 165.722 105.736 164.762 106.184C163.834 106.632 162.842 106.968 161.786 107.192C160.762 107.416 159.706 107.528 158.618 107.528C156.666 107.56 154.858 107.096 153.194 106.136C153.162 106.104 153.13 106.088 153.098 106.088C153.098 106.056 153.082 106.04 153.05 106.04C152.89 105.944 152.73 105.88 152.57 105.848C152.41 105.816 152.234 105.88 152.042 106.04C151.882 106.2 151.802 106.52 151.802 107H150.41V99.992C150.922 101.72 151.962 103.176 153.53 104.36C155.13 105.544 156.762 106.136 158.426 106.136C159.93 106.136 161.194 105.864 162.218 105.32C163.242 104.776 163.754 103.944 163.754 102.824C163.754 102.024 163.258 101.16 162.266 100.232C161.306 99.304 160.138 98.408 158.762 97.544C157.386 96.68 156.01 95.784 154.634 94.856C153.258 93.928 152.09 92.904 151.13 91.784C150.17 90.664 149.69 89.56 149.69 88.472C149.69 87.384 149.93 86.456 150.41 85.688C150.89 84.888 151.546 84.28 152.378 83.864C153.21 83.448 154.09 83.144 155.018 82.952C155.978 82.76 157.002 82.664 158.09 82.664C159.882 82.664 161.53 83.128 163.034 84.056L163.13 84.152C163.994 84.632 164.426 84.312 164.426 83.192H165.818V90.2C165.306 88.44 164.33 86.984 162.89 85.832C161.45 84.648 159.914 84.056 158.282 84.056C157.034 84.056 155.978 84.312 155.114 84.824C154.282 85.336 153.866 86.2 153.866 87.416ZM206.008 101.144L207.256 102.008C206.072 103.832 204.744 105.208 203.272 106.136C201.8 107.064 199.944 107.528 197.704 107.528C195.208 107.528 193 106.776 191.08 105.272C189.16 103.736 187.688 101.656 186.664 99.032C185.64 96.408 185.128 93.464 185.128 90.2C185.128 86.936 185.64 83.992 186.664 81.368C187.688 78.744 189.16 76.68 191.08 75.176C193 73.64 195.208 72.872 197.704 72.872C199.656 72.84 201.464 73.336 203.128 74.36C203.224 74.424 203.304 74.472 203.368 74.504C204.264 75.016 204.712 74.648 204.712 73.4H206.104V81.8C205.656 79.752 204.68 77.992 203.176 76.52C201.704 75.016 199.896 74.264 197.752 74.264C196.056 74.264 194.616 75 193.432 76.472C192.248 77.912 191.384 79.816 190.84 82.184C190.296 84.52 190.024 87.192 190.024 90.2C190.024 93.176 190.312 95.848 190.888 98.216C191.496 100.584 192.392 102.504 193.576 103.976C194.792 105.416 196.216 106.136 197.848 106.136C201.304 106.136 204.024 104.472 206.008 101.144ZM219.871 82.664C222.879 82.664 225.375 83.912 227.359 86.408C229.343 88.872 230.335 91.768 230.335 95.096C230.335 98.424 229.343 101.336 227.359 103.832C225.375 106.296 222.879 107.528 219.871 107.528C216.863 107.528 214.351 106.296 212.335 103.832C210.351 101.336 209.359 98.424 209.359 95.096C209.359 91.768 210.351 88.872 212.335 86.408C214.351 83.912 216.863 82.664 219.871 82.664ZM215.743 103.016C216.767 105.096 218.143 106.136 219.871 106.136C221.599 106.136 222.959 105.096 223.951 103.016C224.943 100.904 225.439 98.264 225.439 95.096C225.439 91.928 224.943 89.304 223.951 87.224C222.959 85.112 221.599 84.056 219.871 84.056C219.007 84.056 218.207 84.344 217.471 84.92C216.767 85.496 216.175 86.296 215.695 87.32C215.247 88.312 214.895 89.48 214.639 90.824C214.383 92.136 214.255 93.56 214.255 95.096C214.255 98.264 214.751 100.904 215.743 103.016ZM253.368 103.496C253.368 103.56 253.368 103.64 253.368 103.736C253.4 103.832 253.432 104.008 253.464 104.264C253.528 104.488 253.592 104.696 253.656 104.888C253.752 105.048 253.896 105.208 254.088 105.368C254.28 105.528 254.504 105.608 254.76 105.608V107H247.8V105.608C248.216 105.608 248.536 105.432 248.76 105.08C248.984 104.728 249.112 104.376 249.144 104.024L249.192 103.496V88.088C249.192 87.032 248.76 86.168 247.896 85.496C247.032 84.792 245.944 84.44 244.632 84.44C243.672 84.44 242.808 84.6 242.04 84.92C241.304 85.208 240.76 85.576 240.408 86.024C240.056 86.472 239.8 86.872 239.64 87.224C239.48 87.576 239.4 87.864 239.4 88.088V103.496C239.4 103.56 239.4 103.64 239.4 103.736C239.4 103.832 239.416 104.008 239.448 104.264C239.512 104.488 239.592 104.696 239.688 104.888C239.784 105.048 239.928 105.208 240.12 105.368C240.312 105.528 240.536 105.608 240.792 105.608V107H233.784V105.608C234.2 105.608 234.52 105.432 234.744 105.08C235 104.728 235.128 104.376 235.128 104.024L235.176 103.496V89.48C235.176 89.448 235.176 89.384 235.176 89.288C235.176 89.192 235.144 89.032 235.08 88.808C235.048 88.552 234.984 88.328 234.888 88.136C234.792 87.944 234.648 87.784 234.456 87.656C234.264 87.496 234.04 87.416 233.784 87.416V86.024L237.96 83.192H239.4V85.256C240.68 83.528 242.84 82.664 245.88 82.664C247 82.664 248.104 82.84 249.192 83.192C250.312 83.544 251.288 84.12 252.12 84.92C252.952 85.72 253.368 86.664 253.368 87.752V103.496ZM277.743 103.496C277.743 103.56 277.743 103.64 277.743 103.736C277.775 103.832 277.807 104.008 277.839 104.264C277.903 104.488 277.967 104.696 278.031 104.888C278.127 105.048 278.271 105.208 278.463 105.368C278.655 105.528 278.879 105.608 279.135 105.608V107H272.175V105.608C272.591 105.608 272.911 105.432 273.135 105.08C273.359 104.728 273.487 104.376 273.519 104.024L273.567 103.496V88.088C273.567 87.032 273.135 86.168 272.271 85.496C271.407 84.792 270.319 84.44 269.007 84.44C268.047 84.44 267.183 84.6 266.415 84.92C265.679 85.208 265.135 85.576 264.783 86.024C264.431 86.472 264.175 86.872 264.015 87.224C263.855 87.576 263.775 87.864 263.775 88.088V103.496C263.775 103.56 263.775 103.64 263.775 103.736C263.775 103.832 263.791 104.008 263.823 104.264C263.887 104.488 263.967 104.696 264.063 104.888C264.159 105.048 264.303 105.208 264.495 105.368C264.687 105.528 264.911 105.608 265.167 105.608V107H258.159V105.608C258.575 105.608 258.895 105.432 259.119 105.08C259.375 104.728 259.503 104.376 259.503 104.024L259.551 103.496V89.48C259.551 89.448 259.551 89.384 259.551 89.288C259.551 89.192 259.519 89.032 259.455 88.808C259.423 88.552 259.359 88.328 259.263 88.136C259.167 87.944 259.023 87.784 258.831 87.656C258.639 87.496 258.415 87.416 258.159 87.416V86.024L262.335 83.192H263.775V85.256C265.055 83.528 267.215 82.664 270.255 82.664C271.375 82.664 272.479 82.84 273.567 83.192C274.687 83.544 275.663 84.12 276.495 84.92C277.327 85.72 277.743 86.664 277.743 87.752V103.496ZM293.286 106.136C295.91 106.136 298.118 104.728 299.91 101.912L301.206 102.776C299.126 105.944 296.358 107.528 292.902 107.528C290.822 107.528 288.966 106.936 287.334 105.752C285.734 104.568 284.518 103.048 283.686 101.192C282.854 99.304 282.438 97.272 282.438 95.096C282.438 91.736 283.398 88.824 285.318 86.36C287.27 83.896 289.75 82.664 292.758 82.664C295.35 82.664 297.462 83.672 299.094 85.688C300.758 87.672 301.718 90.2 301.974 93.272C301.718 93.336 301.382 93.416 300.966 93.512C300.55 93.608 299.734 93.864 298.518 94.28C297.302 94.664 296.134 95.096 295.014 95.576C293.926 96.024 292.71 96.648 291.366 97.448C290.022 98.216 288.886 99.032 287.958 99.896C287.894 99.96 287.846 99.992 287.814 99.992C288.23 101.88 288.902 103.384 289.83 104.504C290.758 105.592 291.91 106.136 293.286 106.136ZM287.334 94.424C287.334 95.704 287.398 97 287.526 98.312C290.438 96.072 293.654 94.376 297.174 93.224C297.11 90.536 296.71 88.344 295.974 86.648C295.238 84.92 294.166 84.056 292.758 84.056C291.126 84.056 289.83 85.032 288.87 86.984C287.91 88.904 287.398 91.384 287.334 94.424ZM332.296 83.192H333.688V84.584H332.296V84.776H332.344V87.752L332.296 87.8C331.752 88.792 330.92 90.312 329.8 92.36C328.68 94.376 327.688 96.184 326.824 97.784C325.96 99.384 325.432 100.328 325.24 100.616C324.6 101.704 323.992 102.632 323.416 103.4C322.872 104.136 322.2 104.84 321.4 105.512C320.632 106.184 319.752 106.68 318.76 107C317.8 107.352 316.728 107.528 315.544 107.528C313.784 107.528 312.216 107.192 310.84 106.52C309.464 105.816 308.36 104.888 307.528 103.736C306.696 102.552 306.072 101.24 305.656 99.8C305.24 98.328 305.032 96.76 305.032 95.096C305.032 91.768 306.024 88.872 308.008 86.408C310.024 83.912 312.536 82.664 315.544 82.664C317.4 82.664 319.096 83.176 320.632 84.2C321.432 84.616 321.832 84.28 321.832 83.192H323.224V90.2C322.872 89.048 322.312 88.008 321.544 87.08C320.808 86.152 319.912 85.432 318.856 84.92C317.832 84.376 316.776 84.104 315.688 84.104C313.864 84.104 312.44 85.144 311.416 87.224C310.424 89.272 309.928 91.896 309.928 95.096C309.928 95.64 309.928 95.928 309.928 95.96C310.024 98.936 310.584 101.384 311.608 103.304C312.664 105.192 314.072 106.136 315.832 106.136C317.528 106.136 318.968 105.64 320.152 104.648C321.336 103.624 322.6 102.024 323.944 99.848C324.744 98.536 326.136 95.928 328.12 92.024V86.696C328.12 86.664 328.12 86.632 328.12 86.6C328.12 86.536 328.104 86.44 328.072 86.312C328.072 86.152 328.056 86.008 328.024 85.88C327.992 85.752 327.928 85.608 327.832 85.448C327.768 85.288 327.688 85.144 327.592 85.016C327.496 84.888 327.368 84.792 327.208 84.728C327.08 84.632 326.92 84.584 326.728 84.584V83.192L330.904 78.296H332.296V83.192ZM332.296 103.496C332.296 103.56 332.296 103.64 332.296 103.736C332.328 103.832 332.36 104.008 332.392 104.264C332.456 104.488 332.52 104.696 332.584 104.888C332.68 105.048 332.824 105.208 333.016 105.368C333.208 105.528 333.432 105.608 333.688 105.608V107H332.296C331.592 107 330.952 106.92 330.376 106.76C329.832 106.6 329.416 106.424 329.128 106.232C328.872 106.04 328.648 105.816 328.456 105.56C328.296 105.272 328.2 105.048 328.168 104.888C328.136 104.696 328.12 104.52 328.12 104.36V97.352C328.44 96.744 329.096 95.544 330.088 93.752C331.08 91.96 331.816 90.6 332.296 89.672V103.496ZM343.285 104.024C343.285 104.856 342.997 105.56 342.421 106.136C341.845 106.712 341.141 107 340.309 107C339.477 107 338.773 106.712 338.197 106.136C337.621 105.56 337.333 104.856 337.333 104.024C337.333 103.192 337.621 102.488 338.197 101.912C338.773 101.336 339.477 101.048 340.309 101.048C341.141 101.048 341.845 101.336 342.421 101.912C342.997 102.488 343.285 103.192 343.285 104.024Z" fill="white"/>
</svg>
