<svg width="628" height="36" viewBox="0 0 628 36" fill="none" xmlns="http://www.w3.org/2000/svg">
<path d="M5.78838 31.496C5.78838 31.56 5.78838 31.64 5.78838 31.736C5.78838 31.832 5.80438 32.008 5.83638 32.264C5.90038 32.488 5.98038 32.696 6.07638 32.888C6.17238 33.048 6.31638 33.208 6.50838 33.368C6.70038 33.528 6.92438 33.608 7.18038 33.608V35H0.172375V33.608C0.588375 33.608 0.908375 33.432 1.13238 33.08C1.38838 32.728 1.51638 32.376 1.51638 32.024L1.56438 31.496V9.08C1.56438 9.048 1.56438 8.984 1.56438 8.888C1.56438 8.792 1.53238 8.632 1.46838 8.408C1.43638 8.152 1.37238 7.928 1.27638 7.736C1.18038 7.544 1.03638 7.384 0.844375 7.256C0.652375 7.096 0.428375 7.016 0.172375 7.016V5.624L4.34838 1.4H5.78838V31.496ZM18.0685 3.176C19.8925 1.64 21.9885 0.871999 24.3565 0.871999C26.7245 0.871999 28.8205 1.64 30.6445 3.176C32.4685 4.68 33.8605 6.744 34.8205 9.368C35.7805 11.96 36.2605 14.904 36.2605 18.2C36.2605 21.464 35.7805 24.408 34.8205 27.032C33.8605 29.656 32.4685 31.736 30.6445 33.272C28.8205 34.776 26.7245 35.528 24.3565 35.528C21.9885 35.528 19.8925 34.776 18.0685 33.272C16.2445 31.736 14.8525 29.656 13.8925 27.032C12.9325 24.408 12.4525 21.464 12.4525 18.2C12.4525 14.904 12.9325 11.96 13.8925 9.368C14.8525 6.744 16.2445 4.68 18.0685 3.176ZM21.3805 32.888C22.2765 33.72 23.2685 34.136 24.3565 34.136C25.4445 34.136 26.4365 33.72 27.3325 32.888C28.2285 32.056 28.9645 30.92 29.5405 29.48C30.1165 28.008 30.5645 26.312 30.8845 24.392C31.2045 22.472 31.3645 20.408 31.3645 18.2C31.3645 15.224 31.0925 12.552 30.5485 10.184C30.0045 7.784 29.1885 5.864 28.1005 4.424C27.0445 2.984 25.7965 2.264 24.3565 2.264C22.9165 2.264 21.6525 2.984 20.5645 4.424C19.4765 5.864 18.6605 7.784 18.1165 10.184C17.6045 12.552 17.3485 15.224 17.3485 18.2C17.3485 20.408 17.5085 22.472 17.8285 24.392C18.1485 26.312 18.5965 28.008 19.1725 29.48C19.7485 30.92 20.4845 32.056 21.3805 32.888ZM47.1779 3.176C49.0019 1.64 51.0979 0.871999 53.4659 0.871999C55.8339 0.871999 57.9299 1.64 59.7539 3.176C61.5779 4.68 62.9699 6.744 63.9299 9.368C64.8899 11.96 65.3699 14.904 65.3699 18.2C65.3699 21.464 64.8899 24.408 63.9299 27.032C62.9699 29.656 61.5779 31.736 59.7539 33.272C57.9299 34.776 55.8339 35.528 53.4659 35.528C51.0979 35.528 49.0019 34.776 47.1779 33.272C45.3539 31.736 43.9619 29.656 43.0019 27.032C42.0419 24.408 41.5619 21.464 41.5619 18.2C41.5619 14.904 42.0419 11.96 43.0019 9.368C43.9619 6.744 45.3539 4.68 47.1779 3.176ZM50.4899 32.888C51.3859 33.72 52.3779 34.136 53.4659 34.136C54.5539 34.136 55.5459 33.72 56.4419 32.888C57.3379 32.056 58.0739 30.92 58.6499 29.48C59.2259 28.008 59.6739 26.312 59.9939 24.392C60.3139 22.472 60.4739 20.408 60.4739 18.2C60.4739 15.224 60.2019 12.552 59.6579 10.184C59.1139 7.784 58.2979 5.864 57.2099 4.424C56.1539 2.984 54.9059 2.264 53.4659 2.264C52.0259 2.264 50.7619 2.984 49.6739 4.424C48.5859 5.864 47.7699 7.784 47.2259 10.184C46.7139 12.552 46.4579 15.224 46.4579 18.2C46.4579 20.408 46.6179 22.472 46.9379 24.392C47.2579 26.312 47.7059 28.008 48.2819 29.48C48.8579 30.92 49.5939 32.056 50.4899 32.888ZM87.1833 1.4H89.9673L75.9993 35H73.1673L87.1833 1.4ZM79.5033 3.08C80.4633 4.52 80.9433 6.36 80.9433 8.6C80.9433 10.808 80.4633 12.648 79.5033 14.12C78.5433 15.56 77.2633 16.28 75.6633 16.28C74.0633 16.28 72.7833 15.56 71.8233 14.12C70.8633 12.648 70.3833 10.808 70.3833 8.6C70.3833 6.36 70.8633 4.52 71.8233 3.08C72.7833 1.608 74.0633 0.871999 75.6633 0.871999C77.2633 0.871999 78.5433 1.608 79.5033 3.08ZM73.3593 3.512C72.8153 4.856 72.5433 6.552 72.5433 8.6C72.5433 10.616 72.8153 12.296 73.3593 13.64C73.9353 14.984 74.7033 15.656 75.6633 15.656C76.6233 15.656 77.3753 14.984 77.9193 13.64C78.4953 12.296 78.7833 10.616 78.7833 8.6C78.7833 6.552 78.4953 4.856 77.9193 3.512C77.3753 2.168 76.6233 1.496 75.6633 1.496C74.7033 1.496 73.9353 2.168 73.3593 3.512ZM83.6313 22.328C84.6233 20.856 85.9033 20.12 87.4713 20.12C89.0713 20.12 90.3513 20.856 91.3113 22.328C92.2713 23.768 92.7513 25.608 92.7513 27.848C92.7513 30.056 92.2713 31.896 91.3113 33.368C90.3513 34.808 89.0713 35.528 87.4713 35.528C85.9033 35.528 84.6233 34.808 83.6313 33.368C82.6713 31.896 82.1913 30.056 82.1913 27.848C82.1913 25.608 82.6713 23.768 83.6313 22.328ZM85.1673 32.888C85.7433 34.232 86.5113 34.904 87.4713 34.904C88.4313 34.904 89.1833 34.232 89.7273 32.888C90.3033 31.544 90.5913 29.864 90.5913 27.848C90.5913 25.8 90.3033 24.104 89.7273 22.76C89.1833 21.416 88.4313 20.744 87.4713 20.744C86.5113 20.744 85.7433 21.416 85.1673 22.76C84.6233 24.104 84.3513 25.8 84.3513 27.848C84.3513 29.864 84.6233 31.544 85.1673 32.888ZM114.805 7.544C114.805 8.536 115.125 9.496 115.765 10.424C116.405 11.352 117.237 12.216 118.261 13.016C119.317 13.784 120.469 14.568 121.717 15.368C122.965 16.168 124.213 17 125.461 17.864C126.741 18.696 127.893 19.576 128.917 20.504C129.973 21.432 130.821 22.504 131.461 23.72C132.101 24.904 132.421 26.152 132.421 27.464C132.421 29.16 131.861 30.632 130.741 31.88C129.653 33.128 128.277 34.056 126.613 34.664C124.949 35.24 123.157 35.528 121.237 35.528C118.837 35.528 116.677 34.984 114.757 33.896C113.893 33.352 113.461 33.72 113.461 35H112.069V26.6C112.517 28.584 113.573 30.344 115.237 31.88C116.901 33.384 118.901 34.136 121.237 34.136C122.965 34.136 124.581 33.624 126.085 32.6C127.589 31.576 128.341 30.216 128.341 28.52C128.341 27.624 128.085 26.76 127.573 25.928C127.093 25.096 126.437 24.344 125.605 23.672C124.773 23 123.829 22.312 122.773 21.608C121.717 20.872 120.629 20.184 119.509 19.544C118.421 18.904 117.349 18.184 116.293 17.384C115.237 16.552 114.293 15.736 113.461 14.936C112.661 14.104 112.005 13.144 111.493 12.056C110.981 10.936 110.725 9.784 110.725 8.6C110.725 6.872 111.253 5.416 112.309 4.232C113.397 3.016 114.693 2.152 116.197 1.64C117.701 1.128 119.317 0.871999 121.045 0.871999C121.493 0.871999 121.909 0.887999 122.293 0.919998C122.709 0.951998 123.077 0.999998 123.397 1.064C123.717 1.128 124.037 1.208 124.357 1.304C124.677 1.4 124.933 1.48 125.125 1.544C125.317 1.608 125.525 1.704 125.749 1.832C126.005 1.928 126.181 2.008 126.277 2.072C126.405 2.136 126.549 2.232 126.709 2.36C126.901 2.456 127.013 2.504 127.045 2.504C127.909 3.048 128.341 2.68 128.341 1.4H129.733V9.8C129.253 7.752 128.293 5.992 126.853 4.52C125.413 3.016 123.589 2.264 121.381 2.264C119.653 2.264 118.117 2.712 116.773 3.608C115.461 4.504 114.805 5.816 114.805 7.544ZM154.774 31.496C154.774 31.56 154.774 31.64 154.774 31.736C154.806 31.832 154.838 32.008 154.87 32.264C154.934 32.488 154.998 32.696 155.062 32.888C155.158 33.048 155.302 33.208 155.494 33.368C155.686 33.528 155.91 33.608 156.166 33.608V35H154.774C152.438 35 151.062 34.296 150.646 32.888C149.398 34.648 147.462 35.528 144.838 35.528C141.894 35.528 139.542 34.808 137.782 33.368C136.054 31.896 135.19 29.96 135.19 27.56C135.19 24.936 136.038 22.952 137.734 21.608C139.43 20.264 141.798 19.592 144.838 19.592C147.398 19.592 149.318 20.44 150.598 22.136V19.592C150.598 17.672 150.422 16.152 150.07 15.032C149.718 13.88 149.238 13.096 148.63 12.68C148.054 12.264 147.302 12.056 146.374 12.056C145.222 12.056 144.262 12.488 143.494 13.352C142.726 14.184 142.294 15.16 142.198 16.28C142.134 16.824 141.75 17.208 141.046 17.432C140.374 17.656 139.686 17.608 138.982 17.288C138.31 16.968 137.974 16.456 137.974 15.752C137.974 14.248 138.71 13.032 140.182 12.104C141.654 11.144 143.606 10.664 146.038 10.664C148.886 10.664 151.046 11.368 152.518 12.776C154.022 14.152 154.774 16.424 154.774 19.592V31.496ZM149.158 32.312C150.118 31.064 150.598 29.48 150.598 27.56C150.598 25.64 150.118 24.072 149.158 22.856C148.23 21.608 146.95 20.984 145.318 20.984C143.718 20.984 142.438 21.608 141.478 22.856C140.55 24.104 140.086 25.672 140.086 27.56C140.086 29.448 140.55 31.016 141.478 32.264C142.438 33.512 143.718 34.136 145.318 34.136C146.95 34.136 148.23 33.528 149.158 32.312ZM164.717 12.584V31.496C164.717 31.56 164.717 31.64 164.717 31.736C164.717 31.832 164.733 32.008 164.765 32.264C164.829 32.488 164.909 32.696 165.005 32.888C165.101 33.048 165.245 33.208 165.437 33.368C165.629 33.528 165.853 33.608 166.109 33.608V35H164.717C163.981 35 163.341 34.92 162.797 34.76C162.253 34.6 161.837 34.424 161.549 34.232C161.261 34.04 161.037 33.816 160.877 33.56C160.717 33.272 160.605 33.048 160.541 32.888C160.509 32.696 160.493 32.52 160.493 32.36V14.696C160.493 14.632 160.493 14.552 160.493 14.456C160.493 14.36 160.461 14.2 160.397 13.976C160.365 13.72 160.301 13.512 160.205 13.352C160.109 13.16 159.965 12.984 159.773 12.824C159.581 12.664 159.357 12.584 159.101 12.584V11.192L163.277 6.296H164.717V11.192H166.109V12.584H164.717ZM175.22 31.496C175.22 31.56 175.22 31.64 175.22 31.736C175.252 31.832 175.284 32.008 175.316 32.264C175.38 32.488 175.444 32.696 175.508 32.888C175.604 33.048 175.748 33.208 175.94 33.368C176.132 33.528 176.356 33.608 176.612 33.608V35H169.652V33.608C170.068 33.608 170.388 33.432 170.612 33.08C170.836 32.728 170.964 32.376 170.996 32.024L171.044 31.496V17.48C171.044 17.448 171.028 17.384 170.996 17.288C170.996 17.192 170.964 17.032 170.9 16.808C170.868 16.552 170.804 16.328 170.708 16.136C170.644 15.944 170.516 15.784 170.324 15.656C170.132 15.496 169.908 15.416 169.652 15.416V14.024L173.828 11.192H175.22V31.496ZM175.412 6.824C175.412 7.656 175.124 8.36 174.548 8.936C173.972 9.512 173.268 9.8 172.436 9.8C171.604 9.8 170.9 9.512 170.324 8.936C169.748 8.36 169.46 7.656 169.46 6.824C169.46 5.992 169.748 5.288 170.324 4.712C170.9 4.136 171.604 3.848 172.436 3.848C173.268 3.848 173.972 4.136 174.548 4.712C175.124 5.288 175.412 5.992 175.412 6.824ZM184.28 15.416C184.28 16.184 184.76 17 185.72 17.864C186.68 18.696 187.848 19.528 189.224 20.36C190.6 21.192 191.976 22.056 193.352 22.952C194.728 23.848 195.896 24.888 196.856 26.072C197.816 27.224 198.296 28.392 198.296 29.576C198.296 30.632 198.008 31.56 197.432 32.36C196.888 33.128 196.136 33.736 195.176 34.184C194.248 34.632 193.256 34.968 192.2 35.192C191.176 35.416 190.12 35.528 189.032 35.528C187.08 35.56 185.272 35.096 183.608 34.136C183.576 34.104 183.544 34.088 183.512 34.088C183.512 34.056 183.496 34.04 183.464 34.04C183.304 33.944 183.144 33.88 182.984 33.848C182.824 33.816 182.648 33.88 182.456 34.04C182.296 34.2 182.216 34.52 182.216 35H180.824V27.992C181.336 29.72 182.376 31.176 183.944 32.36C185.544 33.544 187.176 34.136 188.84 34.136C190.344 34.136 191.608 33.864 192.632 33.32C193.656 32.776 194.168 31.944 194.168 30.824C194.168 30.024 193.672 29.16 192.68 28.232C191.72 27.304 190.552 26.408 189.176 25.544C187.8 24.68 186.424 23.784 185.048 22.856C183.672 21.928 182.504 20.904 181.544 19.784C180.584 18.664 180.104 17.56 180.104 16.472C180.104 15.384 180.344 14.456 180.824 13.688C181.304 12.888 181.96 12.28 182.792 11.864C183.624 11.448 184.504 11.144 185.432 10.952C186.392 10.76 187.416 10.664 188.504 10.664C190.296 10.664 191.944 11.128 193.448 12.056L193.544 12.152C194.408 12.632 194.84 12.312 194.84 11.192H196.232V18.2C195.72 16.44 194.744 14.984 193.304 13.832C191.864 12.648 190.328 12.056 188.696 12.056C187.448 12.056 186.392 12.312 185.528 12.824C184.696 13.336 184.28 14.2 184.28 15.416ZM219.765 31.496C219.765 31.528 219.765 31.576 219.765 31.64C219.765 31.672 219.765 31.768 219.765 31.928C219.797 32.056 219.829 32.2 219.861 32.36C219.893 32.488 219.941 32.632 220.005 32.792C220.101 32.952 220.197 33.096 220.293 33.224C220.389 33.32 220.501 33.416 220.629 33.512C220.789 33.576 220.965 33.608 221.157 33.608V35H214.149V33.608C214.565 33.608 214.885 33.432 215.109 33.08C215.365 32.728 215.509 32.376 215.541 32.024L215.589 31.496V17.528C215.589 17.464 215.573 17.384 215.541 17.288C215.541 17.192 215.509 17.032 215.445 16.808C215.413 16.552 215.349 16.328 215.253 16.136C215.189 15.944 215.061 15.784 214.869 15.656C214.677 15.496 214.437 15.416 214.149 15.416V14.024L218.373 11.192H219.765V31.496ZM214.005 6.824C214.005 5.8 214.421 5 215.253 4.424C214.741 2.984 213.509 2.264 211.557 2.264C210.117 2.264 209.029 2.824 208.293 3.944C207.557 5.064 207.189 7.016 207.189 9.8V11.192H209.973V12.584H207.189V31.496C207.189 31.56 207.189 31.64 207.189 31.736C207.189 31.832 207.205 32.008 207.237 32.264C207.301 32.488 207.381 32.696 207.477 32.888C207.573 33.08 207.717 33.256 207.909 33.416C208.101 33.544 208.325 33.608 208.581 33.608V35H201.573V33.608C201.989 33.608 202.309 33.432 202.533 33.08C202.789 32.728 202.917 32.376 202.917 32.024L202.965 31.496V12.584H201.573V11.192H202.965V9.8C202.965 6.632 203.733 4.36 205.269 2.984C206.805 1.576 209.013 0.871999 211.893 0.871999C213.525 0.871999 214.933 1.096 216.117 1.544C217.333 1.992 218.277 2.664 218.949 3.56C219.621 4.456 219.957 5.544 219.957 6.824C219.925 7.656 219.621 8.36 219.045 8.936C218.469 9.512 217.781 9.8 216.981 9.8C216.437 9.8 215.941 9.672 215.493 9.416C215.045 9.128 214.677 8.76 214.389 8.312C214.133 7.864 214.005 7.368 214.005 6.824ZM235.434 34.136C238.058 34.136 240.266 32.728 242.058 29.912L243.354 30.776C241.274 33.944 238.506 35.528 235.05 35.528C232.97 35.528 231.114 34.936 229.482 33.752C227.882 32.568 226.666 31.048 225.834 29.192C225.002 27.304 224.586 25.272 224.586 23.096C224.586 19.736 225.546 16.824 227.466 14.36C229.418 11.896 231.898 10.664 234.906 10.664C237.498 10.664 239.61 11.672 241.242 13.688C242.906 15.672 243.866 18.2 244.122 21.272C243.866 21.336 243.53 21.416 243.114 21.512C242.698 21.608 241.882 21.864 240.666 22.28C239.45 22.664 238.282 23.096 237.162 23.576C236.074 24.024 234.858 24.648 233.514 25.448C232.17 26.216 231.034 27.032 230.106 27.896C230.042 27.96 229.994 27.992 229.962 27.992C230.378 29.88 231.05 31.384 231.978 32.504C232.906 33.592 234.058 34.136 235.434 34.136ZM229.482 22.424C229.482 23.704 229.546 25 229.674 26.312C232.586 24.072 235.802 22.376 239.322 21.224C239.258 18.536 238.858 16.344 238.122 14.648C237.386 12.92 236.314 12.056 234.906 12.056C233.274 12.056 231.978 13.032 231.018 14.984C230.058 16.904 229.546 19.384 229.482 22.424ZM267.436 31.496C267.436 31.528 267.436 31.576 267.436 31.64C267.436 31.672 267.436 31.768 267.436 31.928C267.468 32.056 267.5 32.2 267.532 32.36C267.564 32.488 267.612 32.632 267.676 32.792C267.772 32.952 267.852 33.096 267.916 33.224C268.012 33.32 268.14 33.416 268.3 33.512C268.46 33.576 268.636 33.608 268.828 33.608V35H267.436C266.7 35 266.06 34.92 265.516 34.76C264.972 34.6 264.556 34.424 264.268 34.232C264.012 34.04 263.788 33.816 263.596 33.56C263.436 33.272 263.324 33.048 263.26 32.888C263.228 32.696 263.212 32.52 263.212 32.36V31.784C261.932 34.28 260.076 35.528 257.644 35.528C254.604 35.528 252.092 34.296 250.108 31.832C248.124 29.368 247.132 26.472 247.132 23.144C247.132 19.784 248.124 16.872 250.108 14.408C252.092 11.912 254.604 10.664 257.644 10.664C260.076 10.664 261.932 11.912 263.212 14.408V7.688C263.212 7.656 263.212 7.624 263.212 7.592C263.212 7.528 263.196 7.432 263.164 7.304C263.164 7.144 263.148 7 263.116 6.872C263.084 6.744 263.036 6.6 262.972 6.44C262.908 6.28 262.828 6.152 262.732 6.056C262.636 5.928 262.508 5.832 262.348 5.768C262.188 5.672 262.012 5.624 261.82 5.624V4.184L266.044 1.4H267.436V31.496ZM257.644 34.136C259.372 34.136 260.732 33.112 261.724 31.064C262.716 28.984 263.212 26.328 263.212 23.096C263.212 19.864 262.716 17.224 261.724 15.176C260.732 13.096 259.372 12.056 257.644 12.056C255.916 12.056 254.54 13.112 253.516 15.224C252.524 17.304 252.028 19.928 252.028 23.096C252.028 26.264 252.524 28.904 253.516 31.016C254.54 33.096 255.916 34.136 257.644 34.136ZM307.203 29.144L308.451 30.008C307.267 31.832 305.939 33.208 304.467 34.136C302.995 35.064 301.139 35.528 298.899 35.528C296.403 35.528 294.195 34.776 292.275 33.272C290.355 31.736 288.883 29.656 287.859 27.032C286.835 24.408 286.323 21.464 286.323 18.2C286.323 14.936 286.835 11.992 287.859 9.368C288.883 6.744 290.355 4.68 292.275 3.176C294.195 1.64 296.403 0.871999 298.899 0.871999C300.851 0.839999 302.659 1.336 304.323 2.36C304.419 2.424 304.499 2.472 304.563 2.504C305.459 3.016 305.907 2.648 305.907 1.4H307.299V9.8C306.851 7.752 305.875 5.992 304.371 4.52C302.899 3.016 301.091 2.264 298.947 2.264C297.251 2.264 295.811 3 294.627 4.472C293.443 5.912 292.579 7.816 292.035 10.184C291.491 12.52 291.219 15.192 291.219 18.2C291.219 21.176 291.507 23.848 292.083 26.216C292.691 28.584 293.587 30.504 294.771 31.976C295.987 33.416 297.411 34.136 299.043 34.136C302.499 34.136 305.219 32.472 307.203 29.144ZM316.78 31.496C316.78 31.56 316.78 31.64 316.78 31.736C316.78 31.832 316.796 32.008 316.828 32.264C316.892 32.488 316.972 32.696 317.068 32.888C317.164 33.048 317.308 33.208 317.5 33.368C317.692 33.528 317.916 33.608 318.172 33.608V35H311.164V33.608C311.58 33.608 311.9 33.432 312.124 33.08C312.38 32.728 312.508 32.376 312.508 32.024L312.556 31.496V7.688C312.556 7.656 312.556 7.592 312.556 7.496C312.556 7.4 312.524 7.24 312.46 7.016C312.428 6.76 312.364 6.536 312.268 6.344C312.172 6.152 312.028 5.992 311.836 5.864C311.644 5.704 311.42 5.624 311.164 5.624V4.184L315.34 1.4H316.78V31.496ZM327.236 31.496C327.236 31.56 327.236 31.64 327.236 31.736C327.268 31.832 327.3 32.008 327.332 32.264C327.396 32.488 327.46 32.696 327.524 32.888C327.62 33.048 327.764 33.208 327.956 33.368C328.148 33.528 328.372 33.608 328.628 33.608V35H321.668V33.608C322.084 33.608 322.404 33.432 322.628 33.08C322.852 32.728 322.98 32.376 323.012 32.024L323.06 31.496V17.48C323.06 17.448 323.044 17.384 323.012 17.288C323.012 17.192 322.98 17.032 322.916 16.808C322.884 16.552 322.82 16.328 322.724 16.136C322.66 15.944 322.532 15.784 322.34 15.656C322.148 15.496 321.924 15.416 321.668 15.416V14.024L325.844 11.192H327.236V31.496ZM327.428 6.824C327.428 7.656 327.14 8.36 326.564 8.936C325.988 9.512 325.284 9.8 324.452 9.8C323.62 9.8 322.916 9.512 322.34 8.936C321.764 8.36 321.476 7.656 321.476 6.824C321.476 5.992 321.764 5.288 322.34 4.712C322.916 4.136 323.62 3.848 324.452 3.848C325.284 3.848 325.988 4.136 326.564 4.712C327.14 5.288 327.428 5.992 327.428 6.824ZM359.288 31.496C359.288 31.56 359.288 31.64 359.288 31.736C359.32 31.832 359.352 32.008 359.384 32.264C359.448 32.488 359.512 32.696 359.576 32.888C359.672 33.048 359.816 33.208 360.008 33.368C360.2 33.528 360.44 33.608 360.728 33.608V35H353.72V33.608C354.136 33.608 354.456 33.432 354.68 33.08C354.904 32.728 355.032 32.376 355.064 32.024L355.112 31.496V25.352C357.64 20.712 359.032 18.152 359.288 17.672V31.496ZM373.304 31.496C373.304 31.56 373.304 31.64 373.304 31.736C373.336 31.832 373.368 32.008 373.4 32.264C373.464 32.488 373.528 32.696 373.592 32.888C373.688 33.048 373.832 33.208 374.024 33.368C374.216 33.528 374.44 33.608 374.696 33.608V35H367.688V33.608C368.104 33.608 368.424 33.432 368.648 33.08C368.904 32.728 369.048 32.376 369.08 32.024L369.128 31.496V16.28C369 15.16 368.536 14.248 367.736 13.544C366.968 12.808 365.912 12.44 364.568 12.44C362.296 12.44 360.536 13.544 359.288 15.752V15.8C358.744 16.792 357.912 18.312 356.792 20.36C355.672 22.376 354.664 24.184 353.768 25.784C352.904 27.384 352.392 28.328 352.232 28.616C351.72 29.48 351.24 30.232 350.792 30.872C350.376 31.48 349.864 32.104 349.256 32.744C348.648 33.352 348.024 33.848 347.384 34.232C346.776 34.616 346.056 34.92 345.224 35.144C344.392 35.4 343.48 35.528 342.488 35.528C340.76 35.528 339.208 35.192 337.832 34.52C336.456 33.816 335.352 32.888 334.52 31.736C333.688 30.552 333.064 29.24 332.648 27.8C332.232 26.328 332.024 24.76 332.024 23.096C332.024 19.736 332.984 16.824 334.904 14.36C336.856 11.896 339.336 10.664 342.344 10.664C344.936 10.664 347.048 11.672 348.68 13.688C350.344 15.672 351.304 18.2 351.56 21.272C351.432 21.304 351.256 21.352 351.032 21.416C350.808 21.448 350.344 21.576 349.64 21.8C348.968 21.992 348.28 22.2 347.576 22.424C346.904 22.648 346.088 22.968 345.128 23.384C344.168 23.768 343.256 24.184 342.392 24.632C341.56 25.048 340.696 25.56 339.8 26.168C338.904 26.744 338.104 27.352 337.4 27.992C337.848 29.88 338.536 31.384 339.464 32.504C340.392 33.592 341.496 34.136 342.776 34.136C344.504 34.136 345.96 33.64 347.144 32.648C348.328 31.624 349.592 30.024 350.936 27.848C351.736 26.504 353.128 23.88 355.112 19.976V17.48C355.112 17.48 355.112 17.448 355.112 17.384C355.112 17.32 355.096 17.224 355.064 17.096C355.064 16.936 355.048 16.792 355.016 16.664C354.984 16.536 354.92 16.392 354.824 16.232C354.76 16.072 354.68 15.944 354.584 15.848C354.488 15.72 354.36 15.624 354.2 15.56C354.072 15.464 353.912 15.416 353.72 15.416V14.024L357.224 11.672L357.896 11.192H359.288V13.448C360.696 11.592 362.856 10.664 365.768 10.664C366.92 10.664 368.04 10.84 369.128 11.192C370.248 11.544 371.224 12.12 372.056 12.92C372.888 13.72 373.304 14.664 373.304 15.752V31.496ZM336.92 23.816C336.952 24.648 337.016 25.48 337.112 26.312C340.024 24.04 343.24 22.328 346.76 21.176C346.696 18.52 346.296 16.344 345.56 14.648C344.824 12.92 343.752 12.056 342.344 12.056C340.712 12.056 339.416 13.032 338.456 14.984C337.496 16.904 336.984 19.368 336.92 22.376V23.816ZM383.342 12.584V31.496C383.342 31.56 383.342 31.64 383.342 31.736C383.342 31.832 383.358 32.008 383.39 32.264C383.454 32.488 383.534 32.696 383.63 32.888C383.726 33.048 383.87 33.208 384.062 33.368C384.254 33.528 384.478 33.608 384.734 33.608V35H383.342C382.606 35 381.966 34.92 381.422 34.76C380.878 34.6 380.462 34.424 380.174 34.232C379.886 34.04 379.662 33.816 379.502 33.56C379.342 33.272 379.23 33.048 379.166 32.888C379.134 32.696 379.118 32.52 379.118 32.36V14.696C379.118 14.632 379.118 14.552 379.118 14.456C379.118 14.36 379.086 14.2 379.022 13.976C378.99 13.72 378.926 13.512 378.83 13.352C378.734 13.16 378.59 12.984 378.398 12.824C378.206 12.664 377.982 12.584 377.726 12.584V11.192L381.902 6.296H383.342V11.192H384.734V12.584H383.342ZM392.405 15.416C392.405 16.184 392.885 17 393.845 17.864C394.805 18.696 395.973 19.528 397.349 20.36C398.725 21.192 400.101 22.056 401.477 22.952C402.853 23.848 404.021 24.888 404.981 26.072C405.941 27.224 406.421 28.392 406.421 29.576C406.421 30.632 406.133 31.56 405.557 32.36C405.013 33.128 404.261 33.736 403.301 34.184C402.373 34.632 401.381 34.968 400.325 35.192C399.301 35.416 398.245 35.528 397.157 35.528C395.205 35.56 393.397 35.096 391.733 34.136C391.701 34.104 391.669 34.088 391.637 34.088C391.637 34.056 391.621 34.04 391.589 34.04C391.429 33.944 391.269 33.88 391.109 33.848C390.949 33.816 390.773 33.88 390.581 34.04C390.421 34.2 390.341 34.52 390.341 35H388.949V27.992C389.461 29.72 390.501 31.176 392.069 32.36C393.669 33.544 395.301 34.136 396.965 34.136C398.469 34.136 399.733 33.864 400.757 33.32C401.781 32.776 402.293 31.944 402.293 30.824C402.293 30.024 401.797 29.16 400.805 28.232C399.845 27.304 398.677 26.408 397.301 25.544C395.925 24.68 394.549 23.784 393.173 22.856C391.797 21.928 390.629 20.904 389.669 19.784C388.709 18.664 388.229 17.56 388.229 16.472C388.229 15.384 388.469 14.456 388.949 13.688C389.429 12.888 390.085 12.28 390.917 11.864C391.749 11.448 392.629 11.144 393.557 10.952C394.517 10.76 395.541 10.664 396.629 10.664C398.421 10.664 400.069 11.128 401.573 12.056L401.669 12.152C402.533 12.632 402.965 12.312 402.965 11.192H404.357V18.2C403.845 16.44 402.869 14.984 401.429 13.832C399.989 12.648 398.453 12.056 396.821 12.056C395.573 12.056 394.517 12.312 393.653 12.824C392.821 13.336 392.405 14.2 392.405 15.416ZM453.859 1.4H458.419V2.792C457.939 2.792 457.491 2.968 457.075 3.32C456.691 3.672 456.419 4.008 456.259 4.328C456.131 4.616 456.019 4.92 455.923 5.24L447.235 35H445.843L440.227 15.8L434.611 35H433.219L424.579 5.24C424.451 4.92 424.307 4.616 424.147 4.328C424.019 4.008 423.747 3.672 423.331 3.32C422.947 2.968 422.515 2.792 422.035 2.792V1.4H429.379V2.792C428.675 2.792 428.435 3.48 428.659 4.856L435.331 27.8L439.555 13.4L437.155 5.24C437.059 4.92 436.931 4.616 436.771 4.328C436.611 4.008 436.339 3.672 435.955 3.32C435.571 2.968 435.123 2.792 434.611 2.792V1.4H442.003V2.792C441.267 2.792 441.011 3.48 441.235 4.856L447.955 27.8L454.627 4.856C454.851 3.48 454.595 2.792 453.859 2.792V1.4ZM467.269 10.664C470.277 10.664 472.773 11.912 474.757 14.408C476.741 16.872 477.733 19.768 477.733 23.096C477.733 26.424 476.741 29.336 474.757 31.832C472.773 34.296 470.277 35.528 467.269 35.528C464.261 35.528 461.749 34.296 459.733 31.832C457.749 29.336 456.757 26.424 456.757 23.096C456.757 19.768 457.749 16.872 459.733 14.408C461.749 11.912 464.261 10.664 467.269 10.664ZM463.141 31.016C464.165 33.096 465.541 34.136 467.269 34.136C468.997 34.136 470.357 33.096 471.349 31.016C472.341 28.904 472.837 26.264 472.837 23.096C472.837 19.928 472.341 17.304 471.349 15.224C470.357 13.112 468.997 12.056 467.269 12.056C466.405 12.056 465.605 12.344 464.869 12.92C464.165 13.496 463.573 14.296 463.093 15.32C462.645 16.312 462.293 17.48 462.037 18.824C461.781 20.136 461.653 21.56 461.653 23.096C461.653 26.264 462.149 28.904 463.141 31.016ZM493.278 10.664C494.398 10.664 495.502 10.84 496.59 11.192C497.71 11.544 498.686 12.12 499.518 12.92C500.35 13.72 500.766 14.664 500.766 15.752C500.766 16.456 500.43 16.968 499.758 17.288C499.086 17.576 498.398 17.624 497.694 17.432C497.022 17.208 496.654 16.824 496.59 16.28C496.462 15.16 495.998 14.248 495.198 13.544C494.43 12.808 493.374 12.44 492.03 12.44C491.07 12.44 490.206 12.6 489.438 12.92C488.702 13.208 488.158 13.576 487.806 14.024C487.454 14.472 487.198 14.872 487.038 15.224C486.878 15.576 486.798 15.864 486.798 16.088V31.496C486.798 31.56 486.798 31.64 486.798 31.736C486.798 31.832 486.814 32.008 486.846 32.264C486.91 32.488 486.99 32.696 487.086 32.888C487.182 33.048 487.326 33.208 487.518 33.368C487.71 33.528 487.934 33.608 488.19 33.608V35H481.182V33.608C481.598 33.608 481.918 33.432 482.142 33.08C482.398 32.728 482.526 32.376 482.526 32.024L482.574 31.496V17.48C482.574 17.448 482.574 17.384 482.574 17.288C482.574 17.192 482.542 17.032 482.478 16.808C482.446 16.552 482.382 16.328 482.286 16.136C482.19 15.944 482.046 15.784 481.854 15.656C481.662 15.496 481.438 15.416 481.182 15.416V14.024L485.358 11.192H486.798V13.256C488.078 11.528 490.238 10.664 493.278 10.664ZM508.452 31.496C508.452 31.56 508.452 31.64 508.452 31.736C508.452 31.832 508.468 32.008 508.5 32.264C508.564 32.488 508.644 32.696 508.74 32.888C508.836 33.048 508.98 33.208 509.172 33.368C509.364 33.528 509.588 33.608 509.844 33.608V35H502.836V33.608C503.252 33.608 503.572 33.432 503.796 33.08C504.052 32.728 504.18 32.376 504.18 32.024L504.228 31.496V7.688C504.228 7.656 504.228 7.592 504.228 7.496C504.228 7.4 504.196 7.24 504.132 7.016C504.1 6.76 504.036 6.536 503.94 6.344C503.844 6.152 503.7 5.992 503.508 5.864C503.316 5.704 503.092 5.624 502.836 5.624V4.184L507.012 1.4H508.452V31.496ZM533.077 31.496C533.077 31.528 533.077 31.576 533.077 31.64C533.077 31.672 533.077 31.768 533.077 31.928C533.109 32.056 533.141 32.2 533.173 32.36C533.205 32.488 533.253 32.632 533.317 32.792C533.413 32.952 533.493 33.096 533.557 33.224C533.653 33.32 533.781 33.416 533.941 33.512C534.101 33.576 534.277 33.608 534.469 33.608V35H533.077C532.341 35 531.701 34.92 531.157 34.76C530.613 34.6 530.197 34.424 529.909 34.232C529.653 34.04 529.429 33.816 529.237 33.56C529.077 33.272 528.965 33.048 528.901 32.888C528.869 32.696 528.853 32.52 528.853 32.36V31.784C527.573 34.28 525.717 35.528 523.285 35.528C520.245 35.528 517.733 34.296 515.749 31.832C513.765 29.368 512.773 26.472 512.773 23.144C512.773 19.784 513.765 16.872 515.749 14.408C517.733 11.912 520.245 10.664 523.285 10.664C525.717 10.664 527.573 11.912 528.853 14.408V7.688C528.853 7.656 528.853 7.624 528.853 7.592C528.853 7.528 528.837 7.432 528.805 7.304C528.805 7.144 528.789 7 528.757 6.872C528.725 6.744 528.677 6.6 528.613 6.44C528.549 6.28 528.469 6.152 528.373 6.056C528.277 5.928 528.149 5.832 527.989 5.768C527.829 5.672 527.653 5.624 527.461 5.624V4.184L531.685 1.4H533.077V31.496ZM523.285 34.136C525.013 34.136 526.373 33.112 527.365 31.064C528.357 28.984 528.853 26.328 528.853 23.096C528.853 19.864 528.357 17.224 527.365 15.176C526.373 13.096 525.013 12.056 523.285 12.056C521.557 12.056 520.181 13.112 519.157 15.224C518.165 17.304 517.669 19.928 517.669 23.096C517.669 26.264 518.165 28.904 519.157 31.016C520.181 33.096 521.557 34.136 523.285 34.136ZM568.811 11.192H570.203V12.584C569.051 12.584 568.139 13.272 567.467 14.648L559.691 35H558.299L553.403 22.184L548.507 35H547.115L539.387 14.888C539.387 14.824 539.355 14.744 539.291 14.648C539.259 14.52 539.147 14.328 538.955 14.072C538.795 13.816 538.619 13.592 538.427 13.4C538.235 13.208 537.963 13.032 537.611 12.872C537.291 12.68 536.955 12.584 536.603 12.584V11.192H543.947V12.584C543.211 12.584 543.115 13.368 543.659 14.936L549.179 29.528L552.683 20.36L550.619 14.888C550.587 14.824 550.539 14.744 550.475 14.648C550.443 14.52 550.331 14.328 550.139 14.072C549.979 13.816 549.803 13.592 549.611 13.4C549.419 13.208 549.163 13.032 548.843 12.872C548.523 12.68 548.171 12.584 547.787 12.584V11.192H555.131V12.584C554.395 12.584 554.299 13.368 554.843 14.936L560.411 29.528L565.931 15.032C565.963 14.904 565.995 14.76 566.027 14.6C566.091 14.44 566.155 14.184 566.219 13.832C566.315 13.48 566.315 13.192 566.219 12.968C566.123 12.712 565.931 12.584 565.643 12.584V11.192H568.811ZM577.97 31.496C577.97 31.56 577.97 31.64 577.97 31.736C578.002 31.832 578.034 32.008 578.066 32.264C578.13 32.488 578.194 32.696 578.258 32.888C578.354 33.048 578.498 33.208 578.69 33.368C578.882 33.528 579.106 33.608 579.362 33.608V35H572.402V33.608C572.818 33.608 573.138 33.432 573.362 33.08C573.586 32.728 573.714 32.376 573.746 32.024L573.794 31.496V17.48C573.794 17.448 573.778 17.384 573.746 17.288C573.746 17.192 573.714 17.032 573.65 16.808C573.618 16.552 573.554 16.328 573.458 16.136C573.394 15.944 573.266 15.784 573.074 15.656C572.882 15.496 572.658 15.416 572.402 15.416V14.024L576.578 11.192H577.97V31.496ZM578.162 6.824C578.162 7.656 577.874 8.36 577.298 8.936C576.722 9.512 576.018 9.8 575.186 9.8C574.354 9.8 573.65 9.512 573.074 8.936C572.498 8.36 572.21 7.656 572.21 6.824C572.21 5.992 572.498 5.288 573.074 4.712C573.65 4.136 574.354 3.848 575.186 3.848C576.018 3.848 576.722 4.136 577.298 4.712C577.874 5.288 578.162 5.992 578.162 6.824ZM602.78 31.496C602.78 31.528 602.78 31.576 602.78 31.64C602.78 31.672 602.78 31.768 602.78 31.928C602.812 32.056 602.844 32.2 602.876 32.36C602.908 32.488 602.956 32.632 603.02 32.792C603.116 32.952 603.196 33.096 603.26 33.224C603.356 33.32 603.484 33.416 603.644 33.512C603.804 33.576 603.98 33.608 604.172 33.608V35H602.78C602.044 35 601.404 34.92 600.86 34.76C600.316 34.6 599.9 34.424 599.612 34.232C599.356 34.04 599.132 33.816 598.94 33.56C598.78 33.272 598.668 33.048 598.604 32.888C598.572 32.696 598.556 32.52 598.556 32.36V31.784C597.276 34.28 595.42 35.528 592.988 35.528C589.948 35.528 587.436 34.296 585.452 31.832C583.468 29.368 582.476 26.472 582.476 23.144C582.476 19.784 583.468 16.872 585.452 14.408C587.436 11.912 589.948 10.664 592.988 10.664C595.42 10.664 597.276 11.912 598.556 14.408V7.688C598.556 7.656 598.556 7.624 598.556 7.592C598.556 7.528 598.54 7.432 598.508 7.304C598.508 7.144 598.492 7 598.46 6.872C598.428 6.744 598.38 6.6 598.316 6.44C598.252 6.28 598.172 6.152 598.076 6.056C597.98 5.928 597.852 5.832 597.692 5.768C597.532 5.672 597.356 5.624 597.164 5.624V4.184L601.388 1.4H602.78V31.496ZM592.988 34.136C594.716 34.136 596.076 33.112 597.068 31.064C598.06 28.984 598.556 26.328 598.556 23.096C598.556 19.864 598.06 17.224 597.068 15.176C596.076 13.096 594.716 12.056 592.988 12.056C591.26 12.056 589.884 13.112 588.86 15.224C587.868 17.304 587.372 19.928 587.372 23.096C587.372 26.264 587.868 28.904 588.86 31.016C589.884 33.096 591.26 34.136 592.988 34.136ZM618.45 34.136C621.074 34.136 623.282 32.728 625.074 29.912L626.37 30.776C624.29 33.944 621.522 35.528 618.066 35.528C615.986 35.528 614.13 34.936 612.498 33.752C610.898 32.568 609.682 31.048 608.85 29.192C608.018 27.304 607.602 25.272 607.602 23.096C607.602 19.736 608.562 16.824 610.482 14.36C612.434 11.896 614.914 10.664 617.922 10.664C620.514 10.664 622.626 11.672 624.258 13.688C625.922 15.672 626.882 18.2 627.138 21.272C626.882 21.336 626.546 21.416 626.13 21.512C625.714 21.608 624.898 21.864 623.682 22.28C622.466 22.664 621.298 23.096 620.178 23.576C619.09 24.024 617.874 24.648 616.53 25.448C615.186 26.216 614.05 27.032 613.122 27.896C613.058 27.96 613.01 27.992 612.978 27.992C613.394 29.88 614.066 31.384 614.994 32.504C615.922 33.592 617.074 34.136 618.45 34.136ZM612.498 22.424C612.498 23.704 612.562 25 612.69 26.312C615.602 24.072 618.818 22.376 622.338 21.224C622.274 18.536 621.874 16.344 621.138 14.648C620.402 12.92 619.33 12.056 617.922 12.056C616.29 12.056 614.994 13.032 614.034 14.984C613.074 16.904 612.562 19.384 612.498 22.424Z" fill="white"/>
</svg>
