<svg width="80" height="80" viewBox="0 0 80 80" fill="none" xmlns="http://www.w3.org/2000/svg">
<g id="iconoir:design-nib" clip-path="url(#clip0_34_157)">
<g id="Group">
<g id="Clip path group">
<mask id="mask0_34_157" style="mask-type:luminance" maskUnits="userSpaceOnUse" x="0" y="0" width="80" height="80">
<g id="iconoirDesignNib0">
<path id="Vector" d="M0 0H80V80H0V0Z" fill="white"/>
</g>
</mask>
<g mask="url(#mask0_34_157)">
<g id="Group_2">
<path id="Vector_2" d="M10.9867 68.6733L32.2 47.4599M58.9133 38.0266L52.5633 57.0766C52.462 57.382 52.2885 57.6584 52.0575 57.8824C51.8266 58.1064 51.545 58.2713 51.2367 58.3633L12.31 69.9333C11.9593 70.0374 11.5868 70.0434 11.2329 69.9505C10.8791 69.8577 10.5574 69.6695 10.3031 69.4066C10.0487 69.1436 9.87138 68.816 9.79032 68.4592C9.70925 68.1025 9.72759 67.7303 9.84334 67.3833L22.4833 29.4699C22.5739 29.1977 22.722 28.9482 22.9176 28.7383C23.1131 28.5283 23.3516 28.3629 23.6167 28.2533L41.5733 20.8599C41.9384 20.7092 42.3399 20.6699 42.7273 20.747C43.1147 20.8241 43.4705 21.0142 43.75 21.2933L58.43 35.9766C58.6933 36.2395 58.878 36.5707 58.9634 36.9328C59.0488 37.295 59.0314 37.6738 58.9133 38.0266Z" stroke="#03E8E8" stroke-width="1.5" stroke-linecap="round" stroke-linejoin="round"/>
<path id="Vector_3" d="M59.3066 36.8533L68.7333 27.4233C69.9831 26.1731 70.6852 24.4777 70.6852 22.71C70.6852 20.9422 69.9831 19.2468 68.7333 17.9966L61.6666 10.9233C61.0476 10.304 60.3125 9.81266 59.5035 9.47745C58.6945 9.14225 57.8274 8.96973 56.9517 8.96973C56.0759 8.96973 55.2088 9.14225 54.3998 9.47745C53.5908 9.81266 52.8557 10.304 52.2366 10.9233L42.81 20.3533M39.27 40.3866C38.8055 39.9224 38.2542 39.5542 37.6475 39.3031C37.0407 39.0519 36.3905 38.9227 35.7338 38.9229C35.0771 38.923 34.4269 39.0525 33.8203 39.304C33.2137 39.5554 32.6625 39.9239 32.1983 40.3883C31.7341 40.8527 31.3659 41.4041 31.1147 42.0108C30.8636 42.6175 30.7344 43.2678 30.7346 43.9245C30.7347 44.5812 30.8642 45.2313 31.1156 45.838C31.3671 46.4446 31.7355 46.9958 32.2 47.46C33.138 48.3975 34.41 48.924 35.7362 48.9237C37.0624 48.9234 38.3341 48.3963 39.2716 47.4583C40.2092 46.5203 40.7357 45.2483 40.7354 43.9221C40.7351 42.5959 40.208 41.3242 39.27 40.3866Z" stroke="#03E8E8" stroke-width="1.5" stroke-linecap="round" stroke-linejoin="round"/>
</g>
</g>
</g>
</g>
</g>
<defs>
<clipPath id="clip0_34_157">
<rect width="80" height="80" fill="white"/>
</clipPath>
</defs>
</svg>
