<svg width="33" height="32" viewBox="0 0 33 32" fill="none" xmlns="http://www.w3.org/2000/svg">
<g id="ri:linkedin-fill">
<path id="Vector" d="M10.1903 6.66654C10.1899 7.37378 9.90862 8.05192 9.40828 8.55176C8.90793 9.05161 8.22951 9.33222 7.52227 9.33187C6.81502 9.33152 6.13689 9.05022 5.63704 8.54988C5.13719 8.04953 4.85658 7.37111 4.85693 6.66387C4.85729 5.95662 5.13858 5.27849 5.63893 4.77864C6.13927 4.27879 6.81769 3.99818 7.52493 3.99854C8.23218 3.99889 8.91031 4.28018 9.41016 4.78053C9.91001 5.28087 10.1906 5.95929 10.1903 6.66654ZM10.2703 11.3065H4.93693V27.9999H10.2703V11.3065ZM18.6969 11.3065H13.3903V27.9999H18.6436V19.2399C18.6436 14.3599 25.0036 13.9065 25.0036 19.2399V27.9999H30.2703V17.4265C30.2703 9.19987 20.8569 9.50654 18.6436 13.5465L18.6969 11.3065Z" fill="#BAFEFE"/>
</g>
</svg>
