<svg width="26" height="25" viewBox="0 0 26 25" fill="none" xmlns="http://www.w3.org/2000/svg">
<path d="M5.92 3.66666C5.91965 4.3739 5.63836 5.05204 5.13801 5.55189C4.63766 6.05173 3.95925 6.33235 3.252 6.33199C2.54476 6.33164 1.86662 6.05035 1.36678 5.55C0.866929 5.04965 0.586317 4.37124 0.58667 3.66399C0.587024 2.95675 0.868314 2.27861 1.36866 1.77876C1.86901 1.27892 2.54743 0.998304 3.25467 0.998658C3.96191 0.999011 4.64005 1.2803 5.1399 1.78065C5.63974 2.281 5.92036 2.95941 5.92 3.66666ZM6 8.30666H0.66667V25H6V8.30666ZM14.4267 8.30666H9.12V25H14.3733V16.24C14.3733 11.36 20.7333 10.9067 20.7333 16.24V25H26V14.4267C26 6.19999 16.5867 6.50666 14.3733 10.5467L14.4267 8.30666Z" fill="#BFBFBF"/>
</svg>
