<svg width="135" height="42" viewBox="0 0 135 42" fill="none" xmlns="http://www.w3.org/2000/svg">
<g clip-path="url(#clip0_407_1895)">
<mask id="mask0_407_1895" style="mask-type:luminance" maskUnits="userSpaceOnUse" x="0" y="1" width="40" height="40">
<path d="M0 1H40V41H0V1Z" fill="white"/>
</mask>
<g mask="url(#mask0_407_1895)">
<path d="M5.49334 35.3366L16.1 24.73M29.4567 20.0133L26.2817 29.5383C26.231 29.691 26.1442 29.8292 26.0288 29.9412C25.9133 30.0532 25.7725 30.1357 25.6183 30.1816L6.155 35.9666C5.97965 36.0187 5.79338 36.0217 5.61645 35.9753C5.43953 35.9288 5.27872 35.8348 5.15155 35.7033C5.02437 35.5718 4.93569 35.408 4.89516 35.2296C4.85463 35.0512 4.8638 34.8652 4.92167 34.6916L11.2417 15.735C11.287 15.5989 11.361 15.4741 11.4588 15.3691C11.5566 15.2642 11.6758 15.1815 11.8083 15.1266L20.7867 11.43C20.9692 11.3546 21.17 11.3349 21.3636 11.3735C21.5573 11.4121 21.7353 11.5071 21.875 11.6466L29.215 18.9883C29.3466 19.1198 29.439 19.2853 29.4817 19.4664C29.5244 19.6475 29.5157 19.8369 29.4567 20.0133Z" stroke="#03E8E8" stroke-width="1.5" stroke-linecap="round" stroke-linejoin="round"/>
<path d="M29.6534 19.4267L34.3667 14.7117C34.9916 14.0866 35.3426 13.2389 35.3426 12.355C35.3426 11.4711 34.9916 10.6234 34.3667 9.99832L30.8334 6.46165C30.5238 6.15198 30.1563 5.90633 29.7518 5.73873C29.3473 5.57113 28.9137 5.48486 28.4759 5.48486C28.038 5.48486 27.6044 5.57113 27.1999 5.73873C26.7954 5.90633 26.4279 6.15198 26.1184 6.46165L21.405 11.1767M19.635 21.1933C19.4028 20.9612 19.1271 20.7771 18.8238 20.6515C18.5204 20.526 18.1953 20.4614 17.8669 20.4614C17.5386 20.4615 17.2135 20.5263 16.9102 20.652C16.6069 20.7777 16.3313 20.9619 16.0992 21.1942C15.8671 21.4264 15.683 21.702 15.5574 22.0054C15.4318 22.3088 15.3672 22.6339 15.3673 22.9622C15.3674 23.2906 15.4321 23.6157 15.5579 23.919C15.6836 24.2223 15.8678 24.4979 16.1 24.73C16.569 25.1988 17.205 25.462 17.8681 25.4619C18.5312 25.4617 19.1671 25.1981 19.6359 24.7292C20.1046 24.2602 20.3679 23.6242 20.3677 22.9611C20.3676 22.298 20.104 21.6621 19.635 21.1933Z" stroke="#03E8E8" stroke-width="1.5" stroke-linecap="round" stroke-linejoin="round"/>
</g>
</g>
<path d="M52.992 17.16C52.384 17.16 51.8027 17.0853 51.248 16.936C50.704 16.776 50.2187 16.5413 49.792 16.232C49.3653 15.9227 49.024 15.5387 48.768 15.08C48.5227 14.6213 48.3893 14.088 48.368 13.48C48.368 13.384 48.4 13.304 48.464 13.24C48.528 13.1653 48.6133 13.128 48.72 13.128H50.88C51.0293 13.128 51.1413 13.1653 51.216 13.24C51.3013 13.3147 51.3707 13.4267 51.424 13.576C51.4773 13.8747 51.5787 14.12 51.728 14.312C51.8773 14.4933 52.064 14.632 52.288 14.728C52.5227 14.8133 52.784 14.856 53.072 14.856C53.6053 14.856 54.016 14.6853 54.304 14.344C54.592 13.992 54.736 13.48 54.736 12.808V8.184H49.552C49.4453 8.184 49.3493 8.14667 49.264 8.072C49.1893 7.99733 49.152 7.90133 49.152 7.784V6.2C49.152 6.08267 49.1893 5.98667 49.264 5.912C49.3493 5.83733 49.4453 5.8 49.552 5.8H57.296C57.4133 5.8 57.5093 5.83733 57.584 5.912C57.6693 5.98667 57.712 6.08267 57.712 6.2V12.888C57.712 13.816 57.5093 14.6 57.104 15.24C56.6987 15.8693 56.144 16.3493 55.44 16.68C54.736 17 53.92 17.16 52.992 17.16ZM63.5988 17.16C62.7028 17.16 61.9454 17.016 61.3268 16.728C60.7188 16.44 60.2494 16.0293 59.9188 15.496C59.5988 14.952 59.4174 14.3067 59.3748 13.56C59.3641 13.3467 59.3588 13.1067 59.3588 12.84C59.3588 12.5627 59.3641 12.3227 59.3748 12.12C59.4174 11.3627 59.6094 10.7173 59.9508 10.184C60.2921 9.65067 60.7668 9.24 61.3748 8.952C61.9934 8.664 62.7348 8.52 63.5988 8.52C64.4734 8.52 65.2148 8.664 65.8228 8.952C66.4414 9.24 66.9214 9.65067 67.2628 10.184C67.6041 10.7173 67.7961 11.3627 67.8388 12.12C67.8494 12.3227 67.8548 12.5627 67.8548 12.84C67.8548 13.1067 67.8494 13.3467 67.8388 13.56C67.7961 14.3067 67.6094 14.952 67.2788 15.496C66.9588 16.0293 66.4894 16.44 65.8708 16.728C65.2628 17.016 64.5054 17.16 63.5988 17.16ZM63.5988 15.208C64.0788 15.208 64.4254 15.064 64.6388 14.776C64.8628 14.488 64.9908 14.056 65.0228 13.48C65.0334 13.32 65.0388 13.1067 65.0388 12.84C65.0388 12.5733 65.0334 12.36 65.0228 12.2C64.9908 11.6347 64.8628 11.208 64.6388 10.92C64.4254 10.6213 64.0788 10.472 63.5988 10.472C63.1294 10.472 62.7828 10.6213 62.5588 10.92C62.3348 11.208 62.2121 11.6347 62.1908 12.2C62.1801 12.36 62.1748 12.5733 62.1748 12.84C62.1748 13.1067 62.1801 13.32 62.1908 13.48C62.2121 14.056 62.3348 14.488 62.5588 14.776C62.7828 15.064 63.1294 15.208 63.5988 15.208ZM72.8524 17.16C72.159 17.16 71.567 17.0853 71.0764 16.936C70.5964 16.776 70.2017 16.584 69.8924 16.36C69.5937 16.136 69.3697 15.9067 69.2204 15.672C69.071 15.4267 68.991 15.2187 68.9804 15.048C68.9697 14.9307 69.007 14.8347 69.0924 14.76C69.1777 14.6747 69.2684 14.632 69.3644 14.632H71.1884C71.2204 14.632 71.247 14.6373 71.2684 14.648C71.2897 14.6587 71.3217 14.68 71.3644 14.712C71.503 14.7867 71.6417 14.8827 71.7804 15C71.919 15.1067 72.079 15.2027 72.2604 15.288C72.4417 15.3733 72.6604 15.416 72.9164 15.416C73.215 15.416 73.4657 15.3573 73.6684 15.24C73.871 15.1227 73.9724 14.9467 73.9724 14.712C73.9724 14.5413 73.9244 14.4027 73.8284 14.296C73.7324 14.1787 73.535 14.0667 73.2364 13.96C72.9484 13.8533 72.511 13.7467 71.9244 13.64C71.3697 13.512 70.8844 13.3467 70.4684 13.144C70.0524 12.9307 69.7324 12.6587 69.5084 12.328C69.2844 11.9867 69.1724 11.576 69.1724 11.096C69.1724 10.6693 69.311 10.2587 69.5884 9.864C69.8657 9.46933 70.271 9.14933 70.8044 8.904C71.3377 8.648 71.9937 8.52 72.7724 8.52C73.391 8.52 73.9244 8.59467 74.3724 8.744C74.831 8.88267 75.215 9.064 75.5244 9.288C75.8444 9.512 76.0844 9.74133 76.2444 9.976C76.4044 10.2107 76.4897 10.424 76.5004 10.616C76.511 10.7227 76.479 10.8187 76.4044 10.904C76.3297 10.9787 76.2444 11.016 76.1484 11.016H74.4844C74.4417 11.016 74.399 11.0107 74.3564 11C74.3137 10.9787 74.2764 10.9573 74.2444 10.936C74.1164 10.872 73.9884 10.7867 73.8604 10.68C73.7324 10.5733 73.583 10.4773 73.4124 10.392C73.2417 10.3067 73.0284 10.264 72.7724 10.264C72.4844 10.264 72.2604 10.328 72.1004 10.456C71.9404 10.584 71.8604 10.7493 71.8604 10.952C71.8604 11.0907 71.903 11.2187 71.9884 11.336C72.0844 11.4533 72.271 11.56 72.5484 11.656C72.8364 11.752 73.279 11.8587 73.8764 11.976C74.6124 12.0933 75.199 12.2853 75.6364 12.552C76.0737 12.808 76.383 13.112 76.5644 13.464C76.7457 13.8053 76.8364 14.168 76.8364 14.552C76.8364 15.064 76.6817 15.5173 76.3724 15.912C76.0737 16.3067 75.6257 16.616 75.0284 16.84C74.431 17.0533 73.7057 17.16 72.8524 17.16ZM82.1121 17.16C80.8535 17.16 79.8508 16.8187 79.1041 16.136C78.3575 15.4533 77.9681 14.44 77.9361 13.096C77.9361 13.0213 77.9361 12.9253 77.9361 12.808C77.9361 12.6907 77.9361 12.6 77.9361 12.536C77.9681 11.6933 78.1548 10.9733 78.4961 10.376C78.8481 9.768 79.3281 9.30933 79.9361 9C80.5548 8.68 81.2748 8.52 82.0961 8.52C83.0348 8.52 83.8081 8.70667 84.4161 9.08C85.0348 9.45333 85.4988 9.96 85.8081 10.6C86.1175 11.24 86.2721 11.9707 86.2721 12.792V13.176C86.2721 13.2933 86.2295 13.3893 86.1441 13.464C86.0695 13.5387 85.9788 13.576 85.8721 13.576H80.7521C80.7521 13.5867 80.7521 13.6027 80.7521 13.624C80.7521 13.6453 80.7521 13.6667 80.7521 13.688C80.7628 13.9973 80.8161 14.28 80.9121 14.536C81.0081 14.792 81.1575 14.9947 81.3601 15.144C81.5628 15.2933 81.8081 15.368 82.0961 15.368C82.3095 15.368 82.4855 15.336 82.6241 15.272C82.7735 15.1973 82.8961 15.1173 82.9921 15.032C83.0881 14.936 83.1628 14.856 83.2161 14.792C83.3121 14.6853 83.3868 14.6213 83.4401 14.6C83.5041 14.568 83.6001 14.552 83.7281 14.552H85.7121C85.8188 14.552 85.9041 14.584 85.9681 14.648C86.0428 14.7013 86.0748 14.7813 86.0641 14.888C86.0535 15.0693 85.9628 15.288 85.7921 15.544C85.6215 15.8 85.3708 16.056 85.0401 16.312C84.7201 16.5573 84.3148 16.76 83.8241 16.92C83.3335 17.08 82.7628 17.16 82.1121 17.16ZM80.7521 11.992H83.4561V11.96C83.4561 11.6187 83.4028 11.32 83.2961 11.064C83.2001 10.808 83.0455 10.6107 82.8321 10.472C82.6295 10.3333 82.3841 10.264 82.0961 10.264C81.8081 10.264 81.5628 10.3333 81.3601 10.472C81.1681 10.6107 81.0188 10.808 80.9121 11.064C80.8055 11.32 80.7521 11.6187 80.7521 11.96V11.992ZM88.1721 20.04C88.0548 20.04 87.9588 20.0027 87.8841 19.928C87.8095 19.8533 87.7721 19.7573 87.7721 19.64V9.08C87.7721 8.96267 87.8095 8.86667 87.8841 8.792C87.9588 8.71733 88.0548 8.68 88.1721 8.68H89.9801C90.0868 8.68 90.1775 8.71733 90.2521 8.792C90.3375 8.86667 90.3801 8.96267 90.3801 9.08V9.672C90.6255 9.34133 90.9508 9.06933 91.3561 8.856C91.7615 8.632 92.2628 8.52 92.8601 8.52C93.3935 8.52 93.8628 8.60533 94.2681 8.776C94.6735 8.936 95.0201 9.176 95.3081 9.496C95.5961 9.816 95.8201 10.2053 95.9801 10.664C96.1508 11.1227 96.2468 11.6507 96.2681 12.248C96.2788 12.4613 96.2841 12.6587 96.2841 12.84C96.2841 13.0213 96.2788 13.2187 96.2681 13.432C96.2468 14.008 96.1561 14.5253 95.9961 14.984C95.8361 15.4427 95.6121 15.832 95.3241 16.152C95.0361 16.472 94.6841 16.7227 94.2681 16.904C93.8628 17.0747 93.3935 17.16 92.8601 17.16C92.3375 17.16 91.8788 17.0693 91.4841 16.888C91.1001 16.696 90.7801 16.4293 90.5241 16.088V19.64C90.5241 19.7573 90.4868 19.8533 90.4121 19.928C90.3375 20.0027 90.2415 20.04 90.1241 20.04H88.1721ZM91.9961 15.016C92.3588 15.016 92.6415 14.9413 92.8441 14.792C93.0468 14.6427 93.1908 14.44 93.2761 14.184C93.3721 13.928 93.4308 13.6453 93.4521 13.336C93.4735 13.0053 93.4735 12.6747 93.4521 12.344C93.4308 12.0347 93.3721 11.752 93.2761 11.496C93.1908 11.24 93.0468 11.0373 92.8441 10.888C92.6415 10.7387 92.3588 10.664 91.9961 10.664C91.6441 10.664 91.3615 10.744 91.1481 10.904C90.9348 11.0533 90.7801 11.2507 90.6841 11.496C90.5881 11.7413 90.5348 12.008 90.5241 12.296C90.5135 12.4987 90.5081 12.696 90.5081 12.888C90.5081 13.08 90.5135 13.2827 90.5241 13.496C90.5348 13.7627 90.5935 14.0133 90.7001 14.248C90.8068 14.472 90.9668 14.6587 91.1801 14.808C91.3935 14.9467 91.6655 15.016 91.9961 15.016ZM98.2659 17C98.1485 17 98.0525 16.9627 97.9779 16.888C97.9032 16.8133 97.8659 16.7173 97.8659 16.6V6.04C97.8659 5.92267 97.9032 5.82667 97.9779 5.752C98.0525 5.67733 98.1485 5.64 98.2659 5.64H100.314C100.431 5.64 100.527 5.67733 100.602 5.752C100.677 5.82667 100.714 5.92267 100.714 6.04V9.608C101.002 9.27733 101.354 9.016 101.77 8.824C102.197 8.62133 102.687 8.52 103.242 8.52C103.861 8.52 104.41 8.65867 104.89 8.936C105.381 9.21333 105.765 9.624 106.042 10.168C106.319 10.7013 106.458 11.3573 106.458 12.136V16.6C106.458 16.7173 106.421 16.8133 106.346 16.888C106.271 16.9627 106.175 17 106.058 17H103.994C103.887 17 103.791 16.9627 103.706 16.888C103.631 16.8133 103.594 16.7173 103.594 16.6V12.232C103.594 11.7307 103.471 11.3467 103.226 11.08C102.991 10.8027 102.639 10.664 102.17 10.664C101.733 10.664 101.381 10.8027 101.114 11.08C100.847 11.3467 100.714 11.7307 100.714 12.232V16.6C100.714 16.7173 100.677 16.8133 100.602 16.888C100.527 16.9627 100.431 17 100.314 17H98.2659ZM112.254 17C112.137 17 112.041 16.9627 111.966 16.888C111.892 16.8133 111.854 16.7173 111.854 16.6V6.2C111.854 6.08267 111.892 5.98667 111.966 5.912C112.041 5.83733 112.137 5.8 112.254 5.8H119.726C119.844 5.8 119.94 5.83733 120.014 5.912C120.089 5.98667 120.126 6.08267 120.126 6.2V7.704C120.126 7.82133 120.089 7.91733 120.014 7.992C119.94 8.06667 119.844 8.104 119.726 8.104H114.622V10.264H119.374C119.492 10.264 119.588 10.3067 119.662 10.392C119.737 10.4667 119.774 10.5627 119.774 10.68V12.072C119.774 12.1787 119.737 12.2747 119.662 12.36C119.588 12.4347 119.492 12.472 119.374 12.472H114.622V14.696H119.854C119.972 14.696 120.068 14.7333 120.142 14.808C120.217 14.8827 120.254 14.9787 120.254 15.096V16.6C120.254 16.7173 120.217 16.8133 120.142 16.888C120.068 16.9627 119.972 17 119.854 17H112.254ZM122.217 17C122.1 17 122.004 16.9627 121.929 16.888C121.854 16.8133 121.817 16.7173 121.817 16.6V14.568C121.817 14.4613 121.854 14.3707 121.929 14.296C122.004 14.2107 122.1 14.168 122.217 14.168H124.233C124.35 14.168 124.446 14.2107 124.521 14.296C124.606 14.3707 124.649 14.4613 124.649 14.568V16.6C124.649 16.7173 124.606 16.8133 124.521 16.888C124.446 16.9627 124.35 17 124.233 17H122.217Z" fill="white"/>
<path d="M52.212 37.12C51.54 37.12 50.96 37 50.472 36.76C49.992 36.52 49.62 36.156 49.356 35.668C49.1 35.172 48.972 34.536 48.972 33.76V28.888C48.972 28.8 48.996 28.732 49.044 28.684C49.092 28.628 49.16 28.6 49.248 28.6H49.86C49.948 28.6 50.016 28.628 50.064 28.684C50.12 28.732 50.148 28.8 50.148 28.888V33.784C50.148 34.568 50.332 35.148 50.7 35.524C51.068 35.9 51.572 36.088 52.212 36.088C52.844 36.088 53.344 35.9 53.712 35.524C54.088 35.148 54.276 34.568 54.276 33.784V28.888C54.276 28.8 54.3 28.732 54.348 28.684C54.404 28.628 54.472 28.6 54.552 28.6H55.176C55.256 28.6 55.32 28.628 55.368 28.684C55.424 28.732 55.452 28.8 55.452 28.888V33.76C55.452 34.536 55.32 35.172 55.056 35.668C54.8 36.156 54.432 36.52 53.952 36.76C53.472 37 52.892 37.12 52.212 37.12ZM57.7341 37C57.6461 37 57.5781 36.976 57.5301 36.928C57.4821 36.872 57.4581 36.804 57.4581 36.724V28.876C57.4581 28.796 57.4821 28.732 57.5301 28.684C57.5781 28.628 57.6461 28.6 57.7341 28.6H58.3701C58.4501 28.6 58.5141 28.628 58.5621 28.684C58.6181 28.732 58.6461 28.796 58.6461 28.876V36.724C58.6461 36.804 58.6181 36.872 58.5621 36.928C58.5141 36.976 58.4501 37 58.3701 37H57.7341ZM60.2473 38.008C60.1833 38.008 60.1273 37.984 60.0793 37.936C60.0313 37.888 60.0073 37.832 60.0073 37.768C60.0073 37.728 60.0193 37.68 60.0433 37.624L64.1473 27.784C64.1713 27.736 64.2033 27.688 64.2433 27.64C64.2913 27.592 64.3633 27.568 64.4593 27.568H64.9273C64.9913 27.568 65.0473 27.592 65.0953 27.64C65.1433 27.688 65.1673 27.744 65.1673 27.808C65.1673 27.84 65.1593 27.888 65.1433 27.952L61.0273 37.792C61.0113 37.832 60.9753 37.876 60.9193 37.924C60.8713 37.98 60.8033 38.008 60.7153 38.008H60.2473ZM69.6847 37.12C69.0127 37.12 68.4327 37 67.9447 36.76C67.4647 36.52 67.0927 36.156 66.8287 35.668C66.5727 35.172 66.4447 34.536 66.4447 33.76V28.888C66.4447 28.8 66.4687 28.732 66.5167 28.684C66.5647 28.628 66.6327 28.6 66.7207 28.6H67.3327C67.4207 28.6 67.4887 28.628 67.5367 28.684C67.5927 28.732 67.6207 28.8 67.6207 28.888V33.784C67.6207 34.568 67.8047 35.148 68.1727 35.524C68.5407 35.9 69.0447 36.088 69.6847 36.088C70.3167 36.088 70.8167 35.9 71.1847 35.524C71.5607 35.148 71.7487 34.568 71.7487 33.784V28.888C71.7487 28.8 71.7727 28.732 71.8207 28.684C71.8767 28.628 71.9447 28.6 72.0247 28.6H72.6487C72.7287 28.6 72.7927 28.628 72.8407 28.684C72.8967 28.732 72.9247 28.8 72.9247 28.888V33.76C72.9247 34.536 72.7927 35.172 72.5287 35.668C72.2727 36.156 71.9047 36.52 71.4247 36.76C70.9447 37 70.3647 37.12 69.6847 37.12ZM74.415 37C74.351 37 74.291 36.976 74.235 36.928C74.187 36.88 74.163 36.824 74.163 36.76C74.163 36.728 74.167 36.7 74.175 36.676C74.191 36.644 74.203 36.62 74.211 36.604L76.959 32.728L74.343 28.996C74.319 28.948 74.307 28.896 74.307 28.84C74.307 28.776 74.331 28.72 74.379 28.672C74.427 28.624 74.483 28.6 74.547 28.6H75.267C75.347 28.6 75.411 28.62 75.459 28.66C75.507 28.692 75.551 28.74 75.591 28.804L77.703 31.804L79.803 28.804C79.835 28.74 79.875 28.692 79.923 28.66C79.979 28.62 80.043 28.6 80.115 28.6H80.799C80.863 28.6 80.919 28.624 80.967 28.672C81.015 28.72 81.039 28.776 81.039 28.84C81.039 28.896 81.023 28.948 80.991 28.996L78.411 32.74L81.147 36.604C81.163 36.62 81.175 36.644 81.183 36.676C81.191 36.7 81.195 36.728 81.195 36.76C81.195 36.824 81.171 36.88 81.123 36.928C81.075 36.976 81.015 37 80.943 37H80.211C80.139 37 80.075 36.98 80.019 36.94C79.971 36.9 79.927 36.856 79.887 36.808L77.655 33.688L75.435 36.808C75.395 36.856 75.351 36.9 75.303 36.94C75.255 36.98 75.191 37 75.111 37H74.415ZM85.7302 37C85.6422 37 85.5742 36.976 85.5262 36.928C85.4782 36.872 85.4542 36.804 85.4542 36.724V28.888C85.4542 28.8 85.4782 28.732 85.5262 28.684C85.5742 28.628 85.6422 28.6 85.7302 28.6H88.4542C89.2782 28.6 89.9422 28.724 90.4462 28.972C90.9502 29.22 91.3182 29.588 91.5502 30.076C91.7822 30.556 91.9022 31.148 91.9102 31.852C91.9182 32.212 91.9222 32.528 91.9222 32.8C91.9222 33.072 91.9182 33.384 91.9102 33.736C91.8942 34.472 91.7702 35.084 91.5382 35.572C91.3142 36.052 90.9542 36.412 90.4582 36.652C89.9702 36.884 89.3222 37 88.5142 37H85.7302ZM86.6302 35.98H88.4542C89.0062 35.98 89.4462 35.904 89.7742 35.752C90.1022 35.6 90.3382 35.356 90.4822 35.02C90.6342 34.684 90.7142 34.24 90.7222 33.688C90.7382 33.448 90.7462 33.24 90.7462 33.064C90.7462 32.88 90.7462 32.7 90.7462 32.524C90.7462 32.34 90.7382 32.132 90.7222 31.9C90.7062 31.124 90.5222 30.552 90.1702 30.184C89.8182 29.808 89.2262 29.62 88.3942 29.62H86.6302V35.98ZM96.0556 37.12C95.2316 37.12 94.5756 36.868 94.0876 36.364C93.5996 35.852 93.3316 35.156 93.2836 34.276C93.2756 34.172 93.2716 34.04 93.2716 33.88C93.2716 33.712 93.2756 33.576 93.2836 33.472C93.3156 32.904 93.4476 32.408 93.6796 31.984C93.9116 31.552 94.2276 31.22 94.6276 30.988C95.0356 30.756 95.5116 30.64 96.0556 30.64C96.6636 30.64 97.1716 30.768 97.5796 31.024C97.9956 31.28 98.3116 31.644 98.5276 32.116C98.7436 32.588 98.8516 33.14 98.8516 33.772V33.976C98.8516 34.064 98.8236 34.132 98.7676 34.18C98.7196 34.228 98.6556 34.252 98.5756 34.252H94.4236C94.4236 34.26 94.4236 34.276 94.4236 34.3C94.4236 34.324 94.4236 34.344 94.4236 34.36C94.4396 34.688 94.5116 34.996 94.6396 35.284C94.7676 35.564 94.9516 35.792 95.1916 35.968C95.4316 36.144 95.7196 36.232 96.0556 36.232C96.3436 36.232 96.5836 36.188 96.7756 36.1C96.9676 36.012 97.1236 35.916 97.2436 35.812C97.3636 35.7 97.4436 35.616 97.4836 35.56C97.5556 35.456 97.6116 35.396 97.6516 35.38C97.6916 35.356 97.7556 35.344 97.8436 35.344H98.4196C98.4996 35.344 98.5636 35.368 98.6116 35.416C98.6676 35.456 98.6916 35.516 98.6836 35.596C98.6756 35.716 98.6116 35.864 98.4916 36.04C98.3716 36.208 98.1996 36.376 97.9756 36.544C97.7516 36.712 97.4796 36.852 97.1596 36.964C96.8396 37.068 96.4716 37.12 96.0556 37.12ZM94.4236 33.424H97.7116V33.388C97.7116 33.028 97.6436 32.708 97.5076 32.428C97.3796 32.148 97.1916 31.928 96.9436 31.768C96.6956 31.6 96.3996 31.516 96.0556 31.516C95.7116 31.516 95.4156 31.6 95.1676 31.768C94.9276 31.928 94.7436 32.148 94.6156 32.428C94.4876 32.708 94.4236 33.028 94.4236 33.388V33.424ZM102.446 37.12C101.998 37.12 101.614 37.064 101.294 36.952C100.974 36.84 100.714 36.704 100.514 36.544C100.314 36.384 100.162 36.224 100.058 36.064C99.9624 35.904 99.9104 35.776 99.9024 35.68C99.8944 35.592 99.9224 35.524 99.9864 35.476C100.05 35.428 100.114 35.404 100.178 35.404H100.706C100.754 35.404 100.79 35.412 100.814 35.428C100.846 35.436 100.886 35.468 100.934 35.524C101.038 35.636 101.154 35.748 101.282 35.86C101.41 35.972 101.566 36.064 101.75 36.136C101.942 36.208 102.178 36.244 102.458 36.244C102.866 36.244 103.202 36.168 103.466 36.016C103.73 35.856 103.862 35.624 103.862 35.32C103.862 35.12 103.806 34.96 103.694 34.84C103.59 34.72 103.398 34.612 103.118 34.516C102.846 34.42 102.47 34.32 101.99 34.216C101.51 34.104 101.13 33.968 100.85 33.808C100.57 33.64 100.37 33.444 100.25 33.22C100.13 32.988 100.07 32.728 100.07 32.44C100.07 32.144 100.158 31.86 100.334 31.588C100.51 31.308 100.766 31.08 101.102 30.904C101.446 30.728 101.874 30.64 102.386 30.64C102.802 30.64 103.158 30.692 103.454 30.796C103.75 30.9 103.994 31.032 104.186 31.192C104.378 31.344 104.522 31.496 104.618 31.648C104.714 31.8 104.766 31.928 104.774 32.032C104.782 32.112 104.758 32.18 104.702 32.236C104.646 32.284 104.582 32.308 104.51 32.308H104.006C103.95 32.308 103.902 32.296 103.862 32.272C103.83 32.248 103.798 32.22 103.766 32.188C103.686 32.084 103.59 31.98 103.478 31.876C103.374 31.772 103.234 31.688 103.058 31.624C102.89 31.552 102.666 31.516 102.386 31.516C101.986 31.516 101.686 31.6 101.486 31.768C101.286 31.936 101.186 32.148 101.186 32.404C101.186 32.556 101.23 32.692 101.318 32.812C101.406 32.932 101.574 33.04 101.822 33.136C102.07 33.232 102.438 33.336 102.926 33.448C103.454 33.552 103.87 33.692 104.174 33.868C104.478 34.044 104.694 34.248 104.822 34.48C104.95 34.712 105.014 34.98 105.014 35.284C105.014 35.62 104.914 35.928 104.714 36.208C104.522 36.488 104.234 36.712 103.85 36.88C103.474 37.04 103.006 37.12 102.446 37.12ZM106.68 37C106.6 37 106.532 36.976 106.476 36.928C106.428 36.872 106.404 36.804 106.404 36.724V31.036C106.404 30.956 106.428 30.892 106.476 30.844C106.532 30.788 106.6 30.76 106.68 30.76H107.256C107.336 30.76 107.4 30.788 107.448 30.844C107.496 30.892 107.52 30.956 107.52 31.036V36.724C107.52 36.804 107.496 36.872 107.448 36.928C107.4 36.976 107.336 37 107.256 37H106.68ZM106.584 29.596C106.504 29.596 106.436 29.572 106.38 29.524C106.332 29.468 106.308 29.4 106.308 29.32V28.672C106.308 28.592 106.332 28.528 106.38 28.48C106.436 28.424 106.504 28.396 106.584 28.396H107.34C107.42 28.396 107.484 28.424 107.532 28.48C107.588 28.528 107.616 28.592 107.616 28.672V29.32C107.616 29.4 107.588 29.468 107.532 29.524C107.484 29.572 107.42 29.596 107.34 29.596H106.584ZM111.866 39.64C111.322 39.64 110.874 39.568 110.522 39.424C110.178 39.28 109.906 39.104 109.706 38.896C109.514 38.696 109.374 38.492 109.286 38.284C109.206 38.084 109.162 37.924 109.154 37.804C109.146 37.724 109.17 37.656 109.226 37.6C109.29 37.544 109.358 37.516 109.43 37.516H110.006C110.078 37.516 110.138 37.532 110.186 37.564C110.234 37.596 110.274 37.664 110.306 37.768C110.354 37.888 110.426 38.02 110.522 38.164C110.618 38.316 110.766 38.444 110.966 38.548C111.166 38.66 111.446 38.716 111.806 38.716C112.182 38.716 112.498 38.664 112.754 38.56C113.01 38.464 113.202 38.288 113.33 38.032C113.466 37.784 113.534 37.44 113.534 37V36.184C113.342 36.432 113.09 36.64 112.778 36.808C112.466 36.968 112.074 37.048 111.602 37.048C111.154 37.048 110.77 36.972 110.45 36.82C110.13 36.66 109.866 36.448 109.658 36.184C109.458 35.912 109.306 35.604 109.202 35.26C109.106 34.916 109.05 34.556 109.034 34.18C109.026 33.956 109.026 33.736 109.034 33.52C109.05 33.144 109.106 32.784 109.202 32.44C109.306 32.096 109.458 31.788 109.658 31.516C109.866 31.244 110.13 31.032 110.45 30.88C110.77 30.72 111.154 30.64 111.602 30.64C112.082 30.64 112.478 30.732 112.79 30.916C113.11 31.092 113.37 31.308 113.57 31.564V31.048C113.57 30.968 113.594 30.9 113.642 30.844C113.698 30.788 113.766 30.76 113.846 30.76H114.398C114.478 30.76 114.546 30.788 114.602 30.844C114.658 30.9 114.686 30.968 114.686 31.048V36.868C114.686 37.404 114.594 37.88 114.41 38.296C114.234 38.712 113.938 39.04 113.522 39.28C113.114 39.52 112.562 39.64 111.866 39.64ZM111.842 36.088C112.242 36.088 112.562 35.996 112.802 35.812C113.05 35.628 113.23 35.396 113.342 35.116C113.462 34.836 113.526 34.552 113.534 34.264C113.542 34.152 113.546 34.016 113.546 33.856C113.546 33.688 113.542 33.548 113.534 33.436C113.526 33.148 113.462 32.864 113.342 32.584C113.23 32.304 113.05 32.072 112.802 31.888C112.562 31.704 112.242 31.612 111.842 31.612C111.442 31.612 111.122 31.704 110.882 31.888C110.642 32.064 110.47 32.3 110.366 32.596C110.262 32.884 110.202 33.196 110.186 33.532C110.178 33.74 110.178 33.952 110.186 34.168C110.202 34.504 110.262 34.82 110.366 35.116C110.47 35.404 110.642 35.64 110.882 35.824C111.122 36 111.442 36.088 111.842 36.088ZM116.746 37C116.666 37 116.598 36.976 116.542 36.928C116.494 36.872 116.47 36.804 116.47 36.724V31.036C116.47 30.956 116.494 30.892 116.542 30.844C116.598 30.788 116.666 30.76 116.746 30.76H117.31C117.39 30.76 117.454 30.788 117.502 30.844C117.558 30.892 117.586 30.956 117.586 31.036V31.564C117.794 31.292 118.054 31.072 118.366 30.904C118.686 30.728 119.094 30.64 119.59 30.64C120.11 30.64 120.55 30.756 120.91 30.988C121.278 31.212 121.554 31.528 121.738 31.936C121.922 32.336 122.014 32.804 122.014 33.34V36.724C122.014 36.804 121.99 36.872 121.942 36.928C121.894 36.976 121.83 37 121.75 37H121.15C121.07 37 121.002 36.976 120.946 36.928C120.898 36.872 120.874 36.804 120.874 36.724V33.4C120.874 32.84 120.738 32.404 120.466 32.092C120.194 31.772 119.794 31.612 119.266 31.612C118.77 31.612 118.37 31.772 118.066 32.092C117.77 32.404 117.622 32.84 117.622 33.4V36.724C117.622 36.804 117.594 36.872 117.538 36.928C117.49 36.976 117.426 37 117.346 37H116.746ZM126.231 37.12C125.407 37.12 124.751 36.868 124.263 36.364C123.775 35.852 123.507 35.156 123.459 34.276C123.451 34.172 123.447 34.04 123.447 33.88C123.447 33.712 123.451 33.576 123.459 33.472C123.491 32.904 123.623 32.408 123.855 31.984C124.087 31.552 124.403 31.22 124.803 30.988C125.211 30.756 125.687 30.64 126.231 30.64C126.839 30.64 127.347 30.768 127.755 31.024C128.171 31.28 128.487 31.644 128.703 32.116C128.919 32.588 129.027 33.14 129.027 33.772V33.976C129.027 34.064 128.999 34.132 128.943 34.18C128.895 34.228 128.831 34.252 128.751 34.252H124.599C124.599 34.26 124.599 34.276 124.599 34.3C124.599 34.324 124.599 34.344 124.599 34.36C124.615 34.688 124.687 34.996 124.815 35.284C124.943 35.564 125.127 35.792 125.367 35.968C125.607 36.144 125.895 36.232 126.231 36.232C126.519 36.232 126.759 36.188 126.951 36.1C127.143 36.012 127.299 35.916 127.419 35.812C127.539 35.7 127.619 35.616 127.659 35.56C127.731 35.456 127.787 35.396 127.827 35.38C127.867 35.356 127.931 35.344 128.019 35.344H128.595C128.675 35.344 128.739 35.368 128.787 35.416C128.843 35.456 128.867 35.516 128.859 35.596C128.851 35.716 128.787 35.864 128.667 36.04C128.547 36.208 128.375 36.376 128.151 36.544C127.927 36.712 127.655 36.852 127.335 36.964C127.015 37.068 126.647 37.12 126.231 37.12ZM124.599 33.424H127.887V33.388C127.887 33.028 127.819 32.708 127.683 32.428C127.555 32.148 127.367 31.928 127.119 31.768C126.871 31.6 126.575 31.516 126.231 31.516C125.887 31.516 125.591 31.6 125.343 31.768C125.103 31.928 124.919 32.148 124.791 32.428C124.663 32.708 124.599 33.028 124.599 33.388V33.424ZM130.738 37C130.658 37 130.59 36.976 130.534 36.928C130.486 36.872 130.462 36.804 130.462 36.724V31.048C130.462 30.968 130.486 30.9 130.534 30.844C130.59 30.788 130.658 30.76 130.738 30.76H131.29C131.37 30.76 131.438 30.788 131.494 30.844C131.55 30.9 131.578 30.968 131.578 31.048V31.576C131.738 31.304 131.958 31.1 132.238 30.964C132.518 30.828 132.854 30.76 133.246 30.76H133.726C133.806 30.76 133.87 30.788 133.918 30.844C133.966 30.892 133.99 30.956 133.99 31.036V31.528C133.99 31.608 133.966 31.672 133.918 31.72C133.87 31.768 133.806 31.792 133.726 31.792H133.006C132.574 31.792 132.234 31.92 131.986 32.176C131.738 32.424 131.614 32.764 131.614 33.196V36.724C131.614 36.804 131.586 36.872 131.53 36.928C131.474 36.976 131.406 37 131.326 37H130.738Z" fill="white"/>
<defs>
<clipPath id="clip0_407_1895">
<rect width="40" height="40" fill="white" transform="translate(0 1)"/>
</clipPath>
</defs>
</svg>
