<svg width="36" height="20" viewBox="0 0 36 20" fill="none" xmlns="http://www.w3.org/2000/svg">
<g clip-path="url(#clip0_34_221)">
<path d="M10.8258 0.043457C16.2876 0.043457 20.7147 4.50154 20.7147 10.0003C20.7147 15.4992 16.2872 19.9568 10.8258 19.9568C5.36476 19.9568 0.936951 15.4992 0.936951 10.0003C0.936951 4.50168 5.36435 0.043457 10.8258 0.043457ZM26.6179 0.626655C29.3488 0.626655 31.5625 4.823 31.5625 10.0003H31.5629C31.5629 15.1763 29.3492 19.3739 26.6185 19.3739C23.8878 19.3739 21.6739 15.1763 21.6739 10.0003C21.6739 4.82437 23.8873 0.626655 26.6181 0.626655H26.6179ZM34.261 1.60308C35.2213 1.60308 36.0001 5.36264 36.0001 10.0004C36.0001 14.6367 35.2216 18.3978 34.261 18.3978C33.3005 18.3978 32.5224 14.6378 32.5224 10.0004C32.5224 5.36291 33.3009 1.60308 34.261 1.60308Z" fill="#BAFEFE"/>
</g>
<defs>
<clipPath id="clip0_34_221">
<rect width="35.0631" height="20" fill="white" transform="translate(0.936951)"/>
</clipPath>
</defs>
</svg>
