<svg width="36" height="20" viewBox="0 0 36 20" fill="none" xmlns="http://www.w3.org/2000/svg">
<path d="M10.5556 0.0433044C16.0173 0.0433044 20.4445 4.50139 20.4445 10.0001C20.4445 15.499 16.0169 19.9567 10.5556 19.9567C5.0945 19.9567 0.666687 15.499 0.666687 10.0001C0.666687 4.50152 5.09409 0.0433044 10.5556 0.0433044ZM26.3477 0.626503C29.0785 0.626503 31.2923 4.82284 31.2923 10.0001H31.2927C31.2927 15.1762 29.0789 19.3738 26.3482 19.3738C23.6175 19.3738 21.4036 15.1762 21.4036 10.0001C21.4036 4.82421 23.617 0.626503 26.3478 0.626503H26.3477ZM33.9908 1.60293C34.951 1.60293 35.7298 5.36249 35.7298 10.0003C35.7298 14.6365 34.9513 18.3976 33.9908 18.3976C33.0302 18.3976 32.2521 14.6376 32.2521 10.0003C32.2521 5.36276 33.0306 1.60293 33.9908 1.60293Z" fill="#BFBFBF"/>
</svg>
