<svg width="216" height="24" viewBox="0 0 216 24" fill="none" xmlns="http://www.w3.org/2000/svg">
<path d="M12 0L14.6942 8.2918H23.4127L16.3593 13.4164L19.0534 21.7082L12 16.5836L4.94658 21.7082L7.64074 13.4164L0.587322 8.2918H9.30583L12 0Z" fill="#FFDC5E"/>
<path d="M60 0L62.6942 8.2918H71.4127L64.3593 13.4164L67.0534 21.7082L60 16.5836L52.9466 21.7082L55.6407 13.4164L48.5873 8.2918H57.3058L60 0Z" fill="#FFDC5E"/>
<path d="M108 0L110.694 8.2918H119.413L112.359 13.4164L115.053 21.7082L108 16.5836L100.947 21.7082L103.641 13.4164L96.5873 8.2918H105.306L108 0Z" fill="#FFDC5E"/>
<path d="M156 0L158.694 8.2918H167.413L160.359 13.4164L163.053 21.7082L156 16.5836L148.947 21.7082L151.641 13.4164L144.587 8.2918H153.306L156 0Z" fill="#FFDC5E"/>
<path d="M204 0L206.694 8.2918H215.413L208.359 13.4164L211.053 21.7082L204 16.5836L196.947 21.7082L199.641 13.4164L192.587 8.2918H201.306L204 0Z" fill="#FFDC5E"/>
</svg>
