<svg width="466" height="36" viewBox="0 0 466 36" fill="none" xmlns="http://www.w3.org/2000/svg">
<path d="M19.0118 28.856H20.4038V35H0.0997501C0.0997501 34.136 0.32375 33.224 0.77175 32.264C1.25175 31.304 1.85975 30.392 2.59575 29.528C3.36375 28.632 4.22775 27.688 5.18775 26.696C6.14775 25.704 7.12375 24.744 8.11575 23.816C9.13975 22.888 10.1318 21.896 11.0918 20.84C12.0518 19.752 12.9158 18.696 13.6838 17.672C14.4518 16.616 15.0598 15.48 15.5078 14.264C15.9558 13.048 16.1798 11.848 16.1798 10.664C16.1798 9.64 16.0838 8.68 15.8918 7.784C15.7318 6.888 15.4438 6.008 15.0278 5.144C14.6118 4.248 13.9558 3.544 13.0598 3.032C12.1958 2.52 11.1398 2.264 9.89175 2.264C7.71575 2.264 5.89175 3.016 4.41975 4.52C2.94775 5.992 1.97175 7.752 1.49175 9.8V1.4H2.88375C2.88375 2.648 3.34775 3.016 4.27575 2.504C4.33975 2.472 4.40375 2.424 4.46775 2.36H4.51575C6.14775 1.336 7.93975 0.839999 9.89175 0.871999C11.7798 0.871999 13.4438 1.112 14.8838 1.592C16.3238 2.072 17.4918 2.776 18.3878 3.704C19.2838 4.6 19.9558 5.672 20.4038 6.92C20.8838 8.168 21.1238 9.592 21.1238 11.192C21.1238 12.888 20.6918 14.536 19.8278 16.136C18.9958 17.736 17.8598 19.208 16.4198 20.552C15.0118 21.864 13.5718 23.08 12.0998 24.2C10.6598 25.288 9.10775 26.456 7.44375 27.704C5.81175 28.92 4.57975 29.96 3.74775 30.824H16.2278C16.2918 30.824 16.3878 30.824 16.5158 30.824C16.6438 30.792 16.8678 30.744 17.1878 30.68C17.5078 30.616 17.7798 30.52 18.0038 30.392C18.2598 30.264 18.4838 30.072 18.6758 29.816C18.8998 29.56 19.0118 29.24 19.0118 28.856ZM31.5896 32.024C31.5896 32.856 31.3016 33.56 30.7256 34.136C30.1496 34.712 29.4456 35 28.6136 35C27.7816 35 27.0776 34.712 26.5016 34.136C25.9256 33.56 25.6376 32.856 25.6376 32.024C25.6376 31.192 25.9256 30.488 26.5016 29.912C27.0776 29.336 27.7816 29.048 28.6136 29.048C29.4456 29.048 30.1496 29.336 30.7256 29.912C31.3016 30.488 31.5896 31.192 31.5896 32.024ZM48.9728 15.416C51.3408 16.152 53.1968 17.384 54.5408 19.112C55.8848 20.808 56.5568 22.792 56.5568 25.064C56.5568 28.072 55.4048 30.568 53.1008 32.552C50.7968 34.504 47.7568 35.48 43.9808 35.48C41.8688 35.512 39.8368 35.112 37.8848 34.28C37.8208 34.248 37.7408 34.216 37.6448 34.184C37.4848 34.12 37.3248 34.152 37.1648 34.28C37.0368 34.376 36.9728 34.616 36.9728 35H35.5808V30.104C37.0208 32.792 39.8208 34.136 43.9808 34.136C46.5088 34.136 48.4128 33.32 49.6928 31.688C51.0048 30.024 51.6608 27.816 51.6608 25.064C51.6608 22.44 51.0048 20.312 49.6928 18.68C48.3808 17.048 46.5408 16.184 44.1728 16.088C43.5648 16.088 43.2608 15.864 43.2608 15.416C43.2608 15.224 43.3248 15.064 43.4528 14.936C43.6128 14.776 43.7888 14.696 43.9808 14.696C46.0928 14.696 47.7408 14.152 48.9248 13.064C50.1408 11.976 50.7488 10.488 50.7488 8.6C50.7488 6.616 50.1728 5.064 49.0208 3.944C47.8688 2.824 46.1408 2.264 43.8368 2.264C40.9568 2.264 38.6688 3.144 36.9728 4.904V1.4H38.2688C38.2688 1.624 38.3168 1.768 38.4128 1.832C38.5088 1.896 38.6208 1.928 38.7488 1.928C40.3808 1.16 42.0768 0.807998 43.8368 0.871999C46.1088 0.871999 48.1088 1.224 49.8368 1.928C51.5648 2.6 52.8768 3.528 53.7728 4.712C54.7008 5.864 55.1648 7.16 55.1648 8.6C55.1648 10.136 54.6208 11.512 53.5328 12.728C52.4448 13.944 50.9248 14.84 48.9728 15.416ZM82.1951 12.728C81.4591 12.728 80.7391 12.92 80.0351 13.304C79.3311 13.656 78.8031 14.024 78.4511 14.408L77.9711 14.984L72.8831 21.656L78.5951 31.448C78.7231 31.64 78.8831 31.864 79.0751 32.12C79.2671 32.376 79.6671 32.712 80.2751 33.128C80.8831 33.512 81.5231 33.704 82.1951 33.704V35.096H74.8511V33.704C75.1071 33.64 75.1871 33.432 75.0911 33.08C75.0271 32.728 74.8831 32.328 74.6591 31.88L74.3231 31.256L70.4831 24.776L65.3951 31.448L64.7231 32.312C64.4351 32.696 64.2431 33.016 64.1471 33.272C64.0831 33.496 64.1471 33.64 64.3391 33.704V35.096H59.7791V33.704C60.5151 33.704 61.2351 33.528 61.9391 33.176C62.6431 32.792 63.1551 32.408 63.4751 32.024L64.0031 31.448L69.8591 23.72L64.7231 14.984C64.6271 14.792 64.4831 14.568 64.2911 14.312C64.0991 14.056 63.6991 13.736 63.0911 13.352C62.4831 12.936 61.8431 12.728 61.1711 12.728V11.336H68.5151V12.728C67.9071 12.728 68.0831 13.544 69.0431 15.176L72.2591 20.648L76.5791 14.984C76.6431 14.888 76.7231 14.776 76.8191 14.648C76.9151 14.488 77.0911 14.232 77.3471 13.88C77.6031 13.496 77.7311 13.24 77.7311 13.112C77.7631 12.952 77.7311 12.824 77.6351 12.728V11.336H82.1951V12.728ZM119.451 31.64C119.611 31.896 119.803 32.152 120.027 32.408C120.251 32.632 120.603 32.888 121.083 33.176C121.595 33.464 122.123 33.608 122.667 33.608V35H114.939V33.608C115.803 33.608 115.883 32.936 115.179 31.592L115.131 31.496L109.419 20.984H104.475V31.496C104.475 31.56 104.475 31.64 104.475 31.736C104.475 31.832 104.491 32.008 104.523 32.264C104.587 32.488 104.667 32.696 104.763 32.888C104.859 33.048 105.003 33.208 105.195 33.368C105.387 33.528 105.611 33.608 105.867 33.608V35H98.8586V33.608C99.2746 33.608 99.5946 33.432 99.8186 33.08C100.075 32.728 100.203 32.376 100.203 32.024L100.251 31.496V4.904C100.251 4.84 100.251 4.76 100.251 4.664C100.251 4.568 100.219 4.408 100.155 4.184C100.123 3.928 100.059 3.72 99.9626 3.56C99.8666 3.368 99.7226 3.192 99.5306 3.032C99.3386 2.872 99.1146 2.792 98.8586 2.792V1.4H109.371C113.147 1.4 116.187 2.328 118.491 4.184C120.795 6.04 121.947 8.376 121.947 11.192C121.947 13.464 121.179 15.448 119.643 17.144C118.139 18.84 116.059 19.976 113.403 20.552L119.451 31.64ZM104.475 2.792V19.592H109.371C110.971 19.592 112.347 19.24 113.499 18.536C114.683 17.832 115.563 16.856 116.139 15.608C116.747 14.328 117.051 12.856 117.051 11.192C117.051 9.944 116.875 8.808 116.523 7.784C116.203 6.76 115.707 5.88 115.035 5.144C114.395 4.408 113.595 3.832 112.635 3.416C111.675 3 110.587 2.792 109.371 2.792H104.475ZM135.2 34.136C137.824 34.136 140.032 32.728 141.824 29.912L143.12 30.776C141.04 33.944 138.272 35.528 134.816 35.528C132.736 35.528 130.88 34.936 129.248 33.752C127.648 32.568 126.432 31.048 125.6 29.192C124.768 27.304 124.352 25.272 124.352 23.096C124.352 19.736 125.312 16.824 127.232 14.36C129.184 11.896 131.664 10.664 134.672 10.664C137.264 10.664 139.376 11.672 141.008 13.688C142.672 15.672 143.632 18.2 143.888 21.272C143.632 21.336 143.296 21.416 142.88 21.512C142.464 21.608 141.648 21.864 140.432 22.28C139.216 22.664 138.048 23.096 136.928 23.576C135.84 24.024 134.624 24.648 133.28 25.448C131.936 26.216 130.8 27.032 129.872 27.896C129.808 27.96 129.76 27.992 129.728 27.992C130.144 29.88 130.816 31.384 131.744 32.504C132.672 33.592 133.824 34.136 135.2 34.136ZM129.248 22.424C129.248 23.704 129.312 25 129.44 26.312C132.352 24.072 135.568 22.376 139.088 21.224C139.024 18.536 138.624 16.344 137.888 14.648C137.152 12.92 136.08 12.056 134.672 12.056C133.04 12.056 131.744 13.032 130.784 14.984C129.824 16.904 129.312 19.384 129.248 22.424ZM165.594 11.192H167.034V12.584C165.882 12.584 164.97 13.272 164.298 14.648L156.522 35H155.13L147.402 14.888C147.37 14.792 147.322 14.696 147.258 14.6C147.226 14.504 147.13 14.328 146.97 14.072C146.81 13.816 146.618 13.592 146.394 13.4C146.202 13.176 145.946 12.984 145.626 12.824C145.306 12.664 144.97 12.584 144.618 12.584V11.192H151.962V12.584C151.226 12.584 151.13 13.368 151.674 14.936L157.194 29.528L162.762 15.032C162.794 14.936 162.826 14.808 162.858 14.648C162.922 14.456 162.986 14.184 163.05 13.832C163.114 13.48 163.098 13.192 163.002 12.968C162.906 12.712 162.73 12.584 162.474 12.584V11.192H165.594ZM194.835 31.496C194.835 31.56 194.835 31.64 194.835 31.736C194.867 31.832 194.899 32.008 194.931 32.264C194.995 32.488 195.059 32.696 195.123 32.888C195.219 33.048 195.363 33.208 195.555 33.368C195.747 33.528 195.987 33.608 196.275 33.608V35H189.267V33.608C189.683 33.608 190.003 33.432 190.227 33.08C190.451 32.728 190.579 32.376 190.611 32.024L190.659 31.496V25.352C193.187 20.712 194.579 18.152 194.835 17.672V31.496ZM208.851 31.496C208.851 31.56 208.851 31.64 208.851 31.736C208.883 31.832 208.915 32.008 208.947 32.264C209.011 32.488 209.075 32.696 209.139 32.888C209.235 33.048 209.379 33.208 209.571 33.368C209.763 33.528 209.987 33.608 210.243 33.608V35H203.235V33.608C203.651 33.608 203.971 33.432 204.195 33.08C204.451 32.728 204.595 32.376 204.627 32.024L204.675 31.496V16.28C204.547 15.16 204.083 14.248 203.283 13.544C202.515 12.808 201.459 12.44 200.115 12.44C197.843 12.44 196.083 13.544 194.835 15.752V15.8C194.291 16.792 193.459 18.312 192.339 20.36C191.219 22.376 190.211 24.184 189.315 25.784C188.451 27.384 187.939 28.328 187.779 28.616C187.267 29.48 186.787 30.232 186.339 30.872C185.923 31.48 185.411 32.104 184.803 32.744C184.195 33.352 183.571 33.848 182.931 34.232C182.323 34.616 181.603 34.92 180.771 35.144C179.939 35.4 179.027 35.528 178.035 35.528C176.307 35.528 174.755 35.192 173.379 34.52C172.003 33.816 170.899 32.888 170.067 31.736C169.235 30.552 168.611 29.24 168.195 27.8C167.779 26.328 167.571 24.76 167.571 23.096C167.571 19.736 168.531 16.824 170.451 14.36C172.403 11.896 174.883 10.664 177.891 10.664C180.483 10.664 182.595 11.672 184.227 13.688C185.891 15.672 186.851 18.2 187.107 21.272C186.979 21.304 186.803 21.352 186.579 21.416C186.355 21.448 185.891 21.576 185.187 21.8C184.515 21.992 183.827 22.2 183.123 22.424C182.451 22.648 181.635 22.968 180.675 23.384C179.715 23.768 178.803 24.184 177.939 24.632C177.107 25.048 176.243 25.56 175.347 26.168C174.451 26.744 173.651 27.352 172.947 27.992C173.395 29.88 174.083 31.384 175.011 32.504C175.939 33.592 177.043 34.136 178.323 34.136C180.051 34.136 181.507 33.64 182.691 32.648C183.875 31.624 185.139 30.024 186.483 27.848C187.283 26.504 188.675 23.88 190.659 19.976V17.48C190.659 17.48 190.659 17.448 190.659 17.384C190.659 17.32 190.643 17.224 190.611 17.096C190.611 16.936 190.595 16.792 190.563 16.664C190.531 16.536 190.467 16.392 190.371 16.232C190.307 16.072 190.227 15.944 190.131 15.848C190.035 15.72 189.907 15.624 189.747 15.56C189.619 15.464 189.459 15.416 189.267 15.416V14.024L192.771 11.672L193.443 11.192H194.835V13.448C196.243 11.592 198.403 10.664 201.315 10.664C202.467 10.664 203.587 10.84 204.675 11.192C205.795 11.544 206.771 12.12 207.603 12.92C208.435 13.72 208.851 14.664 208.851 15.752V31.496ZM172.467 23.816C172.499 24.648 172.563 25.48 172.659 26.312C175.571 24.04 178.787 22.328 182.307 21.176C182.243 18.52 181.843 16.344 181.107 14.648C180.371 12.92 179.299 12.056 177.891 12.056C176.259 12.056 174.963 13.032 174.003 14.984C173.043 16.904 172.531 19.368 172.467 22.376V23.816ZM233.138 31.496C233.138 31.56 233.138 31.64 233.138 31.736C233.17 31.832 233.202 32.008 233.234 32.264C233.298 32.488 233.362 32.696 233.426 32.888C233.522 33.048 233.666 33.208 233.858 33.368C234.05 33.528 234.29 33.608 234.578 33.608V35H233.138C230.77 35 229.394 34.28 229.01 32.84C227.73 34.632 225.554 35.528 222.482 35.528C221.362 35.528 220.242 35.352 219.122 35C218.002 34.68 217.026 34.12 216.194 33.32C215.362 32.488 214.946 31.528 214.946 30.44V17.48C214.946 17.448 214.946 17.384 214.946 17.288C214.946 17.192 214.914 17.032 214.85 16.808C214.818 16.552 214.754 16.328 214.658 16.136C214.562 15.944 214.418 15.784 214.226 15.656C214.034 15.496 213.81 15.416 213.554 15.416V14.024L217.73 11.192H219.17V30.104C219.17 30.808 219.362 31.448 219.746 32.024C220.13 32.568 220.674 33 221.378 33.32C222.082 33.608 222.85 33.752 223.682 33.752C224.674 33.752 225.538 33.608 226.274 33.32C227.01 33 227.554 32.632 227.906 32.216C228.258 31.768 228.514 31.368 228.674 31.016C228.866 30.632 228.962 30.328 228.962 30.104V17.48C228.962 17.48 228.962 17.448 228.962 17.384C228.962 17.32 228.946 17.224 228.914 17.096C228.914 16.936 228.898 16.792 228.866 16.664C228.834 16.536 228.77 16.392 228.674 16.232C228.61 16.072 228.53 15.944 228.434 15.848C228.338 15.72 228.21 15.624 228.05 15.56C227.922 15.464 227.762 15.416 227.57 15.416V14.024L231.746 11.192H233.138V31.496ZM248.778 34.136C251.402 34.136 253.61 32.728 255.402 29.912L256.698 30.776C254.618 33.944 251.85 35.528 248.394 35.528C246.314 35.528 244.458 34.936 242.826 33.752C241.226 32.568 240.01 31.048 239.178 29.192C238.346 27.304 237.93 25.272 237.93 23.096C237.93 19.736 238.89 16.824 240.81 14.36C242.762 11.896 245.242 10.664 248.25 10.664C250.842 10.664 252.954 11.672 254.586 13.688C256.25 15.672 257.21 18.2 257.466 21.272C257.21 21.336 256.874 21.416 256.458 21.512C256.042 21.608 255.226 21.864 254.01 22.28C252.794 22.664 251.626 23.096 250.506 23.576C249.418 24.024 248.202 24.648 246.858 25.448C245.514 26.216 244.378 27.032 243.45 27.896C243.386 27.96 243.338 27.992 243.306 27.992C243.722 29.88 244.394 31.384 245.322 32.504C246.25 33.592 247.402 34.136 248.778 34.136ZM242.826 22.424C242.826 23.704 242.89 25 243.018 26.312C245.93 24.072 249.146 22.376 252.666 21.224C252.602 18.536 252.202 16.344 251.466 14.648C250.73 12.92 249.658 12.056 248.25 12.056C246.618 12.056 245.322 13.032 244.362 14.984C243.402 16.904 242.89 19.384 242.826 22.424ZM281.789 2.792C281.373 2.792 281.037 2.968 280.781 3.32C280.557 3.672 280.429 4.024 280.397 4.376V4.904V31.496C280.397 31.56 280.397 31.64 280.397 31.736C280.397 31.832 280.413 32.008 280.445 32.264C280.509 32.488 280.589 32.696 280.685 32.888C280.781 33.048 280.925 33.208 281.117 33.368C281.309 33.528 281.533 33.608 281.789 33.608V35H274.781V33.608C275.197 33.608 275.517 33.432 275.741 33.08C275.997 32.728 276.125 32.376 276.125 32.024L276.173 31.496V4.904C276.173 4.84 276.173 4.76 276.173 4.664C276.173 4.568 276.141 4.408 276.077 4.184C276.045 3.928 275.981 3.72 275.885 3.56C275.789 3.368 275.645 3.192 275.453 3.032C275.261 2.872 275.037 2.792 274.781 2.792V1.4H281.789V2.792ZM305.094 31.496C305.094 31.56 305.094 31.64 305.094 31.736C305.126 31.832 305.158 32.008 305.19 32.264C305.254 32.488 305.318 32.696 305.382 32.888C305.478 33.048 305.622 33.208 305.814 33.368C306.006 33.528 306.23 33.608 306.486 33.608V35H299.526V33.608C299.942 33.608 300.262 33.432 300.486 33.08C300.71 32.728 300.838 32.376 300.87 32.024L300.918 31.496V16.088C300.918 15.032 300.486 14.168 299.622 13.496C298.758 12.792 297.67 12.44 296.358 12.44C295.398 12.44 294.534 12.6 293.766 12.92C293.03 13.208 292.486 13.576 292.134 14.024C291.782 14.472 291.526 14.872 291.366 15.224C291.206 15.576 291.126 15.864 291.126 16.088V31.496C291.126 31.56 291.126 31.64 291.126 31.736C291.126 31.832 291.142 32.008 291.174 32.264C291.238 32.488 291.318 32.696 291.414 32.888C291.51 33.048 291.654 33.208 291.846 33.368C292.038 33.528 292.262 33.608 292.518 33.608V35H285.51V33.608C285.926 33.608 286.246 33.432 286.47 33.08C286.726 32.728 286.854 32.376 286.854 32.024L286.902 31.496V17.48C286.902 17.448 286.902 17.384 286.902 17.288C286.902 17.192 286.87 17.032 286.806 16.808C286.774 16.552 286.71 16.328 286.614 16.136C286.518 15.944 286.374 15.784 286.182 15.656C285.99 15.496 285.766 15.416 285.51 15.416V14.024L289.686 11.192H291.126V13.256C292.406 11.528 294.566 10.664 297.606 10.664C298.726 10.664 299.83 10.84 300.918 11.192C302.038 11.544 303.014 12.12 303.846 12.92C304.678 13.72 305.094 14.664 305.094 15.752V31.496ZM337.101 31.496C337.101 31.56 337.101 31.64 337.101 31.736C337.101 31.832 337.117 32.008 337.149 32.264C337.213 32.488 337.277 32.696 337.341 32.888C337.437 33.048 337.581 33.208 337.773 33.368C337.997 33.528 338.237 33.608 338.493 33.608V35H331.485V33.608C331.901 33.608 332.221 33.432 332.445 33.08C332.669 32.728 332.797 32.376 332.829 32.024L332.877 31.496V25.352C335.277 20.936 336.685 18.376 337.101 17.672V31.496ZM343.533 10.664C344.685 10.664 345.805 10.84 346.893 11.192C348.013 11.544 348.989 12.12 349.821 12.92C350.653 13.72 351.069 14.664 351.069 15.752C351.069 16.456 350.733 16.968 350.061 17.288C349.389 17.608 348.701 17.656 347.997 17.432C347.293 17.208 346.925 16.824 346.893 16.28C346.797 15.576 346.573 14.936 346.221 14.36C345.869 13.784 345.357 13.32 344.685 12.968C344.013 12.616 343.229 12.44 342.333 12.44C340.061 12.44 338.301 13.56 337.053 15.8C336.509 16.792 335.677 18.312 334.557 20.36C333.437 22.376 332.445 24.184 331.581 25.784C330.717 27.384 330.189 28.328 329.997 28.616C329.357 29.704 328.749 30.632 328.173 31.4C327.629 32.136 326.957 32.84 326.157 33.512C325.389 34.184 324.509 34.68 323.517 35C322.557 35.352 321.485 35.528 320.301 35.528C318.541 35.528 316.973 35.192 315.597 34.52C314.221 33.816 313.117 32.888 312.285 31.736C311.453 30.552 310.829 29.24 310.413 27.8C309.997 26.328 309.789 24.76 309.789 23.096C309.789 19.768 310.781 16.872 312.765 14.408C314.781 11.912 317.293 10.664 320.301 10.664C322.157 10.664 323.853 11.176 325.389 12.2C326.189 12.616 326.589 12.28 326.589 11.192H327.981V18.2C327.469 16.44 326.493 14.984 325.053 13.832C323.645 12.648 322.109 12.056 320.445 12.056C318.621 12.056 317.197 13.096 316.173 15.176C315.181 17.256 314.685 19.896 314.685 23.096C314.685 23.64 314.685 23.928 314.685 23.96C314.781 26.904 315.341 29.336 316.365 31.256C317.421 33.176 318.829 34.136 320.589 34.136C322.285 34.136 323.725 33.64 324.909 32.648C326.093 31.624 327.357 30.024 328.701 27.848C329.501 26.504 330.893 23.88 332.877 19.976V17.48C332.877 17.48 332.877 17.448 332.877 17.384C332.877 17.32 332.861 17.224 332.829 17.096C332.829 16.936 332.813 16.792 332.781 16.664C332.749 16.536 332.685 16.392 332.589 16.232C332.525 16.072 332.445 15.944 332.349 15.848C332.253 15.72 332.125 15.624 331.965 15.56C331.837 15.464 331.677 15.416 331.485 15.416V14.024L335.661 11.192H337.101V13.448C338.477 11.592 340.621 10.664 343.533 10.664ZM363.95 34.136C366.574 34.136 368.782 32.728 370.574 29.912L371.87 30.776C369.79 33.944 367.022 35.528 363.566 35.528C361.486 35.528 359.63 34.936 357.998 33.752C356.398 32.568 355.182 31.048 354.35 29.192C353.518 27.304 353.102 25.272 353.102 23.096C353.102 19.736 354.062 16.824 355.982 14.36C357.934 11.896 360.414 10.664 363.422 10.664C366.014 10.664 368.126 11.672 369.758 13.688C371.422 15.672 372.382 18.2 372.638 21.272C372.382 21.336 372.046 21.416 371.63 21.512C371.214 21.608 370.398 21.864 369.182 22.28C367.966 22.664 366.798 23.096 365.678 23.576C364.59 24.024 363.374 24.648 362.03 25.448C360.686 26.216 359.55 27.032 358.622 27.896C358.558 27.96 358.51 27.992 358.478 27.992C358.894 29.88 359.566 31.384 360.494 32.504C361.422 33.592 362.574 34.136 363.95 34.136ZM357.998 22.424C357.998 23.704 358.062 25 358.19 26.312C361.102 24.072 364.318 22.376 367.838 21.224C367.774 18.536 367.374 16.344 366.638 14.648C365.902 12.92 364.83 12.056 363.422 12.056C361.79 12.056 360.494 13.032 359.534 14.984C358.574 16.904 358.062 19.384 357.998 22.424ZM395.04 31.496C395.04 31.56 395.04 31.64 395.04 31.736C395.072 31.832 395.104 32.008 395.136 32.264C395.2 32.488 395.264 32.696 395.328 32.888C395.424 33.048 395.568 33.208 395.76 33.368C395.952 33.528 396.176 33.608 396.432 33.608V35H395.04C392.704 35 391.328 34.296 390.912 32.888C389.664 34.648 387.728 35.528 385.104 35.528C382.16 35.528 379.808 34.808 378.048 33.368C376.32 31.896 375.456 29.96 375.456 27.56C375.456 24.936 376.304 22.952 378 21.608C379.696 20.264 382.064 19.592 385.104 19.592C387.664 19.592 389.584 20.44 390.864 22.136V19.592C390.864 17.672 390.688 16.152 390.336 15.032C389.984 13.88 389.504 13.096 388.896 12.68C388.32 12.264 387.568 12.056 386.64 12.056C385.488 12.056 384.528 12.488 383.76 13.352C382.992 14.184 382.56 15.16 382.464 16.28C382.4 16.824 382.016 17.208 381.312 17.432C380.64 17.656 379.952 17.608 379.248 17.288C378.576 16.968 378.24 16.456 378.24 15.752C378.24 14.248 378.976 13.032 380.448 12.104C381.92 11.144 383.872 10.664 386.304 10.664C389.152 10.664 391.312 11.368 392.784 12.776C394.288 14.152 395.04 16.424 395.04 19.592V31.496ZM389.424 32.312C390.384 31.064 390.864 29.48 390.864 27.56C390.864 25.64 390.384 24.072 389.424 22.856C388.496 21.608 387.216 20.984 385.584 20.984C383.984 20.984 382.704 21.608 381.744 22.856C380.816 24.104 380.352 25.672 380.352 27.56C380.352 29.448 380.816 31.016 381.744 32.264C382.704 33.512 383.984 34.136 385.584 34.136C387.216 34.136 388.496 33.528 389.424 32.312ZM403.968 15.416C403.968 16.184 404.448 17 405.408 17.864C406.368 18.696 407.536 19.528 408.912 20.36C410.288 21.192 411.664 22.056 413.04 22.952C414.416 23.848 415.584 24.888 416.544 26.072C417.504 27.224 417.984 28.392 417.984 29.576C417.984 30.632 417.696 31.56 417.12 32.36C416.576 33.128 415.824 33.736 414.864 34.184C413.936 34.632 412.944 34.968 411.888 35.192C410.864 35.416 409.808 35.528 408.72 35.528C406.768 35.56 404.96 35.096 403.296 34.136C403.264 34.104 403.232 34.088 403.2 34.088C403.2 34.056 403.184 34.04 403.152 34.04C402.992 33.944 402.832 33.88 402.672 33.848C402.512 33.816 402.336 33.88 402.144 34.04C401.984 34.2 401.904 34.52 401.904 35H400.512V27.992C401.024 29.72 402.064 31.176 403.632 32.36C405.232 33.544 406.864 34.136 408.528 34.136C410.032 34.136 411.296 33.864 412.32 33.32C413.344 32.776 413.856 31.944 413.856 30.824C413.856 30.024 413.36 29.16 412.368 28.232C411.408 27.304 410.24 26.408 408.864 25.544C407.488 24.68 406.112 23.784 404.736 22.856C403.36 21.928 402.192 20.904 401.232 19.784C400.272 18.664 399.792 17.56 399.792 16.472C399.792 15.384 400.032 14.456 400.512 13.688C400.992 12.888 401.648 12.28 402.48 11.864C403.312 11.448 404.192 11.144 405.12 10.952C406.08 10.76 407.104 10.664 408.192 10.664C409.984 10.664 411.632 11.128 413.136 12.056L413.232 12.152C414.096 12.632 414.528 12.312 414.528 11.192H415.92V18.2C415.408 16.44 414.432 14.984 412.992 13.832C411.552 12.648 410.016 12.056 408.384 12.056C407.136 12.056 406.08 12.312 405.216 12.824C404.384 13.336 403.968 14.2 403.968 15.416ZM432.012 34.136C434.636 34.136 436.844 32.728 438.636 29.912L439.932 30.776C437.852 33.944 435.084 35.528 431.628 35.528C429.548 35.528 427.692 34.936 426.06 33.752C424.46 32.568 423.244 31.048 422.412 29.192C421.58 27.304 421.164 25.272 421.164 23.096C421.164 19.736 422.124 16.824 424.044 14.36C425.996 11.896 428.476 10.664 431.484 10.664C434.076 10.664 436.188 11.672 437.82 13.688C439.484 15.672 440.444 18.2 440.7 21.272C440.444 21.336 440.108 21.416 439.692 21.512C439.276 21.608 438.46 21.864 437.244 22.28C436.028 22.664 434.86 23.096 433.74 23.576C432.652 24.024 431.436 24.648 430.092 25.448C428.748 26.216 427.612 27.032 426.684 27.896C426.62 27.96 426.572 27.992 426.54 27.992C426.956 29.88 427.628 31.384 428.556 32.504C429.484 33.592 430.636 34.136 432.012 34.136ZM426.06 22.424C426.06 23.704 426.124 25 426.252 26.312C429.164 24.072 432.38 22.376 435.9 21.224C435.836 18.536 435.436 16.344 434.7 14.648C433.964 12.92 432.892 12.056 431.484 12.056C429.852 12.056 428.556 13.032 427.596 14.984C426.636 16.904 426.124 19.384 426.06 22.424ZM464.014 31.496C464.014 31.528 464.014 31.576 464.014 31.64C464.014 31.672 464.014 31.768 464.014 31.928C464.046 32.056 464.078 32.2 464.11 32.36C464.142 32.488 464.19 32.632 464.254 32.792C464.35 32.952 464.43 33.096 464.494 33.224C464.59 33.32 464.718 33.416 464.878 33.512C465.038 33.576 465.214 33.608 465.406 33.608V35H464.014C463.278 35 462.638 34.92 462.094 34.76C461.55 34.6 461.134 34.424 460.846 34.232C460.59 34.04 460.366 33.816 460.174 33.56C460.014 33.272 459.902 33.048 459.838 32.888C459.806 32.696 459.79 32.52 459.79 32.36V31.784C458.51 34.28 456.654 35.528 454.222 35.528C451.182 35.528 448.67 34.296 446.686 31.832C444.702 29.368 443.71 26.472 443.71 23.144C443.71 19.784 444.702 16.872 446.686 14.408C448.67 11.912 451.182 10.664 454.222 10.664C456.654 10.664 458.51 11.912 459.79 14.408V7.688C459.79 7.656 459.79 7.624 459.79 7.592C459.79 7.528 459.774 7.432 459.742 7.304C459.742 7.144 459.726 7 459.694 6.872C459.662 6.744 459.614 6.6 459.55 6.44C459.486 6.28 459.406 6.152 459.31 6.056C459.214 5.928 459.086 5.832 458.926 5.768C458.766 5.672 458.59 5.624 458.398 5.624V4.184L462.622 1.4H464.014V31.496ZM454.222 34.136C455.95 34.136 457.31 33.112 458.302 31.064C459.294 28.984 459.79 26.328 459.79 23.096C459.79 19.864 459.294 17.224 458.302 15.176C457.31 13.096 455.95 12.056 454.222 12.056C452.494 12.056 451.118 13.112 450.094 15.224C449.102 17.304 448.606 19.928 448.606 23.096C448.606 26.264 449.102 28.904 450.094 31.016C451.118 33.096 452.494 34.136 454.222 34.136Z" fill="#121212"/>
</svg>
