<svg width="177" height="42" viewBox="0 0 177 42" fill="none" xmlns="http://www.w3.org/2000/svg">
<path d="M33 28L31.75 25.25L29 24L31.75 22.75L33 20L34.25 22.75L37 24L34.25 25.25L33 28ZM26 31C25.45 31 24.979 30.804 24.587 30.412C24.195 30.02 23.9993 29.5493 24 29V15C24 14.45 24.196 13.979 24.588 13.587C24.98 13.195 25.4507 12.9993 26 13H27V11H29V13H37V11H39V13H40C40.55 13 41.021 13.196 41.413 13.588C41.805 13.98 42.0007 14.4507 42 15V29C42 29.55 41.804 30.021 41.412 30.413C41.02 30.805 40.5493 31.0007 40 31H26ZM26 29H40V19H26V29ZM26 17H40V15H26V17Z" fill="#EDEDED"/>
<path d="M61.992 26.16C61.064 26.16 60.2853 26.0213 59.656 25.744C59.0267 25.456 58.5413 25.088 58.2 24.64C57.8693 24.1813 57.6933 23.696 57.672 23.184C57.672 23.0987 57.704 23.024 57.768 22.96C57.8427 22.8853 57.928 22.848 58.024 22.848H58.84C58.968 22.848 59.064 22.88 59.128 22.944C59.192 23.008 59.2347 23.0827 59.256 23.168C59.3093 23.424 59.4373 23.68 59.64 23.936C59.8533 24.1813 60.1467 24.3893 60.52 24.56C60.904 24.72 61.3947 24.8 61.992 24.8C62.9093 24.8 63.5813 24.64 64.008 24.32C64.4453 23.9893 64.664 23.552 64.664 23.008C64.664 22.6347 64.5467 22.336 64.312 22.112C64.088 21.8773 63.7413 21.6693 63.272 21.488C62.8027 21.3067 62.1947 21.1093 61.448 20.896C60.6693 20.672 60.024 20.4267 59.512 20.16C59 19.8933 58.616 19.5627 58.36 19.168C58.1147 18.7733 57.992 18.272 57.992 17.664C57.992 17.088 58.1467 16.576 58.456 16.128C58.7653 15.6693 59.208 15.3067 59.784 15.04C60.3707 14.7733 61.08 14.64 61.912 14.64C62.5733 14.64 63.1493 14.7307 63.64 14.912C64.1413 15.0827 64.5573 15.3173 64.888 15.616C65.2187 15.904 65.4693 16.2187 65.64 16.56C65.8107 16.8907 65.9013 17.216 65.912 17.536C65.912 17.6107 65.8853 17.6853 65.832 17.76C65.7787 17.824 65.6933 17.856 65.576 17.856H64.728C64.6533 17.856 64.5733 17.8347 64.488 17.792C64.4133 17.7493 64.3547 17.6693 64.312 17.552C64.248 17.1147 64.0027 16.7467 63.576 16.448C63.1493 16.1493 62.5947 16 61.912 16C61.2187 16 60.6533 16.1333 60.216 16.4C59.7893 16.6667 59.576 17.0827 59.576 17.648C59.576 18.0107 59.6773 18.3147 59.88 18.56C60.0827 18.7947 60.4027 19.0027 60.84 19.184C61.2773 19.3653 61.848 19.5573 62.552 19.76C63.4053 19.9947 64.104 20.2453 64.648 20.512C65.192 20.768 65.592 21.0933 65.848 21.488C66.1147 21.872 66.248 22.368 66.248 22.976C66.248 23.648 66.072 24.224 65.72 24.704C65.368 25.1733 64.872 25.536 64.232 25.792C63.6027 26.0373 62.856 26.16 61.992 26.16ZM71.4971 26.16C70.7398 26.16 70.0838 26.016 69.5291 25.728C68.9851 25.4293 68.5638 25.008 68.2651 24.464C67.9665 23.9093 67.8065 23.248 67.7851 22.48C67.7745 22.32 67.7691 22.1067 67.7691 21.84C67.7691 21.5733 67.7745 21.36 67.7851 21.2C67.8065 20.432 67.9665 19.776 68.2651 19.232C68.5638 18.6773 68.9851 18.256 69.5291 17.968C70.0838 17.6693 70.7398 17.52 71.4971 17.52C72.1158 17.52 72.6438 17.6053 73.0811 17.776C73.5291 17.9467 73.8971 18.1653 74.1851 18.432C74.4731 18.6987 74.6865 18.9867 74.8251 19.296C74.9745 19.6053 75.0545 19.8987 75.0651 20.176C75.0758 20.2827 75.0438 20.368 74.9691 20.432C74.8945 20.496 74.8038 20.528 74.6971 20.528H73.9291C73.8225 20.528 73.7425 20.5067 73.6891 20.464C73.6358 20.4107 73.5825 20.3253 73.5291 20.208C73.3371 19.6853 73.0758 19.3173 72.7451 19.104C72.4145 18.8907 72.0038 18.784 71.5131 18.784C70.8731 18.784 70.3505 18.9813 69.9451 19.376C69.5505 19.7707 69.3371 20.4053 69.3051 21.28C69.2945 21.664 69.2945 22.0373 69.3051 22.4C69.3371 23.2853 69.5505 23.9253 69.9451 24.32C70.3505 24.704 70.8731 24.896 71.5131 24.896C72.0038 24.896 72.4145 24.7893 72.7451 24.576C73.0758 24.3627 73.3371 23.9947 73.5291 23.472C73.5825 23.3547 73.6358 23.2747 73.6891 23.232C73.7425 23.1787 73.8225 23.152 73.9291 23.152H74.6971C74.8038 23.152 74.8945 23.184 74.9691 23.248C75.0438 23.312 75.0758 23.3973 75.0651 23.504C75.0545 23.728 75.0065 23.9573 74.9211 24.192C74.8358 24.4267 74.6971 24.6667 74.5051 24.912C74.3238 25.1467 74.0945 25.36 73.8171 25.552C73.5398 25.7333 73.2038 25.8827 72.8091 26C72.4251 26.1067 71.9878 26.16 71.4971 26.16ZM77.3493 26C77.2426 26 77.1519 25.968 77.0773 25.904C77.0133 25.8293 76.9813 25.7387 76.9813 25.632V15.008C76.9813 14.9013 77.0133 14.816 77.0773 14.752C77.1519 14.6773 77.2426 14.64 77.3493 14.64H78.1493C78.2666 14.64 78.3573 14.6773 78.4213 14.752C78.4853 14.816 78.5173 14.9013 78.5173 15.008V18.736C78.8053 18.3733 79.1573 18.08 79.5733 17.856C79.9893 17.632 80.5173 17.52 81.1573 17.52C81.8506 17.52 82.4373 17.6747 82.9173 17.984C83.4079 18.2827 83.7759 18.704 84.0213 19.248C84.2773 19.7813 84.4053 20.4053 84.4053 21.12V25.632C84.4053 25.7387 84.3733 25.8293 84.3093 25.904C84.2453 25.968 84.1546 26 84.0373 26H83.2373C83.1306 26 83.0399 25.968 82.9653 25.904C82.9013 25.8293 82.8693 25.7387 82.8693 25.632V21.2C82.8693 20.4533 82.6879 19.872 82.3253 19.456C81.9626 19.0293 81.4293 18.816 80.7253 18.816C80.0639 18.816 79.5306 19.0293 79.1253 19.456C78.7199 19.872 78.5173 20.4533 78.5173 21.2V25.632C78.5173 25.7387 78.4853 25.8293 78.4213 25.904C78.3573 25.968 78.2666 26 78.1493 26H77.3493ZM90.0273 26.16C88.9286 26.16 88.0539 25.824 87.4033 25.152C86.7526 24.4693 86.3953 23.5413 86.3313 22.368C86.3206 22.2293 86.3153 22.0533 86.3153 21.84C86.3153 21.616 86.3206 21.4347 86.3313 21.296C86.3739 20.5387 86.5499 19.8773 86.8593 19.312C87.1686 18.736 87.5899 18.2933 88.1233 17.984C88.6673 17.6747 89.3019 17.52 90.0273 17.52C90.8379 17.52 91.5153 17.6907 92.0593 18.032C92.6139 18.3733 93.0353 18.8587 93.3233 19.488C93.6113 20.1173 93.7552 20.8533 93.7552 21.696V21.968C93.7552 22.0853 93.7179 22.176 93.6433 22.24C93.5793 22.304 93.4939 22.336 93.3873 22.336H87.8513C87.8513 22.3467 87.8513 22.368 87.8513 22.4C87.8513 22.432 87.8513 22.4587 87.8513 22.48C87.8726 22.9173 87.9686 23.328 88.1393 23.712C88.3099 24.0853 88.5553 24.3893 88.8753 24.624C89.1953 24.8587 89.5793 24.976 90.0273 24.976C90.4113 24.976 90.7313 24.9173 90.9873 24.8C91.2433 24.6827 91.4513 24.5547 91.6113 24.416C91.7713 24.2667 91.8779 24.1547 91.9313 24.08C92.0273 23.9413 92.1019 23.8613 92.1553 23.84C92.2086 23.808 92.2939 23.792 92.4113 23.792H93.1793C93.2859 23.792 93.3713 23.824 93.4353 23.888C93.5099 23.9413 93.5419 24.0213 93.5312 24.128C93.5206 24.288 93.4353 24.4853 93.2753 24.72C93.1153 24.944 92.8859 25.168 92.5873 25.392C92.2886 25.616 91.9259 25.8027 91.4993 25.952C91.0726 26.0907 90.5819 26.16 90.0273 26.16ZM87.8513 21.232H92.2353V21.184C92.2353 20.704 92.1446 20.2773 91.9633 19.904C91.7926 19.5307 91.5419 19.2373 91.2113 19.024C90.8806 18.8 90.4859 18.688 90.0273 18.688C89.5686 18.688 89.1739 18.8 88.8433 19.024C88.5233 19.2373 88.2779 19.5307 88.1073 19.904C87.9366 20.2773 87.8513 20.704 87.8513 21.184V21.232ZM98.7084 26.16C98.1217 26.16 97.615 26.0587 97.1884 25.856C96.7617 25.6427 96.4097 25.36 96.1324 25.008C95.8657 24.6453 95.663 24.2347 95.5244 23.776C95.3964 23.3173 95.3217 22.832 95.3004 22.32C95.2897 22.1493 95.2844 21.9893 95.2844 21.84C95.2844 21.6907 95.2897 21.5307 95.3004 21.36C95.3217 20.8587 95.3964 20.3787 95.5244 19.92C95.663 19.4613 95.8657 19.0507 96.1324 18.688C96.4097 18.3253 96.7617 18.0427 97.1884 17.84C97.615 17.6267 98.1217 17.52 98.7084 17.52C99.3377 17.52 99.8604 17.632 100.276 17.856C100.692 18.08 101.034 18.3573 101.3 18.688V15.008C101.3 14.9013 101.332 14.816 101.396 14.752C101.471 14.6773 101.562 14.64 101.668 14.64H102.436C102.543 14.64 102.628 14.6773 102.692 14.752C102.767 14.816 102.804 14.9013 102.804 15.008V25.632C102.804 25.7387 102.767 25.8293 102.692 25.904C102.628 25.968 102.543 26 102.436 26H101.716C101.599 26 101.508 25.968 101.444 25.904C101.38 25.8293 101.348 25.7387 101.348 25.632V24.96C101.082 25.3013 100.735 25.5893 100.308 25.824C99.8817 26.048 99.3484 26.16 98.7084 26.16ZM99.0444 24.864C99.5777 24.864 100.004 24.7413 100.324 24.496C100.644 24.2507 100.884 23.9413 101.044 23.568C101.204 23.184 101.29 22.7947 101.3 22.4C101.311 22.2293 101.316 22.0267 101.316 21.792C101.316 21.5467 101.311 21.3387 101.3 21.168C101.29 20.7947 101.199 20.4267 101.028 20.064C100.868 19.7013 100.623 19.4027 100.292 19.168C99.9724 18.9333 99.5564 18.816 99.0444 18.816C98.5004 18.816 98.0684 18.9387 97.7484 19.184C97.4284 19.4187 97.199 19.7333 97.0604 20.128C96.9217 20.512 96.8417 20.928 96.8204 21.376C96.8097 21.6853 96.8097 21.9947 96.8204 22.304C96.8417 22.752 96.9217 23.1733 97.0604 23.568C97.199 23.952 97.4284 24.2667 97.7484 24.512C98.0684 24.7467 98.5004 24.864 99.0444 24.864ZM108.288 26.16C107.605 26.16 107.024 26.0107 106.544 25.712C106.075 25.4027 105.717 24.976 105.472 24.432C105.227 23.888 105.104 23.264 105.104 22.56V18.048C105.104 17.9413 105.136 17.856 105.2 17.792C105.275 17.7173 105.365 17.68 105.472 17.68H106.272C106.379 17.68 106.464 17.7173 106.528 17.792C106.603 17.856 106.64 17.9413 106.64 18.048V22.48C106.64 24.0693 107.333 24.864 108.72 24.864C109.381 24.864 109.909 24.656 110.304 24.24C110.709 23.8133 110.912 23.2267 110.912 22.48V18.048C110.912 17.9413 110.944 17.856 111.008 17.792C111.083 17.7173 111.173 17.68 111.28 17.68H112.064C112.181 17.68 112.272 17.7173 112.336 17.792C112.4 17.856 112.432 17.9413 112.432 18.048V25.632C112.432 25.7387 112.4 25.8293 112.336 25.904C112.272 25.968 112.181 26 112.064 26H111.328C111.221 26 111.131 25.968 111.056 25.904C110.992 25.8293 110.96 25.7387 110.96 25.632V24.928C110.672 25.3013 110.32 25.6 109.904 25.824C109.499 26.048 108.96 26.16 108.288 26.16ZM115.193 26C115.086 26 114.996 25.968 114.921 25.904C114.857 25.8293 114.825 25.7387 114.825 25.632V15.008C114.825 14.9013 114.857 14.816 114.921 14.752C114.996 14.6773 115.086 14.64 115.193 14.64H115.945C116.062 14.64 116.153 14.6773 116.217 14.752C116.281 14.816 116.313 14.9013 116.313 15.008V25.632C116.313 25.7387 116.281 25.8293 116.217 25.904C116.153 25.968 116.062 26 115.945 26H115.193ZM122.012 26.16C120.913 26.16 120.038 25.824 119.388 25.152C118.737 24.4693 118.38 23.5413 118.316 22.368C118.305 22.2293 118.3 22.0533 118.3 21.84C118.3 21.616 118.305 21.4347 118.316 21.296C118.358 20.5387 118.534 19.8773 118.844 19.312C119.153 18.736 119.574 18.2933 120.108 17.984C120.652 17.6747 121.286 17.52 122.012 17.52C122.822 17.52 123.5 17.6907 124.044 18.032C124.598 18.3733 125.02 18.8587 125.308 19.488C125.596 20.1173 125.74 20.8533 125.74 21.696V21.968C125.74 22.0853 125.702 22.176 125.628 22.24C125.564 22.304 125.478 22.336 125.372 22.336H119.836C119.836 22.3467 119.836 22.368 119.836 22.4C119.836 22.432 119.836 22.4587 119.836 22.48C119.857 22.9173 119.953 23.328 120.124 23.712C120.294 24.0853 120.54 24.3893 120.86 24.624C121.18 24.8587 121.564 24.976 122.012 24.976C122.396 24.976 122.716 24.9173 122.972 24.8C123.228 24.6827 123.436 24.5547 123.596 24.416C123.756 24.2667 123.862 24.1547 123.916 24.08C124.012 23.9413 124.086 23.8613 124.14 23.84C124.193 23.808 124.278 23.792 124.396 23.792H125.164C125.27 23.792 125.356 23.824 125.42 23.888C125.494 23.9413 125.526 24.0213 125.516 24.128C125.505 24.288 125.42 24.4853 125.26 24.72C125.1 24.944 124.87 25.168 124.572 25.392C124.273 25.616 123.91 25.8027 123.484 25.952C123.057 26.0907 122.566 26.16 122.012 26.16ZM119.836 21.232H124.22V21.184C124.22 20.704 124.129 20.2773 123.948 19.904C123.777 19.5307 123.526 19.2373 123.196 19.024C122.865 18.8 122.47 18.688 122.012 18.688C121.553 18.688 121.158 18.8 120.828 19.024C120.508 19.2373 120.262 19.5307 120.092 19.904C119.921 20.2773 119.836 20.704 119.836 21.184V21.232ZM134.935 26.16C134.177 26.16 133.521 26.016 132.967 25.728C132.423 25.4293 132.001 25.008 131.703 24.464C131.404 23.9093 131.244 23.248 131.223 22.48C131.212 22.32 131.207 22.1067 131.207 21.84C131.207 21.5733 131.212 21.36 131.223 21.2C131.244 20.432 131.404 19.776 131.703 19.232C132.001 18.6773 132.423 18.256 132.967 17.968C133.521 17.6693 134.177 17.52 134.935 17.52C135.553 17.52 136.081 17.6053 136.519 17.776C136.967 17.9467 137.335 18.1653 137.623 18.432C137.911 18.6987 138.124 18.9867 138.263 19.296C138.412 19.6053 138.492 19.8987 138.503 20.176C138.513 20.2827 138.481 20.368 138.407 20.432C138.332 20.496 138.241 20.528 138.135 20.528H137.367C137.26 20.528 137.18 20.5067 137.127 20.464C137.073 20.4107 137.02 20.3253 136.967 20.208C136.775 19.6853 136.513 19.3173 136.183 19.104C135.852 18.8907 135.441 18.784 134.951 18.784C134.311 18.784 133.788 18.9813 133.383 19.376C132.988 19.7707 132.775 20.4053 132.743 21.28C132.732 21.664 132.732 22.0373 132.743 22.4C132.775 23.2853 132.988 23.9253 133.383 24.32C133.788 24.704 134.311 24.896 134.951 24.896C135.441 24.896 135.852 24.7893 136.183 24.576C136.513 24.3627 136.775 23.9947 136.967 23.472C137.02 23.3547 137.073 23.2747 137.127 23.232C137.18 23.1787 137.26 23.152 137.367 23.152H138.135C138.241 23.152 138.332 23.184 138.407 23.248C138.481 23.312 138.513 23.3973 138.503 23.504C138.492 23.728 138.444 23.9573 138.359 24.192C138.273 24.4267 138.135 24.6667 137.943 24.912C137.761 25.1467 137.532 25.36 137.255 25.552C136.977 25.7333 136.641 25.8827 136.247 26C135.863 26.1067 135.425 26.16 134.935 26.16ZM142.723 26.16C142.189 26.16 141.704 26.0533 141.267 25.84C140.829 25.6267 140.477 25.3387 140.211 24.976C139.944 24.6133 139.811 24.2027 139.811 23.744C139.811 23.008 140.109 22.4213 140.707 21.984C141.304 21.5467 142.083 21.2587 143.043 21.12L145.427 20.784V20.32C145.427 19.808 145.277 19.408 144.979 19.12C144.691 18.832 144.216 18.688 143.555 18.688C143.075 18.688 142.685 18.784 142.387 18.976C142.099 19.168 141.896 19.4133 141.779 19.712C141.715 19.872 141.603 19.952 141.443 19.952H140.723C140.605 19.952 140.515 19.92 140.451 19.856C140.397 19.7813 140.371 19.696 140.371 19.6C140.371 19.44 140.429 19.2427 140.547 19.008C140.675 18.7733 140.867 18.544 141.123 18.32C141.379 18.096 141.704 17.9093 142.099 17.76C142.504 17.6 142.995 17.52 143.571 17.52C144.211 17.52 144.749 17.6053 145.187 17.776C145.624 17.936 145.965 18.1547 146.211 18.432C146.467 18.7093 146.648 19.024 146.755 19.376C146.872 19.728 146.931 20.0853 146.931 20.448V25.632C146.931 25.7387 146.893 25.8293 146.819 25.904C146.755 25.968 146.669 26 146.563 26H145.827C145.709 26 145.619 25.968 145.555 25.904C145.491 25.8293 145.459 25.7387 145.459 25.632V24.944C145.32 25.136 145.133 25.328 144.899 25.52C144.664 25.7013 144.371 25.856 144.019 25.984C143.667 26.1013 143.235 26.16 142.723 26.16ZM143.059 24.96C143.496 24.96 143.896 24.8693 144.259 24.688C144.621 24.496 144.904 24.2027 145.107 23.808C145.32 23.4133 145.427 22.9173 145.427 22.32V21.872L143.571 22.144C142.813 22.2507 142.243 22.432 141.859 22.688C141.475 22.9333 141.283 23.248 141.283 23.632C141.283 23.9307 141.368 24.1813 141.539 24.384C141.72 24.576 141.944 24.72 142.211 24.816C142.488 24.912 142.771 24.96 143.059 24.96ZM149.615 26C149.508 26 149.418 25.968 149.343 25.904C149.279 25.8293 149.247 25.7387 149.247 25.632V15.008C149.247 14.9013 149.279 14.816 149.343 14.752C149.418 14.6773 149.508 14.64 149.615 14.64H150.367C150.484 14.64 150.575 14.6773 150.639 14.752C150.703 14.816 150.735 14.9013 150.735 15.008V25.632C150.735 25.7387 150.703 25.8293 150.639 25.904C150.575 25.968 150.484 26 150.367 26H149.615ZM153.506 26C153.399 26 153.308 25.968 153.234 25.904C153.17 25.8293 153.138 25.7387 153.138 25.632V15.008C153.138 14.9013 153.17 14.816 153.234 14.752C153.308 14.6773 153.399 14.64 153.506 14.64H154.258C154.375 14.64 154.466 14.6773 154.53 14.752C154.594 14.816 154.626 14.9013 154.626 15.008V25.632C154.626 25.7387 154.594 25.8293 154.53 25.904C154.466 25.968 154.375 26 154.258 26H153.506Z" fill="#EDEDED"/>
<rect x="0.5" y="0.5" width="176" height="41" rx="20.5" stroke="#EDEDED"/>
</svg>
