<svg width="141" height="42" viewBox="0 0 141 42" fill="none" xmlns="http://www.w3.org/2000/svg">
<path d="M25.992 26.16C25.064 26.16 24.2853 26.0213 23.656 25.744C23.0267 25.456 22.5413 25.088 22.2 24.64C21.8693 24.1813 21.6933 23.696 21.672 23.184C21.672 23.0987 21.704 23.024 21.768 22.96C21.8427 22.8853 21.928 22.848 22.024 22.848H22.84C22.968 22.848 23.064 22.88 23.128 22.944C23.192 23.008 23.2347 23.0827 23.256 23.168C23.3093 23.424 23.4373 23.68 23.64 23.936C23.8533 24.1813 24.1467 24.3893 24.52 24.56C24.904 24.72 25.3947 24.8 25.992 24.8C26.9093 24.8 27.5813 24.64 28.008 24.32C28.4453 23.9893 28.664 23.552 28.664 23.008C28.664 22.6347 28.5467 22.336 28.312 22.112C28.088 21.8773 27.7413 21.6693 27.272 21.488C26.8027 21.3067 26.1947 21.1093 25.448 20.896C24.6693 20.672 24.024 20.4267 23.512 20.16C23 19.8933 22.616 19.5627 22.36 19.168C22.1147 18.7733 21.992 18.272 21.992 17.664C21.992 17.088 22.1467 16.576 22.456 16.128C22.7653 15.6693 23.208 15.3067 23.784 15.04C24.3707 14.7733 25.08 14.64 25.912 14.64C26.5733 14.64 27.1493 14.7307 27.64 14.912C28.1413 15.0827 28.5573 15.3173 28.888 15.616C29.2187 15.904 29.4693 16.2187 29.64 16.56C29.8107 16.8907 29.9013 17.216 29.912 17.536C29.912 17.6107 29.8853 17.6853 29.832 17.76C29.7787 17.824 29.6933 17.856 29.576 17.856H28.728C28.6533 17.856 28.5733 17.8347 28.488 17.792C28.4133 17.7493 28.3547 17.6693 28.312 17.552C28.248 17.1147 28.0027 16.7467 27.576 16.448C27.1493 16.1493 26.5947 16 25.912 16C25.2187 16 24.6533 16.1333 24.216 16.4C23.7893 16.6667 23.576 17.0827 23.576 17.648C23.576 18.0107 23.6773 18.3147 23.88 18.56C24.0827 18.7947 24.4027 19.0027 24.84 19.184C25.2773 19.3653 25.848 19.5573 26.552 19.76C27.4053 19.9947 28.104 20.2453 28.648 20.512C29.192 20.768 29.592 21.0933 29.848 21.488C30.1147 21.872 30.248 22.368 30.248 22.976C30.248 23.648 30.072 24.224 29.72 24.704C29.368 25.1733 28.872 25.536 28.232 25.792C27.6027 26.0373 26.856 26.16 25.992 26.16ZM35.4971 26.16C34.7398 26.16 34.0838 26.016 33.5291 25.728C32.9851 25.4293 32.5638 25.008 32.2651 24.464C31.9665 23.9093 31.8065 23.248 31.7851 22.48C31.7745 22.32 31.7691 22.1067 31.7691 21.84C31.7691 21.5733 31.7745 21.36 31.7851 21.2C31.8065 20.432 31.9665 19.776 32.2651 19.232C32.5638 18.6773 32.9851 18.256 33.5291 17.968C34.0838 17.6693 34.7398 17.52 35.4971 17.52C36.1158 17.52 36.6438 17.6053 37.0811 17.776C37.5291 17.9467 37.8971 18.1653 38.1851 18.432C38.4731 18.6987 38.6865 18.9867 38.8251 19.296C38.9745 19.6053 39.0545 19.8987 39.0651 20.176C39.0758 20.2827 39.0438 20.368 38.9691 20.432C38.8945 20.496 38.8038 20.528 38.6971 20.528H37.9291C37.8225 20.528 37.7425 20.5067 37.6891 20.464C37.6358 20.4107 37.5825 20.3253 37.5291 20.208C37.3371 19.6853 37.0758 19.3173 36.7451 19.104C36.4145 18.8907 36.0038 18.784 35.5131 18.784C34.8731 18.784 34.3505 18.9813 33.9451 19.376C33.5505 19.7707 33.3371 20.4053 33.3051 21.28C33.2945 21.664 33.2945 22.0373 33.3051 22.4C33.3371 23.2853 33.5505 23.9253 33.9451 24.32C34.3505 24.704 34.8731 24.896 35.5131 24.896C36.0038 24.896 36.4145 24.7893 36.7451 24.576C37.0758 24.3627 37.3371 23.9947 37.5291 23.472C37.5825 23.3547 37.6358 23.2747 37.6891 23.232C37.7425 23.1787 37.8225 23.152 37.9291 23.152H38.6971C38.8038 23.152 38.8945 23.184 38.9691 23.248C39.0438 23.312 39.0758 23.3973 39.0651 23.504C39.0545 23.728 39.0065 23.9573 38.9211 24.192C38.8358 24.4267 38.6971 24.6667 38.5051 24.912C38.3238 25.1467 38.0945 25.36 37.8171 25.552C37.5398 25.7333 37.2038 25.8827 36.8091 26C36.4251 26.1067 35.9878 26.16 35.4971 26.16ZM41.3493 26C41.2426 26 41.1519 25.968 41.0773 25.904C41.0133 25.8293 40.9813 25.7387 40.9813 25.632V15.008C40.9813 14.9013 41.0133 14.816 41.0773 14.752C41.1519 14.6773 41.2426 14.64 41.3493 14.64H42.1493C42.2666 14.64 42.3573 14.6773 42.4213 14.752C42.4853 14.816 42.5173 14.9013 42.5173 15.008V18.736C42.8053 18.3733 43.1573 18.08 43.5733 17.856C43.9893 17.632 44.5173 17.52 45.1573 17.52C45.8506 17.52 46.4373 17.6747 46.9173 17.984C47.4079 18.2827 47.7759 18.704 48.0213 19.248C48.2773 19.7813 48.4053 20.4053 48.4053 21.12V25.632C48.4053 25.7387 48.3733 25.8293 48.3093 25.904C48.2453 25.968 48.1546 26 48.0373 26H47.2373C47.1306 26 47.0399 25.968 46.9653 25.904C46.9013 25.8293 46.8693 25.7387 46.8693 25.632V21.2C46.8693 20.4533 46.6879 19.872 46.3253 19.456C45.9626 19.0293 45.4293 18.816 44.7253 18.816C44.0639 18.816 43.5306 19.0293 43.1253 19.456C42.7199 19.872 42.5173 20.4533 42.5173 21.2V25.632C42.5173 25.7387 42.4853 25.8293 42.4213 25.904C42.3573 25.968 42.2666 26 42.1493 26H41.3493ZM54.0273 26.16C52.9286 26.16 52.0539 25.824 51.4033 25.152C50.7526 24.4693 50.3953 23.5413 50.3313 22.368C50.3206 22.2293 50.3153 22.0533 50.3153 21.84C50.3153 21.616 50.3206 21.4347 50.3313 21.296C50.3739 20.5387 50.5499 19.8773 50.8593 19.312C51.1686 18.736 51.5899 18.2933 52.1233 17.984C52.6673 17.6747 53.3019 17.52 54.0273 17.52C54.8379 17.52 55.5153 17.6907 56.0593 18.032C56.6139 18.3733 57.0353 18.8587 57.3233 19.488C57.6113 20.1173 57.7552 20.8533 57.7552 21.696V21.968C57.7552 22.0853 57.7179 22.176 57.6433 22.24C57.5793 22.304 57.4939 22.336 57.3873 22.336H51.8513C51.8513 22.3467 51.8513 22.368 51.8513 22.4C51.8513 22.432 51.8513 22.4587 51.8513 22.48C51.8726 22.9173 51.9686 23.328 52.1393 23.712C52.3099 24.0853 52.5553 24.3893 52.8753 24.624C53.1953 24.8587 53.5793 24.976 54.0273 24.976C54.4113 24.976 54.7313 24.9173 54.9873 24.8C55.2433 24.6827 55.4513 24.5547 55.6113 24.416C55.7713 24.2667 55.8779 24.1547 55.9313 24.08C56.0273 23.9413 56.1019 23.8613 56.1553 23.84C56.2086 23.808 56.2939 23.792 56.4113 23.792H57.1793C57.2859 23.792 57.3713 23.824 57.4353 23.888C57.5099 23.9413 57.5419 24.0213 57.5312 24.128C57.5206 24.288 57.4353 24.4853 57.2753 24.72C57.1153 24.944 56.8859 25.168 56.5873 25.392C56.2886 25.616 55.9259 25.8027 55.4993 25.952C55.0726 26.0907 54.5819 26.16 54.0273 26.16ZM51.8513 21.232H56.2353V21.184C56.2353 20.704 56.1446 20.2773 55.9633 19.904C55.7926 19.5307 55.5419 19.2373 55.2113 19.024C54.8806 18.8 54.4859 18.688 54.0273 18.688C53.5686 18.688 53.1739 18.8 52.8433 19.024C52.5233 19.2373 52.2779 19.5307 52.1073 19.904C51.9366 20.2773 51.8513 20.704 51.8513 21.184V21.232ZM62.7084 26.16C62.1217 26.16 61.615 26.0587 61.1884 25.856C60.7617 25.6427 60.4097 25.36 60.1324 25.008C59.8657 24.6453 59.663 24.2347 59.5244 23.776C59.3964 23.3173 59.3217 22.832 59.3004 22.32C59.2897 22.1493 59.2844 21.9893 59.2844 21.84C59.2844 21.6907 59.2897 21.5307 59.3004 21.36C59.3217 20.8587 59.3964 20.3787 59.5244 19.92C59.663 19.4613 59.8657 19.0507 60.1324 18.688C60.4097 18.3253 60.7617 18.0427 61.1884 17.84C61.615 17.6267 62.1217 17.52 62.7084 17.52C63.3377 17.52 63.8604 17.632 64.2764 17.856C64.6924 18.08 65.0337 18.3573 65.3004 18.688V15.008C65.3004 14.9013 65.3324 14.816 65.3964 14.752C65.471 14.6773 65.5617 14.64 65.6684 14.64H66.4364C66.543 14.64 66.6284 14.6773 66.6924 14.752C66.767 14.816 66.8044 14.9013 66.8044 15.008V25.632C66.8044 25.7387 66.767 25.8293 66.6924 25.904C66.6284 25.968 66.543 26 66.4364 26H65.7164C65.599 26 65.5084 25.968 65.4444 25.904C65.3804 25.8293 65.3484 25.7387 65.3484 25.632V24.96C65.0817 25.3013 64.735 25.5893 64.3084 25.824C63.8817 26.048 63.3484 26.16 62.7084 26.16ZM63.0444 24.864C63.5777 24.864 64.0044 24.7413 64.3244 24.496C64.6444 24.2507 64.8844 23.9413 65.0444 23.568C65.2044 23.184 65.2897 22.7947 65.3004 22.4C65.311 22.2293 65.3164 22.0267 65.3164 21.792C65.3164 21.5467 65.311 21.3387 65.3004 21.168C65.2897 20.7947 65.199 20.4267 65.0284 20.064C64.8684 19.7013 64.623 19.4027 64.2924 19.168C63.9724 18.9333 63.5564 18.816 63.0444 18.816C62.5004 18.816 62.0684 18.9387 61.7484 19.184C61.4284 19.4187 61.199 19.7333 61.0604 20.128C60.9217 20.512 60.8417 20.928 60.8204 21.376C60.8097 21.6853 60.8097 21.9947 60.8204 22.304C60.8417 22.752 60.9217 23.1733 61.0604 23.568C61.199 23.952 61.4284 24.2667 61.7484 24.512C62.0684 24.7467 62.5004 24.864 63.0444 24.864ZM72.288 26.16C71.6053 26.16 71.024 26.0107 70.544 25.712C70.0747 25.4027 69.7173 24.976 69.472 24.432C69.2267 23.888 69.104 23.264 69.104 22.56V18.048C69.104 17.9413 69.136 17.856 69.2 17.792C69.2747 17.7173 69.3653 17.68 69.472 17.68H70.272C70.3787 17.68 70.464 17.7173 70.528 17.792C70.6027 17.856 70.64 17.9413 70.64 18.048V22.48C70.64 24.0693 71.3333 24.864 72.72 24.864C73.3813 24.864 73.9093 24.656 74.304 24.24C74.7093 23.8133 74.912 23.2267 74.912 22.48V18.048C74.912 17.9413 74.944 17.856 75.008 17.792C75.0827 17.7173 75.1733 17.68 75.28 17.68H76.064C76.1813 17.68 76.272 17.7173 76.336 17.792C76.4 17.856 76.432 17.9413 76.432 18.048V25.632C76.432 25.7387 76.4 25.8293 76.336 25.904C76.272 25.968 76.1813 26 76.064 26H75.328C75.2213 26 75.1307 25.968 75.056 25.904C74.992 25.8293 74.96 25.7387 74.96 25.632V24.928C74.672 25.3013 74.32 25.6 73.904 25.824C73.4987 26.048 72.96 26.16 72.288 26.16ZM79.193 26C79.0863 26 78.9957 25.968 78.921 25.904C78.857 25.8293 78.825 25.7387 78.825 25.632V15.008C78.825 14.9013 78.857 14.816 78.921 14.752C78.9957 14.6773 79.0863 14.64 79.193 14.64H79.945C80.0623 14.64 80.153 14.6773 80.217 14.752C80.281 14.816 80.313 14.9013 80.313 15.008V25.632C80.313 25.7387 80.281 25.8293 80.217 25.904C80.153 25.968 80.0623 26 79.945 26H79.193ZM86.0116 26.16C84.913 26.16 84.0383 25.824 83.3876 25.152C82.737 24.4693 82.3796 23.5413 82.3156 22.368C82.305 22.2293 82.2996 22.0533 82.2996 21.84C82.2996 21.616 82.305 21.4347 82.3156 21.296C82.3583 20.5387 82.5343 19.8773 82.8436 19.312C83.153 18.736 83.5743 18.2933 84.1076 17.984C84.6516 17.6747 85.2863 17.52 86.0116 17.52C86.8223 17.52 87.4996 17.6907 88.0436 18.032C88.5983 18.3733 89.0196 18.8587 89.3076 19.488C89.5956 20.1173 89.7396 20.8533 89.7396 21.696V21.968C89.7396 22.0853 89.7023 22.176 89.6276 22.24C89.5636 22.304 89.4783 22.336 89.3716 22.336H83.8356C83.8356 22.3467 83.8356 22.368 83.8356 22.4C83.8356 22.432 83.8356 22.4587 83.8356 22.48C83.857 22.9173 83.953 23.328 84.1236 23.712C84.2943 24.0853 84.5396 24.3893 84.8596 24.624C85.1796 24.8587 85.5636 24.976 86.0116 24.976C86.3956 24.976 86.7156 24.9173 86.9716 24.8C87.2276 24.6827 87.4356 24.5547 87.5956 24.416C87.7556 24.2667 87.8623 24.1547 87.9156 24.08C88.0116 23.9413 88.0863 23.8613 88.1396 23.84C88.193 23.808 88.2783 23.792 88.3956 23.792H89.1636C89.2703 23.792 89.3556 23.824 89.4196 23.888C89.4943 23.9413 89.5263 24.0213 89.5156 24.128C89.505 24.288 89.4196 24.4853 89.2596 24.72C89.0996 24.944 88.8703 25.168 88.5716 25.392C88.273 25.616 87.9103 25.8027 87.4836 25.952C87.057 26.0907 86.5663 26.16 86.0116 26.16ZM83.8356 21.232H88.2196V21.184C88.2196 20.704 88.129 20.2773 87.9476 19.904C87.777 19.5307 87.5263 19.2373 87.1956 19.024C86.865 18.8 86.4703 18.688 86.0116 18.688C85.553 18.688 85.1583 18.8 84.8276 19.024C84.5076 19.2373 84.2623 19.5307 84.0916 19.904C83.921 20.2773 83.8356 20.704 83.8356 21.184V21.232ZM98.9346 26.16C98.1773 26.16 97.5213 26.016 96.9666 25.728C96.4226 25.4293 96.0013 25.008 95.7026 24.464C95.404 23.9093 95.244 23.248 95.2226 22.48C95.212 22.32 95.2066 22.1067 95.2066 21.84C95.2066 21.5733 95.212 21.36 95.2226 21.2C95.244 20.432 95.404 19.776 95.7026 19.232C96.0013 18.6773 96.4226 18.256 96.9666 17.968C97.5213 17.6693 98.1773 17.52 98.9346 17.52C99.5533 17.52 100.081 17.6053 100.519 17.776C100.967 17.9467 101.335 18.1653 101.623 18.432C101.911 18.6987 102.124 18.9867 102.263 19.296C102.412 19.6053 102.492 19.8987 102.503 20.176C102.513 20.2827 102.481 20.368 102.407 20.432C102.332 20.496 102.241 20.528 102.135 20.528H101.367C101.26 20.528 101.18 20.5067 101.127 20.464C101.073 20.4107 101.02 20.3253 100.967 20.208C100.775 19.6853 100.513 19.3173 100.183 19.104C99.852 18.8907 99.4413 18.784 98.9506 18.784C98.3106 18.784 97.788 18.9813 97.3826 19.376C96.988 19.7707 96.7746 20.4053 96.7426 21.28C96.732 21.664 96.732 22.0373 96.7426 22.4C96.7746 23.2853 96.988 23.9253 97.3826 24.32C97.788 24.704 98.3106 24.896 98.9506 24.896C99.4413 24.896 99.852 24.7893 100.183 24.576C100.513 24.3627 100.775 23.9947 100.967 23.472C101.02 23.3547 101.073 23.2747 101.127 23.232C101.18 23.1787 101.26 23.152 101.367 23.152H102.135C102.241 23.152 102.332 23.184 102.407 23.248C102.481 23.312 102.513 23.3973 102.503 23.504C102.492 23.728 102.444 23.9573 102.359 24.192C102.273 24.4267 102.135 24.6667 101.943 24.912C101.761 25.1467 101.532 25.36 101.255 25.552C100.977 25.7333 100.641 25.8827 100.247 26C99.8626 26.1067 99.4253 26.16 98.9346 26.16ZM106.723 26.16C106.189 26.16 105.704 26.0533 105.267 25.84C104.829 25.6267 104.477 25.3387 104.211 24.976C103.944 24.6133 103.811 24.2027 103.811 23.744C103.811 23.008 104.109 22.4213 104.707 21.984C105.304 21.5467 106.083 21.2587 107.043 21.12L109.427 20.784V20.32C109.427 19.808 109.277 19.408 108.979 19.12C108.691 18.832 108.216 18.688 107.555 18.688C107.075 18.688 106.685 18.784 106.387 18.976C106.099 19.168 105.896 19.4133 105.779 19.712C105.715 19.872 105.603 19.952 105.443 19.952H104.723C104.605 19.952 104.515 19.92 104.451 19.856C104.397 19.7813 104.371 19.696 104.371 19.6C104.371 19.44 104.429 19.2427 104.547 19.008C104.675 18.7733 104.867 18.544 105.123 18.32C105.379 18.096 105.704 17.9093 106.099 17.76C106.504 17.6 106.995 17.52 107.571 17.52C108.211 17.52 108.749 17.6053 109.187 17.776C109.624 17.936 109.965 18.1547 110.211 18.432C110.467 18.7093 110.648 19.024 110.755 19.376C110.872 19.728 110.931 20.0853 110.931 20.448V25.632C110.931 25.7387 110.893 25.8293 110.819 25.904C110.755 25.968 110.669 26 110.563 26H109.827C109.709 26 109.619 25.968 109.555 25.904C109.491 25.8293 109.459 25.7387 109.459 25.632V24.944C109.32 25.136 109.133 25.328 108.899 25.52C108.664 25.7013 108.371 25.856 108.019 25.984C107.667 26.1013 107.235 26.16 106.723 26.16ZM107.059 24.96C107.496 24.96 107.896 24.8693 108.259 24.688C108.621 24.496 108.904 24.2027 109.107 23.808C109.32 23.4133 109.427 22.9173 109.427 22.32V21.872L107.571 22.144C106.813 22.2507 106.243 22.432 105.859 22.688C105.475 22.9333 105.283 23.248 105.283 23.632C105.283 23.9307 105.368 24.1813 105.539 24.384C105.72 24.576 105.944 24.72 106.211 24.816C106.488 24.912 106.771 24.96 107.059 24.96ZM113.615 26C113.508 26 113.418 25.968 113.343 25.904C113.279 25.8293 113.247 25.7387 113.247 25.632V15.008C113.247 14.9013 113.279 14.816 113.343 14.752C113.418 14.6773 113.508 14.64 113.615 14.64H114.367C114.484 14.64 114.575 14.6773 114.639 14.752C114.703 14.816 114.735 14.9013 114.735 15.008V25.632C114.735 25.7387 114.703 25.8293 114.639 25.904C114.575 25.968 114.484 26 114.367 26H113.615ZM117.506 26C117.399 26 117.308 25.968 117.234 25.904C117.17 25.8293 117.138 25.7387 117.138 25.632V15.008C117.138 14.9013 117.17 14.816 117.234 14.752C117.308 14.6773 117.399 14.64 117.506 14.64H118.258C118.375 14.64 118.466 14.6773 118.53 14.752C118.594 14.816 118.626 14.9013 118.626 15.008V25.632C118.626 25.7387 118.594 25.8293 118.53 25.904C118.466 25.968 118.375 26 118.258 26H117.506Z" fill="#EDEDED"/>
<rect x="0.5" y="0.5" width="140" height="41" rx="20.5" stroke="#EDEDED"/>
</svg>
