<svg width="64" height="67" viewBox="0 0 64 67" fill="none" xmlns="http://www.w3.org/2000/svg">
<g filter="url(#filter0_d_34_195)">
<path d="M32 23.9998L21.3334 34.6665L42.6667 34.6665L32 23.9998ZM32 5.33317C35.6889 5.33317 39.1556 6.03362 42.4 7.4345C45.6445 8.83539 48.4667 10.7349 50.8667 13.1332C53.2667 15.5332 55.1662 18.3554 56.5654 21.5998C57.9645 24.8443 58.6649 28.3109 58.6667 31.9998C58.6667 35.6887 57.9662 39.1554 56.5654 42.3998C55.1645 45.6443 53.2649 48.4665 50.8667 50.8665C48.4667 53.2665 45.6445 55.1661 42.4 56.5652C39.1556 57.9643 35.6889 58.6647 32 58.6665C28.3111 58.6665 24.8445 57.9661 21.6 56.5652C18.3556 55.1643 15.5334 53.2647 13.1334 50.8665C10.7333 48.4665 8.83291 45.6443 7.43202 42.3998C6.03113 39.1554 5.33157 35.6887 5.33335 31.9998C5.33335 28.3109 6.0338 24.8443 7.43468 21.5998C8.83558 18.3554 10.7351 15.5332 13.1334 13.1332C15.5334 10.7332 18.3556 8.83273 21.6 7.43184C24.8445 6.03095 28.3111 5.33139 32 5.33317ZM32 10.6665C26.0445 10.6665 21 12.7332 16.8667 16.8665C12.7334 20.9998 10.6667 26.0443 10.6667 31.9998C10.6667 37.9554 12.7334 42.9998 16.8667 47.1332C21 51.2665 26.0445 53.3332 32 53.3332C37.9556 53.3332 43 51.2665 47.1334 47.1332C51.2667 42.9998 53.3334 37.9554 53.3334 31.9998C53.3334 26.0443 51.2667 20.9998 47.1334 16.8665C43 12.7332 37.9556 10.6665 32 10.6665Z" fill="#BFBFBF"/>
</g>
<defs>
<filter id="filter0_d_34_195" x="-4" y="0" width="72" height="72" filterUnits="userSpaceOnUse" color-interpolation-filters="sRGB">
<feFlood flood-opacity="0" result="BackgroundImageFix"/>
<feColorMatrix in="SourceAlpha" type="matrix" values="0 0 0 0 0 0 0 0 0 0 0 0 0 0 0 0 0 0 127 0" result="hardAlpha"/>
<feOffset dy="4"/>
<feGaussianBlur stdDeviation="2"/>
<feComposite in2="hardAlpha" operator="out"/>
<feColorMatrix type="matrix" values="0 0 0 0 0 0 0 0 0 0 0 0 0 0 0 0 0 0 0.25 0"/>
<feBlend mode="normal" in2="BackgroundImageFix" result="effect1_dropShadow_34_195"/>
<feBlend mode="normal" in="SourceGraphic" in2="effect1_dropShadow_34_195" result="shape"/>
</filter>
</defs>
</svg>
