<svg width="33" height="32" viewBox="0 0 33 32" fill="none" xmlns="http://www.w3.org/2000/svg">
<g id="mdi:twitter">
<path id="Vector" d="M30.8836 8.00016C29.857 8.46683 28.7503 8.7735 27.6036 8.92016C28.777 8.2135 29.6836 7.0935 30.1103 5.74683C29.0036 6.4135 27.777 6.88016 26.4836 7.14683C25.4303 6.00016 23.9503 5.3335 22.2703 5.3335C19.137 5.3335 16.577 7.8935 16.577 11.0535C16.577 11.5068 16.6303 11.9468 16.7236 12.3602C11.977 12.1202 7.7503 9.84016 4.93696 6.38683C4.44363 7.22683 4.16363 8.2135 4.16363 9.2535C4.16363 11.2402 5.16363 13.0002 6.7103 14.0002C5.76363 14.0002 4.88363 13.7335 4.1103 13.3335V13.3735C4.1103 16.1468 6.08363 18.4668 8.69696 18.9868C7.85793 19.2164 6.97709 19.2484 6.12363 19.0802C6.48577 20.2168 7.19501 21.2114 8.15165 21.9241C9.10829 22.6368 10.2642 23.0318 11.457 23.0535C9.43514 24.6541 6.92896 25.5193 4.3503 25.5068C3.89696 25.5068 3.44363 25.4802 2.9903 25.4268C5.52363 27.0535 8.53696 28.0002 11.7636 28.0002C22.2703 28.0002 28.0436 19.2802 28.0436 11.7202C28.0436 11.4668 28.0436 11.2268 28.0303 10.9735C29.1503 10.1735 30.1103 9.16016 30.8836 8.00016Z" fill="#BAFEFE"/>
</g>
</svg>
