<svg width="33" height="32" viewBox="0 0 33 32" fill="none" xmlns="http://www.w3.org/2000/svg">
<path d="M30.6134 8.00001C29.5867 8.46668 28.48 8.77334 27.3334 8.92001C28.5067 8.21334 29.4134 7.09334 29.84 5.74668C28.7334 6.41334 27.5067 6.88001 26.2134 7.14668C25.16 6.00001 23.68 5.33334 22 5.33334C18.8667 5.33334 16.3067 7.89334 16.3067 11.0533C16.3067 11.5067 16.36 11.9467 16.4534 12.36C11.7067 12.12 7.48003 9.84001 4.6667 6.38668C4.17337 7.22668 3.89337 8.21334 3.89337 9.25334C3.89337 11.24 4.89337 13 6.44003 14C5.49337 14 4.61337 13.7333 3.84003 13.3333V13.3733C3.84003 16.1467 5.81337 18.4667 8.4267 18.9867C7.58767 19.2163 6.70683 19.2482 5.85337 19.08C6.21551 20.2167 6.92475 21.2112 7.88139 21.9239C8.83803 22.6366 9.99396 23.0316 11.1867 23.0533C9.16487 24.6539 6.65869 25.5191 4.08003 25.5067C3.6267 25.5067 3.17337 25.48 2.72003 25.4267C5.25337 27.0533 8.2667 28 11.4934 28C22 28 27.7734 19.28 27.7734 11.72C27.7734 11.4667 27.7734 11.2267 27.76 10.9733C28.88 10.1733 29.84 9.16001 30.6134 8.00001Z" fill="#BFBFBF"/>
</svg>
