<svg width="758" height="220" viewBox="0 0 758 220" fill="none" xmlns="http://www.w3.org/2000/svg">
<path d="M79.1 7.8H81.98V10.584C81.148 10.584 80.476 10.936 79.964 11.64C79.516 12.344 79.26 13.048 79.196 13.752L79.1 14.808V65.208C79.1 65.784 79.1 66.296 79.1 66.744C79.1 67.128 78.972 67.736 78.716 68.568C78.46 69.4 78.108 70.104 77.66 70.68C77.212 71.256 76.508 71.928 75.548 72.696C74.588 73.4 73.436 73.976 72.092 74.424C70.812 74.872 69.116 75.256 67.004 75.576C64.892 75.896 62.524 76.056 59.9 76.056C56.188 76.056 52.988 75.768 50.3 75.192C47.676 74.616 45.692 73.944 44.348 73.176C43.068 72.408 42.076 71.448 41.372 70.296C40.668 69.144 40.252 68.248 40.124 67.608C39.996 66.904 39.932 66.104 39.932 65.208V14.808C39.932 14.68 39.932 14.52 39.932 14.328C39.932 14.136 39.868 13.816 39.74 13.368C39.676 12.856 39.548 12.44 39.356 12.12C39.164 11.736 38.876 11.384 38.492 11.064C38.108 10.744 37.66 10.584 37.148 10.584V7.8H51.164V10.584C50.332 10.584 49.66 10.936 49.148 11.64C48.7 12.344 48.444 13.048 48.38 13.752V14.808V65.88C48.38 67.544 49.116 68.92 50.588 70.008C52.124 71.096 53.852 71.864 55.772 72.312C57.756 72.696 59.836 72.888 62.012 72.888C71.548 72.888 76.316 70.552 76.316 65.88V14.808C76.316 14.744 76.316 14.68 76.316 14.616C76.316 14.488 76.284 14.296 76.22 14.04C76.22 13.72 76.188 13.432 76.124 13.176C76.06 12.92 75.964 12.632 75.836 12.312C75.708 11.928 75.548 11.64 75.356 11.448C75.164 11.192 74.908 11 74.588 10.872C74.268 10.68 73.916 10.584 73.532 10.584V7.8H79.1ZM103.577 10.584C102.745 10.584 102.073 10.936 101.561 11.64C101.113 12.344 100.857 13.048 100.793 13.752V14.808V67.992C100.793 68.12 100.793 68.28 100.793 68.472C100.793 68.664 100.825 69.016 100.889 69.528C101.017 69.976 101.177 70.392 101.369 70.776C101.561 71.096 101.849 71.416 102.233 71.736C102.617 72.056 103.065 72.216 103.577 72.216V75H89.561V72.216C90.393 72.216 91.033 71.864 91.481 71.16C91.993 70.456 92.249 69.752 92.249 69.048L92.345 67.992V14.808C92.345 14.68 92.345 14.52 92.345 14.328C92.345 14.136 92.281 13.816 92.153 13.368C92.089 12.856 91.961 12.44 91.769 12.12C91.577 11.736 91.289 11.384 90.905 11.064C90.521 10.744 90.073 10.584 89.561 10.584V7.8H103.577V10.584ZM141.453 44.184H110.637V38.616H141.453V44.184ZM190.194 7.8H193.074V10.584C192.242 10.584 191.57 10.936 191.058 11.64C190.61 12.344 190.354 13.048 190.29 13.752L190.194 14.808V65.208C190.194 65.784 190.194 66.296 190.194 66.744C190.194 67.128 190.066 67.736 189.81 68.568C189.554 69.4 189.202 70.104 188.754 70.68C188.306 71.256 187.602 71.928 186.642 72.696C185.682 73.4 184.53 73.976 183.186 74.424C181.906 74.872 180.21 75.256 178.098 75.576C175.986 75.896 173.618 76.056 170.994 76.056C167.282 76.056 164.082 75.768 161.394 75.192C158.77 74.616 156.786 73.944 155.442 73.176C154.162 72.408 153.17 71.448 152.466 70.296C151.762 69.144 151.346 68.248 151.218 67.608C151.09 66.904 151.026 66.104 151.026 65.208V14.808C151.026 14.68 151.026 14.52 151.026 14.328C151.026 14.136 150.962 13.816 150.834 13.368C150.77 12.856 150.642 12.44 150.45 12.12C150.258 11.736 149.97 11.384 149.586 11.064C149.202 10.744 148.754 10.584 148.242 10.584V7.8H162.258V10.584C161.426 10.584 160.754 10.936 160.242 11.64C159.794 12.344 159.538 13.048 159.474 13.752V14.808V65.88C159.474 67.544 160.21 68.92 161.682 70.008C163.218 71.096 164.946 71.864 166.866 72.312C168.85 72.696 170.93 72.888 173.106 72.888C182.642 72.888 187.41 70.552 187.41 65.88V14.808C187.41 14.744 187.41 14.68 187.41 14.616C187.41 14.488 187.378 14.296 187.314 14.04C187.314 13.72 187.282 13.432 187.218 13.176C187.154 12.92 187.058 12.632 186.93 12.312C186.802 11.928 186.642 11.64 186.45 11.448C186.258 11.192 186.002 11 185.682 10.872C185.362 10.68 185.01 10.584 184.626 10.584V7.8H190.194ZM247.695 10.584C246.415 10.584 245.167 11 243.951 11.832C242.735 12.6 241.839 13.4 241.263 14.232L240.399 15.48L226.767 38.808L241.167 67.608C241.487 68.12 241.871 68.664 242.319 69.24C242.767 69.816 243.503 70.456 244.527 71.16C245.551 71.864 246.607 72.216 247.695 72.216V75H233.007V72.216C234.351 72.216 234.383 70.872 233.103 68.184L221.007 43.992L206.607 68.568C206.415 68.952 206.223 69.336 206.031 69.72C205.903 70.104 205.775 70.488 205.647 70.872C205.583 71.256 205.615 71.576 205.743 71.832C205.871 72.088 206.095 72.216 206.415 72.216V75H197.295V72.216C198.575 72.216 199.823 71.8 201.039 70.968C202.319 70.072 203.151 69.336 203.535 68.76C203.983 68.184 204.335 67.704 204.591 67.32L219.663 41.4L206.511 15C204.655 12.056 202.511 10.584 200.079 10.584V7.8H214.767V10.584C213.487 10.584 213.455 11.896 214.671 14.52L225.519 36.216L238.383 14.232C238.575 13.784 238.735 13.4 238.863 13.08C239.055 12.696 239.183 12.312 239.247 11.928C239.375 11.48 239.375 11.16 239.247 10.968C239.119 10.712 238.895 10.584 238.575 10.584V7.8H247.695V10.584ZM302.994 7.8C310.546 7.8 316.626 10.968 321.234 17.304C325.842 23.64 328.146 31.672 328.146 41.4C328.146 51.128 325.842 59.16 321.234 65.496C316.626 71.832 310.546 75 302.994 75H280.53V72.216C281.362 72.216 282.002 71.864 282.45 71.16C282.962 70.456 283.218 69.752 283.218 69.048L283.314 67.992V14.808C283.314 14.68 283.314 14.52 283.314 14.328C283.314 14.136 283.25 13.816 283.122 13.368C283.058 12.856 282.93 12.44 282.738 12.12C282.546 11.736 282.258 11.384 281.874 11.064C281.49 10.744 281.042 10.584 280.53 10.584V7.8H302.994ZM302.994 72.216C306.13 72.216 308.882 70.84 311.25 68.088C313.618 65.272 315.378 61.56 316.53 56.952C317.746 52.344 318.354 47.16 318.354 41.4C318.354 35.64 317.746 30.456 316.53 25.848C315.378 21.24 313.618 17.56 311.25 14.808C308.882 11.992 306.13 10.584 302.994 10.584H291.762V72.216H302.994ZM335.655 7.8H374.823V14.808H372.039C372.039 13.592 371.495 12.632 370.407 11.928C369.383 11.224 368.359 10.808 367.335 10.68L365.799 10.584H346.887V39.96H360.135C360.327 39.96 360.551 39.96 360.807 39.96C361.127 39.96 361.639 39.896 362.343 39.768C363.047 39.576 363.687 39.352 364.263 39.096C364.839 38.84 365.351 38.424 365.799 37.848C366.247 37.272 366.471 36.6 366.471 35.832H369.255V46.968H366.471C366.471 45.752 365.927 44.792 364.839 44.088C363.815 43.384 362.791 43 361.767 42.936L360.135 42.84H346.887V72.216H365.799C365.927 72.216 366.119 72.216 366.375 72.216C366.695 72.152 367.207 72.056 367.911 71.928C368.679 71.8 369.319 71.608 369.831 71.352C370.407 71.032 370.919 70.584 371.367 70.008C371.815 69.432 372.039 68.76 372.039 67.992H374.823V75H335.655V72.216C336.487 72.216 337.127 71.864 337.575 71.16C338.087 70.456 338.343 69.752 338.343 69.048L338.439 67.992V14.808C338.439 14.68 338.439 14.52 338.439 14.328C338.439 14.136 338.375 13.816 338.247 13.368C338.183 12.856 338.055 12.44 337.863 12.12C337.671 11.736 337.383 11.384 336.999 11.064C336.615 10.744 336.167 10.584 335.655 10.584V7.8ZM388.797 20.088C388.797 22.072 389.437 23.992 390.717 25.848C391.997 27.704 393.661 29.432 395.709 31.032C397.821 32.568 400.125 34.136 402.621 35.736C405.117 37.336 407.613 39 410.109 40.728C412.669 42.392 414.973 44.152 417.021 46.008C419.133 47.864 420.829 50.008 422.109 52.44C423.389 54.808 424.029 57.304 424.029 59.928C424.029 63.32 422.909 66.264 420.669 68.76C418.493 71.256 415.741 73.112 412.413 74.328C409.085 75.48 405.501 76.056 401.661 76.056C396.861 76.056 392.541 74.968 388.701 72.792C386.973 71.704 386.109 72.44 386.109 75H383.325V58.2C384.221 62.168 386.333 65.688 389.661 68.76C392.989 71.768 396.989 73.272 401.661 73.272C405.117 73.272 408.349 72.248 411.357 70.2C414.365 68.152 415.869 65.432 415.869 62.04C415.869 60.248 415.357 58.52 414.333 56.856C413.373 55.192 412.061 53.688 410.397 52.344C408.733 51 406.845 49.624 404.733 48.216C402.621 46.744 400.445 45.368 398.205 44.088C396.029 42.808 393.885 41.368 391.773 39.768C389.661 38.104 387.773 36.472 386.109 34.872C384.509 33.208 383.197 31.288 382.173 29.112C381.149 26.872 380.637 24.568 380.637 22.2C380.637 18.744 381.693 15.832 383.805 13.464C385.981 11.032 388.573 9.304 391.581 8.27999C394.589 7.256 397.821 6.744 401.277 6.744C402.173 6.744 403.005 6.776 403.773 6.84C404.605 6.904 405.341 7 405.981 7.128C406.621 7.256 407.261 7.416 407.901 7.608C408.541 7.8 409.053 7.96 409.437 8.088C409.821 8.216 410.237 8.408 410.685 8.664C411.197 8.856 411.549 9.016 411.741 9.144C411.997 9.272 412.285 9.464 412.605 9.72C412.989 9.912 413.213 10.008 413.277 10.008C415.005 11.096 415.869 10.36 415.869 7.8H418.653V24.6C417.693 20.504 415.773 16.984 412.893 14.04C410.013 11.032 406.365 9.528 401.949 9.528C398.493 9.528 395.421 10.424 392.733 12.216C390.109 14.008 388.797 16.632 388.797 20.088ZM444.64 10.584C443.808 10.584 443.136 10.936 442.624 11.64C442.176 12.344 441.92 13.048 441.856 13.752V14.808V67.992C441.856 68.12 441.856 68.28 441.856 68.472C441.856 68.664 441.888 69.016 441.952 69.528C442.08 69.976 442.24 70.392 442.432 70.776C442.624 71.096 442.912 71.416 443.296 71.736C443.68 72.056 444.128 72.216 444.64 72.216V75H430.624V72.216C431.456 72.216 432.096 71.864 432.544 71.16C433.056 70.456 433.312 69.752 433.312 69.048L433.408 67.992V14.808C433.408 14.68 433.408 14.52 433.408 14.328C433.408 14.136 433.344 13.816 433.216 13.368C433.152 12.856 433.024 12.44 432.832 12.12C432.64 11.736 432.352 11.384 431.968 11.064C431.584 10.744 431.136 10.584 430.624 10.584V7.8H444.64V10.584ZM485.683 41.4H499.699V44.184C498.867 44.184 498.195 44.536 497.683 45.24C497.235 45.944 496.979 46.648 496.915 47.352V48.408V66.552C491.091 72.888 484.531 76.056 477.235 76.056C472.243 76.056 467.827 74.552 463.987 71.544C460.147 68.472 457.203 64.312 455.155 59.064C453.107 53.816 452.083 47.928 452.083 41.4C452.083 34.872 453.107 28.984 455.155 23.736C457.203 18.488 460.147 14.36 463.987 11.352C467.827 8.28 472.243 6.744 477.235 6.744C481.139 6.68 484.755 7.672 488.083 9.72C488.275 9.848 488.435 9.944 488.563 10.008C490.355 11.032 491.251 10.296 491.251 7.8H494.035V24.6C493.139 20.504 491.187 16.984 488.179 14.04C485.235 11.032 481.619 9.528 477.331 9.528C473.939 9.528 471.059 11 468.691 13.944C466.323 16.824 464.595 20.632 463.507 25.368C462.419 30.04 461.875 35.384 461.875 41.4C461.875 47.416 462.451 52.792 463.603 57.528C464.755 62.2 466.547 66.008 468.979 68.952C471.475 71.832 474.483 73.272 478.003 73.272C481.843 73.208 485.331 72.088 488.467 69.912V48.408C488.467 48.344 488.467 48.28 488.467 48.216C488.467 48.088 488.435 47.896 488.371 47.64C488.371 47.32 488.339 47.032 488.275 46.776C488.211 46.52 488.115 46.232 487.987 45.912C487.859 45.528 487.699 45.24 487.507 45.048C487.315 44.792 487.059 44.6 486.739 44.472C486.419 44.28 486.067 44.184 485.683 44.184V41.4ZM542.945 7.8H551.393V10.584C550.561 10.584 549.889 10.936 549.377 11.64C548.929 12.344 548.673 13.048 548.609 13.752L548.513 14.808V75H545.729L512.129 17.4V67.992C512.129 68.12 512.129 68.28 512.129 68.472C512.193 68.664 512.257 69.016 512.321 69.528C512.449 69.976 512.577 70.392 512.705 70.776C512.897 71.096 513.185 71.416 513.569 71.736C513.953 72.056 514.401 72.216 514.913 72.216V75H506.561V72.216C507.393 72.216 508.033 71.864 508.481 71.16C508.993 70.456 509.249 69.752 509.249 69.048L509.345 67.992V14.808C509.345 14.68 509.345 14.52 509.345 14.328C509.345 14.136 509.281 13.816 509.153 13.368C509.089 12.856 508.961 12.44 508.769 12.12C508.577 11.736 508.289 11.384 507.905 11.064C507.521 10.744 507.073 10.584 506.561 10.584V7.8H514.913L545.729 60.6V14.808C545.729 14.744 545.729 14.68 545.729 14.616C545.729 14.488 545.697 14.296 545.633 14.04C545.633 13.72 545.601 13.432 545.537 13.176C545.473 12.92 545.377 12.632 545.249 12.312C545.121 11.928 544.961 11.64 544.769 11.448C544.577 11.192 544.321 11 544.001 10.872C543.681 10.68 543.329 10.584 542.945 10.584V7.8ZM559.061 7.8H598.229V14.808H595.445C595.445 13.592 594.901 12.632 593.813 11.928C592.789 11.224 591.765 10.808 590.741 10.68L589.205 10.584H570.293V39.96H583.541C583.733 39.96 583.957 39.96 584.213 39.96C584.533 39.96 585.045 39.896 585.749 39.768C586.453 39.576 587.093 39.352 587.669 39.096C588.245 38.84 588.757 38.424 589.205 37.848C589.653 37.272 589.877 36.6 589.877 35.832H592.661V46.968H589.877C589.877 45.752 589.333 44.792 588.245 44.088C587.221 43.384 586.197 43 585.173 42.936L583.541 42.84H570.293V72.216H589.205C589.333 72.216 589.525 72.216 589.781 72.216C590.101 72.152 590.613 72.056 591.317 71.928C592.085 71.8 592.725 71.608 593.237 71.352C593.813 71.032 594.325 70.584 594.773 70.008C595.221 69.432 595.445 68.76 595.445 67.992H598.229V75H559.061V72.216C559.893 72.216 560.533 71.864 560.981 71.16C561.493 70.456 561.749 69.752 561.749 69.048L561.845 67.992V14.808C561.845 14.68 561.845 14.52 561.845 14.328C561.845 14.136 561.781 13.816 561.653 13.368C561.589 12.856 561.461 12.44 561.269 12.12C561.077 11.736 560.789 11.384 560.405 11.064C560.021 10.744 559.573 10.584 559.061 10.584V7.8ZM645.995 68.28C646.315 68.792 646.699 69.304 647.147 69.816C647.595 70.264 648.299 70.776 649.259 71.352C650.283 71.928 651.339 72.216 652.427 72.216V75H636.971V72.216C638.699 72.216 638.859 70.872 637.451 68.184L637.355 67.992L625.931 46.968H616.043V67.992C616.043 68.12 616.043 68.28 616.043 68.472C616.043 68.664 616.075 69.016 616.139 69.528C616.267 69.976 616.427 70.392 616.619 70.776C616.811 71.096 617.099 71.416 617.483 71.736C617.867 72.056 618.315 72.216 618.827 72.216V75H604.811V72.216C605.643 72.216 606.283 71.864 606.731 71.16C607.243 70.456 607.499 69.752 607.499 69.048L607.595 67.992V14.808C607.595 14.68 607.595 14.52 607.595 14.328C607.595 14.136 607.531 13.816 607.403 13.368C607.339 12.856 607.211 12.44 607.019 12.12C606.827 11.736 606.539 11.384 606.155 11.064C605.771 10.744 605.323 10.584 604.811 10.584V7.8H625.835C633.387 7.8 639.467 9.656 644.075 13.368C648.683 17.08 650.987 21.752 650.987 27.384C650.987 31.928 649.451 35.896 646.379 39.288C643.371 42.68 639.211 44.952 633.899 46.104L645.995 68.28ZM616.043 10.584V44.184H625.835C629.035 44.184 631.787 43.48 634.091 42.072C636.459 40.664 638.219 38.712 639.371 36.216C640.587 33.656 641.195 30.712 641.195 27.384C641.195 24.888 640.843 22.616 640.139 20.568C639.499 18.52 638.507 16.76 637.163 15.288C635.883 13.816 634.283 12.664 632.363 11.832C630.443 11 628.267 10.584 625.835 10.584H616.043ZM713.633 7.8H719.201L691.169 75H685.601L713.633 7.8Z" fill="#EDEDED"/>
<path d="M37.152 151.4H51.168V154.184C50.336 154.184 49.664 154.536 49.152 155.24C48.704 155.944 48.448 156.648 48.384 157.352V158.408V176.552C42.56 182.888 36 186.056 28.704 186.056C23.712 186.056 19.296 184.552 15.456 181.544C11.616 178.472 8.672 174.312 6.624 169.064C4.576 163.816 3.552 157.928 3.552 151.4C3.552 144.872 4.576 138.984 6.624 133.736C8.672 128.488 11.616 124.36 15.456 121.352C19.296 118.28 23.712 116.744 28.704 116.744C32.608 116.68 36.224 117.672 39.552 119.72C39.744 119.848 39.904 119.944 40.032 120.008C41.824 121.032 42.72 120.296 42.72 117.8H45.504V134.6C44.608 130.504 42.656 126.984 39.648 124.04C36.704 121.032 33.088 119.528 28.8 119.528C25.408 119.528 22.528 121 20.16 123.944C17.792 126.824 16.064 130.632 14.976 135.368C13.888 140.04 13.344 145.384 13.344 151.4C13.344 157.416 13.92 162.792 15.072 167.528C16.224 172.2 18.016 176.008 20.448 178.952C22.944 181.832 25.952 183.272 29.472 183.272C33.312 183.208 36.8 182.088 39.936 179.912V158.408C39.936 158.344 39.936 158.28 39.936 158.216C39.936 158.088 39.904 157.896 39.84 157.64C39.84 157.32 39.808 157.032 39.744 156.776C39.68 156.52 39.584 156.232 39.456 155.912C39.328 155.528 39.168 155.24 38.976 155.048C38.784 154.792 38.528 154.6 38.208 154.472C37.888 154.28 37.536 154.184 37.152 154.184V151.4ZM99.2138 178.28C99.5338 178.792 99.9178 179.304 100.366 179.816C100.814 180.264 101.518 180.776 102.478 181.352C103.502 181.928 104.558 182.216 105.646 182.216V185H90.1898V182.216C91.9178 182.216 92.0778 180.872 90.6698 178.184L90.5738 177.992L79.1498 156.968H69.2618V177.992C69.2618 178.12 69.2618 178.28 69.2618 178.472C69.2618 178.664 69.2938 179.016 69.3578 179.528C69.4858 179.976 69.6458 180.392 69.8378 180.776C70.0298 181.096 70.3178 181.416 70.7018 181.736C71.0858 182.056 71.5338 182.216 72.0458 182.216V185H58.0298V182.216C58.8618 182.216 59.5018 181.864 59.9498 181.16C60.4618 180.456 60.7178 179.752 60.7178 179.048L60.8138 177.992V124.808C60.8138 124.68 60.8138 124.52 60.8138 124.328C60.8138 124.136 60.7498 123.816 60.6218 123.368C60.5578 122.856 60.4298 122.44 60.2378 122.12C60.0458 121.736 59.7578 121.384 59.3738 121.064C58.9898 120.744 58.5418 120.584 58.0298 120.584V117.8H79.0538C86.6058 117.8 92.6858 119.656 97.2938 123.368C101.902 127.08 104.206 131.752 104.206 137.384C104.206 141.928 102.67 145.896 99.5978 149.288C96.5898 152.68 92.4298 154.952 87.1178 156.104L99.2138 178.28ZM69.2618 120.584V154.184H79.0538C82.2538 154.184 85.0058 153.48 87.3098 152.072C89.6778 150.664 91.4378 148.712 92.5898 146.216C93.8058 143.656 94.4138 140.712 94.4138 137.384C94.4138 134.888 94.0618 132.616 93.3578 130.568C92.7178 128.52 91.7258 126.76 90.3818 125.288C89.1018 123.816 87.5018 122.664 85.5818 121.832C83.6618 121 81.4858 120.584 79.0538 120.584H69.2618ZM156.002 177.608C156.066 177.736 156.13 177.928 156.194 178.184C156.322 178.376 156.514 178.728 156.77 179.24C157.09 179.752 157.442 180.232 157.826 180.68C158.21 181.064 158.69 181.416 159.266 181.736C159.906 182.056 160.578 182.216 161.282 182.216V185H146.594V182.216C148.258 182.216 148.642 180.744 147.746 177.8L141.698 159.848H122.114L116.162 177.608C116.098 177.736 116.034 177.928 115.97 178.184C115.97 178.376 115.938 178.728 115.874 179.24C115.874 179.752 115.874 180.232 115.874 180.68C115.938 181.064 116.066 181.416 116.258 181.736C116.514 182.056 116.834 182.216 117.218 182.216V185H108.098V182.216C109.186 182.216 110.178 181.832 111.074 181.064C111.97 180.296 112.578 179.528 112.898 178.76L113.378 177.608L133.25 117.8H136.13L156.002 177.608ZM123.074 156.968H140.738L131.906 130.376L123.074 156.968ZM186.491 117.8C194.043 117.8 200.123 119.656 204.731 123.368C209.339 127.08 211.643 131.784 211.643 137.48C211.643 143.112 209.339 147.784 204.731 151.496C200.123 155.144 194.043 156.968 186.491 156.968H176.699V177.992C176.699 178.12 176.699 178.28 176.699 178.472C176.699 178.664 176.731 179.016 176.795 179.528C176.923 179.976 177.083 180.392 177.275 180.776C177.467 181.096 177.755 181.416 178.139 181.736C178.523 182.056 178.971 182.216 179.483 182.216V185H165.467V182.216C166.299 182.216 166.939 181.864 167.387 181.16C167.899 180.456 168.155 179.752 168.155 179.048L168.251 177.992V124.808C168.251 124.68 168.251 124.52 168.251 124.328C168.251 124.136 168.187 123.816 168.059 123.368C167.995 122.856 167.867 122.44 167.675 122.12C167.483 121.736 167.195 121.384 166.811 121.064C166.427 120.744 165.979 120.584 165.467 120.584V117.8H186.491ZM186.491 154.184C191.291 154.184 195.035 152.648 197.723 149.576C200.475 146.504 201.851 142.44 201.851 137.384C201.851 134.888 201.499 132.616 200.795 130.568C200.155 128.52 199.163 126.76 197.819 125.288C196.539 123.816 194.939 122.664 193.019 121.832C191.099 121 188.923 120.584 186.491 120.584H176.699V154.184H186.491ZM265.115 120.584C264.283 120.584 263.611 120.936 263.099 121.64C262.651 122.344 262.395 123.048 262.331 123.752V124.808V177.992C262.331 178.12 262.331 178.28 262.331 178.472C262.331 178.664 262.363 179.016 262.427 179.528C262.555 179.976 262.715 180.392 262.906 180.776C263.099 181.096 263.387 181.416 263.771 181.736C264.155 182.056 264.603 182.216 265.115 182.216V185H251.099V182.216C251.931 182.216 252.571 181.864 253.019 181.16C253.531 180.456 253.787 179.752 253.787 179.048L253.883 177.992V152.84H228.731V177.992C228.731 178.12 228.731 178.28 228.731 178.472C228.731 178.664 228.763 179.016 228.827 179.528C228.955 179.976 229.115 180.392 229.307 180.776C229.499 181.096 229.787 181.416 230.171 181.736C230.555 182.056 231.003 182.216 231.515 182.216V185H217.499V182.216C218.331 182.216 218.971 181.864 219.419 181.16C219.931 180.456 220.187 179.752 220.187 179.048L220.283 177.992V124.808C220.283 124.68 220.283 124.52 220.283 124.328C220.283 124.136 220.219 123.816 220.091 123.368C220.027 122.856 219.899 122.44 219.707 122.12C219.515 121.736 219.227 121.384 218.843 121.064C218.459 120.744 218.011 120.584 217.499 120.584V117.8H231.515V120.584C230.683 120.584 230.011 120.936 229.499 121.64C229.051 122.344 228.795 123.048 228.731 123.752V124.808V149.96H253.883V124.808C253.883 121.992 252.955 120.584 251.099 120.584V117.8H265.115V120.584ZM287.015 120.584C286.183 120.584 285.511 120.936 284.999 121.64C284.551 122.344 284.295 123.048 284.231 123.752V124.808V177.992C284.231 178.12 284.231 178.28 284.231 178.472C284.231 178.664 284.263 179.016 284.327 179.528C284.455 179.976 284.615 180.392 284.807 180.776C284.999 181.096 285.287 181.416 285.671 181.736C286.055 182.056 286.503 182.216 287.015 182.216V185H272.999V182.216C273.831 182.216 274.471 181.864 274.919 181.16C275.431 180.456 275.687 179.752 275.687 179.048L275.783 177.992V124.808C275.783 124.68 275.783 124.52 275.783 124.328C275.783 124.136 275.719 123.816 275.591 123.368C275.527 122.856 275.399 122.44 275.207 122.12C275.015 121.736 274.727 121.384 274.343 121.064C273.959 120.744 273.511 120.584 272.999 120.584V117.8H287.015V120.584ZM336.218 173.288L338.714 175.016C336.346 178.664 333.69 181.416 330.746 183.272C327.802 185.128 324.09 186.056 319.61 186.056C314.618 186.056 310.202 184.552 306.362 181.544C302.522 178.472 299.578 174.312 297.53 169.064C295.482 163.816 294.458 157.928 294.458 151.4C294.458 144.872 295.482 138.984 297.53 133.736C299.578 128.488 302.522 124.36 306.362 121.352C310.202 118.28 314.618 116.744 319.61 116.744C323.514 116.68 327.13 117.672 330.458 119.72C330.65 119.848 330.81 119.944 330.938 120.008C332.73 121.032 333.626 120.296 333.626 117.8H336.41V134.6C335.514 130.504 333.562 126.984 330.554 124.04C327.61 121.032 323.994 119.528 319.706 119.528C316.314 119.528 313.434 121 311.066 123.944C308.698 126.824 306.97 130.632 305.882 135.368C304.794 140.04 304.25 145.384 304.25 151.4C304.25 157.352 304.826 162.696 305.978 167.432C307.194 172.168 308.986 176.008 311.354 178.952C313.786 181.832 316.634 183.272 319.898 183.272C326.81 183.272 332.25 179.944 336.218 173.288ZM395.119 117.8C402.671 117.8 408.751 120.968 413.359 127.304C417.967 133.64 420.271 141.672 420.271 151.4C420.271 161.128 417.967 169.16 413.359 175.496C408.751 181.832 402.671 185 395.119 185H372.655V182.216C373.487 182.216 374.127 181.864 374.575 181.16C375.087 180.456 375.343 179.752 375.343 179.048L375.439 177.992V124.808C375.439 124.68 375.439 124.52 375.439 124.328C375.439 124.136 375.375 123.816 375.247 123.368C375.183 122.856 375.055 122.44 374.863 122.12C374.671 121.736 374.383 121.384 373.999 121.064C373.615 120.744 373.167 120.584 372.655 120.584V117.8H395.119ZM395.119 182.216C398.255 182.216 401.007 180.84 403.375 178.088C405.743 175.272 407.503 171.56 408.655 166.952C409.871 162.344 410.479 157.16 410.479 151.4C410.479 145.64 409.871 140.456 408.655 135.848C407.503 131.24 405.743 127.56 403.375 124.808C401.007 121.992 398.255 120.584 395.119 120.584H383.887V182.216H395.119ZM427.78 117.8H466.948V124.808H464.164C464.164 123.592 463.62 122.632 462.532 121.928C461.508 121.224 460.484 120.808 459.46 120.68L457.924 120.584H439.012V149.96H452.26C452.452 149.96 452.676 149.96 452.932 149.96C453.252 149.96 453.764 149.896 454.468 149.768C455.172 149.576 455.812 149.352 456.388 149.096C456.964 148.84 457.476 148.424 457.924 147.848C458.372 147.272 458.596 146.6 458.596 145.832H461.38V156.968H458.596C458.596 155.752 458.052 154.792 456.964 154.088C455.94 153.384 454.916 153 453.892 152.936L452.26 152.84H439.012V182.216H457.924C458.052 182.216 458.244 182.216 458.5 182.216C458.82 182.152 459.332 182.056 460.036 181.928C460.804 181.8 461.444 181.608 461.956 181.352C462.532 181.032 463.044 180.584 463.492 180.008C463.94 179.432 464.164 178.76 464.164 177.992H466.948V185H427.78V182.216C428.612 182.216 429.252 181.864 429.7 181.16C430.212 180.456 430.468 179.752 430.468 179.048L430.564 177.992V124.808C430.564 124.68 430.564 124.52 430.564 124.328C430.564 124.136 430.5 123.816 430.372 123.368C430.308 122.856 430.18 122.44 429.988 122.12C429.796 121.736 429.508 121.384 429.124 121.064C428.74 120.744 428.292 120.584 427.78 120.584V117.8ZM480.922 130.088C480.922 132.072 481.562 133.992 482.842 135.848C484.122 137.704 485.786 139.432 487.834 141.032C489.946 142.568 492.25 144.136 494.746 145.736C497.242 147.336 499.738 149 502.234 150.728C504.794 152.392 507.098 154.152 509.146 156.008C511.258 157.864 512.954 160.008 514.234 162.44C515.514 164.808 516.154 167.304 516.154 169.928C516.154 173.32 515.034 176.264 512.794 178.76C510.618 181.256 507.866 183.112 504.538 184.328C501.21 185.48 497.626 186.056 493.786 186.056C488.986 186.056 484.666 184.968 480.826 182.792C479.098 181.704 478.234 182.44 478.234 185H475.45V168.2C476.346 172.168 478.458 175.688 481.786 178.76C485.114 181.768 489.114 183.272 493.786 183.272C497.242 183.272 500.474 182.248 503.482 180.2C506.49 178.152 507.994 175.432 507.994 172.04C507.994 170.248 507.482 168.52 506.458 166.856C505.498 165.192 504.186 163.688 502.522 162.344C500.858 161 498.97 159.624 496.858 158.216C494.746 156.744 492.57 155.368 490.33 154.088C488.154 152.808 486.01 151.368 483.898 149.768C481.786 148.104 479.898 146.472 478.234 144.872C476.634 143.208 475.322 141.288 474.298 139.112C473.274 136.872 472.762 134.568 472.762 132.2C472.762 128.744 473.818 125.832 475.93 123.464C478.106 121.032 480.698 119.304 483.706 118.28C486.714 117.256 489.946 116.744 493.402 116.744C494.298 116.744 495.13 116.776 495.898 116.84C496.73 116.904 497.466 117 498.106 117.128C498.746 117.256 499.386 117.416 500.026 117.608C500.666 117.8 501.178 117.96 501.562 118.088C501.946 118.216 502.362 118.408 502.81 118.664C503.322 118.856 503.674 119.016 503.866 119.144C504.122 119.272 504.41 119.464 504.73 119.72C505.114 119.912 505.338 120.008 505.402 120.008C507.13 121.096 507.994 120.36 507.994 117.8H510.778V134.6C509.818 130.504 507.898 126.984 505.018 124.04C502.138 121.032 498.49 119.528 494.074 119.528C490.618 119.528 487.546 120.424 484.858 122.216C482.234 124.008 480.922 126.632 480.922 130.088ZM536.765 120.584C535.933 120.584 535.261 120.936 534.749 121.64C534.301 122.344 534.045 123.048 533.981 123.752V124.808V177.992C533.981 178.12 533.981 178.28 533.981 178.472C533.981 178.664 534.013 179.016 534.077 179.528C534.205 179.976 534.365 180.392 534.557 180.776C534.749 181.096 535.037 181.416 535.421 181.736C535.805 182.056 536.253 182.216 536.765 182.216V185H522.749V182.216C523.581 182.216 524.221 181.864 524.669 181.16C525.181 180.456 525.437 179.752 525.437 179.048L525.533 177.992V124.808C525.533 124.68 525.533 124.52 525.533 124.328C525.533 124.136 525.469 123.816 525.341 123.368C525.277 122.856 525.149 122.44 524.957 122.12C524.765 121.736 524.477 121.384 524.093 121.064C523.709 120.744 523.261 120.584 522.749 120.584V117.8H536.765V120.584ZM577.808 151.4H591.824V154.184C590.992 154.184 590.32 154.536 589.808 155.24C589.36 155.944 589.104 156.648 589.04 157.352V158.408V176.552C583.216 182.888 576.656 186.056 569.36 186.056C564.368 186.056 559.952 184.552 556.112 181.544C552.272 178.472 549.328 174.312 547.28 169.064C545.232 163.816 544.208 157.928 544.208 151.4C544.208 144.872 545.232 138.984 547.28 133.736C549.328 128.488 552.272 124.36 556.112 121.352C559.952 118.28 564.368 116.744 569.36 116.744C573.264 116.68 576.88 117.672 580.208 119.72C580.4 119.848 580.56 119.944 580.688 120.008C582.48 121.032 583.376 120.296 583.376 117.8H586.16V134.6C585.264 130.504 583.312 126.984 580.304 124.04C577.36 121.032 573.744 119.528 569.456 119.528C566.064 119.528 563.184 121 560.816 123.944C558.448 126.824 556.72 130.632 555.632 135.368C554.544 140.04 554 145.384 554 151.4C554 157.416 554.576 162.792 555.728 167.528C556.88 172.2 558.672 176.008 561.104 178.952C563.6 181.832 566.608 183.272 570.128 183.272C573.968 183.208 577.456 182.088 580.592 179.912V158.408C580.592 158.344 580.592 158.28 580.592 158.216C580.592 158.088 580.56 157.896 580.496 157.64C580.496 157.32 580.464 157.032 580.4 156.776C580.336 156.52 580.24 156.232 580.112 155.912C579.984 155.528 579.824 155.24 579.632 155.048C579.44 154.792 579.184 154.6 578.864 154.472C578.544 154.28 578.192 154.184 577.808 154.184V151.4ZM635.07 117.8H643.518V120.584C642.686 120.584 642.014 120.936 641.502 121.64C641.054 122.344 640.798 123.048 640.734 123.752L640.638 124.808V185H637.854L604.254 127.4V177.992C604.254 178.12 604.254 178.28 604.254 178.472C604.318 178.664 604.382 179.016 604.446 179.528C604.574 179.976 604.702 180.392 604.83 180.776C605.022 181.096 605.31 181.416 605.694 181.736C606.078 182.056 606.526 182.216 607.038 182.216V185H598.686V182.216C599.518 182.216 600.158 181.864 600.606 181.16C601.118 180.456 601.374 179.752 601.374 179.048L601.47 177.992V124.808C601.47 124.68 601.47 124.52 601.47 124.328C601.47 124.136 601.406 123.816 601.278 123.368C601.214 122.856 601.086 122.44 600.894 122.12C600.702 121.736 600.414 121.384 600.03 121.064C599.646 120.744 599.198 120.584 598.686 120.584V117.8H607.038L637.854 170.6V124.808C637.854 124.744 637.854 124.68 637.854 124.616C637.854 124.488 637.822 124.296 637.758 124.04C637.758 123.72 637.726 123.432 637.662 123.176C637.598 122.92 637.502 122.632 637.374 122.312C637.246 121.928 637.086 121.64 636.894 121.448C636.702 121.192 636.446 121 636.126 120.872C635.806 120.68 635.454 120.584 635.07 120.584V117.8ZM651.186 117.8H690.354V124.808H687.57C687.57 123.592 687.026 122.632 685.938 121.928C684.914 121.224 683.89 120.808 682.866 120.68L681.33 120.584H662.418V149.96H675.666C675.858 149.96 676.082 149.96 676.338 149.96C676.658 149.96 677.17 149.896 677.874 149.768C678.578 149.576 679.218 149.352 679.794 149.096C680.37 148.84 680.882 148.424 681.33 147.848C681.778 147.272 682.002 146.6 682.002 145.832H684.786V156.968H682.002C682.002 155.752 681.458 154.792 680.37 154.088C679.346 153.384 678.322 153 677.298 152.936L675.666 152.84H662.418V182.216H681.33C681.458 182.216 681.65 182.216 681.906 182.216C682.226 182.152 682.738 182.056 683.442 181.928C684.21 181.8 684.85 181.608 685.362 181.352C685.938 181.032 686.45 180.584 686.898 180.008C687.346 179.432 687.57 178.76 687.57 177.992H690.354V185H651.186V182.216C652.018 182.216 652.658 181.864 653.106 181.16C653.618 180.456 653.874 179.752 653.874 179.048L653.97 177.992V124.808C653.97 124.68 653.97 124.52 653.97 124.328C653.97 124.136 653.906 123.816 653.778 123.368C653.714 122.856 653.586 122.44 653.394 122.12C653.202 121.736 652.914 121.384 652.53 121.064C652.146 120.744 651.698 120.584 651.186 120.584V117.8ZM738.12 178.28C738.44 178.792 738.824 179.304 739.272 179.816C739.72 180.264 740.424 180.776 741.384 181.352C742.408 181.928 743.464 182.216 744.552 182.216V185H729.096V182.216C730.824 182.216 730.984 180.872 729.576 178.184L729.48 177.992L718.056 156.968H708.168V177.992C708.168 178.12 708.168 178.28 708.168 178.472C708.168 178.664 708.2 179.016 708.264 179.528C708.392 179.976 708.552 180.392 708.744 180.776C708.936 181.096 709.224 181.416 709.608 181.736C709.992 182.056 710.44 182.216 710.952 182.216V185H696.936V182.216C697.768 182.216 698.408 181.864 698.856 181.16C699.368 180.456 699.624 179.752 699.624 179.048L699.72 177.992V124.808C699.72 124.68 699.72 124.52 699.72 124.328C699.72 124.136 699.656 123.816 699.528 123.368C699.464 122.856 699.336 122.44 699.144 122.12C698.952 121.736 698.664 121.384 698.28 121.064C697.896 120.744 697.448 120.584 696.936 120.584V117.8H717.96C725.512 117.8 731.592 119.656 736.2 123.368C740.808 127.08 743.112 131.752 743.112 137.384C743.112 141.928 741.576 145.896 738.504 149.288C735.496 152.68 731.336 154.952 726.024 156.104L738.12 178.28ZM708.168 120.584V154.184H717.96C721.16 154.184 723.912 153.48 726.216 152.072C728.584 150.664 730.344 148.712 731.496 146.216C732.712 143.656 733.32 140.712 733.32 137.384C733.32 134.888 732.968 132.616 732.264 130.568C731.624 128.52 730.632 126.76 729.288 125.288C728.008 123.816 726.408 122.664 724.488 121.832C722.568 121 720.392 120.584 717.96 120.584H708.168Z" fill="#EDEDED"/>
</svg>
