<svg width="418" height="103" viewBox="0 0 418 103" fill="none" xmlns="http://www.w3.org/2000/svg">
<path d="M32.3508 1.4H36.9108V2.792C36.4308 2.792 35.9828 2.968 35.5668 3.32C35.1828 3.672 34.9108 4.008 34.7508 4.328C34.6228 4.616 34.5108 4.92 34.4148 5.24L25.7268 35H24.3348L18.7188 15.8L13.1028 35H11.7108L3.07081 5.24C2.94281 4.92 2.79881 4.616 2.63881 4.328C2.51081 4.008 2.23881 3.672 1.82281 3.32C1.43881 2.968 1.00681 2.792 0.526813 2.792V1.4H7.87081V2.792C7.16681 2.792 6.92681 3.48 7.15081 4.856L13.8228 27.8L18.0468 13.4L15.6468 5.24C15.5508 4.92 15.4228 4.616 15.2628 4.328C15.1028 4.008 14.8308 3.672 14.4468 3.32C14.0628 2.968 13.6148 2.792 13.1028 2.792V1.4H20.4948V2.792C19.7588 2.792 19.5028 3.48 19.7268 4.856L26.4468 27.8L33.1188 4.856C33.3428 3.48 33.0868 2.792 32.3508 2.792V1.4ZM68.1326 10.664C71.1086 10.664 73.5886 11.912 75.5726 14.408C77.5566 16.872 78.5486 19.784 78.5486 23.144C78.5486 26.472 77.5406 29.368 75.5246 31.832C73.5406 34.296 71.0446 35.528 68.0366 35.528C65.5726 35.528 63.7006 34.28 62.4206 31.784V32.36C62.4206 32.552 62.3726 32.776 62.2766 33.032C62.2126 33.256 62.0526 33.544 61.7966 33.896C61.5406 34.216 61.1086 34.488 60.5006 34.712C59.8926 34.904 59.1406 35 58.2446 35H56.8526V33.608C57.2686 33.608 57.5886 33.432 57.8126 33.08C58.0366 32.728 58.1646 32.376 58.1966 32.024L58.2446 31.496V25.352C60.7726 20.68 62.1646 18.12 62.4206 17.672V23.096C62.4206 26.328 62.9166 28.984 63.9086 31.064C64.9326 33.112 66.3086 34.136 68.0366 34.136C69.1886 34.136 70.1966 33.64 71.0606 32.648C71.9246 31.624 72.5646 30.296 72.9806 28.664C73.4286 27 73.6526 25.144 73.6526 23.096C73.6526 19.928 73.1566 17.304 72.1646 15.224C71.1726 13.112 69.7806 12.056 67.9886 12.056C65.6526 12.056 63.7966 13.288 62.4206 15.752C62.1646 16.232 61.8446 16.808 61.4606 17.48C60.8846 18.536 60.1006 19.976 59.1086 21.8C58.1166 23.624 57.2846 25.16 56.6126 26.408C55.9406 27.624 55.5246 28.36 55.3646 28.616C54.7246 29.704 54.1166 30.632 53.5406 31.4C52.9646 32.136 52.2926 32.84 51.5246 33.512C50.7566 34.184 49.8766 34.68 48.8846 35C47.9246 35.352 46.8366 35.528 45.6206 35.528C43.8926 35.528 42.3406 35.192 40.9646 34.52C39.5886 33.816 38.4846 32.888 37.6526 31.736C36.8206 30.552 36.1966 29.24 35.7806 27.8C35.3646 26.328 35.1566 24.76 35.1566 23.096C35.1566 19.736 36.1166 16.824 38.0366 14.36C39.9886 11.896 42.4686 10.664 45.4766 10.664C48.0686 10.664 50.1806 11.672 51.8126 13.688C53.4766 15.672 54.4366 18.2 54.6926 21.272C54.4366 21.336 54.1006 21.416 53.6846 21.512C53.2686 21.608 52.4366 21.864 51.1886 22.28C49.9726 22.664 48.8046 23.096 47.6846 23.576C46.5646 24.056 45.3326 24.696 43.9886 25.496C42.6446 26.296 41.4926 27.128 40.5326 27.992C40.9806 29.88 41.6686 31.384 42.5966 32.504C43.5246 33.592 44.6286 34.136 45.9086 34.136C47.6366 34.136 49.0926 33.64 50.2766 32.648C51.4606 31.624 52.7246 30.024 54.0686 27.848C54.4526 27.208 55.2366 25.736 56.4206 23.432C57.1886 21.992 57.7966 20.84 58.2446 19.976V7.688C58.2446 7.656 58.2446 7.624 58.2446 7.592C58.2446 7.528 58.2286 7.432 58.1966 7.304C58.1966 7.144 58.1806 7 58.1486 6.872C58.1166 6.744 58.0526 6.6 57.9566 6.44C57.8926 6.28 57.8126 6.136 57.7166 6.008C57.6206 5.88 57.4926 5.784 57.3326 5.72C57.2046 5.624 57.0446 5.576 56.8526 5.576V4.184L61.0286 1.4H62.4206V13.448C63.0926 12.552 63.9246 11.864 64.9166 11.384C65.9406 10.872 67.0126 10.632 68.1326 10.664ZM40.0526 23.816C40.0846 24.648 40.1486 25.48 40.2446 26.312C43.1566 24.072 46.3726 22.36 49.8926 21.176C49.8286 18.52 49.4286 16.344 48.6926 14.648C47.9566 12.92 46.8846 12.056 45.4766 12.056C43.8126 12.056 42.5006 13.032 41.5406 14.984C40.6126 16.904 40.1166 19.384 40.0526 22.424V23.816ZM95.6681 15.416C98.0361 16.152 99.8921 17.384 101.236 19.112C102.58 20.808 103.252 22.792 103.252 25.064C103.252 28.072 102.1 30.568 99.7961 32.552C97.4921 34.504 94.4521 35.48 90.6761 35.48C88.5641 35.512 86.5321 35.112 84.5801 34.28C84.5161 34.248 84.4361 34.216 84.3401 34.184C84.1801 34.12 84.0201 34.152 83.8601 34.28C83.7321 34.376 83.6681 34.616 83.6681 35H82.2761V30.104C83.7161 32.792 86.5161 34.136 90.6761 34.136C93.2041 34.136 95.1081 33.32 96.3881 31.688C97.7001 30.024 98.3561 27.816 98.3561 25.064C98.3561 22.44 97.7001 20.312 96.3881 18.68C95.0761 17.048 93.2361 16.184 90.8681 16.088C90.2601 16.088 89.9561 15.864 89.9561 15.416C89.9561 15.224 90.0201 15.064 90.1481 14.936C90.3081 14.776 90.4841 14.696 90.6761 14.696C92.7881 14.696 94.4361 14.152 95.6201 13.064C96.8361 11.976 97.4441 10.488 97.4441 8.6C97.4441 6.616 96.8681 5.064 95.7161 3.944C94.5641 2.824 92.8361 2.264 90.5321 2.264C87.6521 2.264 85.3641 3.144 83.6681 4.904V1.4H84.9641C84.9641 1.624 85.0121 1.768 85.1081 1.832C85.2041 1.896 85.3161 1.928 85.4441 1.928C87.0761 1.16 88.7721 0.807998 90.5321 0.871999C92.8041 0.871999 94.8041 1.224 96.5321 1.928C98.2601 2.6 99.5721 3.528 100.468 4.712C101.396 5.864 101.86 7.16 101.86 8.6C101.86 10.136 101.316 11.512 100.228 12.728C99.1401 13.944 97.6201 14.84 95.6681 15.416ZM125.531 7.544C125.531 8.536 125.851 9.496 126.491 10.424C127.131 11.352 127.963 12.216 128.987 13.016C130.043 13.784 131.195 14.568 132.443 15.368C133.691 16.168 134.939 17 136.187 17.864C137.467 18.696 138.619 19.576 139.643 20.504C140.699 21.432 141.547 22.504 142.187 23.72C142.827 24.904 143.147 26.152 143.147 27.464C143.147 29.16 142.587 30.632 141.467 31.88C140.379 33.128 139.003 34.056 137.339 34.664C135.675 35.24 133.883 35.528 131.963 35.528C129.563 35.528 127.403 34.984 125.483 33.896C124.619 33.352 124.187 33.72 124.187 35H122.795V26.6C123.243 28.584 124.299 30.344 125.963 31.88C127.627 33.384 129.627 34.136 131.963 34.136C133.691 34.136 135.307 33.624 136.811 32.6C138.315 31.576 139.067 30.216 139.067 28.52C139.067 27.624 138.811 26.76 138.299 25.928C137.819 25.096 137.163 24.344 136.331 23.672C135.499 23 134.555 22.312 133.499 21.608C132.443 20.872 131.355 20.184 130.235 19.544C129.147 18.904 128.075 18.184 127.019 17.384C125.963 16.552 125.019 15.736 124.187 14.936C123.387 14.104 122.731 13.144 122.219 12.056C121.707 10.936 121.451 9.784 121.451 8.6C121.451 6.872 121.979 5.416 123.035 4.232C124.123 3.016 125.419 2.152 126.923 1.64C128.427 1.128 130.043 0.871999 131.771 0.871999C132.219 0.871999 132.635 0.887999 133.019 0.919998C133.435 0.951998 133.803 0.999998 134.123 1.064C134.443 1.128 134.763 1.208 135.083 1.304C135.403 1.4 135.659 1.48 135.851 1.544C136.043 1.608 136.251 1.704 136.475 1.832C136.731 1.928 136.907 2.008 137.003 2.072C137.131 2.136 137.275 2.232 137.435 2.36C137.627 2.456 137.739 2.504 137.771 2.504C138.635 3.048 139.067 2.68 139.067 1.4H140.459V9.8C139.979 7.752 139.019 5.992 137.579 4.52C136.139 3.016 134.315 2.264 132.107 2.264C130.379 2.264 128.843 2.712 127.499 3.608C126.187 4.504 125.531 5.816 125.531 7.544ZM151.725 12.584V31.496C151.725 31.56 151.725 31.64 151.725 31.736C151.725 31.832 151.741 32.008 151.773 32.264C151.837 32.488 151.917 32.696 152.013 32.888C152.109 33.048 152.253 33.208 152.445 33.368C152.637 33.528 152.861 33.608 153.117 33.608V35H151.725C150.989 35 150.349 34.92 149.805 34.76C149.261 34.6 148.845 34.424 148.557 34.232C148.269 34.04 148.045 33.816 147.885 33.56C147.725 33.272 147.613 33.048 147.549 32.888C147.517 32.696 147.501 32.52 147.501 32.36V14.696C147.501 14.632 147.501 14.552 147.501 14.456C147.501 14.36 147.469 14.2 147.405 13.976C147.373 13.72 147.309 13.512 147.213 13.352C147.117 13.16 146.973 12.984 146.781 12.824C146.589 12.664 146.365 12.584 146.109 12.584V11.192L150.285 6.296H151.725V11.192H153.117V12.584H151.725ZM175.86 31.496C175.86 31.56 175.86 31.64 175.86 31.736C175.892 31.832 175.924 32.008 175.956 32.264C176.02 32.488 176.084 32.696 176.148 32.888C176.244 33.048 176.388 33.208 176.58 33.368C176.772 33.528 176.996 33.608 177.252 33.608V35H175.86C173.524 35 172.148 34.296 171.732 32.888C170.484 34.648 168.548 35.528 165.924 35.528C162.98 35.528 160.628 34.808 158.868 33.368C157.14 31.896 156.276 29.96 156.276 27.56C156.276 24.936 157.124 22.952 158.82 21.608C160.516 20.264 162.884 19.592 165.924 19.592C168.484 19.592 170.404 20.44 171.684 22.136V19.592C171.684 17.672 171.508 16.152 171.156 15.032C170.804 13.88 170.324 13.096 169.716 12.68C169.14 12.264 168.388 12.056 167.46 12.056C166.308 12.056 165.348 12.488 164.58 13.352C163.812 14.184 163.38 15.16 163.284 16.28C163.22 16.824 162.836 17.208 162.132 17.432C161.46 17.656 160.772 17.608 160.068 17.288C159.396 16.968 159.06 16.456 159.06 15.752C159.06 14.248 159.796 13.032 161.268 12.104C162.74 11.144 164.692 10.664 167.124 10.664C169.972 10.664 172.132 11.368 173.604 12.776C175.108 14.152 175.86 16.424 175.86 19.592V31.496ZM170.244 32.312C171.204 31.064 171.684 29.48 171.684 27.56C171.684 25.64 171.204 24.072 170.244 22.856C169.316 21.608 168.036 20.984 166.404 20.984C164.804 20.984 163.524 21.608 162.564 22.856C161.636 24.104 161.172 25.672 161.172 27.56C161.172 29.448 161.636 31.016 162.564 32.264C163.524 33.512 164.804 34.136 166.404 34.136C168.036 34.136 169.316 33.528 170.244 32.312ZM192.708 10.664C193.828 10.664 194.932 10.84 196.02 11.192C197.14 11.544 198.116 12.12 198.948 12.92C199.78 13.72 200.196 14.664 200.196 15.752C200.196 16.456 199.86 16.968 199.188 17.288C198.516 17.576 197.828 17.624 197.124 17.432C196.452 17.208 196.084 16.824 196.02 16.28C195.892 15.16 195.428 14.248 194.628 13.544C193.86 12.808 192.804 12.44 191.46 12.44C190.5 12.44 189.636 12.6 188.868 12.92C188.132 13.208 187.588 13.576 187.236 14.024C186.884 14.472 186.628 14.872 186.468 15.224C186.308 15.576 186.228 15.864 186.228 16.088V31.496C186.228 31.56 186.228 31.64 186.228 31.736C186.228 31.832 186.244 32.008 186.276 32.264C186.34 32.488 186.42 32.696 186.516 32.888C186.612 33.048 186.756 33.208 186.948 33.368C187.14 33.528 187.364 33.608 187.62 33.608V35H180.612V33.608C181.028 33.608 181.348 33.432 181.572 33.08C181.828 32.728 181.956 32.376 181.956 32.024L182.004 31.496V17.48C182.004 17.448 182.004 17.384 182.004 17.288C182.004 17.192 181.972 17.032 181.908 16.808C181.876 16.552 181.812 16.328 181.716 16.136C181.62 15.944 181.476 15.784 181.284 15.656C181.092 15.496 180.868 15.416 180.612 15.416V14.024L184.788 11.192H186.228V13.256C187.508 11.528 189.668 10.664 192.708 10.664ZM208.209 12.584V31.496C208.209 31.56 208.209 31.64 208.209 31.736C208.209 31.832 208.225 32.008 208.257 32.264C208.321 32.488 208.401 32.696 208.497 32.888C208.593 33.048 208.737 33.208 208.929 33.368C209.121 33.528 209.345 33.608 209.601 33.608V35H208.209C207.473 35 206.833 34.92 206.289 34.76C205.745 34.6 205.329 34.424 205.041 34.232C204.753 34.04 204.529 33.816 204.369 33.56C204.209 33.272 204.097 33.048 204.033 32.888C204.001 32.696 203.985 32.52 203.985 32.36V14.696C203.985 14.632 203.985 14.552 203.985 14.456C203.985 14.36 203.953 14.2 203.889 13.976C203.857 13.72 203.793 13.512 203.697 13.352C203.601 13.16 203.457 12.984 203.265 12.824C203.073 12.664 202.849 12.584 202.593 12.584V11.192L206.769 6.296H208.209V11.192H209.601V12.584H208.209ZM232.536 31.496C232.536 31.56 232.536 31.64 232.536 31.736C232.568 31.832 232.6 32.008 232.632 32.264C232.696 32.488 232.76 32.696 232.824 32.888C232.92 33.048 233.064 33.208 233.256 33.368C233.448 33.528 233.688 33.608 233.976 33.608V35H232.536C230.168 35 228.792 34.28 228.408 32.84C227.128 34.632 224.952 35.528 221.88 35.528C220.76 35.528 219.64 35.352 218.52 35C217.4 34.68 216.424 34.12 215.592 33.32C214.76 32.488 214.344 31.528 214.344 30.44V17.48C214.344 17.448 214.344 17.384 214.344 17.288C214.344 17.192 214.312 17.032 214.248 16.808C214.216 16.552 214.152 16.328 214.056 16.136C213.96 15.944 213.816 15.784 213.624 15.656C213.432 15.496 213.208 15.416 212.952 15.416V14.024L217.128 11.192H218.568V30.104C218.568 30.808 218.76 31.448 219.144 32.024C219.528 32.568 220.072 33 220.776 33.32C221.48 33.608 222.248 33.752 223.08 33.752C224.072 33.752 224.936 33.608 225.672 33.32C226.408 33 226.952 32.632 227.304 32.216C227.656 31.768 227.912 31.368 228.072 31.016C228.264 30.632 228.36 30.328 228.36 30.104V17.48C228.36 17.48 228.36 17.448 228.36 17.384C228.36 17.32 228.344 17.224 228.312 17.096C228.312 16.936 228.296 16.792 228.264 16.664C228.232 16.536 228.168 16.392 228.072 16.232C228.008 16.072 227.928 15.944 227.832 15.848C227.736 15.72 227.608 15.624 227.448 15.56C227.32 15.464 227.16 15.416 226.968 15.416V14.024L231.144 11.192H232.536V31.496ZM248.512 10.664C251.552 10.664 254.064 11.912 256.048 14.408C258.032 16.872 259.024 19.784 259.024 23.144C259.024 26.472 258.032 29.368 256.048 31.832C254.064 34.296 251.552 35.528 248.512 35.528C246.08 35.528 244.224 34.28 242.944 31.784V41.288C242.944 41.32 242.944 41.352 242.944 41.384C242.944 41.448 242.944 41.544 242.944 41.672C242.976 41.832 243.008 41.976 243.04 42.104C243.072 42.264 243.12 42.424 243.184 42.584C243.248 42.744 243.328 42.872 243.424 42.968C243.52 43.096 243.648 43.192 243.808 43.256C243.968 43.352 244.144 43.4 244.336 43.4V44.792H237.328V43.4C237.744 43.4 238.064 43.224 238.288 42.872C238.544 42.52 238.672 42.168 238.672 41.816L238.72 41.288V17.48C238.72 17.448 238.72 17.384 238.72 17.288C238.72 17.192 238.688 17.032 238.624 16.808C238.592 16.552 238.528 16.328 238.432 16.136C238.336 15.944 238.192 15.784 238 15.656C237.808 15.496 237.584 15.416 237.328 15.416V14.024L241.504 11.192H242.944V14.408C244.224 11.912 246.08 10.664 248.512 10.664ZM248.512 34.136C250.24 34.136 251.6 33.096 252.592 31.016C253.616 28.904 254.128 26.264 254.128 23.096C254.128 19.928 253.616 17.304 252.592 15.224C251.6 13.112 250.24 12.056 248.512 12.056C246.784 12.056 245.424 13.096 244.432 15.176C243.44 17.224 242.944 19.864 242.944 23.096C242.944 26.328 243.44 28.984 244.432 31.064C245.424 33.112 246.784 34.136 248.512 34.136ZM306.663 1.4H311.223V2.792C310.743 2.792 310.295 2.968 309.879 3.32C309.495 3.672 309.223 4.008 309.063 4.328C308.935 4.616 308.823 4.92 308.727 5.24L300.039 35H298.647L293.031 15.8L287.415 35H286.023L277.383 5.24C277.255 4.92 277.111 4.616 276.951 4.328C276.823 4.008 276.551 3.672 276.135 3.32C275.751 2.968 275.319 2.792 274.839 2.792V1.4H282.183V2.792C281.479 2.792 281.239 3.48 281.463 4.856L288.135 27.8L292.359 13.4L289.959 5.24C289.863 4.92 289.735 4.616 289.575 4.328C289.415 4.008 289.143 3.672 288.759 3.32C288.375 2.968 287.927 2.792 287.415 2.792V1.4H294.807V2.792C294.071 2.792 293.815 3.48 294.039 4.856L300.759 27.8L307.431 4.856C307.655 3.48 307.399 2.792 306.663 2.792V1.4ZM342.445 10.664C345.421 10.664 347.901 11.912 349.885 14.408C351.869 16.872 352.861 19.784 352.861 23.144C352.861 26.472 351.853 29.368 349.837 31.832C347.853 34.296 345.357 35.528 342.349 35.528C339.885 35.528 338.013 34.28 336.733 31.784V32.36C336.733 32.552 336.685 32.776 336.589 33.032C336.525 33.256 336.365 33.544 336.109 33.896C335.853 34.216 335.421 34.488 334.813 34.712C334.205 34.904 333.453 35 332.557 35H331.165V33.608C331.581 33.608 331.901 33.432 332.125 33.08C332.349 32.728 332.477 32.376 332.509 32.024L332.557 31.496V25.352C335.085 20.68 336.477 18.12 336.733 17.672V23.096C336.733 26.328 337.229 28.984 338.221 31.064C339.245 33.112 340.621 34.136 342.349 34.136C343.501 34.136 344.509 33.64 345.373 32.648C346.237 31.624 346.877 30.296 347.293 28.664C347.741 27 347.965 25.144 347.965 23.096C347.965 19.928 347.469 17.304 346.477 15.224C345.485 13.112 344.093 12.056 342.301 12.056C339.965 12.056 338.109 13.288 336.733 15.752C336.477 16.232 336.157 16.808 335.773 17.48C335.197 18.536 334.413 19.976 333.421 21.8C332.429 23.624 331.597 25.16 330.925 26.408C330.253 27.624 329.837 28.36 329.677 28.616C329.037 29.704 328.429 30.632 327.853 31.4C327.277 32.136 326.605 32.84 325.837 33.512C325.069 34.184 324.189 34.68 323.197 35C322.237 35.352 321.149 35.528 319.933 35.528C318.205 35.528 316.653 35.192 315.277 34.52C313.901 33.816 312.797 32.888 311.965 31.736C311.133 30.552 310.509 29.24 310.093 27.8C309.677 26.328 309.469 24.76 309.469 23.096C309.469 19.736 310.429 16.824 312.349 14.36C314.301 11.896 316.781 10.664 319.789 10.664C322.381 10.664 324.493 11.672 326.125 13.688C327.789 15.672 328.749 18.2 329.005 21.272C328.749 21.336 328.413 21.416 327.997 21.512C327.581 21.608 326.749 21.864 325.501 22.28C324.285 22.664 323.117 23.096 321.997 23.576C320.877 24.056 319.645 24.696 318.301 25.496C316.957 26.296 315.805 27.128 314.845 27.992C315.293 29.88 315.981 31.384 316.909 32.504C317.837 33.592 318.941 34.136 320.221 34.136C321.949 34.136 323.405 33.64 324.589 32.648C325.773 31.624 327.037 30.024 328.381 27.848C328.765 27.208 329.549 25.736 330.733 23.432C331.501 21.992 332.109 20.84 332.557 19.976V7.688C332.557 7.656 332.557 7.624 332.557 7.592C332.557 7.528 332.541 7.432 332.509 7.304C332.509 7.144 332.493 7 332.461 6.872C332.429 6.744 332.365 6.6 332.269 6.44C332.205 6.28 332.125 6.136 332.029 6.008C331.933 5.88 331.805 5.784 331.645 5.72C331.517 5.624 331.357 5.576 331.165 5.576V4.184L335.341 1.4H336.733V13.448C337.405 12.552 338.237 11.864 339.229 11.384C340.253 10.872 341.325 10.632 342.445 10.664ZM314.365 23.816C314.397 24.648 314.461 25.48 314.557 26.312C317.469 24.072 320.685 22.36 324.205 21.176C324.141 18.52 323.741 16.344 323.005 14.648C322.269 12.92 321.197 12.056 319.789 12.056C318.125 12.056 316.813 13.032 315.853 14.984C314.925 16.904 314.429 19.384 314.365 22.424V23.816ZM360.429 15.416C360.429 16.184 360.909 17 361.869 17.864C362.829 18.696 363.997 19.528 365.373 20.36C366.749 21.192 368.125 22.056 369.501 22.952C370.877 23.848 372.045 24.888 373.005 26.072C373.965 27.224 374.445 28.392 374.445 29.576C374.445 30.632 374.157 31.56 373.581 32.36C373.037 33.128 372.285 33.736 371.325 34.184C370.397 34.632 369.405 34.968 368.349 35.192C367.325 35.416 366.269 35.528 365.181 35.528C363.229 35.56 361.421 35.096 359.757 34.136C359.725 34.104 359.693 34.088 359.661 34.088C359.661 34.056 359.645 34.04 359.613 34.04C359.453 33.944 359.293 33.88 359.133 33.848C358.973 33.816 358.797 33.88 358.605 34.04C358.445 34.2 358.365 34.52 358.365 35H356.973V27.992C357.485 29.72 358.525 31.176 360.093 32.36C361.693 33.544 363.325 34.136 364.989 34.136C366.493 34.136 367.757 33.864 368.781 33.32C369.805 32.776 370.317 31.944 370.317 30.824C370.317 30.024 369.821 29.16 368.829 28.232C367.869 27.304 366.701 26.408 365.325 25.544C363.949 24.68 362.573 23.784 361.197 22.856C359.821 21.928 358.653 20.904 357.693 19.784C356.733 18.664 356.253 17.56 356.253 16.472C356.253 15.384 356.493 14.456 356.973 13.688C357.453 12.888 358.109 12.28 358.941 11.864C359.773 11.448 360.653 11.144 361.581 10.952C362.541 10.76 363.565 10.664 364.653 10.664C366.445 10.664 368.093 11.128 369.597 12.056L369.693 12.152C370.557 12.632 370.989 12.312 370.989 11.192H372.381V18.2C371.869 16.44 370.893 14.984 369.453 13.832C368.013 12.648 366.477 12.056 364.845 12.056C363.597 12.056 362.541 12.312 361.677 12.824C360.845 13.336 360.429 14.2 360.429 15.416ZM382.822 31.496C382.822 31.56 382.822 31.64 382.822 31.736C382.854 31.832 382.886 32.008 382.918 32.264C382.982 32.488 383.046 32.696 383.11 32.888C383.206 33.048 383.35 33.208 383.542 33.368C383.734 33.528 383.958 33.608 384.214 33.608V35H377.254V33.608C377.67 33.608 377.99 33.432 378.214 33.08C378.438 32.728 378.566 32.376 378.598 32.024L378.646 31.496V17.48C378.646 17.448 378.63 17.384 378.598 17.288C378.598 17.192 378.566 17.032 378.502 16.808C378.47 16.552 378.406 16.328 378.31 16.136C378.246 15.944 378.118 15.784 377.926 15.656C377.734 15.496 377.51 15.416 377.254 15.416V14.024L381.43 11.192H382.822V31.496ZM383.014 6.824C383.014 7.656 382.726 8.36 382.15 8.936C381.574 9.512 380.87 9.8 380.038 9.8C379.206 9.8 378.502 9.512 377.926 8.936C377.35 8.36 377.062 7.656 377.062 6.824C377.062 5.992 377.35 5.288 377.926 4.712C378.502 4.136 379.206 3.848 380.038 3.848C380.87 3.848 381.574 4.136 382.15 4.712C382.726 5.288 383.014 5.992 383.014 6.824ZM392.943 12.584V31.496C392.943 31.56 392.943 31.64 392.943 31.736C392.943 31.832 392.959 32.008 392.991 32.264C393.055 32.488 393.135 32.696 393.231 32.888C393.327 33.048 393.471 33.208 393.663 33.368C393.855 33.528 394.079 33.608 394.335 33.608V35H392.943C392.207 35 391.567 34.92 391.023 34.76C390.479 34.6 390.063 34.424 389.775 34.232C389.487 34.04 389.263 33.816 389.103 33.56C388.943 33.272 388.831 33.048 388.767 32.888C388.735 32.696 388.719 32.52 388.719 32.36V14.696C388.719 14.632 388.719 14.552 388.719 14.456C388.719 14.36 388.687 14.2 388.623 13.976C388.591 13.72 388.527 13.512 388.431 13.352C388.335 13.16 388.191 12.984 387.999 12.824C387.807 12.664 387.583 12.584 387.327 12.584V11.192L391.503 6.296H392.943V11.192H394.335V12.584H392.943ZM408.583 34.136C411.207 34.136 413.415 32.728 415.207 29.912L416.503 30.776C414.423 33.944 411.655 35.528 408.199 35.528C406.119 35.528 404.263 34.936 402.631 33.752C401.031 32.568 399.815 31.048 398.983 29.192C398.151 27.304 397.735 25.272 397.735 23.096C397.735 19.736 398.695 16.824 400.615 14.36C402.567 11.896 405.047 10.664 408.055 10.664C410.647 10.664 412.759 11.672 414.391 13.688C416.055 15.672 417.015 18.2 417.271 21.272C417.015 21.336 416.679 21.416 416.263 21.512C415.847 21.608 415.031 21.864 413.815 22.28C412.599 22.664 411.431 23.096 410.311 23.576C409.223 24.024 408.007 24.648 406.663 25.448C405.319 26.216 404.183 27.032 403.255 27.896C403.191 27.96 403.143 27.992 403.111 27.992C403.527 29.88 404.199 31.384 405.127 32.504C406.055 33.592 407.207 34.136 408.583 34.136ZM402.631 22.424C402.631 23.704 402.695 25 402.823 26.312C405.735 24.072 408.951 22.376 412.471 21.224C412.407 18.536 412.007 16.344 411.271 14.648C410.535 12.92 409.463 12.056 408.055 12.056C406.423 12.056 405.127 13.032 404.167 14.984C403.207 16.904 402.695 19.384 402.631 22.424ZM164.567 59.4C168.343 59.4 171.383 60.984 173.687 64.152C175.991 67.32 177.143 71.336 177.143 76.2C177.143 81.064 175.991 85.08 173.687 88.248C171.383 91.416 168.343 93 164.567 93H153.335V91.608C153.751 91.608 154.071 91.432 154.295 91.08C154.551 90.728 154.679 90.376 154.679 90.024L154.727 89.496V62.904C154.727 62.84 154.727 62.76 154.727 62.664C154.727 62.568 154.695 62.408 154.631 62.184C154.599 61.928 154.535 61.72 154.439 61.56C154.343 61.368 154.199 61.192 154.007 61.032C153.815 60.872 153.591 60.792 153.335 60.792V59.4H164.567ZM164.567 91.608C166.135 91.608 167.511 90.92 168.695 89.544C169.879 88.136 170.759 86.28 171.335 83.976C171.943 81.672 172.247 79.08 172.247 76.2C172.247 73.32 171.943 70.728 171.335 68.424C170.759 66.12 169.879 64.28 168.695 62.904C167.511 61.496 166.135 60.792 164.567 60.792H158.951V91.608H164.567ZM191.458 92.136C194.082 92.136 196.29 90.728 198.082 87.912L199.378 88.776C197.298 91.944 194.53 93.528 191.074 93.528C188.994 93.528 187.138 92.936 185.506 91.752C183.906 90.568 182.69 89.048 181.858 87.192C181.026 85.304 180.61 83.272 180.61 81.096C180.61 77.736 181.57 74.824 183.49 72.36C185.442 69.896 187.922 68.664 190.93 68.664C193.522 68.664 195.634 69.672 197.266 71.688C198.93 73.672 199.89 76.2 200.146 79.272C199.89 79.336 199.554 79.416 199.138 79.512C198.722 79.608 197.906 79.864 196.69 80.28C195.474 80.664 194.306 81.096 193.186 81.576C192.098 82.024 190.882 82.648 189.538 83.448C188.194 84.216 187.058 85.032 186.13 85.896C186.066 85.96 186.018 85.992 185.986 85.992C186.402 87.88 187.074 89.384 188.002 90.504C188.93 91.592 190.082 92.136 191.458 92.136ZM185.506 80.424C185.506 81.704 185.57 83 185.698 84.312C188.61 82.072 191.826 80.376 195.346 79.224C195.282 76.536 194.882 74.344 194.146 72.648C193.41 70.92 192.338 70.056 190.93 70.056C189.298 70.056 188.002 71.032 187.042 72.984C186.082 74.904 185.57 77.384 185.506 80.424ZM207.475 73.416C207.475 74.184 207.955 75 208.915 75.864C209.875 76.696 211.043 77.528 212.419 78.36C213.795 79.192 215.171 80.056 216.547 80.952C217.923 81.848 219.091 82.888 220.051 84.072C221.011 85.224 221.491 86.392 221.491 87.576C221.491 88.632 221.203 89.56 220.627 90.36C220.083 91.128 219.331 91.736 218.371 92.184C217.443 92.632 216.451 92.968 215.395 93.192C214.371 93.416 213.315 93.528 212.227 93.528C210.275 93.56 208.467 93.096 206.803 92.136C206.771 92.104 206.739 92.088 206.707 92.088C206.707 92.056 206.691 92.04 206.659 92.04C206.499 91.944 206.339 91.88 206.179 91.848C206.019 91.816 205.843 91.88 205.651 92.04C205.491 92.2 205.411 92.52 205.411 93H204.019V85.992C204.531 87.72 205.571 89.176 207.139 90.36C208.739 91.544 210.371 92.136 212.035 92.136C213.539 92.136 214.803 91.864 215.827 91.32C216.851 90.776 217.363 89.944 217.363 88.824C217.363 88.024 216.867 87.16 215.875 86.232C214.915 85.304 213.747 84.408 212.371 83.544C210.995 82.68 209.619 81.784 208.243 80.856C206.867 79.928 205.699 78.904 204.739 77.784C203.779 76.664 203.299 75.56 203.299 74.472C203.299 73.384 203.539 72.456 204.019 71.688C204.499 70.888 205.155 70.28 205.987 69.864C206.819 69.448 207.699 69.144 208.627 68.952C209.587 68.76 210.611 68.664 211.699 68.664C213.491 68.664 215.139 69.128 216.643 70.056L216.739 70.152C217.603 70.632 218.035 70.312 218.035 69.192H219.427V76.2C218.915 74.44 217.939 72.984 216.499 71.832C215.059 70.648 213.523 70.056 211.891 70.056C210.643 70.056 209.587 70.312 208.723 70.824C207.891 71.336 207.475 72.2 207.475 73.416ZM229.869 89.496C229.869 89.56 229.869 89.64 229.869 89.736C229.901 89.832 229.933 90.008 229.965 90.264C230.029 90.488 230.093 90.696 230.157 90.888C230.253 91.048 230.397 91.208 230.589 91.368C230.781 91.528 231.005 91.608 231.261 91.608V93H224.301V91.608C224.717 91.608 225.037 91.432 225.261 91.08C225.485 90.728 225.613 90.376 225.645 90.024L225.693 89.496V75.48C225.693 75.448 225.677 75.384 225.645 75.288C225.645 75.192 225.613 75.032 225.549 74.808C225.517 74.552 225.453 74.328 225.357 74.136C225.293 73.944 225.165 73.784 224.973 73.656C224.781 73.496 224.557 73.416 224.301 73.416V72.024L228.477 69.192H229.869V89.496ZM230.061 64.824C230.061 65.656 229.773 66.36 229.197 66.936C228.621 67.512 227.917 67.8 227.085 67.8C226.253 67.8 225.549 67.512 224.973 66.936C224.397 66.36 224.109 65.656 224.109 64.824C224.109 63.992 224.397 63.288 224.973 62.712C225.549 62.136 226.253 61.848 227.085 61.848C227.917 61.848 228.621 62.136 229.197 62.712C229.773 63.288 230.061 63.992 230.061 64.824ZM253.665 72.024C253.601 71.32 253.329 70.712 252.849 70.2C252.401 69.688 251.841 69.464 251.169 69.528C250.625 69.528 250.145 69.688 249.729 70.008C251.169 70.936 252.305 72.2 253.137 73.8C253.969 75.4 254.385 77.112 254.385 78.936C254.385 81.656 253.489 84.04 251.697 86.088C249.905 88.136 247.665 89.16 244.977 89.16C242.961 89.16 241.153 88.552 239.553 87.336C239.201 87.56 238.881 87.848 238.593 88.2C238.305 88.552 238.113 88.936 238.017 89.352C237.953 89.768 238.033 90.152 238.257 90.504C238.481 90.856 239.025 91.16 239.889 91.416C240.753 91.672 241.921 91.8 243.393 91.8C247.745 91.8 250.833 92.152 252.657 92.856C254.513 93.56 255.441 94.952 255.441 97.032C255.441 98.664 254.609 100.024 252.945 101.112C251.313 102.232 248.881 102.792 245.649 102.792C242.225 102.792 239.777 102.376 238.305 101.544C236.673 100.584 235.857 99.32 235.857 97.752C235.857 97.016 236.193 96.488 236.865 96.168C237.537 95.88 238.225 95.832 238.929 96.024C239.633 96.248 240.017 96.648 240.081 97.224C240.177 98.28 240.561 99.208 241.233 100.008C242.129 101.064 243.601 101.592 245.649 101.592C248.113 101.592 250.017 101.24 251.361 100.536C252.705 99.864 253.377 99.048 253.377 98.088C253.377 97.736 253.265 97.432 253.041 97.176C252.817 96.952 252.449 96.76 251.937 96.6C251.425 96.44 250.945 96.312 250.497 96.216C250.049 96.152 249.361 96.104 248.433 96.072C247.537 96.04 246.801 96.008 246.225 95.976C245.681 95.976 244.849 95.976 243.729 95.976C240.305 95.976 237.905 95.576 236.529 94.776C235.153 94.008 234.465 92.84 234.465 91.272C234.465 90.312 234.865 89.4 235.665 88.536C236.497 87.64 237.457 86.936 238.545 86.424C236.529 84.344 235.521 81.848 235.521 78.936C235.521 77.144 235.905 75.48 236.673 73.944C237.473 72.376 238.609 71.112 240.081 70.152C241.553 69.16 243.185 68.664 244.977 68.664C246.353 68.664 247.665 68.968 248.913 69.576C249.713 68.968 250.609 68.664 251.601 68.664C252.561 68.664 253.377 68.808 254.049 69.096C254.753 69.352 255.281 69.704 255.633 70.152C255.985 70.6 256.161 71.112 256.161 71.688C256.161 72.104 255.953 72.408 255.537 72.6C255.153 72.792 254.753 72.824 254.337 72.696C253.921 72.568 253.697 72.344 253.665 72.024ZM241.617 85.272C242.449 86.936 243.553 87.768 244.929 87.768C246.337 87.768 247.441 86.936 248.241 85.272C249.073 83.576 249.489 81.464 249.489 78.936C249.489 76.408 249.073 74.312 248.241 72.648C247.441 70.952 246.337 70.104 244.929 70.104C243.553 70.104 242.449 70.952 241.617 72.648C240.817 74.312 240.417 76.408 240.417 78.936C240.417 81.464 240.817 83.576 241.617 85.272ZM278.618 89.496C278.618 89.56 278.618 89.64 278.618 89.736C278.65 89.832 278.682 90.008 278.714 90.264C278.778 90.488 278.842 90.696 278.906 90.888C279.002 91.048 279.146 91.208 279.338 91.368C279.53 91.528 279.754 91.608 280.01 91.608V93H273.05V91.608C273.466 91.608 273.786 91.432 274.01 91.08C274.234 90.728 274.362 90.376 274.394 90.024L274.442 89.496V74.088C274.442 73.032 274.01 72.168 273.146 71.496C272.282 70.792 271.194 70.44 269.882 70.44C268.922 70.44 268.058 70.6 267.29 70.92C266.554 71.208 266.01 71.576 265.658 72.024C265.306 72.472 265.05 72.872 264.89 73.224C264.73 73.576 264.65 73.864 264.65 74.088V89.496C264.65 89.56 264.65 89.64 264.65 89.736C264.65 89.832 264.666 90.008 264.698 90.264C264.762 90.488 264.842 90.696 264.938 90.888C265.034 91.048 265.178 91.208 265.37 91.368C265.562 91.528 265.786 91.608 266.042 91.608V93H259.034V91.608C259.45 91.608 259.77 91.432 259.994 91.08C260.25 90.728 260.378 90.376 260.378 90.024L260.426 89.496V75.48C260.426 75.448 260.426 75.384 260.426 75.288C260.426 75.192 260.394 75.032 260.33 74.808C260.298 74.552 260.234 74.328 260.138 74.136C260.042 73.944 259.898 73.784 259.706 73.656C259.514 73.496 259.29 73.416 259.034 73.416V72.024L263.21 69.192H264.65V71.256C265.93 69.528 268.09 68.664 271.13 68.664C272.25 68.664 273.354 68.84 274.442 69.192C275.562 69.544 276.538 70.12 277.37 70.92C278.202 71.72 278.618 72.664 278.618 73.752V89.496Z" fill="#121212"/>
</svg>
